M48
;GenerationSoftware,Autodesk,EAGLE,9.6.2*%
;CreationDate,2023-06-15T15:38:13Z*%
FMAT,2
ICI,OFF
METRIC,TZ,000.000
T7C0.770
T6C0.780
T5C0.800
T4C0.813
T3C1.000
T2C1.200
T1C3.200
%
G90
M71
T1
X93218Y72390
X93218Y95250
T2
X109220Y93980
X104220Y93980
X114220Y93980
T3
X44450Y45720
X44450Y48260
X44450Y50800
X44450Y53340
X44450Y55880
X44450Y58420
X44450Y60960
X44450Y63500
X44450Y66040
X44450Y68580
X69850Y68580
X44450Y71120
X44450Y73660
X44450Y76200
X44450Y78740
X44450Y81280
X44450Y83820
X44450Y86360
X44450Y88900
X44450Y91440
X69850Y91440
X69850Y88900
X69850Y86360
X69850Y83820
X69850Y81280
X69850Y66040
X69850Y78740
X69850Y63500
X69850Y60960
X69850Y58420
X69850Y55880
X69850Y53340
X69850Y76200
X69850Y48260
X69850Y45720
X69850Y73660
X118110Y40640
X113110Y40640
X69850Y50800
X83740Y43180
X88820Y43180
X123190Y93980
X128190Y93980
X69850Y71120
X78740Y43180
T4
X128270Y53340
X135890Y53340
X140970Y53340
X148590Y53340
X140970Y48260
X148590Y48260
X140970Y43180
X148590Y43180
X140970Y39370
X153670Y53340
X161290Y53340
X173990Y53340
X166370Y53340
X148590Y39370
X143510Y82550
X173990Y80010
X166370Y80010
X177800Y68580
X177800Y76200
X166370Y64770
X173990Y64770
X162560Y76200
X162560Y68580
X115570Y53340
X123190Y53340
X151130Y88900
X143510Y88900
X151130Y82550
X27940Y43180
X35560Y43180
X16510Y43180
X24130Y43180
X140970Y88900
X133350Y88900
X115570Y48260
X123190Y48260
T5
X24130Y83820
X24130Y78740
X24130Y81280
X24130Y93980
X24130Y91440
X80518Y92710
X24130Y88900
X24130Y86360
X80518Y95250
X123190Y71120
X80518Y90170
X80518Y87630
X80518Y85090
X80518Y82550
X80518Y80010
X80518Y77470
X80518Y74930
X80518Y72390
T6
X26670Y59850
X24130Y59850
X26670Y51910
X24130Y51910
X29210Y51910
X31750Y51910
X31750Y59850
X29210Y59850
T7
X149860Y72550
X147320Y72550
X137160Y72550
X134620Y72550
X139700Y72550
X142240Y72550
X144780Y72550
X134620Y64610
X137160Y64610
X139700Y64610
X142240Y64610
X144780Y64610
X147320Y64610
X149860Y64610
M30