M48
;GenerationSoftware,Autodesk,EAGLE,9.6.2*%
;CreationDate,2023-08-11T20:47:58Z*%
FMAT,2
ICI,OFF
METRIC,TZ,000.000
T11C0.550
T10C0.711
T9C0.780
T8C0.800
T7C0.813
T6C0.900
T5C0.950
T4C1.000
T3C1.200
T2C3.000
T1C3.200
%
G90
M71
T1
X67818Y92710
X67818Y69850
T2
X4699Y95631
X95250Y-6477
X5461Y-6477
X94869Y95631
T3
X6350Y17700
X6350Y7700
X6350Y12700
T4
X6350Y43100
X6350Y60960
X6350Y55960
X6350Y50880
X95169Y37094
X95169Y53594
X82169Y53594
X82169Y37094
X22860Y59690
X6350Y25400
X6350Y30400
X22860Y46990
X22860Y49530
X22860Y52070
X22860Y54610
X22860Y57150
X22860Y62230
X22860Y64770
X22860Y67310
X22860Y69850
X22860Y72390
X22860Y74930
X22860Y77470
X22860Y80010
X22860Y82550
X22860Y85090
X22860Y87630
X22860Y90170
X22860Y92710
X48260Y92710
X48260Y90170
X48260Y87630
X48260Y85090
X48260Y82550
X48260Y80010
X48260Y77470
X48260Y74930
X48260Y72390
X48260Y69850
X48260Y67310
X48260Y64770
X48260Y62230
X48260Y59690
X48260Y57150
X48260Y54610
X48260Y52070
X48260Y49530
X48260Y46990
X6350Y38100
T5
X53086Y-1398
X70425Y-1906
X73025Y-1906
X75625Y-1906
X70044Y36321
X75244Y36321
X51121Y36321
X50486Y-1398
X55686Y-1398
X72644Y36321
X56321Y36321
X53721Y36321
T6
X42545Y17018
X40005Y17018
X37465Y17018
X34925Y17018
X50165Y9398
X47625Y9398
X45085Y9398
X42545Y9398
X65405Y9398
X40005Y9398
X67945Y17018
X37465Y9398
X34925Y9398
X67945Y9398
X75565Y17018
X73025Y17018
X70485Y17018
X75565Y9398
X60325Y17018
X62865Y17018
X65405Y17018
X50165Y17018
X47625Y17018
X70485Y9398
X73025Y9398
X45085Y17018
X60325Y9398
X62865Y9398
T7
X47625Y26670
X41275Y22606
X33655Y22606
X47625Y30607
X18796Y19939
X26416Y19939
X26416Y17145
X18796Y17145
X82550Y18796
X59309Y-1270
X66929Y-1270
X66929Y-4953
X59309Y-4953
X47752Y-7112
X55372Y-7112
X59436Y-8509
X67056Y-8509
X73025Y5461
X80645Y5461
X79502Y-8128
X71882Y-8128
X82550Y-1905
X90170Y-1905
X82550Y30226
X90170Y30226
X82550Y26670
X90170Y26670
X82550Y22733
X90170Y22733
X90170Y18796
X38481Y36957
X46101Y36957
X45974Y33274
X38354Y33274
X82550Y15113
X90170Y15113
X70739Y30099
X78359Y30099
X82550Y11303
X90170Y11303
X58674Y26416
X66294Y26416
X70866Y26416
X78486Y26416
X91313Y5461
X83693Y5461
X90932Y1651
X83312Y1651
X56261Y3302
X63881Y3302
X72898Y2032
X80518Y2032
X82677Y-5461
X90297Y-5461
X70866Y21844
X32512Y-4064
X40132Y-4064
X40132Y3429
X32512Y3429
X32512Y-254
X40132Y-254
X66421Y22733
X58801Y22733
X45466Y3302
X53086Y3302
X55245Y30607
X78486Y21844
X33528Y26289
X41148Y26289
X33528Y30099
X41148Y30099
X47625Y22733
X55245Y22733
X55245Y26670
T8
X55118Y74930
X5080Y74930
X5080Y77470
X5080Y80010
X55118Y77470
X55118Y80010
X55118Y82550
X55118Y85090
X55118Y87630
X55118Y90170
X55118Y92710
X5080Y82550
X55118Y69850
X55118Y72390
X5080Y72390
X5080Y69850
X5080Y67310
T9
X22479Y33307
X25019Y33307
X27559Y25367
X25019Y25367
X19939Y25367
X22479Y25367
X19939Y33307
X27559Y33307
T10
X16637Y60071
X14859Y60071
T11
X55499Y9779
X59944Y6858
X13970Y44196
X13843Y27432
X48895Y-3810
X72009Y254
X80010Y10287
X87376Y13335
X77470Y19177
X75438Y24130
X59690Y33528
X68707Y1651
X52070Y77216
M30