G04 EAGLE Gerber RS-274X export*
G75*
%MOMM*%
%FSLAX34Y34*%
%LPD*%
%INTop Copper*%
%IPPOS*%
%AMOC8*
5,1,8,0,0,1.08239X$1,22.5*%
G01*
%ADD10C,1.320800*%
%ADD11P,1.429621X8X22.500000*%
%ADD12P,1.429621X8X202.500000*%
%ADD13R,1.676400X1.676400*%
%ADD14C,1.676400*%
%ADD15P,2.089446X8X22.500000*%
%ADD16C,1.930400*%
%ADD17R,1.278000X1.278000*%
%ADD18C,1.278000*%
%ADD19C,1.308000*%
%ADD20P,2.164780X8X202.500000*%
%ADD21P,2.164780X8X22.500000*%
%ADD22R,1.288000X1.288000*%
%ADD23C,1.288000*%
%ADD24C,2.184400*%
%ADD25C,1.206400*%
%ADD26C,1.270000*%


D10*
X1746504Y800100D02*
X1733296Y800100D01*
X1670304Y800100D02*
X1657096Y800100D01*
X1778000Y692404D02*
X1778000Y679196D01*
X1778000Y755396D02*
X1778000Y768604D01*
X1670304Y647700D02*
X1657096Y647700D01*
X1733296Y647700D02*
X1746504Y647700D01*
X1625600Y755396D02*
X1625600Y768604D01*
X1625600Y692404D02*
X1625600Y679196D01*
D11*
X1155700Y533400D03*
X1231900Y533400D03*
D12*
X1511300Y889000D03*
X1435100Y889000D03*
D11*
X1435100Y825500D03*
X1511300Y825500D03*
D12*
X1409700Y889000D03*
X1333500Y889000D03*
D11*
X1155700Y482600D03*
X1231900Y482600D03*
X1282700Y533400D03*
X1358900Y533400D03*
X1409700Y533400D03*
X1485900Y533400D03*
X1409700Y482600D03*
X1485900Y482600D03*
X1409700Y431800D03*
X1485900Y431800D03*
X1409700Y393700D03*
X1485900Y393700D03*
X1536700Y533400D03*
X1612900Y533400D03*
D12*
X1739900Y533400D03*
X1663700Y533400D03*
D13*
X444500Y457200D03*
D14*
X444500Y482600D03*
X444500Y508000D03*
X444500Y533400D03*
X444500Y558800D03*
X444500Y584200D03*
X444500Y609600D03*
X444500Y635000D03*
X444500Y660400D03*
X444500Y685800D03*
X444500Y711200D03*
X444500Y736600D03*
X444500Y762000D03*
X444500Y787400D03*
X444500Y812800D03*
X444500Y838200D03*
X444500Y863600D03*
X444500Y889000D03*
X444500Y914400D03*
X698500Y914400D03*
X698500Y889000D03*
X698500Y863600D03*
X698500Y838200D03*
X698500Y812800D03*
X698500Y787400D03*
X698500Y762000D03*
X698500Y736600D03*
X698500Y711200D03*
X698500Y685800D03*
X698500Y660400D03*
X698500Y635000D03*
X698500Y609600D03*
X698500Y584200D03*
X698500Y558800D03*
X698500Y533400D03*
X698500Y508000D03*
X698500Y482600D03*
X698500Y457200D03*
D15*
X241300Y787400D03*
D16*
X241300Y812800D03*
X241300Y838200D03*
X241300Y863600D03*
X241300Y889000D03*
X241300Y914400D03*
X241300Y939800D03*
D17*
X1346200Y646100D03*
D18*
X1371600Y646100D03*
X1397000Y646100D03*
X1422400Y646100D03*
X1447800Y646100D03*
X1473200Y646100D03*
X1498600Y646100D03*
X1498600Y725500D03*
X1473200Y725500D03*
X1447800Y725500D03*
X1422400Y725500D03*
X1397000Y725500D03*
X1371600Y725500D03*
X1346200Y725500D03*
D19*
X805180Y952500D03*
X805180Y927100D03*
X805180Y901700D03*
X805180Y876300D03*
X805180Y850900D03*
X805180Y825500D03*
X805180Y800100D03*
X805180Y774700D03*
X805180Y749300D03*
X805180Y723900D03*
D20*
X1181100Y406400D03*
X1131100Y406400D03*
D21*
X787400Y431800D03*
X837400Y431800D03*
X888200Y431800D03*
D22*
X241300Y519100D03*
D23*
X266700Y519100D03*
X292100Y519100D03*
X317500Y519100D03*
X317500Y598500D03*
X292100Y598500D03*
X266700Y598500D03*
X241300Y598500D03*
D11*
X279400Y431800D03*
X355600Y431800D03*
X165100Y431800D03*
X241300Y431800D03*
D21*
X1231900Y939800D03*
X1281900Y939800D03*
D24*
X1142200Y939800D03*
X1092200Y939800D03*
X1042200Y939800D03*
D25*
X1231900Y711200D03*
D26*
X952500Y431800D01*
X888200Y431800D01*
M02*
