G04 EAGLE Gerber RS-274X export*
G75*
%MOMM*%
%FSLAX34Y34*%
%LPD*%
%INBottom Copper*%
%IPPOS*%
%AMOC8*
5,1,8,0,0,1.08239X$1,22.5*%
G01*
%ADD10C,1.320800*%
%ADD11P,1.429621X8X22.500000*%
%ADD12P,1.429621X8X202.500000*%
%ADD13R,1.676400X1.676400*%
%ADD14C,1.676400*%
%ADD15P,2.089446X8X22.500000*%
%ADD16C,1.930400*%
%ADD17R,1.278000X1.278000*%
%ADD18C,1.278000*%
%ADD19C,1.308000*%
%ADD20P,2.164780X8X202.500000*%
%ADD21P,2.164780X8X22.500000*%
%ADD22R,1.288000X1.288000*%
%ADD23C,1.288000*%
%ADD24C,2.184400*%
%ADD25C,1.270000*%
%ADD26C,1.206400*%

G36*
X1830398Y353064D02*
X1830398Y353064D01*
X1830417Y353062D01*
X1830519Y353084D01*
X1830621Y353100D01*
X1830638Y353110D01*
X1830658Y353114D01*
X1830747Y353167D01*
X1830838Y353216D01*
X1830852Y353230D01*
X1830869Y353240D01*
X1830936Y353319D01*
X1831008Y353394D01*
X1831016Y353412D01*
X1831029Y353427D01*
X1831068Y353523D01*
X1831111Y353617D01*
X1831113Y353637D01*
X1831121Y353655D01*
X1831139Y353822D01*
X1831139Y989078D01*
X1831136Y989098D01*
X1831138Y989117D01*
X1831116Y989219D01*
X1831100Y989321D01*
X1831090Y989338D01*
X1831086Y989358D01*
X1831033Y989447D01*
X1830984Y989538D01*
X1830970Y989552D01*
X1830960Y989569D01*
X1830881Y989636D01*
X1830806Y989708D01*
X1830788Y989716D01*
X1830773Y989729D01*
X1830677Y989768D01*
X1830583Y989811D01*
X1830563Y989813D01*
X1830545Y989821D01*
X1830378Y989839D01*
X74422Y989839D01*
X74402Y989836D01*
X74383Y989838D01*
X74281Y989816D01*
X74179Y989800D01*
X74162Y989790D01*
X74142Y989786D01*
X74053Y989733D01*
X73962Y989684D01*
X73948Y989670D01*
X73931Y989660D01*
X73864Y989581D01*
X73792Y989506D01*
X73784Y989488D01*
X73771Y989473D01*
X73732Y989377D01*
X73689Y989283D01*
X73687Y989263D01*
X73679Y989245D01*
X73661Y989078D01*
X73661Y353822D01*
X73664Y353802D01*
X73662Y353783D01*
X73684Y353681D01*
X73700Y353579D01*
X73710Y353562D01*
X73714Y353542D01*
X73767Y353453D01*
X73816Y353362D01*
X73830Y353348D01*
X73840Y353331D01*
X73919Y353264D01*
X73994Y353192D01*
X74012Y353184D01*
X74027Y353171D01*
X74123Y353132D01*
X74217Y353089D01*
X74237Y353087D01*
X74255Y353079D01*
X74422Y353061D01*
X1830378Y353061D01*
X1830398Y353064D01*
G37*
%LPC*%
G36*
X160786Y421385D02*
X160786Y421385D01*
X160755Y421416D01*
X160681Y421469D01*
X160612Y421529D01*
X160581Y421541D01*
X160555Y421560D01*
X160468Y421587D01*
X160383Y421621D01*
X160343Y421625D01*
X160320Y421632D01*
X160288Y421631D01*
X160217Y421639D01*
X150379Y421639D01*
X146644Y423186D01*
X118386Y451444D01*
X116839Y455179D01*
X116839Y751321D01*
X118386Y755056D01*
X159344Y796014D01*
X163079Y797561D01*
X232106Y797561D01*
X232196Y797575D01*
X232287Y797583D01*
X232317Y797595D01*
X232349Y797600D01*
X232430Y797643D01*
X232514Y797679D01*
X232546Y797705D01*
X232566Y797716D01*
X232589Y797739D01*
X232645Y797784D01*
X235708Y800847D01*
X235717Y800860D01*
X235730Y800870D01*
X235789Y800960D01*
X235851Y801047D01*
X235856Y801062D01*
X235865Y801075D01*
X235892Y801179D01*
X235924Y801282D01*
X235923Y801298D01*
X235927Y801313D01*
X235920Y801420D01*
X235917Y801528D01*
X235912Y801543D01*
X235911Y801558D01*
X235870Y801657D01*
X235833Y801759D01*
X235823Y801771D01*
X235817Y801786D01*
X235746Y801866D01*
X235679Y801951D01*
X235666Y801959D01*
X235655Y801971D01*
X235515Y802063D01*
X234910Y802372D01*
X233357Y803500D01*
X232000Y804857D01*
X230872Y806410D01*
X230001Y808120D01*
X229407Y809945D01*
X229197Y811277D01*
X240538Y811277D01*
X240558Y811280D01*
X240577Y811278D01*
X240679Y811300D01*
X240781Y811317D01*
X240798Y811326D01*
X240818Y811330D01*
X240907Y811383D01*
X240998Y811432D01*
X241012Y811446D01*
X241029Y811456D01*
X241096Y811535D01*
X241167Y811610D01*
X241176Y811628D01*
X241189Y811643D01*
X241227Y811739D01*
X241271Y811833D01*
X241273Y811853D01*
X241281Y811871D01*
X241299Y812038D01*
X241299Y813562D01*
X241296Y813582D01*
X241298Y813601D01*
X241276Y813703D01*
X241259Y813805D01*
X241250Y813822D01*
X241246Y813842D01*
X241193Y813931D01*
X241144Y814022D01*
X241130Y814036D01*
X241120Y814053D01*
X241041Y814120D01*
X240966Y814191D01*
X240948Y814200D01*
X240933Y814213D01*
X240837Y814252D01*
X240743Y814295D01*
X240723Y814297D01*
X240705Y814305D01*
X240538Y814323D01*
X229197Y814323D01*
X229407Y815655D01*
X230001Y817480D01*
X230872Y819190D01*
X232000Y820743D01*
X233357Y822100D01*
X234910Y823228D01*
X236620Y824099D01*
X236642Y824107D01*
X236732Y824153D01*
X236825Y824194D01*
X236841Y824209D01*
X236861Y824220D01*
X236931Y824292D01*
X237006Y824361D01*
X237017Y824380D01*
X237032Y824396D01*
X237076Y824487D01*
X237125Y824576D01*
X237128Y824598D01*
X237138Y824618D01*
X237150Y824718D01*
X237168Y824818D01*
X237165Y824840D01*
X237168Y824862D01*
X237147Y824961D01*
X237132Y825062D01*
X237122Y825081D01*
X237118Y825103D01*
X237067Y825191D01*
X237021Y825281D01*
X237005Y825296D01*
X236994Y825316D01*
X236918Y825382D01*
X236845Y825453D01*
X236821Y825466D01*
X236809Y825477D01*
X236779Y825490D01*
X236698Y825534D01*
X233674Y826787D01*
X229887Y830574D01*
X227837Y835522D01*
X227837Y840878D01*
X229887Y845826D01*
X233674Y849613D01*
X235083Y850197D01*
X235144Y850235D01*
X235209Y850264D01*
X235248Y850299D01*
X235292Y850326D01*
X235338Y850382D01*
X235390Y850430D01*
X235415Y850476D01*
X235449Y850516D01*
X235474Y850583D01*
X235509Y850646D01*
X235518Y850697D01*
X235537Y850745D01*
X235540Y850817D01*
X235553Y850888D01*
X235545Y850939D01*
X235547Y850991D01*
X235527Y851060D01*
X235517Y851131D01*
X235493Y851177D01*
X235479Y851227D01*
X235438Y851286D01*
X235405Y851350D01*
X235368Y851387D01*
X235338Y851429D01*
X235281Y851472D01*
X235230Y851522D01*
X235167Y851557D01*
X235141Y851576D01*
X235119Y851583D01*
X235083Y851603D01*
X233674Y852187D01*
X229887Y855974D01*
X227837Y860922D01*
X227837Y866278D01*
X229887Y871226D01*
X233674Y875013D01*
X235083Y875597D01*
X235144Y875635D01*
X235209Y875664D01*
X235248Y875699D01*
X235292Y875726D01*
X235338Y875782D01*
X235390Y875830D01*
X235415Y875876D01*
X235449Y875916D01*
X235474Y875983D01*
X235509Y876046D01*
X235518Y876097D01*
X235537Y876145D01*
X235540Y876217D01*
X235553Y876288D01*
X235545Y876339D01*
X235547Y876391D01*
X235527Y876460D01*
X235517Y876531D01*
X235493Y876577D01*
X235479Y876627D01*
X235438Y876686D01*
X235405Y876750D01*
X235368Y876787D01*
X235338Y876829D01*
X235281Y876872D01*
X235230Y876922D01*
X235167Y876957D01*
X235141Y876976D01*
X235119Y876983D01*
X235083Y877003D01*
X233674Y877587D01*
X229887Y881374D01*
X227837Y886322D01*
X227837Y891678D01*
X229887Y896626D01*
X233674Y900413D01*
X236698Y901666D01*
X236785Y901719D01*
X236874Y901768D01*
X236889Y901784D01*
X236907Y901796D01*
X236972Y901874D01*
X237041Y901948D01*
X237050Y901968D01*
X237064Y901985D01*
X237101Y902080D01*
X237142Y902172D01*
X237145Y902194D01*
X237152Y902215D01*
X237157Y902316D01*
X237167Y902417D01*
X237162Y902438D01*
X237163Y902460D01*
X237135Y902558D01*
X237112Y902656D01*
X237100Y902675D01*
X237094Y902697D01*
X237037Y902780D01*
X236984Y902866D01*
X236967Y902880D01*
X236954Y902899D01*
X236873Y902959D01*
X236795Y903024D01*
X236770Y903035D01*
X236757Y903045D01*
X236726Y903056D01*
X236642Y903093D01*
X236620Y903101D01*
X234910Y903972D01*
X233357Y905100D01*
X232000Y906457D01*
X230872Y908010D01*
X230001Y909720D01*
X229407Y911545D01*
X229197Y912877D01*
X240538Y912877D01*
X240558Y912880D01*
X240577Y912878D01*
X240679Y912900D01*
X240781Y912917D01*
X240798Y912926D01*
X240818Y912930D01*
X240907Y912983D01*
X240998Y913032D01*
X241012Y913046D01*
X241029Y913056D01*
X241096Y913135D01*
X241167Y913210D01*
X241176Y913228D01*
X241189Y913243D01*
X241227Y913339D01*
X241271Y913433D01*
X241273Y913453D01*
X241281Y913471D01*
X241299Y913638D01*
X241299Y915162D01*
X241296Y915182D01*
X241298Y915201D01*
X241276Y915303D01*
X241259Y915405D01*
X241250Y915422D01*
X241246Y915442D01*
X241193Y915531D01*
X241144Y915622D01*
X241130Y915636D01*
X241120Y915653D01*
X241041Y915720D01*
X240966Y915791D01*
X240948Y915800D01*
X240933Y915813D01*
X240837Y915852D01*
X240743Y915895D01*
X240723Y915897D01*
X240705Y915905D01*
X240538Y915923D01*
X229197Y915923D01*
X229407Y917255D01*
X230001Y919080D01*
X230872Y920790D01*
X232000Y922343D01*
X233357Y923700D01*
X234910Y924828D01*
X236620Y925699D01*
X236642Y925707D01*
X236732Y925753D01*
X236825Y925794D01*
X236841Y925809D01*
X236861Y925820D01*
X236931Y925892D01*
X237006Y925961D01*
X237017Y925980D01*
X237032Y925996D01*
X237076Y926087D01*
X237125Y926176D01*
X237128Y926198D01*
X237138Y926218D01*
X237150Y926318D01*
X237168Y926418D01*
X237165Y926440D01*
X237168Y926462D01*
X237147Y926561D01*
X237132Y926662D01*
X237122Y926681D01*
X237118Y926703D01*
X237067Y926791D01*
X237021Y926881D01*
X237005Y926896D01*
X236994Y926916D01*
X236918Y926982D01*
X236845Y927053D01*
X236821Y927066D01*
X236809Y927077D01*
X236779Y927090D01*
X236698Y927134D01*
X233674Y928387D01*
X229887Y932174D01*
X227837Y937122D01*
X227837Y942478D01*
X229887Y947426D01*
X233674Y951213D01*
X238622Y953263D01*
X243978Y953263D01*
X248926Y951213D01*
X249955Y950184D01*
X250029Y950131D01*
X250099Y950071D01*
X250129Y950059D01*
X250155Y950040D01*
X250242Y950013D01*
X250327Y949979D01*
X250368Y949975D01*
X250390Y949968D01*
X250422Y949969D01*
X250494Y949961D01*
X439976Y949961D01*
X440066Y949975D01*
X440157Y949983D01*
X440187Y949995D01*
X440219Y950000D01*
X440299Y950043D01*
X440383Y950079D01*
X440415Y950105D01*
X440436Y950116D01*
X440458Y950139D01*
X440514Y950184D01*
X464144Y973814D01*
X467879Y975361D01*
X794501Y975361D01*
X798236Y973814D01*
X809166Y962884D01*
X809240Y962831D01*
X809309Y962771D01*
X809339Y962759D01*
X809366Y962740D01*
X809452Y962713D01*
X809537Y962679D01*
X809578Y962675D01*
X809601Y962668D01*
X809633Y962669D01*
X809704Y962661D01*
X840221Y962661D01*
X843956Y961114D01*
X892986Y912084D01*
X893060Y912031D01*
X893129Y911971D01*
X893159Y911959D01*
X893186Y911940D01*
X893272Y911913D01*
X893357Y911879D01*
X893398Y911875D01*
X893421Y911868D01*
X893453Y911869D01*
X893524Y911861D01*
X973376Y911861D01*
X973466Y911875D01*
X973557Y911883D01*
X973587Y911895D01*
X973619Y911900D01*
X973699Y911943D01*
X973783Y911979D01*
X973815Y912005D01*
X973836Y912016D01*
X973858Y912039D01*
X973914Y912084D01*
X1010244Y948414D01*
X1013979Y949961D01*
X1031210Y949961D01*
X1031300Y949975D01*
X1031391Y949983D01*
X1031421Y949995D01*
X1031453Y950000D01*
X1031534Y950043D01*
X1031618Y950079D01*
X1031650Y950105D01*
X1031670Y950116D01*
X1031692Y950139D01*
X1031748Y950184D01*
X1033855Y952290D01*
X1039269Y954533D01*
X1045131Y954533D01*
X1050545Y952290D01*
X1054690Y948145D01*
X1056933Y942731D01*
X1056933Y936869D01*
X1054690Y931455D01*
X1050545Y927310D01*
X1045131Y925067D01*
X1039269Y925067D01*
X1033855Y927310D01*
X1031748Y929416D01*
X1031674Y929469D01*
X1031605Y929529D01*
X1031575Y929541D01*
X1031549Y929560D01*
X1031462Y929587D01*
X1031377Y929621D01*
X1031336Y929625D01*
X1031314Y929632D01*
X1031281Y929631D01*
X1031210Y929639D01*
X1020524Y929639D01*
X1020434Y929625D01*
X1020343Y929617D01*
X1020313Y929605D01*
X1020281Y929600D01*
X1020201Y929557D01*
X1020117Y929521D01*
X1020085Y929495D01*
X1020064Y929484D01*
X1020042Y929461D01*
X1019986Y929416D01*
X983656Y893086D01*
X979921Y891539D01*
X886979Y891539D01*
X883244Y893086D01*
X834214Y942116D01*
X834140Y942169D01*
X834071Y942229D01*
X834041Y942241D01*
X834014Y942260D01*
X833928Y942287D01*
X833843Y942321D01*
X833802Y942325D01*
X833779Y942332D01*
X833747Y942331D01*
X833676Y942339D01*
X807849Y942339D01*
X807784Y942329D01*
X807719Y942328D01*
X807639Y942305D01*
X807606Y942300D01*
X807589Y942290D01*
X807558Y942281D01*
X807239Y942149D01*
X803121Y942149D01*
X799317Y943725D01*
X796405Y946637D01*
X796273Y946956D01*
X796238Y947011D01*
X796213Y947072D01*
X796161Y947137D01*
X796143Y947165D01*
X796128Y947177D01*
X796108Y947203D01*
X788494Y954816D01*
X788420Y954869D01*
X788351Y954929D01*
X788321Y954941D01*
X788294Y954960D01*
X788208Y954987D01*
X788123Y955021D01*
X788082Y955025D01*
X788059Y955032D01*
X788027Y955031D01*
X787956Y955039D01*
X474424Y955039D01*
X474334Y955025D01*
X474243Y955017D01*
X474213Y955005D01*
X474181Y955000D01*
X474101Y954957D01*
X474017Y954921D01*
X473985Y954895D01*
X473964Y954884D01*
X473942Y954861D01*
X473886Y954816D01*
X454884Y935814D01*
X454831Y935740D01*
X454771Y935671D01*
X454759Y935641D01*
X454740Y935614D01*
X454713Y935528D01*
X454679Y935443D01*
X454675Y935402D01*
X454668Y935379D01*
X454669Y935347D01*
X454661Y935276D01*
X454661Y921798D01*
X454675Y921708D01*
X454683Y921617D01*
X454695Y921587D01*
X454700Y921555D01*
X454743Y921474D01*
X454779Y921390D01*
X454805Y921358D01*
X454816Y921338D01*
X454829Y921325D01*
X456693Y916825D01*
X456693Y911975D01*
X454836Y907493D01*
X451407Y904064D01*
X447399Y902403D01*
X447338Y902365D01*
X447272Y902336D01*
X447234Y902301D01*
X447189Y902274D01*
X447144Y902218D01*
X447091Y902170D01*
X447066Y902124D01*
X447033Y902084D01*
X447007Y902017D01*
X446972Y901954D01*
X446963Y901903D01*
X446944Y901855D01*
X446941Y901783D01*
X446929Y901712D01*
X446936Y901661D01*
X446934Y901609D01*
X446954Y901540D01*
X446964Y901469D01*
X446988Y901423D01*
X447003Y901373D01*
X447043Y901314D01*
X447076Y901250D01*
X447113Y901213D01*
X447143Y901171D01*
X447200Y901128D01*
X447252Y901078D01*
X447314Y901043D01*
X447340Y901024D01*
X447362Y901017D01*
X447399Y900997D01*
X451407Y899336D01*
X454836Y895907D01*
X456693Y891425D01*
X456693Y886575D01*
X454836Y882093D01*
X451407Y878664D01*
X447399Y877003D01*
X447338Y876965D01*
X447272Y876936D01*
X447234Y876901D01*
X447189Y876874D01*
X447144Y876818D01*
X447091Y876770D01*
X447066Y876724D01*
X447033Y876684D01*
X447007Y876617D01*
X446972Y876554D01*
X446963Y876503D01*
X446944Y876455D01*
X446941Y876383D01*
X446929Y876312D01*
X446936Y876261D01*
X446934Y876209D01*
X446954Y876140D01*
X446964Y876069D01*
X446988Y876023D01*
X447003Y875973D01*
X447043Y875914D01*
X447076Y875850D01*
X447113Y875813D01*
X447143Y875771D01*
X447200Y875728D01*
X447252Y875678D01*
X447314Y875643D01*
X447340Y875624D01*
X447362Y875617D01*
X447399Y875597D01*
X451407Y873936D01*
X454836Y870507D01*
X456693Y866025D01*
X456693Y861175D01*
X454836Y856693D01*
X451407Y853264D01*
X447399Y851603D01*
X447338Y851565D01*
X447272Y851536D01*
X447234Y851501D01*
X447189Y851474D01*
X447144Y851418D01*
X447091Y851370D01*
X447066Y851324D01*
X447033Y851284D01*
X447007Y851217D01*
X446972Y851154D01*
X446963Y851103D01*
X446944Y851055D01*
X446941Y850983D01*
X446929Y850912D01*
X446936Y850861D01*
X446934Y850809D01*
X446954Y850740D01*
X446964Y850669D01*
X446988Y850623D01*
X447003Y850573D01*
X447043Y850514D01*
X447076Y850450D01*
X447113Y850413D01*
X447143Y850371D01*
X447200Y850328D01*
X447252Y850278D01*
X447314Y850243D01*
X447340Y850224D01*
X447362Y850217D01*
X447399Y850197D01*
X451407Y848536D01*
X454836Y845107D01*
X456693Y840625D01*
X456693Y835775D01*
X454836Y831293D01*
X451407Y827864D01*
X447399Y826203D01*
X447338Y826165D01*
X447272Y826136D01*
X447234Y826101D01*
X447189Y826074D01*
X447144Y826018D01*
X447091Y825970D01*
X447066Y825924D01*
X447033Y825884D01*
X447007Y825817D01*
X446972Y825754D01*
X446963Y825703D01*
X446944Y825655D01*
X446941Y825583D01*
X446929Y825512D01*
X446936Y825461D01*
X446934Y825409D01*
X446954Y825340D01*
X446964Y825269D01*
X446988Y825223D01*
X447003Y825173D01*
X447043Y825114D01*
X447076Y825050D01*
X447113Y825013D01*
X447143Y824971D01*
X447200Y824928D01*
X447252Y824878D01*
X447314Y824843D01*
X447340Y824824D01*
X447362Y824817D01*
X447399Y824797D01*
X451407Y823136D01*
X454836Y819707D01*
X456693Y815225D01*
X456693Y810375D01*
X454836Y805893D01*
X451407Y802464D01*
X447399Y800803D01*
X447338Y800765D01*
X447272Y800736D01*
X447234Y800701D01*
X447189Y800674D01*
X447144Y800618D01*
X447091Y800570D01*
X447066Y800524D01*
X447033Y800484D01*
X447007Y800417D01*
X446972Y800354D01*
X446963Y800303D01*
X446944Y800255D01*
X446941Y800183D01*
X446929Y800112D01*
X446936Y800061D01*
X446934Y800009D01*
X446954Y799940D01*
X446964Y799869D01*
X446988Y799823D01*
X447003Y799773D01*
X447043Y799714D01*
X447076Y799650D01*
X447113Y799613D01*
X447143Y799571D01*
X447200Y799528D01*
X447252Y799478D01*
X447314Y799443D01*
X447340Y799424D01*
X447362Y799417D01*
X447399Y799397D01*
X451407Y797736D01*
X454836Y794307D01*
X456693Y789825D01*
X456693Y784975D01*
X454836Y780493D01*
X451407Y777064D01*
X447399Y775403D01*
X447338Y775365D01*
X447272Y775336D01*
X447234Y775301D01*
X447189Y775274D01*
X447144Y775218D01*
X447091Y775170D01*
X447066Y775124D01*
X447033Y775084D01*
X447007Y775017D01*
X446972Y774954D01*
X446963Y774903D01*
X446944Y774855D01*
X446941Y774783D01*
X446929Y774712D01*
X446936Y774661D01*
X446934Y774609D01*
X446954Y774540D01*
X446964Y774469D01*
X446988Y774423D01*
X447003Y774373D01*
X447043Y774314D01*
X447076Y774250D01*
X447113Y774213D01*
X447143Y774171D01*
X447200Y774128D01*
X447252Y774078D01*
X447314Y774043D01*
X447340Y774024D01*
X447362Y774017D01*
X447399Y773997D01*
X451407Y772336D01*
X454836Y768907D01*
X456693Y764425D01*
X456693Y759575D01*
X454836Y755093D01*
X451407Y751664D01*
X447399Y750003D01*
X447338Y749965D01*
X447272Y749936D01*
X447234Y749901D01*
X447189Y749874D01*
X447144Y749818D01*
X447091Y749770D01*
X447066Y749724D01*
X447033Y749684D01*
X447007Y749617D01*
X446972Y749554D01*
X446963Y749503D01*
X446944Y749455D01*
X446941Y749383D01*
X446929Y749312D01*
X446936Y749261D01*
X446934Y749209D01*
X446954Y749140D01*
X446964Y749069D01*
X446988Y749023D01*
X447003Y748973D01*
X447043Y748914D01*
X447076Y748850D01*
X447113Y748813D01*
X447143Y748771D01*
X447200Y748728D01*
X447252Y748678D01*
X447314Y748643D01*
X447340Y748624D01*
X447362Y748617D01*
X447399Y748597D01*
X451407Y746936D01*
X454836Y743507D01*
X456693Y739025D01*
X456693Y734175D01*
X454836Y729693D01*
X451407Y726264D01*
X447399Y724603D01*
X447338Y724565D01*
X447272Y724536D01*
X447234Y724501D01*
X447189Y724474D01*
X447144Y724418D01*
X447091Y724370D01*
X447066Y724324D01*
X447033Y724284D01*
X447007Y724217D01*
X446972Y724154D01*
X446963Y724103D01*
X446944Y724055D01*
X446941Y723983D01*
X446929Y723912D01*
X446936Y723861D01*
X446934Y723809D01*
X446954Y723740D01*
X446964Y723669D01*
X446988Y723623D01*
X447003Y723573D01*
X447043Y723514D01*
X447076Y723450D01*
X447113Y723413D01*
X447143Y723371D01*
X447200Y723328D01*
X447252Y723278D01*
X447314Y723243D01*
X447340Y723224D01*
X447362Y723217D01*
X447399Y723197D01*
X451407Y721536D01*
X454836Y718107D01*
X456693Y713625D01*
X456693Y708775D01*
X454836Y704293D01*
X451407Y700864D01*
X447399Y699203D01*
X447338Y699165D01*
X447272Y699136D01*
X447234Y699101D01*
X447189Y699074D01*
X447144Y699018D01*
X447091Y698970D01*
X447066Y698924D01*
X447033Y698884D01*
X447007Y698817D01*
X446972Y698754D01*
X446963Y698703D01*
X446944Y698655D01*
X446941Y698583D01*
X446929Y698512D01*
X446936Y698461D01*
X446934Y698409D01*
X446954Y698340D01*
X446964Y698269D01*
X446988Y698223D01*
X447003Y698173D01*
X447043Y698114D01*
X447076Y698050D01*
X447113Y698013D01*
X447143Y697971D01*
X447200Y697928D01*
X447252Y697878D01*
X447314Y697843D01*
X447340Y697824D01*
X447362Y697817D01*
X447399Y697797D01*
X451407Y696136D01*
X454836Y692707D01*
X456693Y688225D01*
X456693Y683375D01*
X454836Y678893D01*
X451407Y675464D01*
X447399Y673803D01*
X447338Y673765D01*
X447272Y673736D01*
X447234Y673701D01*
X447189Y673674D01*
X447144Y673618D01*
X447091Y673570D01*
X447066Y673524D01*
X447033Y673484D01*
X447007Y673417D01*
X446972Y673354D01*
X446963Y673303D01*
X446944Y673255D01*
X446941Y673183D01*
X446929Y673112D01*
X446936Y673061D01*
X446934Y673009D01*
X446954Y672940D01*
X446964Y672869D01*
X446988Y672823D01*
X447003Y672773D01*
X447043Y672714D01*
X447076Y672650D01*
X447113Y672613D01*
X447143Y672571D01*
X447200Y672528D01*
X447252Y672478D01*
X447314Y672443D01*
X447340Y672424D01*
X447362Y672417D01*
X447399Y672397D01*
X451407Y670736D01*
X454836Y667307D01*
X456693Y662825D01*
X456693Y657975D01*
X454836Y653493D01*
X451407Y650064D01*
X447399Y648403D01*
X447338Y648365D01*
X447272Y648336D01*
X447234Y648301D01*
X447189Y648274D01*
X447144Y648218D01*
X447091Y648170D01*
X447066Y648124D01*
X447033Y648084D01*
X447007Y648017D01*
X446972Y647954D01*
X446963Y647903D01*
X446944Y647855D01*
X446941Y647783D01*
X446929Y647712D01*
X446936Y647661D01*
X446934Y647609D01*
X446954Y647540D01*
X446964Y647469D01*
X446988Y647423D01*
X447003Y647373D01*
X447043Y647314D01*
X447076Y647250D01*
X447113Y647213D01*
X447143Y647171D01*
X447200Y647128D01*
X447252Y647078D01*
X447314Y647043D01*
X447340Y647024D01*
X447362Y647017D01*
X447399Y646997D01*
X451407Y645336D01*
X454836Y641907D01*
X456693Y637425D01*
X456693Y632575D01*
X454836Y628093D01*
X451407Y624664D01*
X447399Y623003D01*
X447338Y622965D01*
X447272Y622936D01*
X447234Y622901D01*
X447189Y622874D01*
X447144Y622818D01*
X447091Y622770D01*
X447066Y622724D01*
X447033Y622684D01*
X447007Y622617D01*
X446972Y622554D01*
X446963Y622503D01*
X446944Y622455D01*
X446941Y622383D01*
X446929Y622312D01*
X446936Y622261D01*
X446934Y622209D01*
X446954Y622140D01*
X446964Y622069D01*
X446988Y622023D01*
X447003Y621973D01*
X447043Y621914D01*
X447076Y621850D01*
X447113Y621813D01*
X447143Y621771D01*
X447200Y621728D01*
X447252Y621678D01*
X447314Y621643D01*
X447340Y621624D01*
X447362Y621617D01*
X447399Y621597D01*
X451407Y619936D01*
X454836Y616507D01*
X456693Y612025D01*
X456693Y607175D01*
X454836Y602693D01*
X451407Y599264D01*
X446925Y597407D01*
X442075Y597407D01*
X437593Y599264D01*
X434164Y602693D01*
X432307Y607175D01*
X432307Y612025D01*
X434164Y616507D01*
X437593Y619936D01*
X441601Y621597D01*
X441662Y621634D01*
X441728Y621664D01*
X441766Y621699D01*
X441811Y621726D01*
X441856Y621781D01*
X441909Y621830D01*
X441934Y621876D01*
X441967Y621916D01*
X441993Y621983D01*
X442028Y622046D01*
X442037Y622097D01*
X442056Y622145D01*
X442059Y622217D01*
X442071Y622288D01*
X442064Y622339D01*
X442066Y622391D01*
X442046Y622460D01*
X442036Y622531D01*
X442012Y622577D01*
X441997Y622627D01*
X441957Y622686D01*
X441924Y622750D01*
X441887Y622787D01*
X441857Y622829D01*
X441800Y622872D01*
X441748Y622922D01*
X441686Y622957D01*
X441660Y622976D01*
X441638Y622983D01*
X441601Y623003D01*
X437593Y624664D01*
X434164Y628093D01*
X432307Y632575D01*
X432307Y637425D01*
X434164Y641907D01*
X437593Y645336D01*
X441601Y646997D01*
X441662Y647034D01*
X441728Y647064D01*
X441766Y647099D01*
X441811Y647126D01*
X441856Y647181D01*
X441909Y647230D01*
X441934Y647276D01*
X441967Y647316D01*
X441993Y647383D01*
X442028Y647446D01*
X442037Y647497D01*
X442056Y647545D01*
X442059Y647617D01*
X442071Y647688D01*
X442064Y647739D01*
X442066Y647791D01*
X442046Y647860D01*
X442036Y647931D01*
X442012Y647977D01*
X441997Y648027D01*
X441957Y648086D01*
X441924Y648150D01*
X441887Y648187D01*
X441857Y648229D01*
X441800Y648272D01*
X441748Y648322D01*
X441686Y648357D01*
X441660Y648376D01*
X441638Y648383D01*
X441601Y648403D01*
X437593Y650064D01*
X434164Y653493D01*
X432307Y657975D01*
X432307Y662825D01*
X434164Y667307D01*
X437593Y670736D01*
X441601Y672397D01*
X441662Y672434D01*
X441728Y672464D01*
X441766Y672499D01*
X441811Y672526D01*
X441856Y672581D01*
X441909Y672630D01*
X441934Y672676D01*
X441967Y672716D01*
X441993Y672783D01*
X442028Y672846D01*
X442037Y672897D01*
X442056Y672945D01*
X442059Y673017D01*
X442071Y673088D01*
X442064Y673139D01*
X442066Y673191D01*
X442046Y673260D01*
X442036Y673331D01*
X442012Y673377D01*
X441997Y673427D01*
X441957Y673486D01*
X441924Y673550D01*
X441887Y673587D01*
X441857Y673629D01*
X441800Y673672D01*
X441748Y673722D01*
X441686Y673757D01*
X441660Y673776D01*
X441638Y673783D01*
X441601Y673803D01*
X437555Y675479D01*
X437497Y675529D01*
X437467Y675541D01*
X437441Y675560D01*
X437354Y675587D01*
X437269Y675621D01*
X437228Y675625D01*
X437206Y675632D01*
X437174Y675631D01*
X437102Y675639D01*
X404379Y675639D01*
X400644Y677186D01*
X250523Y827307D01*
X250507Y827319D01*
X250495Y827335D01*
X250407Y827391D01*
X250323Y827451D01*
X250304Y827457D01*
X250288Y827468D01*
X250187Y827493D01*
X250088Y827523D01*
X250068Y827523D01*
X250049Y827528D01*
X249946Y827520D01*
X249842Y827517D01*
X249824Y827510D01*
X249804Y827509D01*
X249709Y827468D01*
X249611Y827433D01*
X249596Y827420D01*
X249578Y827412D01*
X249447Y827307D01*
X248926Y826787D01*
X245902Y825534D01*
X245815Y825481D01*
X245726Y825432D01*
X245711Y825416D01*
X245693Y825404D01*
X245628Y825326D01*
X245559Y825252D01*
X245550Y825232D01*
X245536Y825215D01*
X245499Y825120D01*
X245458Y825028D01*
X245455Y825006D01*
X245448Y824985D01*
X245443Y824884D01*
X245433Y824783D01*
X245438Y824762D01*
X245437Y824740D01*
X245465Y824642D01*
X245488Y824544D01*
X245500Y824525D01*
X245506Y824503D01*
X245563Y824420D01*
X245616Y824334D01*
X245633Y824320D01*
X245646Y824301D01*
X245727Y824241D01*
X245805Y824176D01*
X245830Y824165D01*
X245843Y824155D01*
X245874Y824144D01*
X245958Y824107D01*
X245980Y824099D01*
X247690Y823228D01*
X249243Y822100D01*
X250600Y820743D01*
X251728Y819190D01*
X252599Y817480D01*
X253193Y815655D01*
X253403Y814323D01*
X242062Y814323D01*
X242042Y814320D01*
X242023Y814322D01*
X241921Y814300D01*
X241819Y814283D01*
X241802Y814274D01*
X241782Y814270D01*
X241693Y814217D01*
X241602Y814168D01*
X241588Y814154D01*
X241571Y814144D01*
X241504Y814065D01*
X241433Y813990D01*
X241424Y813972D01*
X241411Y813957D01*
X241373Y813861D01*
X241329Y813767D01*
X241327Y813747D01*
X241319Y813729D01*
X241301Y813562D01*
X241301Y812038D01*
X241304Y812018D01*
X241302Y811999D01*
X241324Y811897D01*
X241341Y811795D01*
X241350Y811778D01*
X241354Y811758D01*
X241407Y811669D01*
X241456Y811578D01*
X241470Y811564D01*
X241480Y811547D01*
X241559Y811480D01*
X241634Y811409D01*
X241652Y811400D01*
X241667Y811387D01*
X241763Y811348D01*
X241857Y811305D01*
X241877Y811303D01*
X241895Y811295D01*
X242062Y811277D01*
X253403Y811277D01*
X253193Y809945D01*
X252599Y808120D01*
X251728Y806410D01*
X250600Y804857D01*
X249243Y803500D01*
X247690Y802372D01*
X247085Y802063D01*
X247072Y802054D01*
X247057Y802048D01*
X246974Y801982D01*
X246887Y801918D01*
X246878Y801905D01*
X246865Y801895D01*
X246807Y801805D01*
X246745Y801717D01*
X246741Y801701D01*
X246732Y801688D01*
X246706Y801584D01*
X246675Y801481D01*
X246676Y801465D01*
X246672Y801449D01*
X246680Y801342D01*
X246684Y801235D01*
X246690Y801220D01*
X246691Y801204D01*
X246733Y801106D01*
X246771Y801005D01*
X246781Y800992D01*
X246788Y800978D01*
X246892Y800847D01*
X254763Y792976D01*
X254763Y781824D01*
X246876Y773937D01*
X235724Y773937D01*
X232645Y777016D01*
X232571Y777069D01*
X232501Y777129D01*
X232471Y777141D01*
X232445Y777160D01*
X232358Y777187D01*
X232273Y777221D01*
X232232Y777225D01*
X232210Y777232D01*
X232178Y777231D01*
X232106Y777239D01*
X169624Y777239D01*
X169534Y777225D01*
X169443Y777217D01*
X169413Y777205D01*
X169381Y777200D01*
X169301Y777157D01*
X169217Y777121D01*
X169185Y777095D01*
X169164Y777084D01*
X169142Y777061D01*
X169086Y777016D01*
X137384Y745314D01*
X137331Y745240D01*
X137271Y745171D01*
X137259Y745141D01*
X137240Y745114D01*
X137213Y745028D01*
X137179Y744943D01*
X137175Y744902D01*
X137168Y744879D01*
X137169Y744847D01*
X137161Y744776D01*
X137161Y461724D01*
X137175Y461634D01*
X137183Y461543D01*
X137195Y461513D01*
X137200Y461481D01*
X137243Y461401D01*
X137279Y461317D01*
X137305Y461285D01*
X137316Y461264D01*
X137339Y461242D01*
X137384Y461186D01*
X156386Y442184D01*
X156460Y442131D01*
X156529Y442071D01*
X156559Y442059D01*
X156586Y442040D01*
X156672Y442013D01*
X156757Y441979D01*
X156798Y441975D01*
X156821Y441968D01*
X156853Y441969D01*
X156924Y441961D01*
X160217Y441961D01*
X160307Y441975D01*
X160398Y441983D01*
X160428Y441995D01*
X160460Y442000D01*
X160540Y442043D01*
X160624Y442079D01*
X160656Y442105D01*
X160677Y442116D01*
X160699Y442139D01*
X160755Y442184D01*
X160786Y442215D01*
X169414Y442215D01*
X175515Y436114D01*
X175515Y427486D01*
X169414Y421385D01*
X160786Y421385D01*
G37*
%LPD*%
%LPC*%
G36*
X391679Y383539D02*
X391679Y383539D01*
X387944Y385086D01*
X384979Y388051D01*
X351868Y421162D01*
X351794Y421215D01*
X351725Y421275D01*
X351695Y421287D01*
X351669Y421306D01*
X351582Y421333D01*
X351497Y421367D01*
X351456Y421371D01*
X351433Y421378D01*
X351401Y421377D01*
X351330Y421385D01*
X351286Y421385D01*
X345185Y427486D01*
X345185Y427530D01*
X345171Y427620D01*
X345163Y427711D01*
X345151Y427741D01*
X345146Y427773D01*
X345103Y427853D01*
X345067Y427937D01*
X345041Y427969D01*
X345030Y427990D01*
X345007Y428012D01*
X344962Y428068D01*
X337251Y435779D01*
X334286Y438744D01*
X332739Y442479D01*
X332739Y541576D01*
X332725Y541666D01*
X332717Y541757D01*
X332705Y541787D01*
X332700Y541819D01*
X332657Y541899D01*
X332621Y541983D01*
X332595Y542015D01*
X332584Y542036D01*
X332561Y542058D01*
X332516Y542114D01*
X326214Y548416D01*
X326140Y548469D01*
X326071Y548529D01*
X326041Y548541D01*
X326014Y548560D01*
X325928Y548587D01*
X325843Y548621D01*
X325802Y548625D01*
X325779Y548632D01*
X325747Y548631D01*
X325676Y548639D01*
X302779Y548639D01*
X299044Y550186D01*
X283486Y565744D01*
X281939Y569479D01*
X281939Y596092D01*
X281929Y596157D01*
X281928Y596223D01*
X281905Y596303D01*
X281900Y596335D01*
X281890Y596352D01*
X281881Y596384D01*
X281849Y596461D01*
X281849Y600539D01*
X283410Y604307D01*
X286293Y607190D01*
X290061Y608751D01*
X294139Y608751D01*
X297907Y607190D01*
X300790Y604307D01*
X302351Y600539D01*
X302351Y596461D01*
X302319Y596384D01*
X302304Y596320D01*
X302279Y596259D01*
X302270Y596176D01*
X302263Y596144D01*
X302264Y596125D01*
X302261Y596092D01*
X302261Y576024D01*
X302275Y575934D01*
X302283Y575843D01*
X302295Y575813D01*
X302300Y575781D01*
X302343Y575701D01*
X302379Y575617D01*
X302405Y575585D01*
X302416Y575564D01*
X302439Y575542D01*
X302484Y575486D01*
X308786Y569184D01*
X308860Y569131D01*
X308929Y569071D01*
X308959Y569059D01*
X308986Y569040D01*
X309072Y569013D01*
X309157Y568979D01*
X309198Y568975D01*
X309221Y568968D01*
X309253Y568969D01*
X309324Y568961D01*
X332221Y568961D01*
X335956Y567414D01*
X351514Y551856D01*
X353061Y548121D01*
X353061Y449024D01*
X353075Y448934D01*
X353083Y448843D01*
X353095Y448813D01*
X353100Y448781D01*
X353143Y448701D01*
X353179Y448617D01*
X353205Y448585D01*
X353216Y448564D01*
X353239Y448542D01*
X353284Y448486D01*
X359332Y442438D01*
X359406Y442385D01*
X359475Y442325D01*
X359505Y442313D01*
X359531Y442294D01*
X359618Y442267D01*
X359703Y442233D01*
X359744Y442229D01*
X359767Y442222D01*
X359799Y442223D01*
X359870Y442215D01*
X359914Y442215D01*
X366015Y436114D01*
X366015Y436070D01*
X366029Y435980D01*
X366037Y435889D01*
X366049Y435859D01*
X366054Y435827D01*
X366097Y435747D01*
X366133Y435663D01*
X366159Y435631D01*
X366170Y435610D01*
X366193Y435588D01*
X366238Y435532D01*
X397686Y404084D01*
X397760Y404031D01*
X397829Y403971D01*
X397859Y403959D01*
X397886Y403940D01*
X397972Y403913D01*
X398057Y403879D01*
X398098Y403875D01*
X398121Y403868D01*
X398153Y403869D01*
X398224Y403861D01*
X782876Y403861D01*
X782966Y403875D01*
X783057Y403883D01*
X783087Y403895D01*
X783119Y403900D01*
X783199Y403943D01*
X783283Y403979D01*
X783315Y404005D01*
X783336Y404016D01*
X783358Y404039D01*
X783414Y404084D01*
X802416Y423086D01*
X802469Y423160D01*
X802529Y423229D01*
X802541Y423259D01*
X802560Y423286D01*
X802587Y423372D01*
X802621Y423457D01*
X802625Y423498D01*
X802632Y423521D01*
X802631Y423553D01*
X802639Y423624D01*
X802639Y425670D01*
X802628Y425741D01*
X802626Y425813D01*
X802608Y425862D01*
X802600Y425913D01*
X802566Y425976D01*
X802541Y426044D01*
X802509Y426084D01*
X802484Y426130D01*
X802432Y426180D01*
X802388Y426236D01*
X802344Y426264D01*
X802306Y426300D01*
X802241Y426330D01*
X802181Y426369D01*
X802130Y426381D01*
X802083Y426403D01*
X802012Y426411D01*
X801942Y426429D01*
X801890Y426425D01*
X801839Y426430D01*
X801768Y426415D01*
X801697Y426410D01*
X801649Y426389D01*
X801598Y426378D01*
X801537Y426341D01*
X801471Y426313D01*
X801415Y426268D01*
X801387Y426252D01*
X801372Y426234D01*
X801340Y426208D01*
X793121Y417989D01*
X788274Y417989D01*
X788184Y417975D01*
X788093Y417967D01*
X788063Y417955D01*
X788031Y417950D01*
X787951Y417907D01*
X787867Y417871D01*
X787835Y417845D01*
X787814Y417834D01*
X787792Y417811D01*
X787736Y417766D01*
X780456Y410486D01*
X776721Y408939D01*
X480579Y408939D01*
X476844Y410486D01*
X473879Y413451D01*
X442546Y444784D01*
X442472Y444837D01*
X442403Y444897D01*
X442373Y444909D01*
X442347Y444928D01*
X442260Y444955D01*
X442175Y444989D01*
X442134Y444993D01*
X442111Y445000D01*
X442079Y444999D01*
X442008Y445007D01*
X434540Y445007D01*
X432307Y447240D01*
X432307Y454708D01*
X432293Y454798D01*
X432285Y454889D01*
X432273Y454919D01*
X432268Y454951D01*
X432225Y455031D01*
X432189Y455115D01*
X432163Y455147D01*
X432152Y455168D01*
X432129Y455190D01*
X432084Y455246D01*
X375351Y511979D01*
X372386Y514944D01*
X370839Y518679D01*
X370839Y605076D01*
X370825Y605166D01*
X370817Y605257D01*
X370805Y605287D01*
X370800Y605319D01*
X370757Y605399D01*
X370721Y605483D01*
X370695Y605515D01*
X370684Y605536D01*
X370661Y605558D01*
X370616Y605614D01*
X338914Y637316D01*
X338840Y637369D01*
X338771Y637429D01*
X338741Y637441D01*
X338714Y637460D01*
X338628Y637487D01*
X338543Y637521D01*
X338502Y637525D01*
X338479Y637532D01*
X338447Y637531D01*
X338376Y637539D01*
X296624Y637539D01*
X296534Y637525D01*
X296443Y637517D01*
X296413Y637505D01*
X296381Y637500D01*
X296301Y637457D01*
X296217Y637421D01*
X296185Y637395D01*
X296164Y637384D01*
X296142Y637361D01*
X296086Y637316D01*
X277084Y618314D01*
X277031Y618240D01*
X276971Y618171D01*
X276959Y618141D01*
X276940Y618114D01*
X276913Y618028D01*
X276879Y617943D01*
X276875Y617902D01*
X276868Y617879D01*
X276869Y617847D01*
X276861Y617776D01*
X276861Y600908D01*
X276871Y600843D01*
X276872Y600777D01*
X276895Y600697D01*
X276900Y600665D01*
X276910Y600648D01*
X276919Y600616D01*
X276951Y600539D01*
X276951Y596461D01*
X275390Y592693D01*
X272507Y589810D01*
X268739Y588249D01*
X264661Y588249D01*
X260893Y589810D01*
X258010Y592693D01*
X256449Y596461D01*
X256449Y600539D01*
X256481Y600616D01*
X256496Y600680D01*
X256521Y600741D01*
X256530Y600824D01*
X256537Y600856D01*
X256536Y600875D01*
X256539Y600908D01*
X256539Y624321D01*
X258086Y628056D01*
X286344Y656314D01*
X290079Y657861D01*
X344921Y657861D01*
X348656Y656314D01*
X389614Y615356D01*
X391161Y611621D01*
X391161Y525224D01*
X391175Y525134D01*
X391183Y525043D01*
X391195Y525013D01*
X391200Y524981D01*
X391243Y524901D01*
X391279Y524817D01*
X391305Y524785D01*
X391316Y524764D01*
X391339Y524742D01*
X391384Y524686D01*
X431132Y484938D01*
X431169Y484911D01*
X431200Y484877D01*
X431268Y484839D01*
X431331Y484794D01*
X431375Y484781D01*
X431416Y484759D01*
X431492Y484745D01*
X431567Y484722D01*
X431612Y484723D01*
X431658Y484715D01*
X431735Y484726D01*
X431812Y484728D01*
X431856Y484744D01*
X431901Y484751D01*
X431970Y484786D01*
X432043Y484813D01*
X432079Y484841D01*
X432120Y484862D01*
X432175Y484918D01*
X432235Y484966D01*
X432260Y485005D01*
X432292Y485038D01*
X432358Y485158D01*
X432368Y485173D01*
X432370Y485178D01*
X432373Y485185D01*
X434164Y489507D01*
X437593Y492936D01*
X441601Y494597D01*
X441662Y494634D01*
X441728Y494664D01*
X441766Y494699D01*
X441811Y494726D01*
X441856Y494781D01*
X441909Y494830D01*
X441934Y494876D01*
X441967Y494916D01*
X441993Y494983D01*
X442028Y495046D01*
X442037Y495097D01*
X442056Y495145D01*
X442059Y495217D01*
X442071Y495288D01*
X442064Y495339D01*
X442066Y495391D01*
X442046Y495460D01*
X442036Y495531D01*
X442012Y495577D01*
X441997Y495627D01*
X441957Y495686D01*
X441924Y495750D01*
X441887Y495787D01*
X441857Y495829D01*
X441800Y495872D01*
X441748Y495922D01*
X441686Y495957D01*
X441660Y495976D01*
X441638Y495983D01*
X441601Y496003D01*
X437593Y497664D01*
X434164Y501093D01*
X432307Y505575D01*
X432307Y510425D01*
X434164Y514907D01*
X437593Y518336D01*
X441601Y519997D01*
X441662Y520034D01*
X441728Y520064D01*
X441766Y520099D01*
X441811Y520126D01*
X441856Y520181D01*
X441909Y520230D01*
X441934Y520276D01*
X441967Y520316D01*
X441993Y520383D01*
X442028Y520446D01*
X442037Y520497D01*
X442056Y520545D01*
X442059Y520617D01*
X442071Y520688D01*
X442064Y520739D01*
X442066Y520791D01*
X442046Y520860D01*
X442036Y520931D01*
X442012Y520977D01*
X441997Y521027D01*
X441957Y521086D01*
X441924Y521150D01*
X441887Y521187D01*
X441857Y521229D01*
X441800Y521272D01*
X441748Y521322D01*
X441686Y521357D01*
X441660Y521376D01*
X441638Y521383D01*
X441601Y521403D01*
X437593Y523064D01*
X434164Y526493D01*
X432307Y530975D01*
X432307Y535825D01*
X434164Y540307D01*
X437593Y543736D01*
X441601Y545397D01*
X441662Y545434D01*
X441728Y545464D01*
X441766Y545499D01*
X441811Y545526D01*
X441856Y545581D01*
X441909Y545630D01*
X441934Y545676D01*
X441967Y545716D01*
X441993Y545783D01*
X442028Y545846D01*
X442037Y545897D01*
X442056Y545945D01*
X442059Y546017D01*
X442071Y546088D01*
X442064Y546139D01*
X442066Y546191D01*
X442046Y546260D01*
X442036Y546331D01*
X442012Y546377D01*
X441997Y546427D01*
X441957Y546486D01*
X441924Y546550D01*
X441887Y546587D01*
X441857Y546629D01*
X441800Y546672D01*
X441748Y546722D01*
X441686Y546757D01*
X441660Y546776D01*
X441638Y546783D01*
X441601Y546803D01*
X437593Y548464D01*
X434164Y551893D01*
X432307Y556375D01*
X432307Y561225D01*
X434164Y565707D01*
X437593Y569136D01*
X442075Y570993D01*
X446925Y570993D01*
X451407Y569136D01*
X454836Y565707D01*
X456693Y561225D01*
X456693Y556375D01*
X454836Y551893D01*
X451407Y548464D01*
X447399Y546803D01*
X447338Y546765D01*
X447272Y546736D01*
X447234Y546701D01*
X447189Y546674D01*
X447144Y546618D01*
X447091Y546570D01*
X447066Y546524D01*
X447033Y546484D01*
X447007Y546417D01*
X446972Y546354D01*
X446963Y546303D01*
X446944Y546255D01*
X446941Y546183D01*
X446929Y546112D01*
X446936Y546061D01*
X446934Y546009D01*
X446954Y545940D01*
X446964Y545869D01*
X446988Y545823D01*
X447003Y545773D01*
X447043Y545714D01*
X447076Y545650D01*
X447113Y545613D01*
X447143Y545571D01*
X447200Y545528D01*
X447252Y545478D01*
X447314Y545443D01*
X447340Y545424D01*
X447362Y545417D01*
X447399Y545397D01*
X451407Y543736D01*
X454836Y540307D01*
X456693Y535825D01*
X456693Y530975D01*
X454836Y526493D01*
X451407Y523064D01*
X447399Y521403D01*
X447338Y521365D01*
X447272Y521336D01*
X447234Y521301D01*
X447189Y521274D01*
X447144Y521218D01*
X447091Y521170D01*
X447066Y521124D01*
X447033Y521084D01*
X447007Y521017D01*
X446972Y520954D01*
X446963Y520903D01*
X446944Y520855D01*
X446941Y520783D01*
X446929Y520712D01*
X446936Y520661D01*
X446934Y520609D01*
X446954Y520540D01*
X446964Y520469D01*
X446988Y520423D01*
X447003Y520373D01*
X447043Y520314D01*
X447076Y520250D01*
X447113Y520213D01*
X447143Y520171D01*
X447200Y520128D01*
X447252Y520078D01*
X447314Y520043D01*
X447340Y520024D01*
X447362Y520017D01*
X447399Y519997D01*
X451407Y518336D01*
X454836Y514907D01*
X456693Y510425D01*
X456693Y505575D01*
X454836Y501093D01*
X451407Y497664D01*
X447399Y496003D01*
X447338Y495965D01*
X447272Y495936D01*
X447234Y495901D01*
X447189Y495874D01*
X447144Y495818D01*
X447091Y495770D01*
X447066Y495724D01*
X447033Y495684D01*
X447007Y495617D01*
X446972Y495554D01*
X446963Y495503D01*
X446944Y495455D01*
X446941Y495383D01*
X446929Y495312D01*
X446936Y495261D01*
X446934Y495209D01*
X446954Y495140D01*
X446964Y495069D01*
X446988Y495023D01*
X447003Y494973D01*
X447043Y494914D01*
X447076Y494850D01*
X447113Y494813D01*
X447143Y494771D01*
X447200Y494728D01*
X447252Y494678D01*
X447314Y494643D01*
X447340Y494624D01*
X447362Y494617D01*
X447399Y494597D01*
X451407Y492936D01*
X454836Y489507D01*
X456693Y485025D01*
X456693Y480175D01*
X454836Y475693D01*
X451407Y472264D01*
X448012Y470857D01*
X447929Y470806D01*
X447843Y470760D01*
X447825Y470741D01*
X447803Y470728D01*
X447741Y470653D01*
X447674Y470582D01*
X447663Y470558D01*
X447646Y470538D01*
X447611Y470447D01*
X447570Y470359D01*
X447567Y470333D01*
X447558Y470309D01*
X447554Y470211D01*
X447543Y470115D01*
X447548Y470089D01*
X447547Y470063D01*
X447574Y469969D01*
X447595Y469874D01*
X447608Y469852D01*
X447616Y469827D01*
X447671Y469747D01*
X447721Y469663D01*
X447741Y469646D01*
X447756Y469625D01*
X447834Y469566D01*
X447908Y469503D01*
X447932Y469493D01*
X447953Y469478D01*
X448046Y469448D01*
X448136Y469411D01*
X448169Y469408D01*
X448187Y469402D01*
X448220Y469402D01*
X448303Y469393D01*
X454460Y469393D01*
X456693Y467160D01*
X456693Y459692D01*
X456707Y459602D01*
X456715Y459511D01*
X456727Y459481D01*
X456732Y459449D01*
X456775Y459369D01*
X456811Y459285D01*
X456837Y459253D01*
X456848Y459232D01*
X456871Y459210D01*
X456916Y459154D01*
X486586Y429484D01*
X486660Y429431D01*
X486729Y429371D01*
X486759Y429359D01*
X486786Y429340D01*
X486872Y429313D01*
X486957Y429279D01*
X486998Y429275D01*
X487021Y429268D01*
X487053Y429269D01*
X487124Y429261D01*
X770176Y429261D01*
X770266Y429275D01*
X770357Y429283D01*
X770387Y429295D01*
X770419Y429300D01*
X770499Y429343D01*
X770583Y429379D01*
X770615Y429405D01*
X770636Y429416D01*
X770658Y429439D01*
X770714Y429484D01*
X773366Y432136D01*
X773419Y432210D01*
X773479Y432279D01*
X773491Y432309D01*
X773510Y432336D01*
X773537Y432422D01*
X773571Y432507D01*
X773575Y432548D01*
X773582Y432571D01*
X773581Y432603D01*
X773589Y432674D01*
X773589Y437521D01*
X777016Y440948D01*
X777069Y441022D01*
X777129Y441091D01*
X777141Y441121D01*
X777160Y441147D01*
X777187Y441234D01*
X777221Y441319D01*
X777225Y441360D01*
X777232Y441382D01*
X777231Y441415D01*
X777239Y441486D01*
X777239Y535421D01*
X778786Y539156D01*
X832444Y592814D01*
X836179Y594361D01*
X1125776Y594361D01*
X1125866Y594375D01*
X1125957Y594383D01*
X1125987Y594395D01*
X1126019Y594400D01*
X1126099Y594443D01*
X1126183Y594479D01*
X1126215Y594505D01*
X1126236Y594516D01*
X1126251Y594531D01*
X1126252Y594532D01*
X1126262Y594542D01*
X1126314Y594584D01*
X1213444Y681714D01*
X1217179Y683261D01*
X1411721Y683261D01*
X1415456Y681714D01*
X1431014Y666156D01*
X1432561Y662421D01*
X1432561Y648377D01*
X1432571Y648312D01*
X1432572Y648247D01*
X1432595Y648167D01*
X1432600Y648134D01*
X1432601Y648134D01*
X1432601Y644071D01*
X1431048Y640322D01*
X1428178Y637452D01*
X1424429Y635899D01*
X1420371Y635899D01*
X1416622Y637452D01*
X1413752Y640322D01*
X1412199Y644071D01*
X1412199Y648157D01*
X1412221Y648210D01*
X1412230Y648293D01*
X1412237Y648325D01*
X1412236Y648345D01*
X1412239Y648377D01*
X1412239Y655876D01*
X1412225Y655966D01*
X1412217Y656057D01*
X1412205Y656087D01*
X1412200Y656119D01*
X1412157Y656199D01*
X1412121Y656283D01*
X1412095Y656315D01*
X1412084Y656336D01*
X1412061Y656358D01*
X1412016Y656414D01*
X1405714Y662716D01*
X1405640Y662769D01*
X1405571Y662829D01*
X1405541Y662841D01*
X1405514Y662860D01*
X1405428Y662887D01*
X1405343Y662921D01*
X1405302Y662925D01*
X1405279Y662932D01*
X1405247Y662931D01*
X1405176Y662939D01*
X1223724Y662939D01*
X1223634Y662925D01*
X1223543Y662917D01*
X1223513Y662905D01*
X1223481Y662900D01*
X1223401Y662857D01*
X1223317Y662821D01*
X1223285Y662795D01*
X1223264Y662784D01*
X1223242Y662761D01*
X1223186Y662716D01*
X1136056Y575586D01*
X1132321Y574039D01*
X842724Y574039D01*
X842634Y574025D01*
X842543Y574017D01*
X842513Y574005D01*
X842481Y574000D01*
X842401Y573957D01*
X842317Y573921D01*
X842285Y573895D01*
X842264Y573884D01*
X842242Y573861D01*
X842186Y573816D01*
X797784Y529414D01*
X797737Y529349D01*
X797726Y529338D01*
X797723Y529332D01*
X797671Y529271D01*
X797659Y529241D01*
X797640Y529214D01*
X797613Y529128D01*
X797579Y529043D01*
X797575Y529002D01*
X797568Y528979D01*
X797569Y528947D01*
X797561Y528876D01*
X797561Y441486D01*
X797575Y441396D01*
X797583Y441305D01*
X797595Y441275D01*
X797600Y441243D01*
X797643Y441162D01*
X797679Y441079D01*
X797705Y441046D01*
X797716Y441026D01*
X797739Y441004D01*
X797784Y440948D01*
X801340Y437392D01*
X801398Y437350D01*
X801450Y437300D01*
X801497Y437278D01*
X801539Y437248D01*
X801608Y437227D01*
X801673Y437197D01*
X801725Y437191D01*
X801775Y437176D01*
X801846Y437178D01*
X801917Y437170D01*
X801968Y437181D01*
X802020Y437182D01*
X802088Y437207D01*
X802158Y437222D01*
X802202Y437249D01*
X802251Y437266D01*
X802307Y437311D01*
X802369Y437348D01*
X802403Y437388D01*
X802443Y437420D01*
X802482Y437480D01*
X802529Y437535D01*
X802548Y437583D01*
X802576Y437627D01*
X802594Y437697D01*
X802621Y437763D01*
X802629Y437834D01*
X802637Y437866D01*
X802635Y437889D01*
X802639Y437930D01*
X802639Y471921D01*
X804186Y475656D01*
X819744Y491214D01*
X823479Y492761D01*
X1150817Y492761D01*
X1150907Y492775D01*
X1150998Y492783D01*
X1151028Y492795D01*
X1151060Y492800D01*
X1151140Y492843D01*
X1151224Y492879D01*
X1151256Y492905D01*
X1151277Y492916D01*
X1151299Y492939D01*
X1151355Y492984D01*
X1151386Y493015D01*
X1160014Y493015D01*
X1166115Y486914D01*
X1166115Y478286D01*
X1160014Y472185D01*
X1151386Y472185D01*
X1151355Y472216D01*
X1151281Y472269D01*
X1151212Y472329D01*
X1151181Y472341D01*
X1151155Y472360D01*
X1151068Y472387D01*
X1150983Y472421D01*
X1150943Y472425D01*
X1150920Y472432D01*
X1150888Y472431D01*
X1150817Y472439D01*
X830024Y472439D01*
X829934Y472425D01*
X829843Y472417D01*
X829813Y472405D01*
X829781Y472400D01*
X829701Y472357D01*
X829617Y472321D01*
X829585Y472295D01*
X829564Y472284D01*
X829542Y472261D01*
X829486Y472216D01*
X823184Y465914D01*
X823131Y465840D01*
X823071Y465771D01*
X823059Y465741D01*
X823040Y465714D01*
X823013Y465628D01*
X822979Y465543D01*
X822975Y465502D01*
X822968Y465479D01*
X822969Y465447D01*
X822961Y465376D01*
X822961Y417079D01*
X821414Y413344D01*
X793156Y385086D01*
X789421Y383539D01*
X391679Y383539D01*
G37*
%LPD*%
G36*
X437192Y772175D02*
X437192Y772175D01*
X437283Y772183D01*
X437313Y772195D01*
X437345Y772200D01*
X437426Y772243D01*
X437510Y772279D01*
X437542Y772305D01*
X437562Y772316D01*
X437575Y772329D01*
X441601Y773997D01*
X441662Y774034D01*
X441728Y774064D01*
X441766Y774099D01*
X441811Y774126D01*
X441856Y774181D01*
X441909Y774230D01*
X441934Y774276D01*
X441967Y774316D01*
X441993Y774383D01*
X442028Y774446D01*
X442037Y774497D01*
X442056Y774545D01*
X442059Y774617D01*
X442071Y774688D01*
X442064Y774739D01*
X442066Y774791D01*
X442046Y774860D01*
X442036Y774931D01*
X442012Y774977D01*
X441997Y775027D01*
X441957Y775086D01*
X441924Y775150D01*
X441887Y775187D01*
X441857Y775229D01*
X441800Y775272D01*
X441748Y775322D01*
X441686Y775357D01*
X441660Y775376D01*
X441638Y775383D01*
X441601Y775403D01*
X437593Y777064D01*
X434164Y780493D01*
X432307Y784975D01*
X432307Y789825D01*
X434164Y794307D01*
X437593Y797736D01*
X441601Y799397D01*
X441662Y799434D01*
X441728Y799464D01*
X441766Y799499D01*
X441811Y799526D01*
X441856Y799581D01*
X441909Y799630D01*
X441934Y799676D01*
X441967Y799716D01*
X441993Y799783D01*
X442028Y799846D01*
X442037Y799897D01*
X442056Y799945D01*
X442059Y800017D01*
X442071Y800088D01*
X442064Y800139D01*
X442066Y800191D01*
X442046Y800260D01*
X442036Y800331D01*
X442012Y800377D01*
X441997Y800427D01*
X441957Y800486D01*
X441924Y800550D01*
X441887Y800587D01*
X441857Y800629D01*
X441800Y800672D01*
X441748Y800722D01*
X441686Y800757D01*
X441660Y800776D01*
X441638Y800783D01*
X441601Y800803D01*
X437593Y802464D01*
X434164Y805893D01*
X432307Y810375D01*
X432307Y815225D01*
X434164Y819707D01*
X437593Y823136D01*
X441601Y824797D01*
X441662Y824834D01*
X441728Y824864D01*
X441766Y824899D01*
X441811Y824926D01*
X441856Y824981D01*
X441909Y825030D01*
X441934Y825076D01*
X441967Y825116D01*
X441993Y825183D01*
X442028Y825246D01*
X442037Y825297D01*
X442056Y825345D01*
X442059Y825417D01*
X442071Y825488D01*
X442064Y825539D01*
X442066Y825591D01*
X442046Y825660D01*
X442036Y825731D01*
X442012Y825777D01*
X441997Y825827D01*
X441957Y825886D01*
X441924Y825950D01*
X441887Y825987D01*
X441857Y826029D01*
X441800Y826072D01*
X441748Y826122D01*
X441686Y826157D01*
X441660Y826176D01*
X441638Y826183D01*
X441601Y826203D01*
X437593Y827864D01*
X434164Y831293D01*
X432307Y835775D01*
X432307Y840625D01*
X434164Y845107D01*
X437593Y848536D01*
X441601Y850197D01*
X441662Y850234D01*
X441728Y850264D01*
X441766Y850299D01*
X441811Y850326D01*
X441856Y850381D01*
X441909Y850430D01*
X441934Y850476D01*
X441967Y850516D01*
X441993Y850583D01*
X442028Y850646D01*
X442037Y850697D01*
X442056Y850745D01*
X442059Y850817D01*
X442071Y850888D01*
X442064Y850939D01*
X442066Y850991D01*
X442046Y851060D01*
X442036Y851131D01*
X442012Y851177D01*
X441997Y851227D01*
X441957Y851286D01*
X441924Y851350D01*
X441887Y851387D01*
X441857Y851429D01*
X441800Y851472D01*
X441748Y851522D01*
X441686Y851557D01*
X441660Y851576D01*
X441638Y851583D01*
X441601Y851603D01*
X437593Y853264D01*
X434164Y856693D01*
X432307Y861175D01*
X432307Y866025D01*
X434164Y870507D01*
X437593Y873936D01*
X441601Y875597D01*
X441662Y875634D01*
X441728Y875664D01*
X441766Y875699D01*
X441811Y875726D01*
X441856Y875781D01*
X441909Y875830D01*
X441934Y875876D01*
X441967Y875916D01*
X441993Y875983D01*
X442028Y876046D01*
X442037Y876097D01*
X442056Y876145D01*
X442059Y876217D01*
X442071Y876288D01*
X442064Y876339D01*
X442066Y876391D01*
X442046Y876460D01*
X442036Y876531D01*
X442012Y876577D01*
X441997Y876627D01*
X441957Y876686D01*
X441924Y876750D01*
X441887Y876787D01*
X441857Y876829D01*
X441800Y876872D01*
X441748Y876922D01*
X441686Y876957D01*
X441660Y876976D01*
X441638Y876983D01*
X441601Y877003D01*
X437593Y878664D01*
X434164Y882093D01*
X432307Y886575D01*
X432307Y891425D01*
X434164Y895907D01*
X437593Y899336D01*
X441601Y900997D01*
X441662Y901034D01*
X441728Y901064D01*
X441766Y901099D01*
X441811Y901126D01*
X441856Y901181D01*
X441909Y901230D01*
X441934Y901276D01*
X441967Y901316D01*
X441993Y901383D01*
X442028Y901446D01*
X442037Y901497D01*
X442056Y901545D01*
X442059Y901617D01*
X442071Y901688D01*
X442064Y901739D01*
X442066Y901791D01*
X442046Y901860D01*
X442036Y901931D01*
X442012Y901977D01*
X441997Y902027D01*
X441957Y902086D01*
X441924Y902150D01*
X441887Y902187D01*
X441857Y902229D01*
X441800Y902272D01*
X441748Y902322D01*
X441686Y902357D01*
X441660Y902376D01*
X441638Y902383D01*
X441601Y902403D01*
X437593Y904064D01*
X434164Y907493D01*
X432307Y911975D01*
X432307Y916825D01*
X434179Y921345D01*
X434229Y921403D01*
X434241Y921433D01*
X434260Y921459D01*
X434287Y921546D01*
X434321Y921631D01*
X434325Y921672D01*
X434332Y921694D01*
X434331Y921726D01*
X434339Y921798D01*
X434339Y928878D01*
X434336Y928898D01*
X434338Y928917D01*
X434316Y929019D01*
X434300Y929121D01*
X434290Y929138D01*
X434286Y929158D01*
X434233Y929247D01*
X434184Y929338D01*
X434170Y929352D01*
X434160Y929369D01*
X434081Y929436D01*
X434006Y929508D01*
X433988Y929516D01*
X433973Y929529D01*
X433877Y929568D01*
X433783Y929611D01*
X433763Y929613D01*
X433745Y929621D01*
X433578Y929639D01*
X250494Y929639D01*
X250404Y929625D01*
X250313Y929617D01*
X250283Y929605D01*
X250251Y929600D01*
X250170Y929557D01*
X250086Y929521D01*
X250054Y929495D01*
X250034Y929484D01*
X250011Y929461D01*
X249955Y929416D01*
X248926Y928387D01*
X245902Y927134D01*
X245815Y927081D01*
X245726Y927032D01*
X245711Y927016D01*
X245693Y927004D01*
X245628Y926926D01*
X245559Y926852D01*
X245550Y926832D01*
X245536Y926815D01*
X245499Y926720D01*
X245458Y926628D01*
X245455Y926606D01*
X245448Y926585D01*
X245443Y926484D01*
X245433Y926383D01*
X245438Y926362D01*
X245437Y926340D01*
X245465Y926242D01*
X245488Y926144D01*
X245500Y926125D01*
X245506Y926103D01*
X245563Y926020D01*
X245616Y925934D01*
X245633Y925920D01*
X245646Y925901D01*
X245727Y925841D01*
X245805Y925776D01*
X245830Y925765D01*
X245843Y925755D01*
X245874Y925744D01*
X245958Y925707D01*
X245980Y925699D01*
X247690Y924828D01*
X249243Y923700D01*
X250600Y922343D01*
X251728Y920790D01*
X252599Y919080D01*
X253193Y917255D01*
X253403Y915923D01*
X242062Y915923D01*
X242042Y915920D01*
X242023Y915922D01*
X241921Y915900D01*
X241819Y915883D01*
X241802Y915874D01*
X241782Y915870D01*
X241693Y915817D01*
X241602Y915768D01*
X241588Y915754D01*
X241571Y915744D01*
X241504Y915665D01*
X241433Y915590D01*
X241424Y915572D01*
X241411Y915557D01*
X241373Y915461D01*
X241329Y915367D01*
X241327Y915347D01*
X241319Y915329D01*
X241301Y915162D01*
X241301Y913638D01*
X241304Y913618D01*
X241302Y913599D01*
X241324Y913497D01*
X241341Y913395D01*
X241350Y913378D01*
X241354Y913358D01*
X241407Y913269D01*
X241456Y913178D01*
X241470Y913164D01*
X241480Y913147D01*
X241559Y913080D01*
X241634Y913009D01*
X241652Y913000D01*
X241667Y912987D01*
X241763Y912948D01*
X241857Y912905D01*
X241877Y912903D01*
X241895Y912895D01*
X242062Y912877D01*
X253403Y912877D01*
X253193Y911545D01*
X252599Y909720D01*
X251728Y908010D01*
X250600Y906457D01*
X249243Y905100D01*
X247690Y903972D01*
X245980Y903101D01*
X245958Y903093D01*
X245868Y903047D01*
X245775Y903006D01*
X245759Y902991D01*
X245739Y902980D01*
X245669Y902908D01*
X245594Y902839D01*
X245583Y902820D01*
X245568Y902804D01*
X245524Y902713D01*
X245475Y902624D01*
X245472Y902602D01*
X245462Y902582D01*
X245450Y902482D01*
X245432Y902382D01*
X245435Y902360D01*
X245432Y902338D01*
X245453Y902239D01*
X245468Y902138D01*
X245478Y902119D01*
X245482Y902097D01*
X245533Y902009D01*
X245579Y901919D01*
X245595Y901904D01*
X245606Y901884D01*
X245682Y901818D01*
X245755Y901747D01*
X245779Y901734D01*
X245791Y901723D01*
X245821Y901710D01*
X245902Y901666D01*
X248926Y900413D01*
X249955Y899384D01*
X250029Y899331D01*
X250099Y899271D01*
X250129Y899259D01*
X250155Y899240D01*
X250242Y899213D01*
X250327Y899179D01*
X250368Y899175D01*
X250390Y899168D01*
X250422Y899169D01*
X250494Y899161D01*
X281421Y899161D01*
X285156Y897614D01*
X410386Y772384D01*
X410460Y772331D01*
X410529Y772271D01*
X410559Y772259D01*
X410586Y772240D01*
X410672Y772213D01*
X410757Y772179D01*
X410798Y772175D01*
X410821Y772168D01*
X410853Y772169D01*
X410924Y772161D01*
X437102Y772161D01*
X437192Y772175D01*
G37*
%LPC*%
G36*
X366279Y358139D02*
X366279Y358139D01*
X362544Y359686D01*
X359579Y362651D01*
X311851Y410379D01*
X308886Y413344D01*
X307339Y417079D01*
X307339Y516692D01*
X307329Y516757D01*
X307328Y516823D01*
X307305Y516903D01*
X307300Y516935D01*
X307290Y516952D01*
X307281Y516984D01*
X307249Y517061D01*
X307249Y521139D01*
X308810Y524907D01*
X311693Y527790D01*
X315461Y529351D01*
X319539Y529351D01*
X323307Y527790D01*
X326190Y524907D01*
X327751Y521139D01*
X327751Y517061D01*
X327719Y516984D01*
X327710Y516947D01*
X327704Y516934D01*
X327702Y516916D01*
X327679Y516859D01*
X327670Y516776D01*
X327663Y516744D01*
X327664Y516725D01*
X327661Y516692D01*
X327661Y423624D01*
X327675Y423534D01*
X327683Y423443D01*
X327695Y423413D01*
X327700Y423381D01*
X327743Y423301D01*
X327779Y423217D01*
X327805Y423185D01*
X327816Y423164D01*
X327839Y423142D01*
X327884Y423086D01*
X372286Y378684D01*
X372360Y378631D01*
X372429Y378571D01*
X372459Y378559D01*
X372485Y378540D01*
X372572Y378513D01*
X372657Y378479D01*
X372698Y378475D01*
X372721Y378468D01*
X372753Y378469D01*
X372824Y378461D01*
X859076Y378461D01*
X859166Y378475D01*
X859257Y378483D01*
X859287Y378495D01*
X859319Y378500D01*
X859399Y378543D01*
X859483Y378579D01*
X859515Y378605D01*
X859536Y378616D01*
X859558Y378639D01*
X859614Y378684D01*
X877816Y396886D01*
X877869Y396960D01*
X877929Y397029D01*
X877941Y397059D01*
X877960Y397086D01*
X877987Y397172D01*
X878021Y397257D01*
X878025Y397298D01*
X878032Y397321D01*
X878031Y397353D01*
X878039Y397424D01*
X878039Y422114D01*
X878025Y422204D01*
X878017Y422295D01*
X878005Y422325D01*
X878000Y422357D01*
X877957Y422438D01*
X877921Y422521D01*
X877895Y422554D01*
X877884Y422574D01*
X877861Y422596D01*
X877816Y422652D01*
X874389Y426079D01*
X874389Y437521D01*
X882479Y445611D01*
X893921Y445611D01*
X902011Y437521D01*
X902011Y426079D01*
X898584Y422652D01*
X898531Y422578D01*
X898471Y422509D01*
X898459Y422479D01*
X898440Y422453D01*
X898413Y422366D01*
X898379Y422281D01*
X898375Y422240D01*
X898368Y422218D01*
X898369Y422185D01*
X898361Y422114D01*
X898361Y390879D01*
X896814Y387144D01*
X893849Y384179D01*
X872321Y362651D01*
X869356Y359686D01*
X865621Y358139D01*
X366279Y358139D01*
G37*
%LPD*%
%LPC*%
G36*
X1369571Y715299D02*
X1369571Y715299D01*
X1365822Y716852D01*
X1362952Y719722D01*
X1361399Y723471D01*
X1361399Y727557D01*
X1361421Y727610D01*
X1361430Y727693D01*
X1361437Y727725D01*
X1361436Y727744D01*
X1361439Y727777D01*
X1361439Y827521D01*
X1362986Y831256D01*
X1399316Y867586D01*
X1399369Y867660D01*
X1399429Y867729D01*
X1399441Y867759D01*
X1399460Y867786D01*
X1399487Y867872D01*
X1399521Y867957D01*
X1399525Y867998D01*
X1399532Y868021D01*
X1399531Y868053D01*
X1399539Y868124D01*
X1399539Y884117D01*
X1399525Y884207D01*
X1399517Y884298D01*
X1399505Y884328D01*
X1399500Y884360D01*
X1399457Y884440D01*
X1399421Y884524D01*
X1399395Y884556D01*
X1399384Y884577D01*
X1399361Y884599D01*
X1399316Y884655D01*
X1399285Y884686D01*
X1399285Y893314D01*
X1405386Y899415D01*
X1414014Y899415D01*
X1414045Y899384D01*
X1414119Y899331D01*
X1414188Y899271D01*
X1414218Y899259D01*
X1414245Y899240D01*
X1414332Y899213D01*
X1414416Y899179D01*
X1414457Y899175D01*
X1414480Y899168D01*
X1414512Y899169D01*
X1414583Y899161D01*
X1424178Y899161D01*
X1424198Y899164D01*
X1424217Y899162D01*
X1424319Y899184D01*
X1424421Y899200D01*
X1424438Y899210D01*
X1424458Y899214D01*
X1424547Y899267D01*
X1424638Y899316D01*
X1424652Y899330D01*
X1424669Y899340D01*
X1424736Y899419D01*
X1424808Y899494D01*
X1424816Y899512D01*
X1424829Y899527D01*
X1424868Y899623D01*
X1424911Y899717D01*
X1424913Y899737D01*
X1424921Y899755D01*
X1424939Y899922D01*
X1424939Y903721D01*
X1426486Y907456D01*
X1467444Y948414D01*
X1471179Y949961D01*
X1551421Y949961D01*
X1555156Y948414D01*
X1672314Y831256D01*
X1673861Y827521D01*
X1673861Y810408D01*
X1673880Y810293D01*
X1673897Y810177D01*
X1673899Y810172D01*
X1673900Y810165D01*
X1673955Y810063D01*
X1674008Y809958D01*
X1674013Y809954D01*
X1674016Y809948D01*
X1674100Y809868D01*
X1674184Y809786D01*
X1674190Y809782D01*
X1674194Y809779D01*
X1674211Y809771D01*
X1674331Y809705D01*
X1676204Y808929D01*
X1679133Y806000D01*
X1680719Y802172D01*
X1680719Y798028D01*
X1679133Y794200D01*
X1676204Y791271D01*
X1672376Y789685D01*
X1667970Y789685D01*
X1667880Y789671D01*
X1667789Y789663D01*
X1667759Y789651D01*
X1667727Y789646D01*
X1667647Y789603D01*
X1667563Y789567D01*
X1667531Y789541D01*
X1667510Y789530D01*
X1667488Y789507D01*
X1667432Y789462D01*
X1636238Y758268D01*
X1636185Y758194D01*
X1636125Y758125D01*
X1636113Y758095D01*
X1636094Y758068D01*
X1636067Y757982D01*
X1636033Y757897D01*
X1636029Y757856D01*
X1636022Y757833D01*
X1636023Y757801D01*
X1636015Y757730D01*
X1636015Y753324D01*
X1634429Y749496D01*
X1631500Y746567D01*
X1627672Y744981D01*
X1623528Y744981D01*
X1619700Y746567D01*
X1616771Y749496D01*
X1615185Y753324D01*
X1615185Y770676D01*
X1616771Y774504D01*
X1619700Y777433D01*
X1623528Y779019D01*
X1627719Y779019D01*
X1627724Y779017D01*
X1627837Y778989D01*
X1627843Y778989D01*
X1627850Y778988D01*
X1627967Y778999D01*
X1628082Y779008D01*
X1628088Y779010D01*
X1628094Y779011D01*
X1628203Y779059D01*
X1628309Y779104D01*
X1628315Y779109D01*
X1628319Y779111D01*
X1628333Y779124D01*
X1628440Y779209D01*
X1646491Y797260D01*
X1646559Y797355D01*
X1646629Y797449D01*
X1646631Y797455D01*
X1646634Y797460D01*
X1646668Y797571D01*
X1646705Y797683D01*
X1646705Y797689D01*
X1646707Y797695D01*
X1646704Y797812D01*
X1646703Y797929D01*
X1646700Y797936D01*
X1646700Y797941D01*
X1646694Y797958D01*
X1646681Y798002D01*
X1646681Y802172D01*
X1648267Y806000D01*
X1651196Y808929D01*
X1653069Y809705D01*
X1653169Y809766D01*
X1653269Y809826D01*
X1653273Y809831D01*
X1653278Y809835D01*
X1653353Y809925D01*
X1653429Y810013D01*
X1653431Y810019D01*
X1653435Y810024D01*
X1653477Y810132D01*
X1653521Y810242D01*
X1653522Y810249D01*
X1653523Y810254D01*
X1653524Y810272D01*
X1653539Y810408D01*
X1653539Y820976D01*
X1653525Y821066D01*
X1653517Y821157D01*
X1653505Y821187D01*
X1653500Y821219D01*
X1653457Y821299D01*
X1653421Y821383D01*
X1653395Y821415D01*
X1653384Y821436D01*
X1653361Y821458D01*
X1653316Y821514D01*
X1545414Y929416D01*
X1545340Y929469D01*
X1545271Y929529D01*
X1545241Y929541D01*
X1545214Y929560D01*
X1545128Y929587D01*
X1545043Y929621D01*
X1545002Y929625D01*
X1544979Y929632D01*
X1544947Y929631D01*
X1544876Y929639D01*
X1477724Y929639D01*
X1477634Y929625D01*
X1477543Y929617D01*
X1477513Y929605D01*
X1477481Y929600D01*
X1477401Y929557D01*
X1477317Y929521D01*
X1477285Y929495D01*
X1477264Y929484D01*
X1477242Y929461D01*
X1477186Y929416D01*
X1445484Y897714D01*
X1445431Y897640D01*
X1445371Y897571D01*
X1445359Y897541D01*
X1445340Y897514D01*
X1445313Y897428D01*
X1445279Y897343D01*
X1445275Y897302D01*
X1445268Y897279D01*
X1445269Y897247D01*
X1445261Y897176D01*
X1445261Y893883D01*
X1445275Y893793D01*
X1445283Y893702D01*
X1445295Y893672D01*
X1445300Y893640D01*
X1445343Y893560D01*
X1445379Y893476D01*
X1445405Y893444D01*
X1445416Y893423D01*
X1445439Y893401D01*
X1445484Y893345D01*
X1445515Y893314D01*
X1445515Y884686D01*
X1439414Y878585D01*
X1430786Y878585D01*
X1430755Y878616D01*
X1430681Y878669D01*
X1430612Y878729D01*
X1430582Y878741D01*
X1430555Y878760D01*
X1430468Y878787D01*
X1430384Y878821D01*
X1430343Y878825D01*
X1430320Y878832D01*
X1430288Y878831D01*
X1430217Y878839D01*
X1420622Y878839D01*
X1420602Y878836D01*
X1420583Y878838D01*
X1420481Y878816D01*
X1420379Y878800D01*
X1420362Y878790D01*
X1420342Y878786D01*
X1420253Y878733D01*
X1420162Y878684D01*
X1420148Y878670D01*
X1420131Y878660D01*
X1420064Y878581D01*
X1419992Y878506D01*
X1419984Y878488D01*
X1419971Y878473D01*
X1419932Y878377D01*
X1419889Y878283D01*
X1419887Y878263D01*
X1419879Y878245D01*
X1419861Y878078D01*
X1419861Y861579D01*
X1418314Y857844D01*
X1381984Y821514D01*
X1381931Y821440D01*
X1381871Y821371D01*
X1381859Y821341D01*
X1381840Y821314D01*
X1381813Y821228D01*
X1381779Y821143D01*
X1381775Y821102D01*
X1381768Y821079D01*
X1381769Y821047D01*
X1381761Y820976D01*
X1381761Y727777D01*
X1381771Y727712D01*
X1381772Y727647D01*
X1381795Y727567D01*
X1381800Y727534D01*
X1381801Y727534D01*
X1381801Y723471D01*
X1380248Y719722D01*
X1377378Y716852D01*
X1373629Y715299D01*
X1369571Y715299D01*
G37*
%LPD*%
%LPC*%
G36*
X1731224Y637285D02*
X1731224Y637285D01*
X1727396Y638871D01*
X1724467Y641800D01*
X1722881Y645628D01*
X1722881Y649772D01*
X1724467Y653600D01*
X1727396Y656529D01*
X1729269Y657305D01*
X1729369Y657366D01*
X1729469Y657426D01*
X1729473Y657431D01*
X1729478Y657435D01*
X1729553Y657525D01*
X1729629Y657613D01*
X1729631Y657619D01*
X1729635Y657624D01*
X1729677Y657732D01*
X1729721Y657842D01*
X1729722Y657849D01*
X1729723Y657854D01*
X1729724Y657872D01*
X1729739Y658008D01*
X1729739Y668576D01*
X1729725Y668666D01*
X1729717Y668757D01*
X1729705Y668787D01*
X1729700Y668819D01*
X1729657Y668899D01*
X1729621Y668983D01*
X1729595Y669015D01*
X1729584Y669036D01*
X1729561Y669058D01*
X1729516Y669114D01*
X1685114Y713516D01*
X1685040Y713569D01*
X1684971Y713629D01*
X1684941Y713641D01*
X1684914Y713660D01*
X1684828Y713687D01*
X1684743Y713721D01*
X1684702Y713725D01*
X1684679Y713732D01*
X1684647Y713731D01*
X1684576Y713739D01*
X1579324Y713739D01*
X1579234Y713725D01*
X1579143Y713717D01*
X1579113Y713705D01*
X1579081Y713700D01*
X1579001Y713657D01*
X1578917Y713621D01*
X1578885Y713595D01*
X1578864Y713584D01*
X1578842Y713561D01*
X1578786Y713516D01*
X1529756Y664486D01*
X1526021Y662939D01*
X1483879Y662939D01*
X1480144Y664486D01*
X1464586Y680044D01*
X1463039Y683779D01*
X1463039Y723223D01*
X1463029Y723288D01*
X1463028Y723353D01*
X1463005Y723433D01*
X1463000Y723466D01*
X1462999Y723466D01*
X1462999Y727557D01*
X1463021Y727610D01*
X1463030Y727693D01*
X1463037Y727725D01*
X1463036Y727744D01*
X1463039Y727777D01*
X1463039Y795576D01*
X1463025Y795666D01*
X1463017Y795757D01*
X1463005Y795787D01*
X1463000Y795819D01*
X1462957Y795899D01*
X1462921Y795983D01*
X1462895Y796015D01*
X1462884Y796036D01*
X1462861Y796058D01*
X1462816Y796114D01*
X1443814Y815116D01*
X1443740Y815169D01*
X1443671Y815229D01*
X1443641Y815241D01*
X1443614Y815260D01*
X1443528Y815287D01*
X1443443Y815321D01*
X1443402Y815325D01*
X1443379Y815332D01*
X1443347Y815331D01*
X1443276Y815339D01*
X1439983Y815339D01*
X1439893Y815325D01*
X1439802Y815317D01*
X1439772Y815305D01*
X1439740Y815300D01*
X1439660Y815257D01*
X1439576Y815221D01*
X1439544Y815195D01*
X1439523Y815184D01*
X1439501Y815161D01*
X1439445Y815116D01*
X1439414Y815085D01*
X1430786Y815085D01*
X1424685Y821186D01*
X1424685Y829814D01*
X1430786Y835915D01*
X1439414Y835915D01*
X1439445Y835884D01*
X1439519Y835831D01*
X1439588Y835771D01*
X1439618Y835759D01*
X1439645Y835740D01*
X1439732Y835713D01*
X1439816Y835679D01*
X1439857Y835675D01*
X1439880Y835668D01*
X1439912Y835669D01*
X1439983Y835661D01*
X1449821Y835661D01*
X1453556Y834114D01*
X1481814Y805856D01*
X1483361Y802121D01*
X1483361Y727777D01*
X1483371Y727712D01*
X1483372Y727647D01*
X1483395Y727567D01*
X1483400Y727534D01*
X1483401Y727534D01*
X1483401Y723443D01*
X1483379Y723390D01*
X1483370Y723307D01*
X1483363Y723275D01*
X1483364Y723256D01*
X1483361Y723223D01*
X1483361Y690324D01*
X1483375Y690234D01*
X1483383Y690143D01*
X1483395Y690113D01*
X1483400Y690081D01*
X1483443Y690001D01*
X1483479Y689917D01*
X1483505Y689885D01*
X1483516Y689864D01*
X1483539Y689842D01*
X1483584Y689786D01*
X1489886Y683484D01*
X1489960Y683431D01*
X1490029Y683371D01*
X1490059Y683359D01*
X1490086Y683340D01*
X1490172Y683313D01*
X1490257Y683279D01*
X1490298Y683275D01*
X1490321Y683268D01*
X1490353Y683269D01*
X1490424Y683261D01*
X1519476Y683261D01*
X1519566Y683275D01*
X1519657Y683283D01*
X1519687Y683295D01*
X1519719Y683300D01*
X1519799Y683343D01*
X1519883Y683379D01*
X1519915Y683405D01*
X1519936Y683416D01*
X1519958Y683439D01*
X1520014Y683484D01*
X1569044Y732514D01*
X1572779Y734061D01*
X1691121Y734061D01*
X1694856Y732514D01*
X1748514Y678856D01*
X1750061Y675121D01*
X1750061Y674068D01*
X1750072Y673997D01*
X1750074Y673926D01*
X1750092Y673877D01*
X1750100Y673825D01*
X1750134Y673762D01*
X1750159Y673695D01*
X1750191Y673654D01*
X1750216Y673608D01*
X1750268Y673559D01*
X1750312Y673503D01*
X1750356Y673474D01*
X1750394Y673438D01*
X1750459Y673408D01*
X1750519Y673370D01*
X1750570Y673357D01*
X1750617Y673335D01*
X1750688Y673327D01*
X1750758Y673309D01*
X1750810Y673314D01*
X1750861Y673308D01*
X1750932Y673323D01*
X1751003Y673329D01*
X1751051Y673349D01*
X1751102Y673360D01*
X1751163Y673397D01*
X1751229Y673425D01*
X1751285Y673470D01*
X1751313Y673486D01*
X1751328Y673504D01*
X1751360Y673530D01*
X1767362Y689532D01*
X1767415Y689606D01*
X1767475Y689675D01*
X1767487Y689705D01*
X1767506Y689732D01*
X1767533Y689818D01*
X1767567Y689903D01*
X1767571Y689944D01*
X1767578Y689967D01*
X1767577Y689999D01*
X1767585Y690070D01*
X1767585Y694476D01*
X1769171Y698304D01*
X1772100Y701233D01*
X1775928Y702819D01*
X1780072Y702819D01*
X1783900Y701233D01*
X1786829Y698304D01*
X1788415Y694476D01*
X1788415Y677124D01*
X1786829Y673296D01*
X1783900Y670367D01*
X1780072Y668781D01*
X1775881Y668781D01*
X1775876Y668783D01*
X1775763Y668811D01*
X1775757Y668811D01*
X1775750Y668812D01*
X1775633Y668801D01*
X1775518Y668792D01*
X1775512Y668790D01*
X1775506Y668789D01*
X1775397Y668741D01*
X1775291Y668696D01*
X1775285Y668691D01*
X1775281Y668689D01*
X1775267Y668676D01*
X1775160Y668591D01*
X1757109Y650540D01*
X1757041Y650445D01*
X1756971Y650351D01*
X1756969Y650345D01*
X1756966Y650340D01*
X1756931Y650228D01*
X1756895Y650117D01*
X1756895Y650111D01*
X1756893Y650105D01*
X1756896Y649988D01*
X1756897Y649871D01*
X1756900Y649864D01*
X1756900Y649859D01*
X1756906Y649842D01*
X1756919Y649798D01*
X1756919Y645628D01*
X1755333Y641800D01*
X1752404Y638871D01*
X1748576Y637285D01*
X1731224Y637285D01*
G37*
%LPD*%
%LPC*%
G36*
X1344179Y447039D02*
X1344179Y447039D01*
X1340444Y448586D01*
X1274086Y514944D01*
X1272539Y518679D01*
X1272539Y522478D01*
X1272536Y522498D01*
X1272538Y522517D01*
X1272516Y522619D01*
X1272500Y522721D01*
X1272490Y522738D01*
X1272486Y522758D01*
X1272433Y522847D01*
X1272384Y522938D01*
X1272370Y522952D01*
X1272360Y522969D01*
X1272281Y523036D01*
X1272206Y523108D01*
X1272188Y523116D01*
X1272173Y523129D01*
X1272077Y523168D01*
X1271983Y523211D01*
X1271963Y523213D01*
X1271945Y523221D01*
X1271778Y523239D01*
X1242822Y523239D01*
X1242802Y523236D01*
X1242783Y523238D01*
X1242681Y523216D01*
X1242579Y523200D01*
X1242562Y523190D01*
X1242542Y523186D01*
X1242453Y523133D01*
X1242362Y523084D01*
X1242348Y523070D01*
X1242331Y523060D01*
X1242264Y522981D01*
X1242192Y522906D01*
X1242184Y522888D01*
X1242171Y522873D01*
X1242132Y522777D01*
X1242089Y522683D01*
X1242087Y522663D01*
X1242079Y522645D01*
X1242061Y522478D01*
X1242061Y487483D01*
X1242075Y487393D01*
X1242083Y487302D01*
X1242095Y487272D01*
X1242100Y487240D01*
X1242143Y487160D01*
X1242179Y487076D01*
X1242205Y487044D01*
X1242216Y487023D01*
X1242239Y487001D01*
X1242284Y486945D01*
X1242315Y486914D01*
X1242315Y478286D01*
X1236214Y472185D01*
X1227586Y472185D01*
X1221485Y478286D01*
X1221485Y486914D01*
X1221516Y486945D01*
X1221569Y487019D01*
X1221629Y487088D01*
X1221641Y487119D01*
X1221660Y487145D01*
X1221687Y487232D01*
X1221721Y487317D01*
X1221725Y487357D01*
X1221732Y487380D01*
X1221731Y487412D01*
X1221739Y487483D01*
X1221739Y528517D01*
X1221725Y528607D01*
X1221717Y528698D01*
X1221705Y528728D01*
X1221700Y528760D01*
X1221657Y528840D01*
X1221621Y528924D01*
X1221595Y528956D01*
X1221584Y528977D01*
X1221561Y528999D01*
X1221516Y529055D01*
X1221485Y529086D01*
X1221485Y537714D01*
X1227586Y543815D01*
X1236214Y543815D01*
X1236245Y543784D01*
X1236319Y543731D01*
X1236388Y543671D01*
X1236419Y543659D01*
X1236445Y543640D01*
X1236532Y543613D01*
X1236617Y543579D01*
X1236657Y543575D01*
X1236680Y543568D01*
X1236712Y543569D01*
X1236783Y543561D01*
X1277817Y543561D01*
X1277907Y543575D01*
X1277998Y543583D01*
X1278028Y543595D01*
X1278060Y543600D01*
X1278140Y543643D01*
X1278224Y543679D01*
X1278256Y543705D01*
X1278277Y543716D01*
X1278299Y543739D01*
X1278355Y543784D01*
X1278386Y543815D01*
X1287014Y543815D01*
X1293115Y537714D01*
X1293115Y529086D01*
X1293084Y529055D01*
X1293031Y528981D01*
X1292971Y528912D01*
X1292959Y528881D01*
X1292940Y528855D01*
X1292913Y528768D01*
X1292879Y528683D01*
X1292875Y528643D01*
X1292868Y528620D01*
X1292869Y528588D01*
X1292861Y528517D01*
X1292861Y525224D01*
X1292875Y525134D01*
X1292883Y525043D01*
X1292895Y525013D01*
X1292900Y524981D01*
X1292943Y524901D01*
X1292979Y524817D01*
X1293005Y524785D01*
X1293016Y524764D01*
X1293039Y524742D01*
X1293084Y524686D01*
X1350186Y467584D01*
X1350260Y467531D01*
X1350329Y467471D01*
X1350359Y467459D01*
X1350386Y467440D01*
X1350472Y467413D01*
X1350557Y467379D01*
X1350598Y467375D01*
X1350621Y467368D01*
X1350653Y467369D01*
X1350724Y467361D01*
X1417876Y467361D01*
X1417966Y467375D01*
X1418057Y467383D01*
X1418087Y467395D01*
X1418119Y467400D01*
X1418199Y467443D01*
X1418283Y467479D01*
X1418315Y467505D01*
X1418336Y467516D01*
X1418358Y467539D01*
X1418414Y467584D01*
X1424716Y473886D01*
X1424769Y473960D01*
X1424829Y474029D01*
X1424841Y474059D01*
X1424860Y474086D01*
X1424887Y474172D01*
X1424921Y474257D01*
X1424925Y474298D01*
X1424932Y474321D01*
X1424931Y474353D01*
X1424939Y474424D01*
X1424939Y541576D01*
X1424925Y541666D01*
X1424917Y541757D01*
X1424905Y541787D01*
X1424900Y541819D01*
X1424857Y541899D01*
X1424821Y541983D01*
X1424795Y542015D01*
X1424784Y542036D01*
X1424761Y542058D01*
X1424716Y542114D01*
X1418414Y548416D01*
X1418340Y548469D01*
X1418271Y548529D01*
X1418241Y548541D01*
X1418214Y548560D01*
X1418128Y548587D01*
X1418043Y548621D01*
X1418002Y548625D01*
X1417979Y548632D01*
X1417947Y548631D01*
X1417876Y548639D01*
X1394979Y548639D01*
X1391244Y550186D01*
X1375686Y565744D01*
X1374139Y569479D01*
X1374139Y592376D01*
X1374125Y592466D01*
X1374117Y592557D01*
X1374105Y592587D01*
X1374100Y592619D01*
X1374057Y592699D01*
X1374021Y592783D01*
X1373995Y592815D01*
X1373984Y592836D01*
X1373961Y592858D01*
X1373916Y592914D01*
X1365951Y600879D01*
X1362986Y603844D01*
X1361439Y607579D01*
X1361439Y643823D01*
X1361429Y643888D01*
X1361428Y643953D01*
X1361405Y644033D01*
X1361400Y644066D01*
X1361399Y644066D01*
X1361399Y648129D01*
X1362952Y651878D01*
X1365822Y654748D01*
X1369571Y656301D01*
X1373629Y656301D01*
X1377378Y654748D01*
X1380248Y651878D01*
X1381801Y648129D01*
X1381801Y644043D01*
X1381779Y643990D01*
X1381770Y643907D01*
X1381763Y643875D01*
X1381764Y643855D01*
X1381761Y643823D01*
X1381761Y614124D01*
X1381775Y614034D01*
X1381783Y613943D01*
X1381795Y613913D01*
X1381800Y613881D01*
X1381843Y613801D01*
X1381879Y613717D01*
X1381905Y613685D01*
X1381916Y613664D01*
X1381939Y613642D01*
X1381984Y613586D01*
X1389949Y605621D01*
X1392914Y602656D01*
X1394461Y598921D01*
X1394461Y576024D01*
X1394475Y575934D01*
X1394483Y575843D01*
X1394495Y575813D01*
X1394500Y575781D01*
X1394543Y575701D01*
X1394579Y575617D01*
X1394605Y575585D01*
X1394616Y575564D01*
X1394639Y575542D01*
X1394684Y575486D01*
X1400986Y569184D01*
X1401060Y569131D01*
X1401129Y569071D01*
X1401159Y569059D01*
X1401186Y569040D01*
X1401272Y569013D01*
X1401357Y568979D01*
X1401398Y568975D01*
X1401421Y568968D01*
X1401453Y568969D01*
X1401524Y568961D01*
X1424421Y568961D01*
X1428156Y567414D01*
X1443714Y551856D01*
X1445261Y548121D01*
X1445261Y467879D01*
X1443714Y464144D01*
X1431121Y451551D01*
X1428156Y448586D01*
X1424421Y447039D01*
X1344179Y447039D01*
G37*
%LPD*%
%LPC*%
G36*
X1481586Y472185D02*
X1481586Y472185D01*
X1475485Y478286D01*
X1475485Y486914D01*
X1481586Y493015D01*
X1490214Y493015D01*
X1490245Y492984D01*
X1490319Y492931D01*
X1490388Y492871D01*
X1490419Y492859D01*
X1490445Y492840D01*
X1490532Y492813D01*
X1490617Y492779D01*
X1490657Y492775D01*
X1490680Y492768D01*
X1490712Y492769D01*
X1490783Y492761D01*
X1671876Y492761D01*
X1671966Y492775D01*
X1672057Y492783D01*
X1672087Y492795D01*
X1672119Y492800D01*
X1672199Y492843D01*
X1672283Y492879D01*
X1672315Y492905D01*
X1672336Y492916D01*
X1672358Y492939D01*
X1672414Y492984D01*
X1691416Y511986D01*
X1691469Y512060D01*
X1691529Y512129D01*
X1691541Y512159D01*
X1691560Y512186D01*
X1691587Y512272D01*
X1691621Y512357D01*
X1691625Y512398D01*
X1691632Y512421D01*
X1691631Y512453D01*
X1691639Y512524D01*
X1691639Y579676D01*
X1691625Y579766D01*
X1691617Y579857D01*
X1691605Y579887D01*
X1691600Y579919D01*
X1691557Y579999D01*
X1691521Y580083D01*
X1691495Y580115D01*
X1691484Y580136D01*
X1691461Y580158D01*
X1691416Y580214D01*
X1655086Y616544D01*
X1653539Y620279D01*
X1653539Y637392D01*
X1653520Y637507D01*
X1653503Y637623D01*
X1653501Y637628D01*
X1653500Y637635D01*
X1653445Y637737D01*
X1653392Y637842D01*
X1653387Y637846D01*
X1653384Y637852D01*
X1653300Y637932D01*
X1653216Y638014D01*
X1653210Y638018D01*
X1653206Y638021D01*
X1653189Y638029D01*
X1653069Y638095D01*
X1651196Y638871D01*
X1648267Y641800D01*
X1646681Y645628D01*
X1646681Y649819D01*
X1646683Y649824D01*
X1646711Y649937D01*
X1646711Y649943D01*
X1646712Y649950D01*
X1646701Y650067D01*
X1646692Y650182D01*
X1646690Y650188D01*
X1646689Y650194D01*
X1646641Y650303D01*
X1646596Y650409D01*
X1646591Y650415D01*
X1646589Y650419D01*
X1646576Y650433D01*
X1646491Y650540D01*
X1628440Y668591D01*
X1628345Y668659D01*
X1628251Y668729D01*
X1628245Y668731D01*
X1628240Y668734D01*
X1628128Y668769D01*
X1628017Y668805D01*
X1628011Y668805D01*
X1628005Y668807D01*
X1627888Y668804D01*
X1627771Y668803D01*
X1627764Y668800D01*
X1627759Y668800D01*
X1627742Y668794D01*
X1627698Y668781D01*
X1623528Y668781D01*
X1619700Y670367D01*
X1616771Y673296D01*
X1615185Y677124D01*
X1615185Y694476D01*
X1616771Y698304D01*
X1619700Y701233D01*
X1623528Y702819D01*
X1627672Y702819D01*
X1631500Y701233D01*
X1634429Y698304D01*
X1636015Y694476D01*
X1636015Y690070D01*
X1636029Y689980D01*
X1636037Y689889D01*
X1636049Y689859D01*
X1636054Y689827D01*
X1636097Y689747D01*
X1636133Y689663D01*
X1636159Y689631D01*
X1636170Y689610D01*
X1636193Y689588D01*
X1636238Y689532D01*
X1667432Y658338D01*
X1667506Y658285D01*
X1667575Y658225D01*
X1667605Y658213D01*
X1667632Y658194D01*
X1667718Y658167D01*
X1667803Y658133D01*
X1667844Y658129D01*
X1667867Y658122D01*
X1667899Y658123D01*
X1667970Y658115D01*
X1672376Y658115D01*
X1672849Y657919D01*
X1672913Y657904D01*
X1672974Y657879D01*
X1673056Y657870D01*
X1673088Y657863D01*
X1673108Y657864D01*
X1673140Y657861D01*
X1678421Y657861D01*
X1682156Y656314D01*
X1685014Y653456D01*
X1686561Y649721D01*
X1686561Y645679D01*
X1685014Y641944D01*
X1682156Y639086D01*
X1678421Y637539D01*
X1674622Y637539D01*
X1674602Y637536D01*
X1674583Y637538D01*
X1674481Y637516D01*
X1674379Y637500D01*
X1674362Y637490D01*
X1674342Y637486D01*
X1674253Y637433D01*
X1674162Y637384D01*
X1674148Y637370D01*
X1674131Y637360D01*
X1674064Y637281D01*
X1673992Y637206D01*
X1673984Y637188D01*
X1673971Y637173D01*
X1673932Y637076D01*
X1673889Y636983D01*
X1673887Y636963D01*
X1673879Y636945D01*
X1673861Y636778D01*
X1673861Y626824D01*
X1673875Y626734D01*
X1673883Y626643D01*
X1673895Y626613D01*
X1673900Y626581D01*
X1673943Y626501D01*
X1673979Y626417D01*
X1674005Y626385D01*
X1674016Y626364D01*
X1674039Y626342D01*
X1674084Y626286D01*
X1710414Y589956D01*
X1711961Y586221D01*
X1711961Y505979D01*
X1710414Y502244D01*
X1682156Y473986D01*
X1678421Y472439D01*
X1490783Y472439D01*
X1490693Y472425D01*
X1490602Y472417D01*
X1490572Y472405D01*
X1490540Y472400D01*
X1490460Y472357D01*
X1490376Y472321D01*
X1490344Y472295D01*
X1490323Y472284D01*
X1490301Y472261D01*
X1490245Y472216D01*
X1490214Y472185D01*
X1481586Y472185D01*
G37*
%LPD*%
%LPC*%
G36*
X1405386Y383285D02*
X1405386Y383285D01*
X1399285Y389386D01*
X1399285Y398014D01*
X1399316Y398045D01*
X1399369Y398119D01*
X1399429Y398188D01*
X1399441Y398219D01*
X1399460Y398245D01*
X1399487Y398332D01*
X1399521Y398417D01*
X1399525Y398457D01*
X1399532Y398480D01*
X1399531Y398512D01*
X1399539Y398583D01*
X1399539Y408178D01*
X1399536Y408198D01*
X1399538Y408217D01*
X1399516Y408319D01*
X1399500Y408421D01*
X1399490Y408438D01*
X1399486Y408458D01*
X1399433Y408547D01*
X1399384Y408638D01*
X1399370Y408652D01*
X1399360Y408669D01*
X1399281Y408736D01*
X1399206Y408808D01*
X1399188Y408816D01*
X1399173Y408829D01*
X1399077Y408868D01*
X1398983Y408911D01*
X1398963Y408913D01*
X1398945Y408921D01*
X1398778Y408939D01*
X1198324Y408939D01*
X1198234Y408925D01*
X1198143Y408917D01*
X1198113Y408905D01*
X1198081Y408900D01*
X1198001Y408857D01*
X1197917Y408821D01*
X1197885Y408795D01*
X1197864Y408784D01*
X1197842Y408761D01*
X1197786Y408716D01*
X1195134Y406064D01*
X1195081Y405990D01*
X1195021Y405921D01*
X1195009Y405891D01*
X1194990Y405864D01*
X1194963Y405778D01*
X1194929Y405693D01*
X1194925Y405652D01*
X1194918Y405629D01*
X1194919Y405597D01*
X1194911Y405526D01*
X1194911Y400679D01*
X1186821Y392589D01*
X1175379Y392589D01*
X1167289Y400679D01*
X1167289Y412121D01*
X1175379Y420211D01*
X1180226Y420211D01*
X1180316Y420225D01*
X1180407Y420233D01*
X1180437Y420245D01*
X1180469Y420250D01*
X1180549Y420293D01*
X1180633Y420329D01*
X1180665Y420355D01*
X1180686Y420366D01*
X1180708Y420389D01*
X1180764Y420434D01*
X1183416Y423086D01*
X1183469Y423160D01*
X1183529Y423229D01*
X1183541Y423259D01*
X1183560Y423285D01*
X1183587Y423372D01*
X1183621Y423457D01*
X1183625Y423498D01*
X1183632Y423521D01*
X1183631Y423553D01*
X1183639Y423624D01*
X1183639Y503476D01*
X1183625Y503566D01*
X1183617Y503657D01*
X1183605Y503687D01*
X1183600Y503719D01*
X1183557Y503799D01*
X1183521Y503883D01*
X1183495Y503915D01*
X1183484Y503936D01*
X1183461Y503958D01*
X1183416Y504014D01*
X1164414Y523016D01*
X1164340Y523069D01*
X1164271Y523129D01*
X1164241Y523141D01*
X1164214Y523160D01*
X1164128Y523187D01*
X1164043Y523221D01*
X1164002Y523225D01*
X1163979Y523232D01*
X1163947Y523231D01*
X1163876Y523239D01*
X1160583Y523239D01*
X1160493Y523225D01*
X1160402Y523217D01*
X1160372Y523205D01*
X1160340Y523200D01*
X1160260Y523157D01*
X1160176Y523121D01*
X1160144Y523095D01*
X1160123Y523084D01*
X1160101Y523061D01*
X1160045Y523016D01*
X1160014Y522985D01*
X1151386Y522985D01*
X1145285Y529086D01*
X1145285Y537714D01*
X1151386Y543815D01*
X1160014Y543815D01*
X1160045Y543784D01*
X1160119Y543731D01*
X1160188Y543671D01*
X1160219Y543659D01*
X1160245Y543640D01*
X1160332Y543613D01*
X1160417Y543579D01*
X1160457Y543575D01*
X1160480Y543568D01*
X1160512Y543569D01*
X1160583Y543561D01*
X1170421Y543561D01*
X1174156Y542014D01*
X1177121Y539049D01*
X1199449Y516721D01*
X1202414Y513756D01*
X1203961Y510021D01*
X1203961Y430022D01*
X1203964Y430002D01*
X1203962Y429983D01*
X1203984Y429881D01*
X1204000Y429779D01*
X1204010Y429762D01*
X1204014Y429742D01*
X1204067Y429653D01*
X1204116Y429562D01*
X1204130Y429548D01*
X1204140Y429531D01*
X1204219Y429464D01*
X1204294Y429392D01*
X1204312Y429384D01*
X1204327Y429371D01*
X1204423Y429332D01*
X1204517Y429289D01*
X1204537Y429287D01*
X1204555Y429279D01*
X1204722Y429261D01*
X1398524Y429261D01*
X1398544Y429264D01*
X1398563Y429262D01*
X1398665Y429284D01*
X1398767Y429300D01*
X1398784Y429310D01*
X1398804Y429314D01*
X1398893Y429367D01*
X1398984Y429416D01*
X1398998Y429430D01*
X1399015Y429440D01*
X1399082Y429519D01*
X1399154Y429594D01*
X1399162Y429612D01*
X1399175Y429627D01*
X1399214Y429723D01*
X1399257Y429817D01*
X1399259Y429837D01*
X1399267Y429855D01*
X1399285Y430022D01*
X1399285Y436114D01*
X1405386Y442215D01*
X1414014Y442215D01*
X1420115Y436114D01*
X1420115Y427486D01*
X1420084Y427455D01*
X1420031Y427381D01*
X1419971Y427312D01*
X1419959Y427281D01*
X1419940Y427255D01*
X1419913Y427168D01*
X1419879Y427083D01*
X1419875Y427043D01*
X1419868Y427020D01*
X1419869Y426988D01*
X1419861Y426917D01*
X1419861Y398583D01*
X1419875Y398493D01*
X1419883Y398402D01*
X1419895Y398372D01*
X1419900Y398340D01*
X1419943Y398260D01*
X1419979Y398176D01*
X1420005Y398144D01*
X1420016Y398123D01*
X1420039Y398101D01*
X1420084Y398045D01*
X1420115Y398014D01*
X1420115Y389386D01*
X1414014Y383285D01*
X1405386Y383285D01*
G37*
%LPD*%
%LPC*%
G36*
X696075Y775207D02*
X696075Y775207D01*
X691593Y777064D01*
X688164Y780493D01*
X686307Y784975D01*
X686307Y789825D01*
X688164Y794307D01*
X691593Y797736D01*
X695601Y799397D01*
X695662Y799435D01*
X695728Y799464D01*
X695766Y799499D01*
X695810Y799526D01*
X695856Y799581D01*
X695909Y799630D01*
X695934Y799676D01*
X695967Y799716D01*
X695993Y799783D01*
X696028Y799846D01*
X696037Y799897D01*
X696055Y799945D01*
X696059Y800017D01*
X696071Y800088D01*
X696064Y800139D01*
X696066Y800191D01*
X696046Y800260D01*
X696035Y800331D01*
X696012Y800377D01*
X695997Y800427D01*
X695957Y800486D01*
X695924Y800550D01*
X695887Y800587D01*
X695857Y800629D01*
X695800Y800672D01*
X695748Y800722D01*
X695686Y800757D01*
X695660Y800776D01*
X695637Y800783D01*
X695601Y800803D01*
X691593Y802464D01*
X688164Y805893D01*
X686307Y810375D01*
X686307Y815225D01*
X688164Y819707D01*
X691593Y823136D01*
X695601Y824797D01*
X695662Y824835D01*
X695728Y824864D01*
X695766Y824899D01*
X695810Y824926D01*
X695856Y824981D01*
X695909Y825030D01*
X695934Y825076D01*
X695967Y825116D01*
X695993Y825183D01*
X696028Y825246D01*
X696037Y825297D01*
X696055Y825345D01*
X696059Y825417D01*
X696071Y825488D01*
X696064Y825539D01*
X696066Y825591D01*
X696046Y825660D01*
X696035Y825731D01*
X696012Y825777D01*
X695997Y825827D01*
X695957Y825886D01*
X695924Y825950D01*
X695887Y825987D01*
X695857Y826029D01*
X695800Y826072D01*
X695748Y826122D01*
X695686Y826157D01*
X695660Y826176D01*
X695637Y826183D01*
X695601Y826203D01*
X691593Y827864D01*
X688164Y831293D01*
X686307Y835775D01*
X686307Y840625D01*
X688164Y845107D01*
X691593Y848536D01*
X695601Y850197D01*
X695662Y850235D01*
X695728Y850264D01*
X695766Y850299D01*
X695810Y850326D01*
X695856Y850381D01*
X695909Y850430D01*
X695934Y850476D01*
X695967Y850516D01*
X695993Y850583D01*
X696028Y850646D01*
X696037Y850697D01*
X696055Y850745D01*
X696059Y850817D01*
X696071Y850888D01*
X696064Y850939D01*
X696066Y850991D01*
X696046Y851060D01*
X696035Y851131D01*
X696012Y851177D01*
X695997Y851227D01*
X695957Y851286D01*
X695924Y851350D01*
X695887Y851387D01*
X695857Y851429D01*
X695800Y851472D01*
X695748Y851522D01*
X695686Y851557D01*
X695660Y851576D01*
X695637Y851583D01*
X695601Y851603D01*
X691593Y853264D01*
X688164Y856693D01*
X686307Y861175D01*
X686307Y866025D01*
X688164Y870507D01*
X691593Y873936D01*
X695601Y875597D01*
X695662Y875635D01*
X695728Y875664D01*
X695766Y875699D01*
X695810Y875726D01*
X695856Y875781D01*
X695909Y875830D01*
X695934Y875876D01*
X695967Y875916D01*
X695993Y875983D01*
X696028Y876046D01*
X696037Y876097D01*
X696055Y876145D01*
X696059Y876217D01*
X696071Y876288D01*
X696064Y876339D01*
X696066Y876391D01*
X696046Y876460D01*
X696035Y876531D01*
X696012Y876577D01*
X695997Y876627D01*
X695957Y876686D01*
X695924Y876750D01*
X695887Y876787D01*
X695857Y876829D01*
X695800Y876872D01*
X695748Y876922D01*
X695686Y876957D01*
X695660Y876976D01*
X695637Y876983D01*
X695601Y877003D01*
X691593Y878664D01*
X688164Y882093D01*
X686307Y886575D01*
X686307Y891425D01*
X688164Y895907D01*
X691593Y899336D01*
X696075Y901193D01*
X700925Y901193D01*
X705407Y899336D01*
X708836Y895907D01*
X710693Y891425D01*
X710693Y886575D01*
X708836Y882093D01*
X705407Y878664D01*
X701399Y877003D01*
X701338Y876966D01*
X701272Y876936D01*
X701234Y876901D01*
X701190Y876874D01*
X701144Y876819D01*
X701091Y876770D01*
X701066Y876724D01*
X701033Y876684D01*
X701007Y876617D01*
X700972Y876554D01*
X700963Y876503D01*
X700945Y876455D01*
X700941Y876383D01*
X700929Y876312D01*
X700936Y876261D01*
X700934Y876209D01*
X700954Y876140D01*
X700965Y876069D01*
X700988Y876023D01*
X701003Y875973D01*
X701043Y875914D01*
X701076Y875850D01*
X701113Y875813D01*
X701143Y875771D01*
X701200Y875728D01*
X701252Y875678D01*
X701314Y875643D01*
X701340Y875624D01*
X701363Y875617D01*
X701399Y875597D01*
X705445Y873921D01*
X705503Y873871D01*
X705533Y873859D01*
X705559Y873840D01*
X705646Y873813D01*
X705731Y873779D01*
X705772Y873775D01*
X705794Y873768D01*
X705826Y873769D01*
X705898Y873761D01*
X732076Y873761D01*
X732166Y873775D01*
X732257Y873783D01*
X732287Y873795D01*
X732319Y873800D01*
X732399Y873843D01*
X732483Y873879D01*
X732515Y873905D01*
X732536Y873916D01*
X732558Y873939D01*
X732614Y873984D01*
X738916Y880286D01*
X738969Y880360D01*
X739029Y880429D01*
X739041Y880459D01*
X739060Y880486D01*
X739087Y880572D01*
X739121Y880657D01*
X739125Y880698D01*
X739132Y880721D01*
X739131Y880753D01*
X739139Y880824D01*
X739139Y891021D01*
X740686Y894756D01*
X756244Y910314D01*
X759979Y911861D01*
X802511Y911861D01*
X802576Y911871D01*
X802641Y911872D01*
X802721Y911895D01*
X802754Y911900D01*
X802771Y911910D01*
X802802Y911919D01*
X803121Y912051D01*
X807239Y912051D01*
X811043Y910475D01*
X813955Y907563D01*
X815531Y903759D01*
X815531Y899641D01*
X813955Y895837D01*
X811043Y892925D01*
X807239Y891349D01*
X803121Y891349D01*
X802802Y891481D01*
X802739Y891496D01*
X802678Y891521D01*
X802595Y891530D01*
X802563Y891537D01*
X802543Y891536D01*
X802511Y891539D01*
X766524Y891539D01*
X766434Y891525D01*
X766343Y891517D01*
X766313Y891505D01*
X766281Y891500D01*
X766201Y891457D01*
X766117Y891421D01*
X766085Y891395D01*
X766064Y891384D01*
X766042Y891361D01*
X765986Y891316D01*
X759684Y885014D01*
X759631Y884940D01*
X759571Y884871D01*
X759559Y884841D01*
X759540Y884814D01*
X759513Y884728D01*
X759479Y884643D01*
X759475Y884602D01*
X759468Y884579D01*
X759469Y884547D01*
X759461Y884476D01*
X759461Y874279D01*
X757914Y870544D01*
X742356Y854986D01*
X738621Y853439D01*
X705898Y853439D01*
X705808Y853425D01*
X705717Y853417D01*
X705687Y853405D01*
X705655Y853400D01*
X705574Y853357D01*
X705490Y853321D01*
X705458Y853295D01*
X705438Y853284D01*
X705425Y853271D01*
X701399Y851603D01*
X701338Y851566D01*
X701272Y851536D01*
X701234Y851501D01*
X701190Y851474D01*
X701144Y851419D01*
X701091Y851370D01*
X701066Y851324D01*
X701033Y851284D01*
X701007Y851217D01*
X700972Y851154D01*
X700963Y851103D01*
X700945Y851055D01*
X700941Y850983D01*
X700929Y850912D01*
X700936Y850861D01*
X700934Y850809D01*
X700954Y850740D01*
X700965Y850669D01*
X700988Y850623D01*
X701003Y850573D01*
X701043Y850514D01*
X701076Y850450D01*
X701113Y850413D01*
X701143Y850371D01*
X701200Y850328D01*
X701252Y850278D01*
X701314Y850243D01*
X701340Y850224D01*
X701363Y850217D01*
X701399Y850197D01*
X705407Y848536D01*
X708836Y845107D01*
X710693Y840625D01*
X710693Y835775D01*
X708836Y831293D01*
X705407Y827864D01*
X701399Y826203D01*
X701338Y826166D01*
X701272Y826136D01*
X701234Y826101D01*
X701190Y826074D01*
X701144Y826019D01*
X701091Y825970D01*
X701066Y825924D01*
X701033Y825884D01*
X701007Y825817D01*
X700972Y825754D01*
X700963Y825703D01*
X700945Y825655D01*
X700941Y825583D01*
X700929Y825512D01*
X700936Y825461D01*
X700934Y825409D01*
X700954Y825340D01*
X700965Y825269D01*
X700988Y825223D01*
X701003Y825173D01*
X701043Y825114D01*
X701076Y825050D01*
X701113Y825013D01*
X701143Y824971D01*
X701200Y824928D01*
X701252Y824878D01*
X701314Y824843D01*
X701340Y824824D01*
X701363Y824817D01*
X701399Y824797D01*
X705407Y823136D01*
X708836Y819707D01*
X710693Y815225D01*
X710693Y810375D01*
X708836Y805893D01*
X705407Y802464D01*
X701399Y800803D01*
X701338Y800766D01*
X701272Y800736D01*
X701234Y800701D01*
X701190Y800674D01*
X701144Y800619D01*
X701091Y800570D01*
X701066Y800524D01*
X701033Y800484D01*
X701007Y800417D01*
X700972Y800354D01*
X700963Y800303D01*
X700945Y800255D01*
X700941Y800183D01*
X700929Y800112D01*
X700936Y800061D01*
X700934Y800009D01*
X700954Y799940D01*
X700965Y799869D01*
X700988Y799823D01*
X701003Y799773D01*
X701043Y799714D01*
X701076Y799650D01*
X701113Y799613D01*
X701143Y799571D01*
X701200Y799528D01*
X701252Y799478D01*
X701314Y799443D01*
X701340Y799424D01*
X701363Y799417D01*
X701399Y799397D01*
X705445Y797721D01*
X705503Y797671D01*
X705533Y797659D01*
X705559Y797640D01*
X705646Y797613D01*
X705731Y797579D01*
X705772Y797575D01*
X705794Y797568D01*
X705826Y797569D01*
X705898Y797561D01*
X719376Y797561D01*
X719466Y797575D01*
X719557Y797583D01*
X719587Y797595D01*
X719619Y797600D01*
X719699Y797643D01*
X719783Y797679D01*
X719815Y797705D01*
X719836Y797716D01*
X719858Y797739D01*
X719914Y797784D01*
X738916Y816786D01*
X738969Y816860D01*
X739029Y816929D01*
X739041Y816959D01*
X739060Y816985D01*
X739087Y817072D01*
X739121Y817157D01*
X739125Y817198D01*
X739132Y817221D01*
X739131Y817253D01*
X739139Y817324D01*
X739139Y840221D01*
X740686Y843956D01*
X781644Y884914D01*
X785379Y886461D01*
X802511Y886461D01*
X802576Y886471D01*
X802641Y886472D01*
X802721Y886495D01*
X802754Y886500D01*
X802771Y886510D01*
X802802Y886519D01*
X803121Y886651D01*
X807239Y886651D01*
X811043Y885075D01*
X813955Y882163D01*
X815531Y878359D01*
X815531Y874241D01*
X813955Y870437D01*
X811043Y867525D01*
X807239Y865949D01*
X803121Y865949D01*
X802802Y866081D01*
X802739Y866096D01*
X802678Y866121D01*
X802595Y866130D01*
X802563Y866137D01*
X802543Y866136D01*
X802511Y866139D01*
X791924Y866139D01*
X791834Y866125D01*
X791743Y866117D01*
X791713Y866105D01*
X791681Y866100D01*
X791601Y866057D01*
X791517Y866021D01*
X791485Y865995D01*
X791464Y865984D01*
X791442Y865961D01*
X791386Y865916D01*
X759684Y834214D01*
X759631Y834140D01*
X759571Y834071D01*
X759559Y834041D01*
X759540Y834014D01*
X759513Y833928D01*
X759479Y833843D01*
X759475Y833802D01*
X759468Y833779D01*
X759469Y833747D01*
X759461Y833676D01*
X759461Y810779D01*
X757914Y807044D01*
X754949Y804079D01*
X729656Y778786D01*
X725921Y777239D01*
X705898Y777239D01*
X705808Y777225D01*
X705717Y777217D01*
X705687Y777205D01*
X705655Y777200D01*
X705574Y777157D01*
X705490Y777121D01*
X705458Y777095D01*
X705438Y777084D01*
X705425Y777071D01*
X700925Y775207D01*
X696075Y775207D01*
G37*
%LPD*%
%LPC*%
G36*
X803121Y789749D02*
X803121Y789749D01*
X799317Y791325D01*
X796405Y794237D01*
X794829Y798041D01*
X794829Y802159D01*
X796405Y805963D01*
X799317Y808875D01*
X803121Y810451D01*
X807239Y810451D01*
X807558Y810319D01*
X807621Y810304D01*
X807682Y810279D01*
X807765Y810270D01*
X807797Y810263D01*
X807817Y810264D01*
X807849Y810261D01*
X973376Y810261D01*
X973466Y810275D01*
X973557Y810283D01*
X973587Y810295D01*
X973619Y810300D01*
X973699Y810343D01*
X973783Y810379D01*
X973815Y810405D01*
X973836Y810416D01*
X973858Y810439D01*
X973914Y810484D01*
X1081816Y918386D01*
X1081869Y918460D01*
X1081929Y918529D01*
X1081941Y918559D01*
X1081960Y918586D01*
X1081987Y918672D01*
X1082021Y918757D01*
X1082025Y918798D01*
X1082032Y918821D01*
X1082031Y918853D01*
X1082039Y918924D01*
X1082039Y928810D01*
X1082025Y928900D01*
X1082017Y928991D01*
X1082005Y929021D01*
X1082000Y929053D01*
X1081957Y929134D01*
X1081921Y929217D01*
X1081895Y929250D01*
X1081884Y929270D01*
X1081861Y929292D01*
X1081816Y929348D01*
X1079710Y931455D01*
X1077467Y936869D01*
X1077467Y942731D01*
X1079710Y948145D01*
X1083855Y952290D01*
X1089269Y954533D01*
X1095131Y954533D01*
X1100545Y952290D01*
X1104690Y948145D01*
X1106933Y942731D01*
X1106933Y936869D01*
X1104690Y931455D01*
X1102584Y929348D01*
X1102531Y929275D01*
X1102471Y929205D01*
X1102459Y929175D01*
X1102440Y929149D01*
X1102413Y929062D01*
X1102379Y928977D01*
X1102375Y928936D01*
X1102368Y928914D01*
X1102369Y928881D01*
X1102361Y928810D01*
X1102361Y912379D01*
X1100814Y908644D01*
X983656Y791486D01*
X979921Y789939D01*
X807849Y789939D01*
X807784Y789929D01*
X807719Y789928D01*
X807639Y789905D01*
X807606Y789900D01*
X807589Y789890D01*
X807558Y789881D01*
X807239Y789749D01*
X803121Y789749D01*
G37*
%LPD*%
%LPC*%
G36*
X1735586Y522985D02*
X1735586Y522985D01*
X1729485Y529086D01*
X1729485Y537714D01*
X1735586Y543815D01*
X1735630Y543815D01*
X1735720Y543829D01*
X1735811Y543837D01*
X1735841Y543849D01*
X1735873Y543854D01*
X1735953Y543897D01*
X1736037Y543933D01*
X1736069Y543959D01*
X1736090Y543970D01*
X1736112Y543993D01*
X1736168Y544038D01*
X1793016Y600886D01*
X1793069Y600960D01*
X1793129Y601029D01*
X1793141Y601059D01*
X1793160Y601086D01*
X1793187Y601172D01*
X1793221Y601257D01*
X1793225Y601298D01*
X1793232Y601321D01*
X1793231Y601353D01*
X1793239Y601424D01*
X1793239Y732076D01*
X1793225Y732166D01*
X1793217Y732257D01*
X1793205Y732287D01*
X1793200Y732319D01*
X1793157Y732399D01*
X1793121Y732483D01*
X1793095Y732515D01*
X1793084Y732536D01*
X1793061Y732558D01*
X1793016Y732614D01*
X1780840Y744791D01*
X1780745Y744859D01*
X1780651Y744929D01*
X1780645Y744931D01*
X1780640Y744934D01*
X1780529Y744968D01*
X1780417Y745005D01*
X1780411Y745005D01*
X1780405Y745007D01*
X1780288Y745004D01*
X1780171Y745003D01*
X1780164Y745000D01*
X1780159Y745000D01*
X1780142Y744994D01*
X1780098Y744981D01*
X1775928Y744981D01*
X1772100Y746567D01*
X1769171Y749496D01*
X1767585Y753324D01*
X1767585Y757730D01*
X1767571Y757820D01*
X1767563Y757911D01*
X1767551Y757941D01*
X1767546Y757973D01*
X1767503Y758053D01*
X1767467Y758137D01*
X1767441Y758169D01*
X1767430Y758190D01*
X1767407Y758212D01*
X1767362Y758268D01*
X1736168Y789462D01*
X1736094Y789515D01*
X1736025Y789575D01*
X1735995Y789587D01*
X1735968Y789606D01*
X1735882Y789633D01*
X1735797Y789667D01*
X1735756Y789671D01*
X1735733Y789678D01*
X1735701Y789677D01*
X1735630Y789685D01*
X1731224Y789685D01*
X1727396Y791271D01*
X1724467Y794200D01*
X1722881Y798028D01*
X1722881Y802172D01*
X1724467Y806000D01*
X1727396Y808929D01*
X1731224Y810515D01*
X1748576Y810515D01*
X1752404Y808929D01*
X1755333Y806000D01*
X1756919Y802172D01*
X1756919Y797981D01*
X1756918Y797977D01*
X1756889Y797863D01*
X1756889Y797857D01*
X1756888Y797851D01*
X1756899Y797734D01*
X1756908Y797618D01*
X1756910Y797612D01*
X1756911Y797606D01*
X1756959Y797498D01*
X1757004Y797391D01*
X1757009Y797386D01*
X1757011Y797381D01*
X1757024Y797367D01*
X1757109Y797260D01*
X1775160Y779209D01*
X1775255Y779141D01*
X1775349Y779071D01*
X1775355Y779069D01*
X1775360Y779066D01*
X1775471Y779032D01*
X1775583Y778995D01*
X1775589Y778995D01*
X1775595Y778993D01*
X1775712Y778996D01*
X1775829Y778997D01*
X1775836Y779000D01*
X1775841Y779000D01*
X1775858Y779006D01*
X1775902Y779019D01*
X1780072Y779019D01*
X1783900Y777433D01*
X1786829Y774504D01*
X1788415Y770676D01*
X1788415Y766270D01*
X1788429Y766180D01*
X1788437Y766089D01*
X1788449Y766059D01*
X1788454Y766027D01*
X1788497Y765947D01*
X1788533Y765863D01*
X1788559Y765831D01*
X1788570Y765810D01*
X1788593Y765788D01*
X1788638Y765732D01*
X1812014Y742356D01*
X1813561Y738621D01*
X1813561Y594879D01*
X1812014Y591144D01*
X1750538Y529668D01*
X1750485Y529594D01*
X1750425Y529525D01*
X1750413Y529495D01*
X1750394Y529468D01*
X1750367Y529382D01*
X1750333Y529297D01*
X1750329Y529256D01*
X1750322Y529233D01*
X1750323Y529201D01*
X1750315Y529130D01*
X1750315Y529086D01*
X1744214Y522985D01*
X1735586Y522985D01*
G37*
%LPD*%
%LPC*%
G36*
X1344171Y715299D02*
X1344171Y715299D01*
X1340422Y716852D01*
X1337533Y719741D01*
X1337510Y719794D01*
X1337458Y719859D01*
X1337441Y719887D01*
X1337426Y719900D01*
X1337405Y719925D01*
X1324886Y732444D01*
X1323339Y736179D01*
X1323339Y852678D01*
X1323336Y852698D01*
X1323338Y852717D01*
X1323316Y852819D01*
X1323300Y852921D01*
X1323290Y852938D01*
X1323286Y852958D01*
X1323233Y853047D01*
X1323184Y853138D01*
X1323170Y853152D01*
X1323160Y853169D01*
X1323081Y853236D01*
X1323006Y853308D01*
X1322988Y853316D01*
X1322973Y853329D01*
X1322877Y853368D01*
X1322783Y853411D01*
X1322763Y853413D01*
X1322745Y853421D01*
X1322578Y853439D01*
X1267979Y853439D01*
X1264244Y854986D01*
X1223286Y895944D01*
X1221739Y899679D01*
X1221739Y930114D01*
X1221738Y930123D01*
X1221738Y930128D01*
X1221733Y930150D01*
X1221725Y930204D01*
X1221717Y930295D01*
X1221705Y930325D01*
X1221700Y930357D01*
X1221657Y930438D01*
X1221621Y930521D01*
X1221595Y930554D01*
X1221584Y930574D01*
X1221561Y930596D01*
X1221516Y930652D01*
X1218089Y934079D01*
X1218089Y945521D01*
X1226179Y953611D01*
X1237621Y953611D01*
X1245711Y945521D01*
X1245711Y934079D01*
X1242284Y930652D01*
X1242231Y930578D01*
X1242171Y930509D01*
X1242159Y930479D01*
X1242140Y930453D01*
X1242113Y930366D01*
X1242079Y930281D01*
X1242075Y930240D01*
X1242068Y930218D01*
X1242069Y930185D01*
X1242061Y930114D01*
X1242061Y906224D01*
X1242075Y906134D01*
X1242083Y906043D01*
X1242095Y906013D01*
X1242100Y905981D01*
X1242143Y905901D01*
X1242179Y905817D01*
X1242205Y905785D01*
X1242216Y905764D01*
X1242239Y905742D01*
X1242284Y905686D01*
X1273986Y873984D01*
X1274060Y873931D01*
X1274129Y873871D01*
X1274159Y873859D01*
X1274186Y873840D01*
X1274272Y873813D01*
X1274357Y873779D01*
X1274398Y873775D01*
X1274421Y873768D01*
X1274453Y873769D01*
X1274524Y873761D01*
X1316276Y873761D01*
X1316366Y873775D01*
X1316457Y873783D01*
X1316487Y873795D01*
X1316519Y873800D01*
X1316599Y873843D01*
X1316683Y873879D01*
X1316715Y873905D01*
X1316736Y873916D01*
X1316758Y873939D01*
X1316814Y873984D01*
X1323116Y880286D01*
X1323169Y880360D01*
X1323229Y880429D01*
X1323241Y880459D01*
X1323260Y880486D01*
X1323287Y880572D01*
X1323321Y880657D01*
X1323325Y880698D01*
X1323332Y880721D01*
X1323331Y880753D01*
X1323339Y880824D01*
X1323339Y884117D01*
X1323325Y884207D01*
X1323317Y884298D01*
X1323305Y884328D01*
X1323300Y884360D01*
X1323257Y884440D01*
X1323221Y884524D01*
X1323195Y884556D01*
X1323184Y884577D01*
X1323161Y884599D01*
X1323116Y884655D01*
X1323085Y884686D01*
X1323085Y893314D01*
X1329186Y899415D01*
X1337814Y899415D01*
X1343915Y893314D01*
X1343915Y884686D01*
X1343884Y884655D01*
X1343831Y884581D01*
X1343771Y884512D01*
X1343759Y884481D01*
X1343740Y884455D01*
X1343713Y884368D01*
X1343679Y884283D01*
X1343675Y884243D01*
X1343668Y884220D01*
X1343669Y884188D01*
X1343661Y884117D01*
X1343661Y742724D01*
X1343675Y742634D01*
X1343683Y742543D01*
X1343695Y742513D01*
X1343700Y742481D01*
X1343743Y742401D01*
X1343779Y742317D01*
X1343805Y742285D01*
X1343816Y742264D01*
X1343839Y742242D01*
X1343884Y742186D01*
X1351775Y734295D01*
X1351828Y734257D01*
X1351875Y734211D01*
X1351948Y734171D01*
X1351974Y734151D01*
X1351975Y734151D01*
X1354848Y731278D01*
X1356401Y727529D01*
X1356401Y723471D01*
X1354848Y719722D01*
X1351978Y716852D01*
X1348229Y715299D01*
X1344171Y715299D01*
G37*
%LPD*%
%LPC*%
G36*
X1481586Y383285D02*
X1481586Y383285D01*
X1475485Y389386D01*
X1475485Y398014D01*
X1475516Y398045D01*
X1475569Y398119D01*
X1475629Y398188D01*
X1475641Y398219D01*
X1475660Y398245D01*
X1475687Y398332D01*
X1475721Y398417D01*
X1475725Y398457D01*
X1475732Y398480D01*
X1475731Y398512D01*
X1475739Y398583D01*
X1475739Y426917D01*
X1475737Y426930D01*
X1475738Y426941D01*
X1475726Y426998D01*
X1475725Y427007D01*
X1475717Y427098D01*
X1475705Y427128D01*
X1475700Y427160D01*
X1475657Y427240D01*
X1475621Y427324D01*
X1475595Y427356D01*
X1475584Y427377D01*
X1475561Y427399D01*
X1475516Y427455D01*
X1475485Y427486D01*
X1475485Y427530D01*
X1475471Y427620D01*
X1475463Y427711D01*
X1475451Y427741D01*
X1475446Y427773D01*
X1475403Y427853D01*
X1475367Y427937D01*
X1475341Y427969D01*
X1475330Y427990D01*
X1475307Y428012D01*
X1475262Y428068D01*
X1451886Y451444D01*
X1450339Y455179D01*
X1450339Y497321D01*
X1451886Y501056D01*
X1475516Y524686D01*
X1475569Y524760D01*
X1475629Y524829D01*
X1475641Y524859D01*
X1475660Y524886D01*
X1475687Y524972D01*
X1475721Y525057D01*
X1475725Y525098D01*
X1475732Y525121D01*
X1475731Y525153D01*
X1475739Y525224D01*
X1475739Y528517D01*
X1475725Y528607D01*
X1475717Y528698D01*
X1475705Y528728D01*
X1475700Y528760D01*
X1475657Y528840D01*
X1475621Y528924D01*
X1475595Y528956D01*
X1475584Y528977D01*
X1475561Y528999D01*
X1475516Y529055D01*
X1475485Y529086D01*
X1475485Y537714D01*
X1475516Y537745D01*
X1475569Y537819D01*
X1475629Y537888D01*
X1475641Y537919D01*
X1475660Y537945D01*
X1475687Y538032D01*
X1475721Y538117D01*
X1475725Y538157D01*
X1475732Y538180D01*
X1475731Y538212D01*
X1475739Y538283D01*
X1475739Y592376D01*
X1475725Y592466D01*
X1475717Y592557D01*
X1475705Y592587D01*
X1475700Y592619D01*
X1475657Y592699D01*
X1475621Y592783D01*
X1475595Y592815D01*
X1475584Y592836D01*
X1475561Y592858D01*
X1475516Y592914D01*
X1464586Y603844D01*
X1463039Y607579D01*
X1463039Y643823D01*
X1463029Y643888D01*
X1463028Y643953D01*
X1463005Y644033D01*
X1463000Y644066D01*
X1462999Y644066D01*
X1462999Y648129D01*
X1464552Y651878D01*
X1467422Y654748D01*
X1471171Y656301D01*
X1475229Y656301D01*
X1478978Y654748D01*
X1481848Y651878D01*
X1483401Y648129D01*
X1483401Y644043D01*
X1483379Y643990D01*
X1483370Y643907D01*
X1483363Y643875D01*
X1483364Y643856D01*
X1483361Y643823D01*
X1483361Y614124D01*
X1483375Y614034D01*
X1483383Y613943D01*
X1483395Y613913D01*
X1483400Y613881D01*
X1483443Y613801D01*
X1483479Y613717D01*
X1483505Y613685D01*
X1483516Y613664D01*
X1483539Y613642D01*
X1483584Y613586D01*
X1494514Y602656D01*
X1496061Y598921D01*
X1496061Y544322D01*
X1496064Y544302D01*
X1496062Y544283D01*
X1496084Y544181D01*
X1496100Y544079D01*
X1496110Y544062D01*
X1496114Y544042D01*
X1496167Y543953D01*
X1496216Y543862D01*
X1496230Y543848D01*
X1496240Y543831D01*
X1496319Y543764D01*
X1496394Y543692D01*
X1496412Y543684D01*
X1496427Y543671D01*
X1496523Y543632D01*
X1496617Y543589D01*
X1496637Y543587D01*
X1496655Y543579D01*
X1496822Y543561D01*
X1531817Y543561D01*
X1531907Y543575D01*
X1531998Y543583D01*
X1532028Y543595D01*
X1532060Y543600D01*
X1532140Y543643D01*
X1532224Y543679D01*
X1532256Y543705D01*
X1532277Y543716D01*
X1532299Y543739D01*
X1532355Y543784D01*
X1532386Y543815D01*
X1541014Y543815D01*
X1547115Y537714D01*
X1547115Y529086D01*
X1541014Y522985D01*
X1532386Y522985D01*
X1532355Y523016D01*
X1532281Y523069D01*
X1532212Y523129D01*
X1532181Y523141D01*
X1532155Y523160D01*
X1532068Y523187D01*
X1531983Y523221D01*
X1531943Y523225D01*
X1531920Y523232D01*
X1531888Y523231D01*
X1531817Y523239D01*
X1496822Y523239D01*
X1496802Y523236D01*
X1496783Y523238D01*
X1496681Y523216D01*
X1496579Y523200D01*
X1496562Y523190D01*
X1496542Y523186D01*
X1496453Y523133D01*
X1496362Y523084D01*
X1496348Y523070D01*
X1496331Y523060D01*
X1496264Y522981D01*
X1496192Y522906D01*
X1496184Y522888D01*
X1496171Y522873D01*
X1496132Y522777D01*
X1496089Y522683D01*
X1496087Y522663D01*
X1496079Y522645D01*
X1496061Y522478D01*
X1496061Y518679D01*
X1494514Y514944D01*
X1470884Y491314D01*
X1470831Y491240D01*
X1470771Y491171D01*
X1470759Y491141D01*
X1470740Y491114D01*
X1470713Y491028D01*
X1470679Y490943D01*
X1470675Y490902D01*
X1470668Y490879D01*
X1470669Y490847D01*
X1470661Y490776D01*
X1470661Y461724D01*
X1470675Y461634D01*
X1470683Y461543D01*
X1470695Y461513D01*
X1470700Y461481D01*
X1470743Y461401D01*
X1470779Y461317D01*
X1470805Y461285D01*
X1470816Y461264D01*
X1470839Y461242D01*
X1470884Y461186D01*
X1489632Y442438D01*
X1489706Y442385D01*
X1489775Y442325D01*
X1489805Y442313D01*
X1489832Y442294D01*
X1489918Y442267D01*
X1490003Y442233D01*
X1490044Y442229D01*
X1490067Y442222D01*
X1490099Y442223D01*
X1490170Y442215D01*
X1490214Y442215D01*
X1496315Y436114D01*
X1496315Y427486D01*
X1496284Y427455D01*
X1496231Y427381D01*
X1496171Y427312D01*
X1496159Y427281D01*
X1496140Y427255D01*
X1496113Y427168D01*
X1496079Y427083D01*
X1496075Y427043D01*
X1496068Y427020D01*
X1496069Y426988D01*
X1496061Y426917D01*
X1496061Y398583D01*
X1496075Y398493D01*
X1496083Y398402D01*
X1496095Y398372D01*
X1496100Y398340D01*
X1496143Y398260D01*
X1496179Y398176D01*
X1496205Y398144D01*
X1496216Y398123D01*
X1496239Y398101D01*
X1496284Y398045D01*
X1496315Y398014D01*
X1496315Y389386D01*
X1490214Y383285D01*
X1481586Y383285D01*
G37*
%LPD*%
%LPC*%
G36*
X696075Y445007D02*
X696075Y445007D01*
X691593Y446864D01*
X688164Y450293D01*
X686307Y454775D01*
X686307Y459625D01*
X688164Y464107D01*
X691593Y467536D01*
X695601Y469197D01*
X695662Y469235D01*
X695728Y469264D01*
X695766Y469299D01*
X695811Y469326D01*
X695856Y469382D01*
X695909Y469430D01*
X695934Y469476D01*
X695967Y469516D01*
X695993Y469583D01*
X696028Y469646D01*
X696037Y469697D01*
X696056Y469745D01*
X696059Y469817D01*
X696071Y469888D01*
X696064Y469939D01*
X696066Y469991D01*
X696046Y470060D01*
X696036Y470131D01*
X696012Y470177D01*
X695997Y470227D01*
X695957Y470286D01*
X695924Y470350D01*
X695887Y470387D01*
X695857Y470429D01*
X695800Y470472D01*
X695748Y470522D01*
X695686Y470557D01*
X695660Y470576D01*
X695638Y470583D01*
X695601Y470603D01*
X691593Y472264D01*
X688164Y475693D01*
X686307Y480175D01*
X686307Y485025D01*
X688164Y489507D01*
X691593Y492936D01*
X695601Y494597D01*
X695662Y494635D01*
X695728Y494664D01*
X695766Y494699D01*
X695811Y494726D01*
X695856Y494782D01*
X695909Y494830D01*
X695934Y494876D01*
X695967Y494916D01*
X695993Y494983D01*
X696028Y495046D01*
X696037Y495097D01*
X696056Y495145D01*
X696059Y495217D01*
X696071Y495288D01*
X696064Y495339D01*
X696066Y495391D01*
X696046Y495460D01*
X696036Y495531D01*
X696012Y495577D01*
X695997Y495627D01*
X695957Y495686D01*
X695924Y495750D01*
X695887Y495787D01*
X695857Y495829D01*
X695800Y495872D01*
X695748Y495922D01*
X695686Y495957D01*
X695660Y495976D01*
X695638Y495983D01*
X695601Y496003D01*
X691593Y497664D01*
X688164Y501093D01*
X686307Y505575D01*
X686307Y510425D01*
X688164Y514907D01*
X691593Y518336D01*
X695601Y519997D01*
X695662Y520035D01*
X695728Y520064D01*
X695766Y520099D01*
X695811Y520126D01*
X695856Y520182D01*
X695909Y520230D01*
X695934Y520276D01*
X695967Y520316D01*
X695993Y520383D01*
X696028Y520446D01*
X696037Y520497D01*
X696056Y520545D01*
X696059Y520617D01*
X696071Y520688D01*
X696064Y520739D01*
X696066Y520791D01*
X696046Y520860D01*
X696036Y520931D01*
X696012Y520977D01*
X695997Y521027D01*
X695957Y521086D01*
X695924Y521150D01*
X695887Y521187D01*
X695857Y521229D01*
X695800Y521272D01*
X695748Y521322D01*
X695686Y521357D01*
X695660Y521376D01*
X695638Y521383D01*
X695601Y521403D01*
X691593Y523064D01*
X688164Y526493D01*
X686307Y530975D01*
X686307Y535825D01*
X688164Y540307D01*
X691593Y543736D01*
X695601Y545397D01*
X695662Y545435D01*
X695728Y545464D01*
X695766Y545499D01*
X695811Y545526D01*
X695856Y545582D01*
X695909Y545630D01*
X695934Y545676D01*
X695967Y545716D01*
X695993Y545783D01*
X696028Y545846D01*
X696037Y545897D01*
X696056Y545945D01*
X696059Y546017D01*
X696071Y546088D01*
X696064Y546139D01*
X696066Y546191D01*
X696046Y546260D01*
X696036Y546331D01*
X696012Y546377D01*
X695997Y546427D01*
X695957Y546486D01*
X695924Y546550D01*
X695887Y546587D01*
X695857Y546629D01*
X695800Y546672D01*
X695748Y546722D01*
X695686Y546757D01*
X695660Y546776D01*
X695638Y546783D01*
X695601Y546803D01*
X691593Y548464D01*
X688164Y551893D01*
X686307Y556375D01*
X686307Y561225D01*
X688164Y565707D01*
X691593Y569136D01*
X695601Y570797D01*
X695662Y570835D01*
X695728Y570864D01*
X695766Y570899D01*
X695811Y570926D01*
X695856Y570982D01*
X695909Y571030D01*
X695934Y571076D01*
X695967Y571116D01*
X695993Y571183D01*
X696028Y571246D01*
X696037Y571297D01*
X696056Y571345D01*
X696059Y571417D01*
X696071Y571488D01*
X696064Y571539D01*
X696066Y571591D01*
X696046Y571660D01*
X696036Y571731D01*
X696012Y571777D01*
X695997Y571827D01*
X695957Y571886D01*
X695924Y571950D01*
X695887Y571987D01*
X695857Y572029D01*
X695800Y572072D01*
X695748Y572122D01*
X695686Y572157D01*
X695660Y572176D01*
X695638Y572183D01*
X695601Y572203D01*
X691593Y573864D01*
X688164Y577293D01*
X686307Y581775D01*
X686307Y586625D01*
X688164Y591107D01*
X691593Y594536D01*
X695601Y596197D01*
X695662Y596235D01*
X695728Y596264D01*
X695766Y596299D01*
X695811Y596326D01*
X695856Y596382D01*
X695909Y596430D01*
X695934Y596476D01*
X695967Y596516D01*
X695993Y596583D01*
X696028Y596646D01*
X696037Y596697D01*
X696056Y596745D01*
X696059Y596817D01*
X696071Y596888D01*
X696064Y596939D01*
X696066Y596991D01*
X696046Y597060D01*
X696036Y597131D01*
X696012Y597177D01*
X695997Y597227D01*
X695957Y597286D01*
X695924Y597350D01*
X695887Y597387D01*
X695857Y597429D01*
X695800Y597472D01*
X695748Y597522D01*
X695686Y597557D01*
X695660Y597576D01*
X695638Y597583D01*
X695601Y597603D01*
X691593Y599264D01*
X688164Y602693D01*
X686307Y607175D01*
X686307Y612025D01*
X688164Y616507D01*
X691593Y619936D01*
X695601Y621597D01*
X695662Y621635D01*
X695728Y621664D01*
X695766Y621699D01*
X695811Y621726D01*
X695856Y621782D01*
X695909Y621830D01*
X695934Y621876D01*
X695967Y621916D01*
X695993Y621983D01*
X696028Y622046D01*
X696037Y622097D01*
X696056Y622145D01*
X696059Y622217D01*
X696071Y622288D01*
X696064Y622339D01*
X696066Y622391D01*
X696046Y622460D01*
X696036Y622531D01*
X696012Y622577D01*
X695997Y622627D01*
X695957Y622686D01*
X695924Y622750D01*
X695887Y622787D01*
X695857Y622829D01*
X695800Y622872D01*
X695748Y622922D01*
X695686Y622957D01*
X695660Y622976D01*
X695638Y622983D01*
X695601Y623003D01*
X691593Y624664D01*
X688164Y628093D01*
X686307Y632575D01*
X686307Y637425D01*
X688164Y641907D01*
X691593Y645336D01*
X695601Y646997D01*
X695662Y647035D01*
X695728Y647064D01*
X695766Y647099D01*
X695811Y647126D01*
X695856Y647182D01*
X695909Y647230D01*
X695934Y647276D01*
X695967Y647316D01*
X695993Y647383D01*
X696028Y647446D01*
X696037Y647497D01*
X696056Y647545D01*
X696059Y647617D01*
X696071Y647688D01*
X696064Y647739D01*
X696066Y647791D01*
X696046Y647860D01*
X696036Y647931D01*
X696012Y647977D01*
X695997Y648027D01*
X695957Y648086D01*
X695924Y648150D01*
X695887Y648187D01*
X695857Y648229D01*
X695800Y648272D01*
X695748Y648322D01*
X695686Y648357D01*
X695660Y648376D01*
X695638Y648383D01*
X695601Y648403D01*
X691593Y650064D01*
X688164Y653493D01*
X686307Y657975D01*
X686307Y662825D01*
X688164Y667307D01*
X691593Y670736D01*
X695601Y672397D01*
X695662Y672435D01*
X695728Y672464D01*
X695766Y672499D01*
X695811Y672526D01*
X695856Y672582D01*
X695909Y672630D01*
X695934Y672676D01*
X695967Y672716D01*
X695993Y672783D01*
X696028Y672846D01*
X696037Y672897D01*
X696056Y672945D01*
X696059Y673017D01*
X696071Y673088D01*
X696064Y673139D01*
X696066Y673191D01*
X696046Y673260D01*
X696036Y673331D01*
X696012Y673377D01*
X695997Y673427D01*
X695957Y673486D01*
X695924Y673550D01*
X695887Y673587D01*
X695857Y673629D01*
X695800Y673672D01*
X695748Y673722D01*
X695686Y673757D01*
X695660Y673776D01*
X695638Y673783D01*
X695601Y673803D01*
X691593Y675464D01*
X688164Y678893D01*
X686307Y683375D01*
X686307Y688225D01*
X688164Y692707D01*
X691593Y696136D01*
X695601Y697797D01*
X695662Y697835D01*
X695728Y697864D01*
X695766Y697899D01*
X695811Y697926D01*
X695856Y697982D01*
X695909Y698030D01*
X695934Y698076D01*
X695967Y698116D01*
X695993Y698183D01*
X696028Y698246D01*
X696037Y698297D01*
X696056Y698345D01*
X696059Y698417D01*
X696071Y698488D01*
X696064Y698539D01*
X696066Y698591D01*
X696046Y698660D01*
X696036Y698731D01*
X696012Y698777D01*
X695997Y698827D01*
X695957Y698886D01*
X695924Y698950D01*
X695887Y698987D01*
X695857Y699029D01*
X695800Y699072D01*
X695748Y699122D01*
X695686Y699157D01*
X695660Y699176D01*
X695638Y699183D01*
X695601Y699203D01*
X691593Y700864D01*
X688164Y704293D01*
X686307Y708775D01*
X686307Y713625D01*
X688164Y718107D01*
X691593Y721536D01*
X695601Y723197D01*
X695662Y723235D01*
X695728Y723264D01*
X695766Y723299D01*
X695811Y723326D01*
X695856Y723382D01*
X695909Y723430D01*
X695934Y723476D01*
X695967Y723516D01*
X695993Y723583D01*
X696028Y723646D01*
X696037Y723697D01*
X696056Y723745D01*
X696059Y723817D01*
X696071Y723888D01*
X696064Y723939D01*
X696066Y723991D01*
X696046Y724060D01*
X696036Y724131D01*
X696012Y724177D01*
X695997Y724227D01*
X695957Y724286D01*
X695924Y724350D01*
X695887Y724387D01*
X695857Y724429D01*
X695800Y724472D01*
X695748Y724522D01*
X695686Y724557D01*
X695660Y724576D01*
X695638Y724583D01*
X695601Y724603D01*
X691593Y726264D01*
X688164Y729693D01*
X686307Y734175D01*
X686307Y739025D01*
X688164Y743507D01*
X691593Y746936D01*
X696075Y748793D01*
X700925Y748793D01*
X705407Y746936D01*
X708836Y743507D01*
X710693Y739025D01*
X710693Y734175D01*
X708836Y729693D01*
X705407Y726264D01*
X701399Y724603D01*
X701338Y724566D01*
X701272Y724536D01*
X701234Y724501D01*
X701189Y724474D01*
X701144Y724419D01*
X701091Y724370D01*
X701066Y724324D01*
X701033Y724284D01*
X701007Y724217D01*
X700972Y724154D01*
X700963Y724103D01*
X700944Y724055D01*
X700941Y723983D01*
X700929Y723912D01*
X700936Y723861D01*
X700934Y723809D01*
X700954Y723740D01*
X700964Y723669D01*
X700988Y723623D01*
X701003Y723573D01*
X701043Y723514D01*
X701076Y723450D01*
X701113Y723413D01*
X701143Y723371D01*
X701200Y723328D01*
X701252Y723278D01*
X701314Y723243D01*
X701340Y723224D01*
X701362Y723217D01*
X701399Y723197D01*
X705407Y721536D01*
X708836Y718107D01*
X710693Y713625D01*
X710693Y708775D01*
X708836Y704293D01*
X705407Y700864D01*
X701399Y699203D01*
X701338Y699166D01*
X701272Y699136D01*
X701234Y699101D01*
X701189Y699074D01*
X701144Y699019D01*
X701091Y698970D01*
X701066Y698924D01*
X701033Y698884D01*
X701007Y698817D01*
X700972Y698754D01*
X700963Y698703D01*
X700944Y698655D01*
X700941Y698583D01*
X700929Y698512D01*
X700936Y698461D01*
X700934Y698409D01*
X700954Y698340D01*
X700964Y698269D01*
X700988Y698223D01*
X701003Y698173D01*
X701043Y698114D01*
X701076Y698050D01*
X701113Y698013D01*
X701143Y697971D01*
X701200Y697928D01*
X701252Y697878D01*
X701314Y697843D01*
X701340Y697824D01*
X701362Y697817D01*
X701399Y697797D01*
X705407Y696136D01*
X708836Y692707D01*
X710693Y688225D01*
X710693Y683375D01*
X708836Y678893D01*
X705407Y675464D01*
X701399Y673803D01*
X701338Y673766D01*
X701272Y673736D01*
X701234Y673701D01*
X701189Y673674D01*
X701144Y673619D01*
X701091Y673570D01*
X701066Y673524D01*
X701033Y673484D01*
X701007Y673417D01*
X700972Y673354D01*
X700963Y673303D01*
X700944Y673255D01*
X700941Y673183D01*
X700929Y673112D01*
X700936Y673061D01*
X700934Y673009D01*
X700954Y672940D01*
X700964Y672869D01*
X700988Y672823D01*
X701003Y672773D01*
X701043Y672714D01*
X701076Y672650D01*
X701113Y672613D01*
X701143Y672571D01*
X701200Y672528D01*
X701252Y672478D01*
X701314Y672443D01*
X701340Y672424D01*
X701362Y672417D01*
X701399Y672397D01*
X705407Y670736D01*
X708836Y667307D01*
X710693Y662825D01*
X710693Y657975D01*
X708836Y653493D01*
X705407Y650064D01*
X701399Y648403D01*
X701338Y648366D01*
X701272Y648336D01*
X701234Y648301D01*
X701189Y648274D01*
X701144Y648219D01*
X701091Y648170D01*
X701066Y648124D01*
X701033Y648084D01*
X701007Y648017D01*
X700972Y647954D01*
X700963Y647903D01*
X700944Y647855D01*
X700941Y647783D01*
X700929Y647712D01*
X700936Y647661D01*
X700934Y647609D01*
X700954Y647540D01*
X700964Y647469D01*
X700988Y647423D01*
X701003Y647373D01*
X701043Y647314D01*
X701076Y647250D01*
X701113Y647213D01*
X701143Y647171D01*
X701200Y647128D01*
X701252Y647078D01*
X701314Y647043D01*
X701340Y647024D01*
X701362Y647017D01*
X701399Y646997D01*
X705407Y645336D01*
X708836Y641907D01*
X710693Y637425D01*
X710693Y632575D01*
X708836Y628093D01*
X705407Y624664D01*
X701399Y623003D01*
X701338Y622966D01*
X701272Y622936D01*
X701234Y622901D01*
X701189Y622874D01*
X701144Y622819D01*
X701091Y622770D01*
X701066Y622724D01*
X701033Y622684D01*
X701007Y622617D01*
X700972Y622554D01*
X700963Y622503D01*
X700944Y622455D01*
X700941Y622383D01*
X700929Y622312D01*
X700936Y622261D01*
X700934Y622209D01*
X700954Y622140D01*
X700964Y622069D01*
X700988Y622023D01*
X701003Y621973D01*
X701043Y621914D01*
X701076Y621850D01*
X701113Y621813D01*
X701143Y621771D01*
X701200Y621728D01*
X701252Y621678D01*
X701314Y621643D01*
X701340Y621624D01*
X701362Y621617D01*
X701399Y621597D01*
X705407Y619936D01*
X708836Y616507D01*
X710693Y612025D01*
X710693Y607175D01*
X708836Y602693D01*
X705407Y599264D01*
X701399Y597603D01*
X701338Y597566D01*
X701272Y597536D01*
X701234Y597501D01*
X701189Y597474D01*
X701144Y597419D01*
X701091Y597370D01*
X701066Y597324D01*
X701033Y597284D01*
X701007Y597217D01*
X700972Y597154D01*
X700963Y597103D01*
X700944Y597055D01*
X700941Y596983D01*
X700929Y596912D01*
X700936Y596861D01*
X700934Y596809D01*
X700954Y596740D01*
X700964Y596669D01*
X700988Y596623D01*
X701003Y596573D01*
X701043Y596514D01*
X701076Y596450D01*
X701113Y596413D01*
X701143Y596371D01*
X701200Y596328D01*
X701252Y596278D01*
X701314Y596243D01*
X701340Y596224D01*
X701362Y596217D01*
X701399Y596197D01*
X705407Y594536D01*
X708836Y591107D01*
X710693Y586625D01*
X710693Y581775D01*
X708836Y577293D01*
X705407Y573864D01*
X701399Y572203D01*
X701338Y572166D01*
X701272Y572136D01*
X701234Y572101D01*
X701189Y572074D01*
X701144Y572019D01*
X701091Y571970D01*
X701066Y571924D01*
X701033Y571884D01*
X701007Y571817D01*
X700972Y571754D01*
X700963Y571703D01*
X700944Y571655D01*
X700941Y571583D01*
X700929Y571512D01*
X700936Y571461D01*
X700934Y571409D01*
X700954Y571340D01*
X700964Y571269D01*
X700988Y571223D01*
X701003Y571173D01*
X701043Y571114D01*
X701076Y571050D01*
X701113Y571013D01*
X701143Y570971D01*
X701200Y570928D01*
X701252Y570878D01*
X701314Y570843D01*
X701340Y570824D01*
X701362Y570817D01*
X701399Y570797D01*
X705407Y569136D01*
X708836Y565707D01*
X710693Y561225D01*
X710693Y556375D01*
X708836Y551893D01*
X705407Y548464D01*
X701399Y546803D01*
X701338Y546766D01*
X701272Y546736D01*
X701234Y546701D01*
X701189Y546674D01*
X701144Y546619D01*
X701091Y546570D01*
X701066Y546524D01*
X701033Y546484D01*
X701007Y546417D01*
X700972Y546354D01*
X700963Y546303D01*
X700944Y546255D01*
X700941Y546183D01*
X700929Y546112D01*
X700936Y546061D01*
X700934Y546009D01*
X700954Y545940D01*
X700964Y545869D01*
X700988Y545823D01*
X701003Y545773D01*
X701043Y545714D01*
X701076Y545650D01*
X701113Y545613D01*
X701143Y545571D01*
X701200Y545528D01*
X701252Y545478D01*
X701314Y545443D01*
X701340Y545424D01*
X701362Y545417D01*
X701399Y545397D01*
X705407Y543736D01*
X708836Y540307D01*
X710693Y535825D01*
X710693Y530975D01*
X708836Y526493D01*
X705407Y523064D01*
X701399Y521403D01*
X701338Y521366D01*
X701272Y521336D01*
X701234Y521301D01*
X701189Y521274D01*
X701144Y521219D01*
X701091Y521170D01*
X701066Y521124D01*
X701033Y521084D01*
X701007Y521017D01*
X700972Y520954D01*
X700963Y520903D01*
X700944Y520855D01*
X700941Y520783D01*
X700929Y520712D01*
X700936Y520661D01*
X700934Y520609D01*
X700954Y520540D01*
X700964Y520469D01*
X700988Y520423D01*
X701003Y520373D01*
X701043Y520314D01*
X701076Y520250D01*
X701113Y520213D01*
X701143Y520171D01*
X701200Y520128D01*
X701252Y520078D01*
X701314Y520043D01*
X701340Y520024D01*
X701362Y520017D01*
X701399Y519997D01*
X705407Y518336D01*
X708836Y514907D01*
X710693Y510425D01*
X710693Y505575D01*
X708836Y501093D01*
X705407Y497664D01*
X701399Y496003D01*
X701338Y495966D01*
X701272Y495936D01*
X701234Y495901D01*
X701189Y495874D01*
X701144Y495819D01*
X701091Y495770D01*
X701066Y495724D01*
X701033Y495684D01*
X701007Y495617D01*
X700972Y495554D01*
X700963Y495503D01*
X700944Y495455D01*
X700941Y495383D01*
X700929Y495312D01*
X700936Y495261D01*
X700934Y495209D01*
X700954Y495140D01*
X700964Y495069D01*
X700988Y495023D01*
X701003Y494973D01*
X701043Y494914D01*
X701076Y494850D01*
X701113Y494813D01*
X701143Y494771D01*
X701200Y494728D01*
X701252Y494678D01*
X701314Y494643D01*
X701340Y494624D01*
X701362Y494617D01*
X701399Y494597D01*
X705407Y492936D01*
X708836Y489507D01*
X710693Y485025D01*
X710693Y480175D01*
X708836Y475693D01*
X705407Y472264D01*
X701399Y470603D01*
X701338Y470566D01*
X701272Y470536D01*
X701234Y470501D01*
X701189Y470474D01*
X701144Y470419D01*
X701091Y470370D01*
X701066Y470324D01*
X701033Y470284D01*
X701007Y470217D01*
X700972Y470154D01*
X700963Y470103D01*
X700944Y470055D01*
X700941Y469983D01*
X700929Y469912D01*
X700936Y469861D01*
X700934Y469809D01*
X700954Y469740D01*
X700964Y469669D01*
X700988Y469623D01*
X701003Y469573D01*
X701043Y469514D01*
X701076Y469450D01*
X701113Y469413D01*
X701143Y469371D01*
X701200Y469328D01*
X701252Y469278D01*
X701314Y469243D01*
X701340Y469224D01*
X701362Y469217D01*
X701399Y469197D01*
X705407Y467536D01*
X708836Y464107D01*
X710693Y459625D01*
X710693Y454775D01*
X708836Y450293D01*
X705407Y446864D01*
X700925Y445007D01*
X696075Y445007D01*
G37*
%LPD*%
%LPC*%
G36*
X1405386Y472185D02*
X1405386Y472185D01*
X1399285Y478286D01*
X1399285Y486914D01*
X1399316Y486945D01*
X1399369Y487019D01*
X1399429Y487088D01*
X1399441Y487119D01*
X1399460Y487145D01*
X1399487Y487232D01*
X1399521Y487317D01*
X1399525Y487357D01*
X1399532Y487380D01*
X1399531Y487412D01*
X1399539Y487483D01*
X1399539Y522478D01*
X1399536Y522498D01*
X1399538Y522517D01*
X1399516Y522619D01*
X1399500Y522721D01*
X1399490Y522738D01*
X1399486Y522758D01*
X1399433Y522847D01*
X1399384Y522938D01*
X1399370Y522952D01*
X1399360Y522969D01*
X1399281Y523036D01*
X1399206Y523108D01*
X1399188Y523116D01*
X1399173Y523129D01*
X1399077Y523168D01*
X1398983Y523211D01*
X1398963Y523213D01*
X1398945Y523221D01*
X1398778Y523239D01*
X1363783Y523239D01*
X1363693Y523225D01*
X1363602Y523217D01*
X1363572Y523205D01*
X1363540Y523200D01*
X1363460Y523157D01*
X1363376Y523121D01*
X1363344Y523095D01*
X1363323Y523084D01*
X1363301Y523061D01*
X1363245Y523016D01*
X1363214Y522985D01*
X1354586Y522985D01*
X1348485Y529086D01*
X1348485Y537714D01*
X1348516Y537745D01*
X1348569Y537819D01*
X1348629Y537888D01*
X1348641Y537919D01*
X1348660Y537945D01*
X1348687Y538032D01*
X1348721Y538117D01*
X1348725Y538157D01*
X1348732Y538180D01*
X1348731Y538212D01*
X1348739Y538283D01*
X1348739Y579676D01*
X1348725Y579766D01*
X1348717Y579857D01*
X1348705Y579887D01*
X1348700Y579919D01*
X1348657Y579999D01*
X1348621Y580083D01*
X1348595Y580115D01*
X1348584Y580136D01*
X1348561Y580158D01*
X1348516Y580214D01*
X1337586Y591144D01*
X1336039Y594879D01*
X1336039Y637776D01*
X1336037Y637793D01*
X1336038Y637808D01*
X1336024Y637873D01*
X1336017Y637957D01*
X1336005Y637987D01*
X1336000Y638019D01*
X1335999Y638019D01*
X1335999Y654068D01*
X1338232Y656301D01*
X1354168Y656301D01*
X1356401Y654068D01*
X1356401Y637999D01*
X1356389Y637973D01*
X1356388Y637964D01*
X1356379Y637943D01*
X1356375Y637902D01*
X1356368Y637880D01*
X1356369Y637847D01*
X1356361Y637776D01*
X1356361Y601424D01*
X1356375Y601334D01*
X1356383Y601243D01*
X1356395Y601213D01*
X1356400Y601181D01*
X1356443Y601101D01*
X1356479Y601017D01*
X1356505Y600985D01*
X1356516Y600964D01*
X1356539Y600942D01*
X1356584Y600886D01*
X1367514Y589956D01*
X1369061Y586221D01*
X1369061Y544322D01*
X1369064Y544302D01*
X1369062Y544283D01*
X1369084Y544181D01*
X1369100Y544079D01*
X1369110Y544062D01*
X1369114Y544042D01*
X1369167Y543953D01*
X1369216Y543862D01*
X1369230Y543848D01*
X1369240Y543831D01*
X1369319Y543764D01*
X1369394Y543692D01*
X1369412Y543684D01*
X1369427Y543671D01*
X1369523Y543632D01*
X1369617Y543589D01*
X1369637Y543587D01*
X1369655Y543579D01*
X1369822Y543561D01*
X1404817Y543561D01*
X1404907Y543575D01*
X1404998Y543583D01*
X1405028Y543595D01*
X1405060Y543600D01*
X1405140Y543643D01*
X1405224Y543679D01*
X1405256Y543705D01*
X1405277Y543716D01*
X1405299Y543739D01*
X1405355Y543784D01*
X1405386Y543815D01*
X1414014Y543815D01*
X1420115Y537714D01*
X1420115Y529086D01*
X1420084Y529055D01*
X1420031Y528981D01*
X1419971Y528912D01*
X1419959Y528881D01*
X1419940Y528855D01*
X1419913Y528768D01*
X1419879Y528683D01*
X1419875Y528643D01*
X1419868Y528620D01*
X1419869Y528588D01*
X1419861Y528517D01*
X1419861Y487483D01*
X1419875Y487393D01*
X1419883Y487302D01*
X1419895Y487272D01*
X1419900Y487240D01*
X1419943Y487160D01*
X1419979Y487076D01*
X1420005Y487044D01*
X1420016Y487023D01*
X1420039Y487001D01*
X1420084Y486945D01*
X1420115Y486914D01*
X1420115Y478286D01*
X1414014Y472185D01*
X1405386Y472185D01*
G37*
%LPD*%
%LPC*%
G36*
X1242579Y688339D02*
X1242579Y688339D01*
X1238844Y689886D01*
X1223286Y705444D01*
X1221739Y709179D01*
X1221739Y713221D01*
X1223286Y716956D01*
X1226144Y719814D01*
X1229879Y721361D01*
X1233921Y721361D01*
X1237656Y719814D01*
X1248586Y708884D01*
X1248660Y708831D01*
X1248729Y708771D01*
X1248759Y708759D01*
X1248786Y708740D01*
X1248872Y708713D01*
X1248957Y708679D01*
X1248998Y708675D01*
X1249021Y708668D01*
X1249053Y708669D01*
X1249124Y708661D01*
X1405176Y708661D01*
X1405266Y708675D01*
X1405357Y708683D01*
X1405387Y708695D01*
X1405419Y708700D01*
X1405499Y708743D01*
X1405583Y708779D01*
X1405615Y708805D01*
X1405636Y708816D01*
X1405658Y708839D01*
X1405714Y708884D01*
X1412016Y715186D01*
X1412069Y715260D01*
X1412129Y715329D01*
X1412141Y715359D01*
X1412160Y715386D01*
X1412187Y715472D01*
X1412221Y715557D01*
X1412225Y715598D01*
X1412232Y715621D01*
X1412231Y715653D01*
X1412239Y715724D01*
X1412239Y723223D01*
X1412229Y723288D01*
X1412228Y723353D01*
X1412205Y723433D01*
X1412200Y723466D01*
X1412199Y723466D01*
X1412199Y727529D01*
X1413752Y731278D01*
X1416622Y734148D01*
X1420371Y735701D01*
X1424429Y735701D01*
X1428178Y734148D01*
X1431048Y731278D01*
X1432601Y727529D01*
X1432601Y723443D01*
X1432579Y723390D01*
X1432570Y723307D01*
X1432563Y723275D01*
X1432564Y723256D01*
X1432561Y723223D01*
X1432561Y709179D01*
X1431014Y705444D01*
X1415456Y689886D01*
X1411721Y688339D01*
X1242579Y688339D01*
G37*
%LPD*%
%LPC*%
G36*
X1608586Y522985D02*
X1608586Y522985D01*
X1602485Y529086D01*
X1602485Y529130D01*
X1602471Y529220D01*
X1602463Y529311D01*
X1602451Y529341D01*
X1602446Y529373D01*
X1602403Y529453D01*
X1602367Y529537D01*
X1602341Y529569D01*
X1602330Y529590D01*
X1602307Y529612D01*
X1602262Y529668D01*
X1495757Y636174D01*
X1495704Y636212D01*
X1495657Y636258D01*
X1495584Y636298D01*
X1495557Y636317D01*
X1495538Y636323D01*
X1495510Y636339D01*
X1492822Y637452D01*
X1489952Y640322D01*
X1488399Y644071D01*
X1488399Y648129D01*
X1489952Y651878D01*
X1492822Y654748D01*
X1496571Y656301D01*
X1500657Y656301D01*
X1500710Y656279D01*
X1500793Y656270D01*
X1500825Y656263D01*
X1500844Y656264D01*
X1500877Y656261D01*
X1502221Y656261D01*
X1505956Y654714D01*
X1616632Y544038D01*
X1616706Y543985D01*
X1616775Y543925D01*
X1616805Y543913D01*
X1616831Y543894D01*
X1616918Y543867D01*
X1617003Y543833D01*
X1617044Y543829D01*
X1617067Y543822D01*
X1617099Y543823D01*
X1617170Y543815D01*
X1617214Y543815D01*
X1617245Y543784D01*
X1617319Y543731D01*
X1617388Y543671D01*
X1617419Y543659D01*
X1617445Y543640D01*
X1617532Y543613D01*
X1617617Y543579D01*
X1617657Y543575D01*
X1617680Y543568D01*
X1617712Y543569D01*
X1617783Y543561D01*
X1658817Y543561D01*
X1658907Y543575D01*
X1658998Y543583D01*
X1659028Y543595D01*
X1659060Y543600D01*
X1659140Y543643D01*
X1659224Y543679D01*
X1659256Y543705D01*
X1659277Y543716D01*
X1659299Y543739D01*
X1659355Y543784D01*
X1659386Y543815D01*
X1668014Y543815D01*
X1674115Y537714D01*
X1674115Y529086D01*
X1668014Y522985D01*
X1659386Y522985D01*
X1659355Y523016D01*
X1659281Y523069D01*
X1659212Y523129D01*
X1659181Y523141D01*
X1659155Y523160D01*
X1659068Y523187D01*
X1658983Y523221D01*
X1658943Y523225D01*
X1658920Y523232D01*
X1658888Y523231D01*
X1658817Y523239D01*
X1617783Y523239D01*
X1617693Y523225D01*
X1617602Y523217D01*
X1617572Y523205D01*
X1617540Y523200D01*
X1617460Y523157D01*
X1617376Y523121D01*
X1617344Y523095D01*
X1617323Y523084D01*
X1617301Y523061D01*
X1617245Y523016D01*
X1617214Y522985D01*
X1608586Y522985D01*
G37*
%LPD*%
%LPC*%
G36*
X1496571Y715299D02*
X1496571Y715299D01*
X1492822Y716852D01*
X1489952Y719722D01*
X1488399Y723471D01*
X1488399Y727529D01*
X1489952Y731278D01*
X1492841Y734167D01*
X1492894Y734190D01*
X1492959Y734242D01*
X1492987Y734259D01*
X1493000Y734274D01*
X1493025Y734295D01*
X1500916Y742186D01*
X1500969Y742260D01*
X1501029Y742329D01*
X1501041Y742359D01*
X1501060Y742386D01*
X1501087Y742472D01*
X1501121Y742557D01*
X1501125Y742598D01*
X1501132Y742621D01*
X1501131Y742653D01*
X1501139Y742724D01*
X1501139Y820617D01*
X1501125Y820707D01*
X1501117Y820798D01*
X1501105Y820828D01*
X1501100Y820860D01*
X1501057Y820940D01*
X1501021Y821024D01*
X1500995Y821056D01*
X1500984Y821077D01*
X1500961Y821099D01*
X1500916Y821155D01*
X1500885Y821186D01*
X1500885Y829814D01*
X1500916Y829845D01*
X1500961Y829907D01*
X1500989Y829936D01*
X1500994Y829948D01*
X1501029Y829988D01*
X1501041Y830019D01*
X1501060Y830045D01*
X1501087Y830132D01*
X1501121Y830217D01*
X1501125Y830257D01*
X1501132Y830280D01*
X1501131Y830312D01*
X1501139Y830383D01*
X1501139Y884117D01*
X1501125Y884207D01*
X1501117Y884298D01*
X1501105Y884328D01*
X1501100Y884360D01*
X1501057Y884440D01*
X1501021Y884524D01*
X1500995Y884556D01*
X1500984Y884577D01*
X1500961Y884599D01*
X1500916Y884655D01*
X1500885Y884686D01*
X1500885Y893314D01*
X1506986Y899415D01*
X1515614Y899415D01*
X1521715Y893314D01*
X1521715Y884686D01*
X1521684Y884655D01*
X1521631Y884581D01*
X1521571Y884512D01*
X1521559Y884481D01*
X1521540Y884455D01*
X1521513Y884368D01*
X1521479Y884283D01*
X1521475Y884243D01*
X1521468Y884220D01*
X1521469Y884188D01*
X1521461Y884117D01*
X1521461Y830383D01*
X1521475Y830293D01*
X1521483Y830202D01*
X1521495Y830172D01*
X1521500Y830140D01*
X1521543Y830060D01*
X1521579Y829976D01*
X1521605Y829944D01*
X1521616Y829923D01*
X1521639Y829901D01*
X1521653Y829883D01*
X1521659Y829874D01*
X1521665Y829868D01*
X1521684Y829845D01*
X1521715Y829814D01*
X1521715Y821186D01*
X1521684Y821155D01*
X1521631Y821081D01*
X1521571Y821012D01*
X1521559Y820981D01*
X1521540Y820955D01*
X1521513Y820868D01*
X1521479Y820783D01*
X1521475Y820743D01*
X1521468Y820720D01*
X1521469Y820688D01*
X1521461Y820617D01*
X1521461Y736179D01*
X1519914Y732444D01*
X1516949Y729479D01*
X1507395Y719925D01*
X1507357Y719872D01*
X1507311Y719825D01*
X1507271Y719752D01*
X1507251Y719726D01*
X1507251Y719725D01*
X1504378Y716852D01*
X1500629Y715299D01*
X1496571Y715299D01*
G37*
%LPD*%
%LPC*%
G36*
X236986Y421385D02*
X236986Y421385D01*
X230885Y427486D01*
X230885Y436114D01*
X236986Y442215D01*
X245614Y442215D01*
X245645Y442184D01*
X245719Y442131D01*
X245788Y442071D01*
X245819Y442059D01*
X245845Y442040D01*
X245932Y442013D01*
X246017Y441979D01*
X246057Y441975D01*
X246080Y441968D01*
X246112Y441969D01*
X246183Y441961D01*
X255778Y441961D01*
X255798Y441964D01*
X255817Y441962D01*
X255919Y441984D01*
X256021Y442000D01*
X256038Y442010D01*
X256058Y442014D01*
X256147Y442067D01*
X256238Y442116D01*
X256252Y442130D01*
X256269Y442140D01*
X256336Y442219D01*
X256408Y442294D01*
X256416Y442312D01*
X256429Y442327D01*
X256468Y442423D01*
X256511Y442517D01*
X256513Y442537D01*
X256521Y442555D01*
X256539Y442722D01*
X256539Y516692D01*
X256529Y516757D01*
X256528Y516823D01*
X256505Y516903D01*
X256500Y516935D01*
X256490Y516952D01*
X256481Y516984D01*
X256449Y517061D01*
X256449Y521139D01*
X258010Y524907D01*
X260893Y527790D01*
X264661Y529351D01*
X268739Y529351D01*
X272507Y527790D01*
X275390Y524907D01*
X276951Y521139D01*
X276951Y517061D01*
X276919Y516984D01*
X276910Y516947D01*
X276904Y516934D01*
X276902Y516916D01*
X276879Y516859D01*
X276870Y516776D01*
X276863Y516744D01*
X276864Y516725D01*
X276861Y516692D01*
X276861Y442976D01*
X276864Y442956D01*
X276862Y442937D01*
X276884Y442835D01*
X276900Y442733D01*
X276910Y442716D01*
X276914Y442696D01*
X276967Y442607D01*
X277016Y442516D01*
X277030Y442502D01*
X277040Y442485D01*
X277119Y442418D01*
X277194Y442346D01*
X277212Y442338D01*
X277227Y442325D01*
X277323Y442286D01*
X277417Y442243D01*
X277437Y442241D01*
X277455Y442233D01*
X277622Y442215D01*
X283714Y442215D01*
X289815Y436114D01*
X289815Y427486D01*
X283714Y421385D01*
X275086Y421385D01*
X275055Y421416D01*
X274981Y421469D01*
X274912Y421529D01*
X274881Y421541D01*
X274855Y421560D01*
X274768Y421587D01*
X274683Y421621D01*
X274643Y421625D01*
X274620Y421632D01*
X274588Y421631D01*
X274517Y421639D01*
X246183Y421639D01*
X246093Y421625D01*
X246002Y421617D01*
X245972Y421605D01*
X245940Y421600D01*
X245860Y421557D01*
X245776Y421521D01*
X245744Y421495D01*
X245723Y421484D01*
X245701Y421461D01*
X245645Y421416D01*
X245614Y421385D01*
X236986Y421385D01*
G37*
%LPD*%
%LPC*%
G36*
X928736Y926339D02*
X928736Y926339D01*
X922082Y928122D01*
X916117Y931566D01*
X911246Y936437D01*
X907802Y942402D01*
X906019Y949056D01*
X906019Y955944D01*
X907802Y962598D01*
X911246Y968563D01*
X916117Y973434D01*
X922082Y976878D01*
X928736Y978661D01*
X935624Y978661D01*
X942278Y976878D01*
X948243Y973434D01*
X953114Y968563D01*
X956558Y962598D01*
X958341Y955944D01*
X958341Y949056D01*
X956558Y942402D01*
X953114Y936437D01*
X948243Y931566D01*
X942278Y928122D01*
X935624Y926339D01*
X928736Y926339D01*
G37*
%LPD*%
%LPC*%
G36*
X928736Y697739D02*
X928736Y697739D01*
X922082Y699522D01*
X916117Y702966D01*
X911246Y707837D01*
X907802Y713802D01*
X906019Y720456D01*
X906019Y727344D01*
X907802Y733998D01*
X911246Y739963D01*
X916117Y744834D01*
X922082Y748278D01*
X928736Y750061D01*
X935624Y750061D01*
X942278Y748278D01*
X948243Y744834D01*
X953114Y739963D01*
X956558Y733998D01*
X958341Y727344D01*
X958341Y720456D01*
X956558Y713802D01*
X953114Y707837D01*
X948243Y702966D01*
X942278Y699522D01*
X935624Y697739D01*
X928736Y697739D01*
G37*
%LPD*%
%LPC*%
G36*
X233282Y508849D02*
X233282Y508849D01*
X231049Y511082D01*
X231049Y527118D01*
X233282Y529351D01*
X249318Y529351D01*
X251551Y527118D01*
X251551Y511082D01*
X249318Y508849D01*
X233282Y508849D01*
G37*
%LPD*%
%LPC*%
G36*
X803121Y840549D02*
X803121Y840549D01*
X799317Y842125D01*
X796405Y845037D01*
X794829Y848841D01*
X794829Y852959D01*
X796405Y856763D01*
X799317Y859675D01*
X803121Y861251D01*
X807239Y861251D01*
X811043Y859675D01*
X813955Y856763D01*
X815531Y852959D01*
X815531Y848841D01*
X813955Y845037D01*
X811043Y842125D01*
X807239Y840549D01*
X803121Y840549D01*
G37*
%LPD*%
%LPC*%
G36*
X803121Y815149D02*
X803121Y815149D01*
X799317Y816725D01*
X796405Y819637D01*
X794829Y823441D01*
X794829Y827559D01*
X796405Y831363D01*
X799317Y834275D01*
X803121Y835851D01*
X807239Y835851D01*
X811043Y834275D01*
X813955Y831363D01*
X815531Y827559D01*
X815531Y823441D01*
X813955Y819637D01*
X811043Y816725D01*
X807239Y815149D01*
X803121Y815149D01*
G37*
%LPD*%
%LPC*%
G36*
X803121Y713549D02*
X803121Y713549D01*
X799317Y715125D01*
X796405Y718037D01*
X794829Y721841D01*
X794829Y725959D01*
X796405Y729763D01*
X799317Y732675D01*
X803121Y734251D01*
X807239Y734251D01*
X811043Y732675D01*
X813955Y729763D01*
X815531Y725959D01*
X815531Y721841D01*
X813955Y718037D01*
X811043Y715125D01*
X807239Y713549D01*
X803121Y713549D01*
G37*
%LPD*%
%LPC*%
G36*
X803121Y738949D02*
X803121Y738949D01*
X799317Y740525D01*
X796405Y743437D01*
X794829Y747241D01*
X794829Y751359D01*
X796405Y755163D01*
X799317Y758075D01*
X803121Y759651D01*
X807239Y759651D01*
X811043Y758075D01*
X813955Y755163D01*
X815531Y751359D01*
X815531Y747241D01*
X813955Y743437D01*
X811043Y740525D01*
X807239Y738949D01*
X803121Y738949D01*
G37*
%LPD*%
%LPC*%
G36*
X803121Y764349D02*
X803121Y764349D01*
X799317Y765925D01*
X796405Y768837D01*
X794829Y772641D01*
X794829Y776759D01*
X796405Y780563D01*
X799317Y783475D01*
X803121Y785051D01*
X807239Y785051D01*
X811043Y783475D01*
X813955Y780563D01*
X815531Y776759D01*
X815531Y772641D01*
X813955Y768837D01*
X811043Y765925D01*
X807239Y764349D01*
X803121Y764349D01*
G37*
%LPD*%
%LPC*%
G36*
X239261Y588249D02*
X239261Y588249D01*
X235493Y589810D01*
X232610Y592693D01*
X231049Y596461D01*
X231049Y600539D01*
X232610Y604307D01*
X235493Y607190D01*
X239261Y608751D01*
X243339Y608751D01*
X247107Y607190D01*
X249990Y604307D01*
X251551Y600539D01*
X251551Y596461D01*
X249990Y592693D01*
X247107Y589810D01*
X243339Y588249D01*
X239261Y588249D01*
G37*
%LPD*%
%LPC*%
G36*
X315461Y588249D02*
X315461Y588249D01*
X311693Y589810D01*
X308810Y592693D01*
X307249Y596461D01*
X307249Y600539D01*
X308810Y604307D01*
X311693Y607190D01*
X315461Y608751D01*
X319539Y608751D01*
X323307Y607190D01*
X326190Y604307D01*
X327751Y600539D01*
X327751Y596461D01*
X326190Y592693D01*
X323307Y589810D01*
X319539Y588249D01*
X315461Y588249D01*
G37*
%LPD*%
%LPC*%
G36*
X1143723Y941323D02*
X1143723Y941323D01*
X1143723Y953189D01*
X1145352Y952931D01*
X1147368Y952276D01*
X1149256Y951314D01*
X1150970Y950069D01*
X1152469Y948570D01*
X1153714Y946856D01*
X1154676Y944968D01*
X1155331Y942952D01*
X1155589Y941323D01*
X1143723Y941323D01*
G37*
%LPD*%
%LPC*%
G36*
X1128811Y941323D02*
X1128811Y941323D01*
X1129069Y942952D01*
X1129724Y944968D01*
X1130686Y946856D01*
X1131931Y948570D01*
X1133430Y950069D01*
X1135144Y951314D01*
X1137032Y952276D01*
X1139048Y952931D01*
X1140677Y953189D01*
X1140677Y941323D01*
X1128811Y941323D01*
G37*
%LPD*%
%LPC*%
G36*
X1143723Y938277D02*
X1143723Y938277D01*
X1155589Y938277D01*
X1155331Y936648D01*
X1154676Y934632D01*
X1153714Y932744D01*
X1152469Y931030D01*
X1150970Y929531D01*
X1149256Y928286D01*
X1147368Y927324D01*
X1145352Y926669D01*
X1143723Y926411D01*
X1143723Y938277D01*
G37*
%LPD*%
%LPC*%
G36*
X1139048Y926669D02*
X1139048Y926669D01*
X1137032Y927324D01*
X1135144Y928286D01*
X1133430Y929531D01*
X1131931Y931030D01*
X1130686Y932744D01*
X1129724Y934632D01*
X1129069Y936648D01*
X1128811Y938277D01*
X1140677Y938277D01*
X1140677Y926411D01*
X1139048Y926669D01*
G37*
%LPD*%
%LPC*%
G36*
X1283423Y941323D02*
X1283423Y941323D01*
X1283423Y952341D01*
X1287095Y952341D01*
X1294441Y944995D01*
X1294441Y941323D01*
X1283423Y941323D01*
G37*
%LPD*%
%LPC*%
G36*
X838923Y433323D02*
X838923Y433323D01*
X838923Y444341D01*
X842595Y444341D01*
X849941Y436995D01*
X849941Y433323D01*
X838923Y433323D01*
G37*
%LPD*%
%LPC*%
G36*
X1132623Y407923D02*
X1132623Y407923D01*
X1132623Y418941D01*
X1136295Y418941D01*
X1143641Y411595D01*
X1143641Y407923D01*
X1132623Y407923D01*
G37*
%LPD*%
%LPC*%
G36*
X824859Y433323D02*
X824859Y433323D01*
X824859Y436995D01*
X832205Y444341D01*
X835877Y444341D01*
X835877Y433323D01*
X824859Y433323D01*
G37*
%LPD*%
%LPC*%
G36*
X1269359Y941323D02*
X1269359Y941323D01*
X1269359Y944995D01*
X1276705Y952341D01*
X1280377Y952341D01*
X1280377Y941323D01*
X1269359Y941323D01*
G37*
%LPD*%
%LPC*%
G36*
X838923Y419259D02*
X838923Y419259D01*
X838923Y430277D01*
X849941Y430277D01*
X849941Y426605D01*
X842595Y419259D01*
X838923Y419259D01*
G37*
%LPD*%
%LPC*%
G36*
X1132623Y393859D02*
X1132623Y393859D01*
X1132623Y404877D01*
X1143641Y404877D01*
X1143641Y401205D01*
X1136295Y393859D01*
X1132623Y393859D01*
G37*
%LPD*%
%LPC*%
G36*
X1118559Y407923D02*
X1118559Y407923D01*
X1118559Y411595D01*
X1125905Y418941D01*
X1129577Y418941D01*
X1129577Y407923D01*
X1118559Y407923D01*
G37*
%LPD*%
%LPC*%
G36*
X1283423Y927259D02*
X1283423Y927259D01*
X1283423Y938277D01*
X1294441Y938277D01*
X1294441Y934605D01*
X1287095Y927259D01*
X1283423Y927259D01*
G37*
%LPD*%
%LPC*%
G36*
X832205Y419259D02*
X832205Y419259D01*
X824859Y426605D01*
X824859Y430277D01*
X835877Y430277D01*
X835877Y419259D01*
X832205Y419259D01*
G37*
%LPD*%
%LPC*%
G36*
X1125905Y393859D02*
X1125905Y393859D01*
X1118559Y401205D01*
X1118559Y404877D01*
X1129577Y404877D01*
X1129577Y393859D01*
X1125905Y393859D01*
G37*
%LPD*%
%LPC*%
G36*
X1276705Y927259D02*
X1276705Y927259D01*
X1269359Y934605D01*
X1269359Y938277D01*
X1280377Y938277D01*
X1280377Y927259D01*
X1276705Y927259D01*
G37*
%LPD*%
%LPC*%
G36*
X700023Y763523D02*
X700023Y763523D01*
X700023Y772818D01*
X701058Y772654D01*
X702693Y772122D01*
X704225Y771342D01*
X705616Y770331D01*
X706831Y769116D01*
X707842Y767725D01*
X708622Y766193D01*
X709154Y764558D01*
X709318Y763523D01*
X700023Y763523D01*
G37*
%LPD*%
%LPC*%
G36*
X446023Y585723D02*
X446023Y585723D01*
X446023Y595018D01*
X447058Y594854D01*
X448693Y594322D01*
X450225Y593542D01*
X451616Y592531D01*
X452831Y591316D01*
X453842Y589925D01*
X454622Y588393D01*
X455154Y586758D01*
X455318Y585723D01*
X446023Y585723D01*
G37*
%LPD*%
%LPC*%
G36*
X700023Y915923D02*
X700023Y915923D01*
X700023Y925218D01*
X701058Y925054D01*
X702693Y924522D01*
X704225Y923742D01*
X705616Y922731D01*
X706831Y921516D01*
X707842Y920125D01*
X708622Y918593D01*
X709154Y916958D01*
X709318Y915923D01*
X700023Y915923D01*
G37*
%LPD*%
%LPC*%
G36*
X700023Y760477D02*
X700023Y760477D01*
X709318Y760477D01*
X709154Y759442D01*
X708622Y757807D01*
X707842Y756275D01*
X706831Y754884D01*
X705616Y753669D01*
X704225Y752658D01*
X702693Y751878D01*
X701058Y751346D01*
X700023Y751182D01*
X700023Y760477D01*
G37*
%LPD*%
%LPC*%
G36*
X446023Y582677D02*
X446023Y582677D01*
X455318Y582677D01*
X455154Y581642D01*
X454622Y580007D01*
X453842Y578475D01*
X452831Y577084D01*
X451616Y575869D01*
X450225Y574858D01*
X448693Y574078D01*
X447058Y573546D01*
X446023Y573382D01*
X446023Y582677D01*
G37*
%LPD*%
%LPC*%
G36*
X700023Y912877D02*
X700023Y912877D01*
X709318Y912877D01*
X709154Y911842D01*
X708622Y910207D01*
X707842Y908675D01*
X706831Y907284D01*
X705616Y906069D01*
X704225Y905058D01*
X702693Y904278D01*
X701058Y903746D01*
X700023Y903582D01*
X700023Y912877D01*
G37*
%LPD*%
%LPC*%
G36*
X687682Y763523D02*
X687682Y763523D01*
X687846Y764558D01*
X688378Y766193D01*
X689158Y767725D01*
X690169Y769116D01*
X691384Y770331D01*
X692775Y771342D01*
X694307Y772122D01*
X695942Y772654D01*
X696977Y772818D01*
X696977Y763523D01*
X687682Y763523D01*
G37*
%LPD*%
%LPC*%
G36*
X433682Y585723D02*
X433682Y585723D01*
X433846Y586758D01*
X434378Y588393D01*
X435158Y589925D01*
X436169Y591316D01*
X437384Y592531D01*
X438775Y593542D01*
X440307Y594322D01*
X441942Y594854D01*
X442977Y595018D01*
X442977Y585723D01*
X433682Y585723D01*
G37*
%LPD*%
%LPC*%
G36*
X687682Y915923D02*
X687682Y915923D01*
X687846Y916958D01*
X688378Y918593D01*
X689158Y920125D01*
X690169Y921516D01*
X691384Y922731D01*
X692775Y923742D01*
X694307Y924522D01*
X695942Y925054D01*
X696977Y925218D01*
X696977Y915923D01*
X687682Y915923D01*
G37*
%LPD*%
%LPC*%
G36*
X695942Y751346D02*
X695942Y751346D01*
X694307Y751878D01*
X692775Y752658D01*
X691384Y753669D01*
X690169Y754884D01*
X689158Y756275D01*
X688378Y757807D01*
X687846Y759442D01*
X687682Y760477D01*
X696977Y760477D01*
X696977Y751182D01*
X695942Y751346D01*
G37*
%LPD*%
%LPC*%
G36*
X695942Y903746D02*
X695942Y903746D01*
X694307Y904278D01*
X692775Y905058D01*
X691384Y906069D01*
X690169Y907284D01*
X689158Y908675D01*
X688378Y910207D01*
X687846Y911842D01*
X687682Y912877D01*
X696977Y912877D01*
X696977Y903582D01*
X695942Y903746D01*
G37*
%LPD*%
%LPC*%
G36*
X441942Y573546D02*
X441942Y573546D01*
X440307Y574078D01*
X438775Y574858D01*
X437384Y575869D01*
X436169Y577084D01*
X435158Y578475D01*
X434378Y580007D01*
X433846Y581642D01*
X433682Y582677D01*
X442977Y582677D01*
X442977Y573382D01*
X441942Y573546D01*
G37*
%LPD*%
%LPC*%
G36*
X806703Y928623D02*
X806703Y928623D01*
X806703Y936056D01*
X807829Y935832D01*
X809481Y935147D01*
X810969Y934153D01*
X812233Y932889D01*
X813227Y931401D01*
X813912Y929749D01*
X814136Y928623D01*
X806703Y928623D01*
G37*
%LPD*%
%LPC*%
G36*
X796224Y928623D02*
X796224Y928623D01*
X796448Y929749D01*
X797133Y931401D01*
X798127Y932889D01*
X799391Y934153D01*
X800879Y935147D01*
X802531Y935832D01*
X803657Y936056D01*
X803657Y928623D01*
X796224Y928623D01*
G37*
%LPD*%
%LPC*%
G36*
X806703Y925577D02*
X806703Y925577D01*
X814136Y925577D01*
X813912Y924451D01*
X813227Y922799D01*
X812233Y921311D01*
X810969Y920047D01*
X809481Y919053D01*
X807829Y918368D01*
X806703Y918144D01*
X806703Y925577D01*
G37*
%LPD*%
%LPC*%
G36*
X802531Y918368D02*
X802531Y918368D01*
X800879Y919053D01*
X799391Y920047D01*
X798127Y921311D01*
X797133Y922799D01*
X796448Y924451D01*
X796224Y925577D01*
X803657Y925577D01*
X803657Y918144D01*
X802531Y918368D01*
G37*
%LPD*%
%LPC*%
G36*
X293623Y520623D02*
X293623Y520623D01*
X293623Y527954D01*
X294720Y527736D01*
X296354Y527059D01*
X297825Y526076D01*
X299076Y524825D01*
X300059Y523354D01*
X300736Y521720D01*
X300954Y520623D01*
X293623Y520623D01*
G37*
%LPD*%
%LPC*%
G36*
X283246Y520623D02*
X283246Y520623D01*
X283464Y521720D01*
X284141Y523354D01*
X285124Y524825D01*
X286375Y526076D01*
X287846Y527059D01*
X289480Y527736D01*
X290577Y527954D01*
X290577Y520623D01*
X283246Y520623D01*
G37*
%LPD*%
%LPC*%
G36*
X293623Y517577D02*
X293623Y517577D01*
X300954Y517577D01*
X300736Y516480D01*
X300059Y514846D01*
X299076Y513375D01*
X297825Y512124D01*
X296354Y511141D01*
X294720Y510464D01*
X293623Y510246D01*
X293623Y517577D01*
G37*
%LPD*%
%LPC*%
G36*
X289480Y510464D02*
X289480Y510464D01*
X287846Y511141D01*
X286375Y512124D01*
X285124Y513375D01*
X284141Y514846D01*
X283464Y516480D01*
X283246Y517577D01*
X290577Y517577D01*
X290577Y510246D01*
X289480Y510464D01*
G37*
%LPD*%
%LPC*%
G36*
X1398523Y727023D02*
X1398523Y727023D01*
X1398523Y734303D01*
X1399605Y734088D01*
X1401230Y733414D01*
X1402693Y732437D01*
X1403937Y731193D01*
X1404914Y729730D01*
X1405588Y728105D01*
X1405803Y727023D01*
X1398523Y727023D01*
G37*
%LPD*%
%LPC*%
G36*
X1449323Y727023D02*
X1449323Y727023D01*
X1449323Y734303D01*
X1450405Y734088D01*
X1452030Y733414D01*
X1453493Y732437D01*
X1454737Y731193D01*
X1455714Y729730D01*
X1456388Y728105D01*
X1456603Y727023D01*
X1449323Y727023D01*
G37*
%LPD*%
%LPC*%
G36*
X1398523Y647623D02*
X1398523Y647623D01*
X1398523Y654903D01*
X1399605Y654688D01*
X1401230Y654014D01*
X1402693Y653037D01*
X1403937Y651793D01*
X1404914Y650330D01*
X1405588Y648705D01*
X1405803Y647623D01*
X1398523Y647623D01*
G37*
%LPD*%
%LPC*%
G36*
X1449323Y647623D02*
X1449323Y647623D01*
X1449323Y654903D01*
X1450405Y654688D01*
X1452030Y654014D01*
X1453493Y653037D01*
X1454737Y651793D01*
X1455714Y650330D01*
X1456388Y648705D01*
X1456603Y647623D01*
X1449323Y647623D01*
G37*
%LPD*%
%LPC*%
G36*
X1449323Y723977D02*
X1449323Y723977D01*
X1456603Y723977D01*
X1456388Y722895D01*
X1455714Y721270D01*
X1454737Y719807D01*
X1453493Y718563D01*
X1452030Y717586D01*
X1450405Y716912D01*
X1449323Y716697D01*
X1449323Y723977D01*
G37*
%LPD*%
%LPC*%
G36*
X1398523Y723977D02*
X1398523Y723977D01*
X1405803Y723977D01*
X1405588Y722895D01*
X1404914Y721270D01*
X1403937Y719807D01*
X1402693Y718563D01*
X1401230Y717586D01*
X1399605Y716912D01*
X1398523Y716697D01*
X1398523Y723977D01*
G37*
%LPD*%
%LPC*%
G36*
X1438997Y727023D02*
X1438997Y727023D01*
X1439212Y728105D01*
X1439886Y729730D01*
X1440863Y731193D01*
X1442107Y732437D01*
X1443570Y733414D01*
X1445195Y734088D01*
X1446277Y734303D01*
X1446277Y727023D01*
X1438997Y727023D01*
G37*
%LPD*%
%LPC*%
G36*
X1388197Y727023D02*
X1388197Y727023D01*
X1388412Y728105D01*
X1389086Y729730D01*
X1390063Y731193D01*
X1391307Y732437D01*
X1392770Y733414D01*
X1394395Y734088D01*
X1395477Y734303D01*
X1395477Y727023D01*
X1388197Y727023D01*
G37*
%LPD*%
%LPC*%
G36*
X1388197Y647623D02*
X1388197Y647623D01*
X1388412Y648705D01*
X1389086Y650330D01*
X1390063Y651793D01*
X1391307Y653037D01*
X1392770Y654014D01*
X1394395Y654688D01*
X1395477Y654903D01*
X1395477Y647623D01*
X1388197Y647623D01*
G37*
%LPD*%
%LPC*%
G36*
X1398523Y644577D02*
X1398523Y644577D01*
X1405803Y644577D01*
X1405588Y643495D01*
X1404914Y641870D01*
X1403937Y640407D01*
X1402693Y639163D01*
X1401230Y638186D01*
X1399605Y637512D01*
X1398523Y637297D01*
X1398523Y644577D01*
G37*
%LPD*%
%LPC*%
G36*
X1449323Y644577D02*
X1449323Y644577D01*
X1456603Y644577D01*
X1456388Y643495D01*
X1455714Y641870D01*
X1454737Y640407D01*
X1453493Y639163D01*
X1452030Y638186D01*
X1450405Y637512D01*
X1449323Y637297D01*
X1449323Y644577D01*
G37*
%LPD*%
%LPC*%
G36*
X1438997Y647623D02*
X1438997Y647623D01*
X1439212Y648705D01*
X1439886Y650330D01*
X1440863Y651793D01*
X1442107Y653037D01*
X1443570Y654014D01*
X1445195Y654688D01*
X1446277Y654903D01*
X1446277Y647623D01*
X1438997Y647623D01*
G37*
%LPD*%
%LPC*%
G36*
X1445195Y716912D02*
X1445195Y716912D01*
X1443570Y717586D01*
X1442107Y718563D01*
X1440863Y719807D01*
X1439886Y721270D01*
X1439212Y722895D01*
X1438997Y723977D01*
X1446277Y723977D01*
X1446277Y716697D01*
X1445195Y716912D01*
G37*
%LPD*%
%LPC*%
G36*
X1394395Y716912D02*
X1394395Y716912D01*
X1392770Y717586D01*
X1391307Y718563D01*
X1390063Y719807D01*
X1389086Y721270D01*
X1388412Y722895D01*
X1388197Y723977D01*
X1395477Y723977D01*
X1395477Y716697D01*
X1394395Y716912D01*
G37*
%LPD*%
%LPC*%
G36*
X1445195Y637512D02*
X1445195Y637512D01*
X1443570Y638186D01*
X1442107Y639163D01*
X1440863Y640407D01*
X1439886Y641870D01*
X1439212Y643495D01*
X1438997Y644577D01*
X1446277Y644577D01*
X1446277Y637297D01*
X1445195Y637512D01*
G37*
%LPD*%
%LPC*%
G36*
X1394395Y637512D02*
X1394395Y637512D01*
X1392770Y638186D01*
X1391307Y639163D01*
X1390063Y640407D01*
X1389086Y641870D01*
X1388412Y643495D01*
X1388197Y644577D01*
X1395477Y644577D01*
X1395477Y637297D01*
X1394395Y637512D01*
G37*
%LPD*%
%LPC*%
G36*
X698499Y914399D02*
X698499Y914399D01*
X698499Y914401D01*
X698501Y914401D01*
X698501Y914399D01*
X698499Y914399D01*
G37*
%LPD*%
%LPC*%
G36*
X1142199Y939799D02*
X1142199Y939799D01*
X1142199Y939801D01*
X1142201Y939801D01*
X1142201Y939799D01*
X1142199Y939799D01*
G37*
%LPD*%
%LPC*%
G36*
X444499Y584199D02*
X444499Y584199D01*
X444499Y584201D01*
X444501Y584201D01*
X444501Y584199D01*
X444499Y584199D01*
G37*
%LPD*%
%LPC*%
G36*
X1396999Y646099D02*
X1396999Y646099D01*
X1396999Y646101D01*
X1397001Y646101D01*
X1397001Y646099D01*
X1396999Y646099D01*
G37*
%LPD*%
%LPC*%
G36*
X1396999Y725499D02*
X1396999Y725499D01*
X1396999Y725501D01*
X1397001Y725501D01*
X1397001Y725499D01*
X1396999Y725499D01*
G37*
%LPD*%
%LPC*%
G36*
X837399Y431799D02*
X837399Y431799D01*
X837399Y431801D01*
X837401Y431801D01*
X837401Y431799D01*
X837399Y431799D01*
G37*
%LPD*%
%LPC*%
G36*
X698499Y761999D02*
X698499Y761999D01*
X698499Y762001D01*
X698501Y762001D01*
X698501Y761999D01*
X698499Y761999D01*
G37*
%LPD*%
%LPC*%
G36*
X1447799Y725499D02*
X1447799Y725499D01*
X1447799Y725501D01*
X1447801Y725501D01*
X1447801Y725499D01*
X1447799Y725499D01*
G37*
%LPD*%
%LPC*%
G36*
X1447799Y646099D02*
X1447799Y646099D01*
X1447799Y646101D01*
X1447801Y646101D01*
X1447801Y646099D01*
X1447799Y646099D01*
G37*
%LPD*%
%LPC*%
G36*
X805179Y927099D02*
X805179Y927099D01*
X805179Y927101D01*
X805181Y927101D01*
X805181Y927099D01*
X805179Y927099D01*
G37*
%LPD*%
%LPC*%
G36*
X1131099Y406399D02*
X1131099Y406399D01*
X1131099Y406401D01*
X1131101Y406401D01*
X1131101Y406399D01*
X1131099Y406399D01*
G37*
%LPD*%
%LPC*%
G36*
X1281899Y939799D02*
X1281899Y939799D01*
X1281899Y939801D01*
X1281901Y939801D01*
X1281901Y939799D01*
X1281899Y939799D01*
G37*
%LPD*%
%LPC*%
G36*
X292099Y519099D02*
X292099Y519099D01*
X292099Y519101D01*
X292101Y519101D01*
X292101Y519099D01*
X292099Y519099D01*
G37*
%LPD*%
D10*
X1746504Y800100D02*
X1733296Y800100D01*
X1670304Y800100D02*
X1657096Y800100D01*
X1778000Y692404D02*
X1778000Y679196D01*
X1778000Y755396D02*
X1778000Y768604D01*
X1670304Y647700D02*
X1657096Y647700D01*
X1733296Y647700D02*
X1746504Y647700D01*
X1625600Y755396D02*
X1625600Y768604D01*
X1625600Y692404D02*
X1625600Y679196D01*
D11*
X1155700Y533400D03*
X1231900Y533400D03*
D12*
X1511300Y889000D03*
X1435100Y889000D03*
D11*
X1435100Y825500D03*
X1511300Y825500D03*
D12*
X1409700Y889000D03*
X1333500Y889000D03*
D11*
X1155700Y482600D03*
X1231900Y482600D03*
X1282700Y533400D03*
X1358900Y533400D03*
X1409700Y533400D03*
X1485900Y533400D03*
X1409700Y482600D03*
X1485900Y482600D03*
X1409700Y431800D03*
X1485900Y431800D03*
X1409700Y393700D03*
X1485900Y393700D03*
X1536700Y533400D03*
X1612900Y533400D03*
D12*
X1739900Y533400D03*
X1663700Y533400D03*
D13*
X444500Y457200D03*
D14*
X444500Y482600D03*
X444500Y508000D03*
X444500Y533400D03*
X444500Y558800D03*
X444500Y584200D03*
X444500Y609600D03*
X444500Y635000D03*
X444500Y660400D03*
X444500Y685800D03*
X444500Y711200D03*
X444500Y736600D03*
X444500Y762000D03*
X444500Y787400D03*
X444500Y812800D03*
X444500Y838200D03*
X444500Y863600D03*
X444500Y889000D03*
X444500Y914400D03*
X698500Y914400D03*
X698500Y889000D03*
X698500Y863600D03*
X698500Y838200D03*
X698500Y812800D03*
X698500Y787400D03*
X698500Y762000D03*
X698500Y736600D03*
X698500Y711200D03*
X698500Y685800D03*
X698500Y660400D03*
X698500Y635000D03*
X698500Y609600D03*
X698500Y584200D03*
X698500Y558800D03*
X698500Y533400D03*
X698500Y508000D03*
X698500Y482600D03*
X698500Y457200D03*
D15*
X241300Y787400D03*
D16*
X241300Y812800D03*
X241300Y838200D03*
X241300Y863600D03*
X241300Y889000D03*
X241300Y914400D03*
X241300Y939800D03*
D17*
X1346200Y646100D03*
D18*
X1371600Y646100D03*
X1397000Y646100D03*
X1422400Y646100D03*
X1447800Y646100D03*
X1473200Y646100D03*
X1498600Y646100D03*
X1498600Y725500D03*
X1473200Y725500D03*
X1447800Y725500D03*
X1422400Y725500D03*
X1397000Y725500D03*
X1371600Y725500D03*
X1346200Y725500D03*
D19*
X805180Y952500D03*
X805180Y927100D03*
X805180Y901700D03*
X805180Y876300D03*
X805180Y850900D03*
X805180Y825500D03*
X805180Y800100D03*
X805180Y774700D03*
X805180Y749300D03*
X805180Y723900D03*
D20*
X1181100Y406400D03*
X1131100Y406400D03*
D21*
X787400Y431800D03*
X837400Y431800D03*
X888200Y431800D03*
D22*
X241300Y519100D03*
D23*
X266700Y519100D03*
X292100Y519100D03*
X317500Y519100D03*
X317500Y598500D03*
X292100Y598500D03*
X266700Y598500D03*
X241300Y598500D03*
D11*
X279400Y431800D03*
X355600Y431800D03*
X165100Y431800D03*
X241300Y431800D03*
D21*
X1231900Y939800D03*
X1281900Y939800D03*
D24*
X1142200Y939800D03*
X1092200Y939800D03*
X1042200Y939800D03*
D25*
X279400Y889000D02*
X241300Y889000D01*
X406400Y762000D02*
X444500Y762000D01*
X406400Y762000D02*
X279400Y889000D01*
X266700Y863600D02*
X241300Y863600D01*
X393700Y736600D02*
X444500Y736600D01*
X393700Y736600D02*
X266700Y863600D01*
X254000Y838200D02*
X241300Y838200D01*
X406400Y685800D02*
X444500Y685800D01*
X406400Y685800D02*
X254000Y838200D01*
X444500Y914400D02*
X444500Y939800D01*
X469900Y965200D01*
X444500Y939800D02*
X241300Y939800D01*
X792480Y965200D02*
X805180Y952500D01*
X792480Y965200D02*
X469900Y965200D01*
X1016000Y939800D02*
X1042200Y939800D01*
X838200Y952500D02*
X805180Y952500D01*
X838200Y952500D02*
X889000Y901700D01*
X977900Y901700D01*
X1016000Y939800D01*
X165100Y431800D02*
X152400Y431800D01*
X127000Y749300D02*
X165100Y787400D01*
X241300Y787400D01*
X127000Y457200D02*
X152400Y431800D01*
X127000Y457200D02*
X127000Y749300D01*
X698500Y863600D02*
X736600Y863600D01*
X749300Y876300D01*
X749300Y889000D01*
X762000Y901700D01*
X805180Y901700D01*
X723900Y787400D02*
X698500Y787400D01*
X723900Y787400D02*
X749300Y812800D01*
X787400Y876300D02*
X805180Y876300D01*
X749300Y838200D02*
X749300Y812800D01*
X749300Y838200D02*
X787400Y876300D01*
X805180Y800100D02*
X977900Y800100D01*
X1092200Y914400D01*
X1092200Y939800D01*
X444500Y457200D02*
X381000Y520700D01*
X381000Y609600D01*
X342900Y647700D01*
X292100Y647700D02*
X266700Y622300D01*
X266700Y598500D01*
X292100Y647700D02*
X342900Y647700D01*
X444500Y457200D02*
X482600Y419100D01*
X774700Y419100D02*
X787400Y431800D01*
X774700Y419100D02*
X482600Y419100D01*
X1422400Y646100D02*
X1422400Y660400D01*
X1409700Y673100D01*
X787400Y533400D02*
X787400Y431800D01*
X1219200Y673100D02*
X1409700Y673100D01*
X1219200Y673100D02*
X1130300Y584200D01*
X838200Y584200D01*
X787400Y533400D01*
X1625600Y685800D02*
X1663700Y647700D01*
X1676400Y647700D01*
X1676400Y482600D02*
X1485900Y482600D01*
X1663700Y622300D02*
X1663700Y647700D01*
X1701800Y508000D02*
X1676400Y482600D01*
X1701800Y508000D02*
X1701800Y584200D01*
X1663700Y622300D01*
X1778000Y762000D02*
X1739900Y800100D01*
X1803400Y596900D02*
X1739900Y533400D01*
X1803400Y596900D02*
X1803400Y736600D01*
X1778000Y762000D01*
X1231900Y533400D02*
X1231900Y482600D01*
X1231900Y533400D02*
X1282700Y533400D01*
X1371600Y609600D02*
X1384300Y596900D01*
X1384300Y571500D01*
X1397000Y558800D01*
X1422400Y558800D01*
X1435100Y546100D01*
X1435100Y469900D01*
X1422400Y457200D01*
X1282700Y520700D02*
X1282700Y533400D01*
X1371600Y609600D02*
X1371600Y646100D01*
X1346200Y457200D02*
X1422400Y457200D01*
X1346200Y457200D02*
X1282700Y520700D01*
X1485900Y533400D02*
X1536700Y533400D01*
X1485900Y533400D02*
X1485900Y596900D01*
X1473200Y609600D01*
X1473200Y646100D01*
X1485900Y533400D02*
X1485900Y520700D01*
X1460500Y495300D01*
X1485900Y431800D02*
X1485900Y393700D01*
X1485900Y431800D02*
X1460500Y457200D01*
X1460500Y495300D01*
X1739900Y647700D02*
X1778000Y685800D01*
X1473200Y725500D02*
X1473200Y800100D01*
X1447800Y825500D01*
X1435100Y825500D01*
X1473200Y725500D02*
X1473200Y685800D01*
X1485900Y673100D01*
X1524000Y673100D01*
X1739900Y673100D02*
X1739900Y647700D01*
X1574800Y723900D02*
X1524000Y673100D01*
X1574800Y723900D02*
X1689100Y723900D01*
X1739900Y673100D01*
X1422400Y711200D02*
X1422400Y725500D01*
X1422400Y711200D02*
X1409700Y698500D01*
X863600Y368300D02*
X368300Y368300D01*
X317500Y419100D01*
X317500Y519100D01*
X863600Y368300D02*
X888200Y392900D01*
X888200Y431800D01*
X1231900Y711200D02*
X1244600Y698500D01*
X1409700Y698500D01*
D26*
X1231900Y711200D03*
D25*
X1358900Y584200D02*
X1358900Y533400D01*
X1358900Y584200D02*
X1346200Y596900D01*
X1346200Y646100D01*
X1358900Y533400D02*
X1409700Y533400D01*
X1409700Y482600D01*
X1612900Y533400D02*
X1663700Y533400D01*
X1500200Y646100D02*
X1498600Y646100D01*
X1500200Y646100D02*
X1612900Y533400D01*
X1498600Y725500D02*
X1511300Y738200D01*
X1511300Y825500D01*
X1511300Y889000D01*
X1346200Y725500D02*
X1333500Y738200D01*
X1333500Y876300D01*
X1333500Y889000D01*
X1333500Y876300D02*
X1320800Y863600D01*
X1270000Y863600D02*
X1231900Y901700D01*
X1231900Y939800D01*
X1270000Y863600D02*
X1320800Y863600D01*
X1625600Y762000D02*
X1663700Y800100D01*
X1435100Y889000D02*
X1409700Y889000D01*
X1409700Y863600D01*
X1371600Y825500D01*
X1371600Y725500D01*
X1435100Y889000D02*
X1435100Y901700D01*
X1663700Y825500D02*
X1663700Y800100D01*
X1473200Y939800D02*
X1435100Y901700D01*
X1473200Y939800D02*
X1549400Y939800D01*
X1663700Y825500D01*
X1409700Y419100D02*
X1409700Y393700D01*
X1409700Y419100D02*
X1409700Y431800D01*
X1409700Y419100D02*
X1193800Y419100D01*
X1181100Y406400D01*
X1193800Y508000D02*
X1168400Y533400D01*
X1155700Y533400D01*
X1193800Y508000D02*
X1193800Y419100D01*
X355600Y431800D02*
X342900Y444500D01*
X342900Y546100D01*
X330200Y558800D01*
X304800Y558800D01*
X292100Y571500D01*
X292100Y598500D01*
X355600Y431800D02*
X393700Y393700D01*
X787400Y393700D01*
X812800Y419100D01*
X812800Y469900D01*
X825500Y482600D01*
X1155700Y482600D01*
X266700Y431800D02*
X241300Y431800D01*
X266700Y431800D02*
X279400Y431800D01*
X266700Y431800D02*
X266700Y519100D01*
M02*
