G04 EAGLE Gerber RS-274X export*
G75*
%MOMM*%
%FSLAX34Y34*%
%LPD*%
%IN*%
%IPPOS*%
%AMOC8*
5,1,8,0,0,1.08239X$1,22.5*%
G01*
%ADD10C,0.254000*%


D10*
X63500Y342900D02*
X1841300Y342900D01*
X1841300Y1000000D01*
X63500Y1000000D01*
X63500Y342900D01*
X931656Y936500D02*
X930611Y936569D01*
X929572Y936705D01*
X928545Y936910D01*
X927533Y937181D01*
X926541Y937517D01*
X925573Y937918D01*
X924634Y938382D01*
X923726Y938906D01*
X922855Y939488D01*
X922024Y940125D01*
X921237Y940816D01*
X920496Y941557D01*
X919805Y942344D01*
X919168Y943175D01*
X918586Y944046D01*
X918062Y944954D01*
X917598Y945893D01*
X917197Y946861D01*
X916861Y947853D01*
X916590Y948865D01*
X916385Y949892D01*
X916249Y950931D01*
X916180Y951976D01*
X916180Y953024D01*
X916249Y954069D01*
X916385Y955108D01*
X916590Y956135D01*
X916861Y957147D01*
X917197Y958139D01*
X917598Y959107D01*
X918062Y960046D01*
X918586Y960954D01*
X919168Y961825D01*
X919805Y962656D01*
X920496Y963443D01*
X921237Y964184D01*
X922024Y964875D01*
X922855Y965513D01*
X923726Y966095D01*
X924634Y966618D01*
X925573Y967082D01*
X926541Y967483D01*
X927533Y967819D01*
X928545Y968090D01*
X929572Y968295D01*
X930611Y968432D01*
X931656Y968500D01*
X932704Y968500D01*
X933749Y968432D01*
X934788Y968295D01*
X935815Y968090D01*
X936827Y967819D01*
X937819Y967483D01*
X938787Y967082D01*
X939726Y966618D01*
X940634Y966095D01*
X941505Y965513D01*
X942336Y964875D01*
X943123Y964184D01*
X943864Y963443D01*
X944555Y962656D01*
X945193Y961825D01*
X945775Y960954D01*
X946298Y960046D01*
X946762Y959107D01*
X947163Y958139D01*
X947499Y957147D01*
X947770Y956135D01*
X947975Y955108D01*
X948112Y954069D01*
X948180Y953024D01*
X948180Y951976D01*
X948112Y950931D01*
X947975Y949892D01*
X947770Y948865D01*
X947499Y947853D01*
X947163Y946861D01*
X946762Y945893D01*
X946298Y944954D01*
X945775Y944046D01*
X945193Y943175D01*
X944555Y942344D01*
X943864Y941557D01*
X943123Y940816D01*
X942336Y940125D01*
X941505Y939488D01*
X940634Y938906D01*
X939726Y938382D01*
X938787Y937918D01*
X937819Y937517D01*
X936827Y937181D01*
X935815Y936910D01*
X934788Y936705D01*
X933749Y936569D01*
X932704Y936500D01*
X931656Y936500D01*
X931656Y707900D02*
X930611Y707969D01*
X929572Y708105D01*
X928545Y708310D01*
X927533Y708581D01*
X926541Y708917D01*
X925573Y709318D01*
X924634Y709782D01*
X923726Y710306D01*
X922855Y710888D01*
X922024Y711525D01*
X921237Y712216D01*
X920496Y712957D01*
X919805Y713744D01*
X919168Y714575D01*
X918586Y715446D01*
X918062Y716354D01*
X917598Y717293D01*
X917197Y718261D01*
X916861Y719253D01*
X916590Y720265D01*
X916385Y721292D01*
X916249Y722331D01*
X916180Y723376D01*
X916180Y724424D01*
X916249Y725469D01*
X916385Y726508D01*
X916590Y727535D01*
X916861Y728547D01*
X917197Y729539D01*
X917598Y730507D01*
X918062Y731446D01*
X918586Y732354D01*
X919168Y733225D01*
X919805Y734056D01*
X920496Y734843D01*
X921237Y735584D01*
X922024Y736275D01*
X922855Y736913D01*
X923726Y737495D01*
X924634Y738018D01*
X925573Y738482D01*
X926541Y738883D01*
X927533Y739219D01*
X928545Y739490D01*
X929572Y739695D01*
X930611Y739832D01*
X931656Y739900D01*
X932704Y739900D01*
X933749Y739832D01*
X934788Y739695D01*
X935815Y739490D01*
X936827Y739219D01*
X937819Y738883D01*
X938787Y738482D01*
X939726Y738018D01*
X940634Y737495D01*
X941505Y736913D01*
X942336Y736275D01*
X943123Y735584D01*
X943864Y734843D01*
X944555Y734056D01*
X945193Y733225D01*
X945775Y732354D01*
X946298Y731446D01*
X946762Y730507D01*
X947163Y729539D01*
X947499Y728547D01*
X947770Y727535D01*
X947975Y726508D01*
X948112Y725469D01*
X948180Y724424D01*
X948180Y723376D01*
X948112Y722331D01*
X947975Y721292D01*
X947770Y720265D01*
X947499Y719253D01*
X947163Y718261D01*
X946762Y717293D01*
X946298Y716354D01*
X945775Y715446D01*
X945193Y714575D01*
X944555Y713744D01*
X943864Y712957D01*
X943123Y712216D01*
X942336Y711525D01*
X941505Y710888D01*
X940634Y710306D01*
X939726Y709782D01*
X938787Y709318D01*
X937819Y708917D01*
X936827Y708581D01*
X935815Y708310D01*
X934788Y708105D01*
X933749Y707969D01*
X932704Y707900D01*
X931656Y707900D01*
M02*
