G04 EAGLE Gerber RS-274X export*
G75*
%MOMM*%
%FSLAX34Y34*%
%LPD*%
%IN*%
%IPPOS*%
%AMOC8*
5,1,8,0,0,1.08239X$1,22.5*%
G01*
%ADD10C,0.254000*%


D10*
X0Y-119380D02*
X999290Y-119380D01*
X999290Y1000000D01*
X0Y1000000D01*
X0Y-119380D01*
X677656Y911100D02*
X676611Y911169D01*
X675572Y911305D01*
X674545Y911510D01*
X673533Y911781D01*
X672541Y912117D01*
X671573Y912518D01*
X670634Y912982D01*
X669726Y913506D01*
X668855Y914088D01*
X668024Y914725D01*
X667237Y915416D01*
X666496Y916157D01*
X665805Y916944D01*
X665168Y917775D01*
X664586Y918646D01*
X664062Y919554D01*
X663598Y920493D01*
X663197Y921461D01*
X662861Y922453D01*
X662590Y923465D01*
X662385Y924492D01*
X662249Y925531D01*
X662180Y926576D01*
X662180Y927624D01*
X662249Y928669D01*
X662385Y929708D01*
X662590Y930735D01*
X662861Y931747D01*
X663197Y932739D01*
X663598Y933707D01*
X664062Y934646D01*
X664586Y935554D01*
X665168Y936425D01*
X665805Y937256D01*
X666496Y938043D01*
X667237Y938784D01*
X668024Y939475D01*
X668855Y940113D01*
X669726Y940695D01*
X670634Y941218D01*
X671573Y941682D01*
X672541Y942083D01*
X673533Y942419D01*
X674545Y942690D01*
X675572Y942895D01*
X676611Y943032D01*
X677656Y943100D01*
X678704Y943100D01*
X679749Y943032D01*
X680788Y942895D01*
X681815Y942690D01*
X682827Y942419D01*
X683819Y942083D01*
X684787Y941682D01*
X685726Y941218D01*
X686634Y940695D01*
X687505Y940113D01*
X688336Y939475D01*
X689123Y938784D01*
X689864Y938043D01*
X690555Y937256D01*
X691193Y936425D01*
X691775Y935554D01*
X692298Y934646D01*
X692762Y933707D01*
X693163Y932739D01*
X693499Y931747D01*
X693770Y930735D01*
X693975Y929708D01*
X694112Y928669D01*
X694180Y927624D01*
X694180Y926576D01*
X694112Y925531D01*
X693975Y924492D01*
X693770Y923465D01*
X693499Y922453D01*
X693163Y921461D01*
X692762Y920493D01*
X692298Y919554D01*
X691775Y918646D01*
X691193Y917775D01*
X690555Y916944D01*
X689864Y916157D01*
X689123Y915416D01*
X688336Y914725D01*
X687505Y914088D01*
X686634Y913506D01*
X685726Y912982D01*
X684787Y912518D01*
X683819Y912117D01*
X682827Y911781D01*
X681815Y911510D01*
X680788Y911305D01*
X679749Y911169D01*
X678704Y911100D01*
X677656Y911100D01*
X677656Y682500D02*
X676611Y682569D01*
X675572Y682705D01*
X674545Y682910D01*
X673533Y683181D01*
X672541Y683517D01*
X671573Y683918D01*
X670634Y684382D01*
X669726Y684906D01*
X668855Y685488D01*
X668024Y686125D01*
X667237Y686816D01*
X666496Y687557D01*
X665805Y688344D01*
X665168Y689175D01*
X664586Y690046D01*
X664062Y690954D01*
X663598Y691893D01*
X663197Y692861D01*
X662861Y693853D01*
X662590Y694865D01*
X662385Y695892D01*
X662249Y696931D01*
X662180Y697976D01*
X662180Y699024D01*
X662249Y700069D01*
X662385Y701108D01*
X662590Y702135D01*
X662861Y703147D01*
X663197Y704139D01*
X663598Y705107D01*
X664062Y706046D01*
X664586Y706954D01*
X665168Y707825D01*
X665805Y708656D01*
X666496Y709443D01*
X667237Y710184D01*
X668024Y710875D01*
X668855Y711513D01*
X669726Y712095D01*
X670634Y712618D01*
X671573Y713082D01*
X672541Y713483D01*
X673533Y713819D01*
X674545Y714090D01*
X675572Y714295D01*
X676611Y714432D01*
X677656Y714500D01*
X678704Y714500D01*
X679749Y714432D01*
X680788Y714295D01*
X681815Y714090D01*
X682827Y713819D01*
X683819Y713483D01*
X684787Y713082D01*
X685726Y712618D01*
X686634Y712095D01*
X687505Y711513D01*
X688336Y710875D01*
X689123Y710184D01*
X689864Y709443D01*
X690555Y708656D01*
X691193Y707825D01*
X691775Y706954D01*
X692298Y706046D01*
X692762Y705107D01*
X693163Y704139D01*
X693499Y703147D01*
X693770Y702135D01*
X693975Y701108D01*
X694112Y700069D01*
X694180Y699024D01*
X694180Y697976D01*
X694112Y696931D01*
X693975Y695892D01*
X693770Y694865D01*
X693499Y693853D01*
X693163Y692861D01*
X692762Y691893D01*
X692298Y690954D01*
X691775Y690046D01*
X691193Y689175D01*
X690555Y688344D01*
X689864Y687557D01*
X689123Y686816D01*
X688336Y686125D01*
X687505Y685488D01*
X686634Y684906D01*
X685726Y684382D01*
X684787Y683918D01*
X683819Y683517D01*
X682827Y683181D01*
X681815Y682910D01*
X680788Y682705D01*
X679749Y682569D01*
X678704Y682500D01*
X677656Y682500D01*
M02*
