G04 EAGLE Gerber RS-274X export*
G75*
%MOMM*%
%FSLAX34Y34*%
%LPD*%
%INSoldermask Top*%
%IPPOS*%
%AMOC8*
5,1,8,0,0,1.08239X$1,22.5*%
G01*
%ADD10R,1.879600X1.879600*%
%ADD11C,1.879600*%
%ADD12P,2.309387X8X22.500000*%
%ADD13C,2.133600*%
%ADD14C,1.511200*%
%ADD15C,3.403200*%
%ADD16P,2.384722X8X112.500000*%
%ADD17P,2.384722X8X292.500000*%
%ADD18R,1.491200X1.491200*%
%ADD19C,1.491200*%
%ADD20P,1.649562X8X22.500000*%
%ADD21P,1.649562X8X202.500000*%
%ADD22C,2.387600*%
%ADD23R,1.703200X1.703200*%
%ADD24C,1.703200*%
%ADD25P,1.539592X8X22.500000*%
%ADD26C,1.422400*%
%ADD27R,1.661200X1.661200*%
%ADD28C,1.661200*%
%ADD29C,1.711200*%
%ADD30C,4.219200*%
%ADD31C,1.159600*%


D10*
X228600Y469900D03*
D11*
X228600Y495300D03*
X228600Y520700D03*
X228600Y546100D03*
X228600Y571500D03*
X228600Y596900D03*
X228600Y622300D03*
X228600Y647700D03*
X228600Y673100D03*
X228600Y698500D03*
X228600Y723900D03*
X228600Y749300D03*
X228600Y774700D03*
X228600Y800100D03*
X228600Y825500D03*
X228600Y850900D03*
X228600Y876300D03*
X228600Y901700D03*
X228600Y927100D03*
X482600Y927100D03*
X482600Y901700D03*
X482600Y876300D03*
X482600Y850900D03*
X482600Y825500D03*
X482600Y800100D03*
X482600Y774700D03*
X482600Y749300D03*
X482600Y723900D03*
X482600Y698500D03*
X482600Y673100D03*
X482600Y647700D03*
X482600Y622300D03*
X482600Y596900D03*
X482600Y571500D03*
X482600Y546100D03*
X482600Y520700D03*
X482600Y495300D03*
X482600Y469900D03*
D12*
X50800Y673100D03*
D13*
X50800Y698500D03*
X50800Y723900D03*
X50800Y749300D03*
X50800Y774700D03*
X50800Y800100D03*
X50800Y825500D03*
D14*
X551180Y927100D03*
X551180Y901700D03*
X551180Y876300D03*
X551180Y850900D03*
X551180Y825500D03*
X551180Y800100D03*
X551180Y774700D03*
X551180Y749300D03*
X551180Y723900D03*
X551180Y698500D03*
D15*
X678180Y927100D03*
X678180Y698500D03*
D16*
X63500Y381000D03*
X63500Y431000D03*
D17*
X63500Y609600D03*
X63500Y559600D03*
X63500Y508800D03*
D18*
X199390Y253670D03*
D19*
X224790Y253670D03*
X250190Y253670D03*
X275590Y253670D03*
X275590Y333070D03*
X250190Y333070D03*
X224790Y333070D03*
X199390Y333070D03*
D20*
X187960Y199390D03*
X264160Y199390D03*
D21*
X264160Y171450D03*
X187960Y171450D03*
D16*
X63500Y254000D03*
X63500Y304000D03*
D22*
X63500Y177000D03*
X63500Y127000D03*
X63500Y77000D03*
D23*
X603250Y93980D03*
D24*
X628650Y93980D03*
X654050Y93980D03*
X679450Y93980D03*
X704850Y93980D03*
X730250Y93980D03*
X755650Y93980D03*
X603250Y170180D03*
X628650Y170180D03*
X654050Y170180D03*
X679450Y170180D03*
X704850Y170180D03*
X730250Y170180D03*
X755650Y170180D03*
D20*
X593090Y-12700D03*
X669290Y-12700D03*
D21*
X669290Y-49530D03*
X593090Y-49530D03*
D20*
X477520Y-71120D03*
X553720Y-71120D03*
D25*
X166370Y600710D03*
D26*
X148590Y600710D03*
D20*
X594360Y-85090D03*
X670560Y-85090D03*
X730250Y54610D03*
X806450Y54610D03*
D21*
X795020Y-81280D03*
X718820Y-81280D03*
D20*
X825500Y-19050D03*
X901700Y-19050D03*
X825500Y302260D03*
X901700Y302260D03*
X825500Y266700D03*
X901700Y266700D03*
X825500Y227330D03*
X901700Y227330D03*
X825500Y187960D03*
X901700Y187960D03*
X384810Y369570D03*
X461010Y369570D03*
D21*
X459740Y332740D03*
X383540Y332740D03*
D20*
X825500Y151130D03*
X901700Y151130D03*
X707390Y300990D03*
X783590Y300990D03*
X825500Y113030D03*
X901700Y113030D03*
X586740Y264160D03*
X662940Y264160D03*
X708660Y264160D03*
X784860Y264160D03*
D21*
X913130Y54610D03*
X836930Y54610D03*
X909320Y16510D03*
X833120Y16510D03*
D20*
X562610Y33020D03*
X638810Y33020D03*
X728980Y20320D03*
X805180Y20320D03*
X826770Y-54610D03*
X902970Y-54610D03*
X708660Y218440D03*
X784860Y218440D03*
X325120Y-40640D03*
X401320Y-40640D03*
D21*
X401320Y34290D03*
X325120Y34290D03*
D20*
X325120Y-2540D03*
X401320Y-2540D03*
D21*
X664210Y227330D03*
X588010Y227330D03*
D20*
X454660Y33020D03*
X530860Y33020D03*
D23*
X349250Y93980D03*
D24*
X374650Y93980D03*
X400050Y93980D03*
X425450Y93980D03*
X450850Y93980D03*
X476250Y93980D03*
X501650Y93980D03*
X349250Y170180D03*
X374650Y170180D03*
X400050Y170180D03*
X425450Y170180D03*
X450850Y170180D03*
X476250Y170180D03*
X501650Y170180D03*
D21*
X552450Y306070D03*
X476250Y306070D03*
D20*
X335280Y262890D03*
X411480Y262890D03*
X335280Y300990D03*
X411480Y300990D03*
X476250Y227330D03*
X552450Y227330D03*
D21*
X552450Y266700D03*
X476250Y266700D03*
X412750Y226060D03*
X336550Y226060D03*
D27*
X556860Y-13980D03*
D28*
X530860Y-13980D03*
X504860Y-13980D03*
D27*
X756250Y-19060D03*
D28*
X730250Y-19060D03*
X704250Y-19060D03*
D27*
X563210Y363210D03*
D28*
X537210Y363210D03*
X511210Y363210D03*
D27*
X752440Y363210D03*
D28*
X726440Y363210D03*
X700440Y363210D03*
D29*
X814150Y535940D02*
X829230Y535940D01*
X944150Y535940D02*
X959230Y535940D01*
X959230Y370940D02*
X944150Y370940D01*
X829230Y370940D02*
X814150Y370940D01*
D30*
X46990Y956310D03*
X952500Y-64770D03*
X54610Y-64770D03*
X948690Y956310D03*
D31*
X520700Y772160D03*
X599440Y68580D03*
X554990Y97790D03*
X139700Y441960D03*
X687070Y16510D03*
X596900Y335280D03*
X754380Y241300D03*
X774700Y191770D03*
X873760Y133350D03*
X800100Y102870D03*
X720090Y2540D03*
X488950Y-38100D03*
X138430Y274320D03*
M02*
