G04 EAGLE Gerber RS-274X export*
G75*
%MOMM*%
%FSLAX34Y34*%
%LPD*%
%INBottom Copper*%
%IPPOS*%
%AMOC8*
5,1,8,0,0,1.08239X$1,22.5*%
G01*
%ADD10P,1.319650X8X22.500000*%
%ADD11C,1.219200*%
%ADD12R,1.575000X1.575000*%
%ADD13C,1.575000*%
%ADD14C,2.184400*%
%ADD15P,1.429621X8X22.500000*%
%ADD16R,1.676400X1.676400*%
%ADD17C,1.676400*%
%ADD18P,2.089446X8X22.500000*%
%ADD19C,1.930400*%
%ADD20P,2.164780X8X202.500000*%
%ADD21C,1.508000*%
%ADD22R,1.288000X1.288000*%
%ADD23C,1.288000*%
%ADD24C,1.308000*%
%ADD25R,3.000000X3.000000*%
%ADD26C,1.524000*%
%ADD27C,0.812800*%
%ADD28C,4.016000*%
%ADD29C,1.905000*%

G36*
X358897Y308622D02*
X358897Y308622D01*
X358969Y308624D01*
X359018Y308642D01*
X359070Y308650D01*
X359133Y308684D01*
X359200Y308709D01*
X359241Y308741D01*
X359287Y308766D01*
X359336Y308818D01*
X359392Y308862D01*
X359420Y308906D01*
X359456Y308944D01*
X359486Y309009D01*
X359525Y309069D01*
X359538Y309120D01*
X359560Y309167D01*
X359568Y309238D01*
X359585Y309308D01*
X359581Y309360D01*
X359587Y309411D01*
X359572Y309482D01*
X359566Y309553D01*
X359546Y309601D01*
X359535Y309652D01*
X359498Y309713D01*
X359470Y309779D01*
X359425Y309835D01*
X359409Y309863D01*
X359391Y309878D01*
X359365Y309910D01*
X358287Y310988D01*
X314483Y354792D01*
X314409Y354845D01*
X314340Y354905D01*
X314309Y354917D01*
X314283Y354936D01*
X314196Y354963D01*
X314111Y354997D01*
X314070Y355001D01*
X314048Y355008D01*
X314016Y355007D01*
X313945Y355015D01*
X306965Y355015D01*
X306875Y355001D01*
X306784Y354993D01*
X306755Y354981D01*
X306723Y354976D01*
X306642Y354933D01*
X306558Y354897D01*
X306526Y354871D01*
X306505Y354860D01*
X306483Y354837D01*
X306427Y354792D01*
X306415Y354780D01*
X301247Y352639D01*
X295653Y352639D01*
X290485Y354780D01*
X286530Y358735D01*
X284389Y363903D01*
X284389Y369497D01*
X286530Y374665D01*
X290485Y378620D01*
X295653Y380761D01*
X301247Y380761D01*
X306415Y378620D01*
X306427Y378608D01*
X306501Y378555D01*
X306571Y378495D01*
X306601Y378483D01*
X306627Y378464D01*
X306714Y378437D01*
X306799Y378403D01*
X306840Y378399D01*
X306862Y378392D01*
X306894Y378393D01*
X306965Y378385D01*
X321424Y378385D01*
X325719Y376606D01*
X372917Y329408D01*
X372991Y329355D01*
X373060Y329295D01*
X373091Y329283D01*
X373117Y329264D01*
X373204Y329237D01*
X373289Y329203D01*
X373330Y329199D01*
X373352Y329192D01*
X373384Y329193D01*
X373455Y329185D01*
X418254Y329185D01*
X418325Y329196D01*
X418397Y329198D01*
X418445Y329216D01*
X418497Y329224D01*
X418560Y329258D01*
X418628Y329283D01*
X418668Y329315D01*
X418714Y329340D01*
X418764Y329392D01*
X418820Y329436D01*
X418848Y329480D01*
X418884Y329518D01*
X418914Y329583D01*
X418953Y329643D01*
X418965Y329694D01*
X418987Y329741D01*
X418995Y329812D01*
X419013Y329882D01*
X419009Y329934D01*
X419014Y329985D01*
X418999Y330056D01*
X418993Y330127D01*
X418973Y330175D01*
X418962Y330226D01*
X418925Y330287D01*
X418897Y330353D01*
X418852Y330409D01*
X418836Y330437D01*
X418818Y330452D01*
X418792Y330484D01*
X416880Y332396D01*
X414057Y339212D01*
X414057Y346588D01*
X416880Y353404D01*
X422096Y358620D01*
X428912Y361443D01*
X436288Y361443D01*
X443104Y358620D01*
X448320Y353404D01*
X451143Y346588D01*
X451143Y339212D01*
X448320Y332396D01*
X446408Y330484D01*
X446366Y330426D01*
X446316Y330374D01*
X446294Y330327D01*
X446264Y330285D01*
X446243Y330216D01*
X446213Y330151D01*
X446207Y330099D01*
X446192Y330049D01*
X446194Y329978D01*
X446186Y329907D01*
X446197Y329856D01*
X446198Y329804D01*
X446223Y329736D01*
X446238Y329666D01*
X446265Y329621D01*
X446283Y329573D01*
X446327Y329517D01*
X446364Y329455D01*
X446404Y329421D01*
X446436Y329381D01*
X446497Y329342D01*
X446551Y329295D01*
X446599Y329276D01*
X446643Y329248D01*
X446713Y329230D01*
X446779Y329203D01*
X446851Y329195D01*
X446882Y329187D01*
X446905Y329189D01*
X446946Y329185D01*
X468254Y329185D01*
X468325Y329196D01*
X468397Y329198D01*
X468445Y329216D01*
X468497Y329224D01*
X468560Y329258D01*
X468628Y329283D01*
X468668Y329315D01*
X468714Y329340D01*
X468764Y329392D01*
X468820Y329436D01*
X468848Y329480D01*
X468884Y329518D01*
X468914Y329583D01*
X468953Y329643D01*
X468965Y329694D01*
X468987Y329741D01*
X468995Y329812D01*
X469013Y329882D01*
X469009Y329934D01*
X469014Y329985D01*
X468999Y330056D01*
X468993Y330127D01*
X468973Y330175D01*
X468962Y330226D01*
X468925Y330287D01*
X468897Y330353D01*
X468852Y330409D01*
X468836Y330437D01*
X468818Y330452D01*
X468792Y330484D01*
X466880Y332396D01*
X464057Y339212D01*
X464057Y346588D01*
X466880Y353404D01*
X472096Y358620D01*
X478912Y361443D01*
X486288Y361443D01*
X493104Y358620D01*
X498320Y353404D01*
X501143Y346588D01*
X501143Y339212D01*
X498320Y332396D01*
X496408Y330484D01*
X496366Y330426D01*
X496316Y330374D01*
X496294Y330327D01*
X496264Y330285D01*
X496243Y330216D01*
X496213Y330151D01*
X496207Y330099D01*
X496192Y330049D01*
X496194Y329978D01*
X496186Y329907D01*
X496197Y329856D01*
X496198Y329804D01*
X496223Y329736D01*
X496238Y329666D01*
X496265Y329621D01*
X496283Y329573D01*
X496327Y329517D01*
X496364Y329455D01*
X496404Y329421D01*
X496436Y329381D01*
X496497Y329342D01*
X496551Y329295D01*
X496599Y329276D01*
X496643Y329248D01*
X496713Y329230D01*
X496779Y329203D01*
X496851Y329195D01*
X496882Y329187D01*
X496905Y329189D01*
X496946Y329185D01*
X518254Y329185D01*
X518325Y329196D01*
X518397Y329198D01*
X518445Y329216D01*
X518497Y329224D01*
X518560Y329258D01*
X518628Y329283D01*
X518668Y329315D01*
X518714Y329340D01*
X518764Y329392D01*
X518820Y329436D01*
X518848Y329480D01*
X518884Y329518D01*
X518914Y329583D01*
X518953Y329643D01*
X518965Y329694D01*
X518987Y329741D01*
X518995Y329812D01*
X519013Y329882D01*
X519009Y329934D01*
X519014Y329985D01*
X518999Y330056D01*
X518993Y330127D01*
X518973Y330175D01*
X518962Y330226D01*
X518925Y330287D01*
X518897Y330353D01*
X518852Y330409D01*
X518836Y330437D01*
X518818Y330452D01*
X518792Y330484D01*
X516880Y332396D01*
X514057Y339212D01*
X514057Y346588D01*
X515468Y349993D01*
X515494Y350107D01*
X515523Y350220D01*
X515522Y350227D01*
X515524Y350233D01*
X515513Y350349D01*
X515504Y350465D01*
X515501Y350471D01*
X515501Y350477D01*
X515453Y350585D01*
X515407Y350692D01*
X515403Y350698D01*
X515401Y350702D01*
X515388Y350716D01*
X515303Y350823D01*
X477983Y388142D01*
X477909Y388195D01*
X477840Y388255D01*
X477809Y388267D01*
X477783Y388286D01*
X477696Y388313D01*
X477611Y388347D01*
X477570Y388351D01*
X477548Y388358D01*
X477516Y388357D01*
X477445Y388365D01*
X286155Y388365D01*
X286065Y388351D01*
X285974Y388343D01*
X285945Y388331D01*
X285913Y388326D01*
X285832Y388283D01*
X285748Y388247D01*
X285716Y388221D01*
X285695Y388210D01*
X285673Y388187D01*
X285617Y388142D01*
X274292Y376817D01*
X274222Y376721D01*
X274151Y376623D01*
X274150Y376620D01*
X274148Y376617D01*
X274113Y376504D01*
X274077Y376388D01*
X274077Y376385D01*
X274076Y376382D01*
X274079Y376261D01*
X274081Y376142D01*
X274082Y376139D01*
X274082Y376136D01*
X274124Y376023D01*
X274164Y375911D01*
X274166Y375908D01*
X274167Y375905D01*
X274241Y375812D01*
X274316Y375717D01*
X274318Y375716D01*
X274320Y375713D01*
X274422Y375648D01*
X274522Y375583D01*
X274525Y375582D01*
X274527Y375580D01*
X274538Y375578D01*
X274682Y375532D01*
X275670Y375336D01*
X277304Y374659D01*
X278775Y373676D01*
X280026Y372425D01*
X281009Y370954D01*
X281686Y369320D01*
X281904Y368223D01*
X273812Y368223D01*
X273792Y368220D01*
X273773Y368222D01*
X273671Y368200D01*
X273569Y368183D01*
X273552Y368174D01*
X273532Y368170D01*
X273443Y368117D01*
X273352Y368068D01*
X273338Y368054D01*
X273321Y368044D01*
X273254Y367965D01*
X273183Y367890D01*
X273174Y367872D01*
X273161Y367857D01*
X273123Y367761D01*
X273079Y367667D01*
X273077Y367647D01*
X273069Y367629D01*
X273051Y367462D01*
X273051Y366699D01*
X272288Y366699D01*
X272268Y366696D01*
X272249Y366698D01*
X272147Y366676D01*
X272045Y366659D01*
X272028Y366650D01*
X272008Y366646D01*
X271919Y366593D01*
X271828Y366544D01*
X271814Y366530D01*
X271797Y366520D01*
X271730Y366441D01*
X271659Y366366D01*
X271650Y366348D01*
X271637Y366333D01*
X271598Y366237D01*
X271555Y366143D01*
X271553Y366123D01*
X271545Y366105D01*
X271527Y365938D01*
X271527Y357846D01*
X270430Y358064D01*
X268796Y358741D01*
X267325Y359724D01*
X266074Y360975D01*
X265091Y362446D01*
X264414Y364080D01*
X264218Y365068D01*
X264176Y365180D01*
X264135Y365293D01*
X264133Y365296D01*
X264132Y365299D01*
X264056Y365391D01*
X263981Y365485D01*
X263978Y365487D01*
X263976Y365490D01*
X263875Y365553D01*
X263774Y365618D01*
X263771Y365619D01*
X263768Y365621D01*
X263651Y365649D01*
X263535Y365679D01*
X263532Y365678D01*
X263529Y365679D01*
X263408Y365669D01*
X263290Y365659D01*
X263287Y365658D01*
X263284Y365658D01*
X263172Y365609D01*
X263064Y365563D01*
X263061Y365561D01*
X263059Y365560D01*
X263050Y365552D01*
X262933Y365458D01*
X261934Y364459D01*
X261881Y364385D01*
X261821Y364316D01*
X261809Y364285D01*
X261790Y364259D01*
X261763Y364172D01*
X261729Y364087D01*
X261725Y364047D01*
X261718Y364024D01*
X261719Y363992D01*
X261711Y363921D01*
X261711Y363903D01*
X259570Y358735D01*
X259558Y358723D01*
X259505Y358649D01*
X259445Y358579D01*
X259433Y358549D01*
X259414Y358523D01*
X259387Y358436D01*
X259353Y358351D01*
X259349Y358310D01*
X259342Y358288D01*
X259343Y358256D01*
X259335Y358185D01*
X259335Y346926D01*
X257556Y342631D01*
X235219Y320294D01*
X230924Y318515D01*
X181826Y318515D01*
X177531Y320294D01*
X161544Y336281D01*
X159765Y340576D01*
X159765Y465874D01*
X161544Y470169D01*
X164938Y473563D01*
X180487Y489112D01*
X183881Y492506D01*
X188176Y494285D01*
X210745Y494285D01*
X210835Y494299D01*
X210926Y494307D01*
X210956Y494319D01*
X210987Y494324D01*
X211068Y494367D01*
X211152Y494403D01*
X211184Y494429D01*
X211205Y494440D01*
X211227Y494463D01*
X211283Y494508D01*
X220502Y503727D01*
X220546Y503788D01*
X220580Y503824D01*
X220586Y503837D01*
X220615Y503870D01*
X220627Y503901D01*
X220646Y503927D01*
X220673Y504014D01*
X220707Y504099D01*
X220711Y504140D01*
X220718Y504162D01*
X220717Y504194D01*
X220725Y504265D01*
X220725Y507542D01*
X229058Y515875D01*
X240842Y515875D01*
X249175Y507542D01*
X249175Y495758D01*
X240842Y487425D01*
X237565Y487425D01*
X237475Y487411D01*
X237384Y487403D01*
X237355Y487391D01*
X237323Y487386D01*
X237242Y487343D01*
X237158Y487307D01*
X237126Y487281D01*
X237105Y487270D01*
X237083Y487247D01*
X237027Y487202D01*
X225913Y476088D01*
X222519Y472694D01*
X218224Y470915D01*
X195655Y470915D01*
X195565Y470901D01*
X195474Y470893D01*
X195444Y470881D01*
X195413Y470876D01*
X195332Y470833D01*
X195248Y470797D01*
X195216Y470771D01*
X195195Y470760D01*
X195173Y470737D01*
X195117Y470692D01*
X183358Y458933D01*
X183305Y458859D01*
X183245Y458790D01*
X183233Y458759D01*
X183214Y458733D01*
X183187Y458646D01*
X183153Y458561D01*
X183149Y458520D01*
X183142Y458498D01*
X183143Y458466D01*
X183135Y458395D01*
X183135Y348055D01*
X183149Y347965D01*
X183157Y347874D01*
X183169Y347845D01*
X183174Y347813D01*
X183217Y347732D01*
X183253Y347648D01*
X183279Y347616D01*
X183290Y347595D01*
X183313Y347573D01*
X183358Y347517D01*
X188767Y342108D01*
X188841Y342055D01*
X188910Y341995D01*
X188941Y341983D01*
X188967Y341964D01*
X189054Y341937D01*
X189139Y341903D01*
X189180Y341899D01*
X189202Y341892D01*
X189234Y341893D01*
X189305Y341885D01*
X223445Y341885D01*
X223535Y341899D01*
X223626Y341907D01*
X223655Y341919D01*
X223687Y341924D01*
X223768Y341967D01*
X223852Y342003D01*
X223884Y342029D01*
X223905Y342040D01*
X223927Y342063D01*
X223983Y342108D01*
X235742Y353867D01*
X235795Y353941D01*
X235855Y354010D01*
X235867Y354041D01*
X235886Y354067D01*
X235913Y354154D01*
X235947Y354239D01*
X235951Y354280D01*
X235958Y354302D01*
X235957Y354334D01*
X235965Y354405D01*
X235965Y354920D01*
X235954Y354991D01*
X235952Y355063D01*
X235934Y355112D01*
X235926Y355163D01*
X235892Y355226D01*
X235867Y355294D01*
X235835Y355334D01*
X235810Y355380D01*
X235758Y355430D01*
X235714Y355486D01*
X235670Y355514D01*
X235632Y355550D01*
X235567Y355580D01*
X235507Y355619D01*
X235456Y355631D01*
X235409Y355653D01*
X235338Y355661D01*
X235268Y355679D01*
X235216Y355675D01*
X235165Y355680D01*
X235094Y355665D01*
X235023Y355660D01*
X234975Y355639D01*
X234924Y355628D01*
X234863Y355591D01*
X234797Y355563D01*
X234741Y355518D01*
X234713Y355502D01*
X234698Y355484D01*
X234666Y355458D01*
X233007Y353799D01*
X230206Y352639D01*
X214294Y352639D01*
X211493Y353799D01*
X209349Y355943D01*
X208189Y358744D01*
X208189Y374656D01*
X209349Y377457D01*
X211493Y379601D01*
X214294Y380761D01*
X230206Y380761D01*
X233007Y379601D01*
X235151Y377457D01*
X235702Y376125D01*
X235726Y376086D01*
X235742Y376043D01*
X235791Y375982D01*
X235832Y375916D01*
X235867Y375887D01*
X235896Y375851D01*
X235961Y375809D01*
X236021Y375760D01*
X236064Y375743D01*
X236103Y375718D01*
X236178Y375699D01*
X236251Y375671D01*
X236297Y375669D01*
X236341Y375658D01*
X236419Y375664D01*
X236496Y375661D01*
X236541Y375674D01*
X236586Y375677D01*
X236658Y375708D01*
X236733Y375730D01*
X236770Y375756D01*
X236813Y375774D01*
X236919Y375859D01*
X236935Y375870D01*
X236938Y375874D01*
X236944Y375878D01*
X239685Y378620D01*
X244853Y380761D01*
X244871Y380761D01*
X244961Y380775D01*
X245052Y380783D01*
X245082Y380795D01*
X245113Y380800D01*
X245194Y380843D01*
X245278Y380879D01*
X245310Y380905D01*
X245331Y380916D01*
X245353Y380939D01*
X245409Y380984D01*
X270987Y406562D01*
X271177Y406752D01*
X271204Y406789D01*
X271238Y406820D01*
X271275Y406888D01*
X271321Y406952D01*
X271334Y406995D01*
X271356Y407036D01*
X271370Y407112D01*
X271393Y407187D01*
X271392Y407232D01*
X271400Y407278D01*
X271389Y407355D01*
X271387Y407433D01*
X271371Y407476D01*
X271364Y407521D01*
X271329Y407590D01*
X271302Y407664D01*
X271273Y407699D01*
X271253Y407740D01*
X271197Y407795D01*
X271148Y407856D01*
X271110Y407880D01*
X271077Y407913D01*
X270957Y407978D01*
X270942Y407989D01*
X270937Y407990D01*
X270930Y407993D01*
X268031Y409194D01*
X264637Y412588D01*
X245409Y431816D01*
X245335Y431869D01*
X245266Y431929D01*
X245235Y431941D01*
X245209Y431960D01*
X245122Y431987D01*
X245037Y432021D01*
X244997Y432025D01*
X244974Y432032D01*
X244942Y432031D01*
X244871Y432039D01*
X244853Y432039D01*
X239685Y434180D01*
X235730Y438135D01*
X235653Y438320D01*
X235616Y438381D01*
X235586Y438447D01*
X235552Y438484D01*
X235534Y438514D01*
X235532Y438516D01*
X235524Y438529D01*
X235468Y438575D01*
X235420Y438628D01*
X235374Y438653D01*
X235334Y438686D01*
X235267Y438712D01*
X235204Y438746D01*
X235153Y438756D01*
X235105Y438774D01*
X235033Y438777D01*
X234962Y438790D01*
X234911Y438782D01*
X234859Y438785D01*
X234790Y438765D01*
X234719Y438754D01*
X234673Y438731D01*
X234623Y438716D01*
X234564Y438675D01*
X234500Y438643D01*
X234463Y438606D01*
X234421Y438576D01*
X234378Y438518D01*
X234328Y438467D01*
X234320Y438453D01*
X234318Y438451D01*
X234314Y438443D01*
X234293Y438404D01*
X234274Y438379D01*
X234267Y438356D01*
X234247Y438320D01*
X234170Y438135D01*
X230215Y434180D01*
X225047Y432039D01*
X219453Y432039D01*
X214285Y434180D01*
X210330Y438135D01*
X208189Y443303D01*
X208189Y448897D01*
X210330Y454065D01*
X214285Y458020D01*
X219453Y460161D01*
X225047Y460161D01*
X230215Y458020D01*
X234170Y454065D01*
X234247Y453880D01*
X234285Y453819D01*
X234314Y453753D01*
X234349Y453715D01*
X234376Y453671D01*
X234432Y453625D01*
X234480Y453572D01*
X234526Y453547D01*
X234566Y453514D01*
X234633Y453488D01*
X234696Y453454D01*
X234747Y453444D01*
X234795Y453426D01*
X234867Y453423D01*
X234938Y453410D01*
X234989Y453418D01*
X235041Y453415D01*
X235110Y453435D01*
X235181Y453446D01*
X235227Y453469D01*
X235277Y453484D01*
X235336Y453525D01*
X235400Y453557D01*
X235437Y453594D01*
X235479Y453624D01*
X235522Y453682D01*
X235572Y453733D01*
X235607Y453796D01*
X235626Y453822D01*
X235633Y453844D01*
X235653Y453880D01*
X235730Y454065D01*
X239685Y458020D01*
X244853Y460161D01*
X250447Y460161D01*
X255615Y458020D01*
X259570Y454065D01*
X259647Y453880D01*
X259685Y453819D01*
X259714Y453753D01*
X259749Y453715D01*
X259776Y453671D01*
X259832Y453625D01*
X259880Y453572D01*
X259926Y453547D01*
X259966Y453514D01*
X260033Y453488D01*
X260096Y453454D01*
X260147Y453444D01*
X260195Y453426D01*
X260267Y453423D01*
X260338Y453410D01*
X260389Y453418D01*
X260441Y453415D01*
X260510Y453435D01*
X260581Y453446D01*
X260627Y453469D01*
X260677Y453484D01*
X260736Y453525D01*
X260800Y453557D01*
X260837Y453594D01*
X260879Y453624D01*
X260922Y453682D01*
X260972Y453733D01*
X261007Y453796D01*
X261026Y453822D01*
X261033Y453844D01*
X261053Y453880D01*
X261130Y454065D01*
X265085Y458020D01*
X270253Y460161D01*
X275847Y460161D01*
X281015Y458020D01*
X284970Y454065D01*
X285047Y453880D01*
X285085Y453819D01*
X285114Y453753D01*
X285149Y453715D01*
X285176Y453671D01*
X285232Y453625D01*
X285280Y453572D01*
X285326Y453547D01*
X285366Y453514D01*
X285433Y453488D01*
X285496Y453454D01*
X285547Y453444D01*
X285595Y453426D01*
X285667Y453423D01*
X285738Y453410D01*
X285789Y453418D01*
X285841Y453415D01*
X285910Y453435D01*
X285981Y453446D01*
X286027Y453469D01*
X286077Y453484D01*
X286136Y453525D01*
X286200Y453557D01*
X286237Y453594D01*
X286279Y453624D01*
X286322Y453682D01*
X286372Y453733D01*
X286407Y453796D01*
X286426Y453822D01*
X286433Y453844D01*
X286453Y453880D01*
X286530Y454065D01*
X290485Y458020D01*
X295653Y460161D01*
X301247Y460161D01*
X306415Y458020D01*
X310370Y454065D01*
X312511Y448897D01*
X312511Y443303D01*
X310370Y438135D01*
X306415Y434180D01*
X301754Y432249D01*
X301671Y432198D01*
X301585Y432152D01*
X301567Y432134D01*
X301545Y432120D01*
X301483Y432044D01*
X301416Y431974D01*
X301405Y431950D01*
X301388Y431930D01*
X301353Y431839D01*
X301312Y431751D01*
X301309Y431725D01*
X301300Y431701D01*
X301296Y431603D01*
X301285Y431507D01*
X301290Y431481D01*
X301289Y431455D01*
X301316Y431361D01*
X301337Y431266D01*
X301351Y431244D01*
X301358Y431219D01*
X301413Y431139D01*
X301463Y431055D01*
X301483Y431038D01*
X301498Y431017D01*
X301576Y430958D01*
X301650Y430895D01*
X301675Y430885D01*
X301696Y430870D01*
X301788Y430840D01*
X301878Y430803D01*
X301911Y430800D01*
X301929Y430794D01*
X301962Y430794D01*
X302045Y430785D01*
X655245Y430785D01*
X655335Y430799D01*
X655426Y430807D01*
X655456Y430819D01*
X655487Y430824D01*
X655568Y430867D01*
X655652Y430903D01*
X655684Y430929D01*
X655705Y430940D01*
X655727Y430963D01*
X655783Y431008D01*
X656291Y431516D01*
X656333Y431574D01*
X656382Y431626D01*
X656404Y431673D01*
X656435Y431715D01*
X656456Y431784D01*
X656486Y431849D01*
X656492Y431901D01*
X656507Y431951D01*
X656505Y432022D01*
X656513Y432093D01*
X656502Y432144D01*
X656501Y432196D01*
X656476Y432264D01*
X656461Y432334D01*
X656434Y432379D01*
X656416Y432427D01*
X656371Y432483D01*
X656335Y432545D01*
X656295Y432579D01*
X656262Y432619D01*
X656202Y432658D01*
X656148Y432705D01*
X656099Y432724D01*
X656056Y432752D01*
X655986Y432770D01*
X655919Y432797D01*
X655848Y432805D01*
X655817Y432813D01*
X655794Y432811D01*
X655753Y432815D01*
X378676Y432815D01*
X374381Y434594D01*
X355301Y453674D01*
X355227Y453727D01*
X355158Y453787D01*
X355127Y453799D01*
X355101Y453818D01*
X355014Y453845D01*
X354929Y453879D01*
X354888Y453883D01*
X354866Y453890D01*
X354834Y453889D01*
X354763Y453897D01*
X345702Y453897D01*
X342901Y455057D01*
X340757Y457201D01*
X339597Y460002D01*
X339597Y479798D01*
X340757Y482599D01*
X342675Y484517D01*
X342687Y484533D01*
X342703Y484545D01*
X342759Y484632D01*
X342819Y484716D01*
X342825Y484736D01*
X342836Y484752D01*
X342861Y484853D01*
X342891Y484952D01*
X342891Y484971D01*
X342896Y484991D01*
X342888Y485094D01*
X342885Y485197D01*
X342878Y485216D01*
X342877Y485236D01*
X342836Y485331D01*
X342801Y485428D01*
X342788Y485444D01*
X342780Y485462D01*
X342675Y485593D01*
X342034Y486235D01*
X339597Y492117D01*
X339597Y498483D01*
X342034Y504365D01*
X345130Y507462D01*
X345142Y507478D01*
X345158Y507490D01*
X345214Y507578D01*
X345274Y507661D01*
X345280Y507680D01*
X345291Y507697D01*
X345316Y507798D01*
X345346Y507897D01*
X345346Y507916D01*
X345351Y507936D01*
X345343Y508039D01*
X345340Y508142D01*
X345333Y508161D01*
X345332Y508181D01*
X345291Y508276D01*
X345256Y508373D01*
X345243Y508389D01*
X345235Y508407D01*
X345130Y508538D01*
X342034Y511635D01*
X339597Y517517D01*
X339597Y523883D01*
X342034Y529765D01*
X345130Y532862D01*
X345142Y532878D01*
X345158Y532890D01*
X345214Y532978D01*
X345274Y533061D01*
X345280Y533080D01*
X345291Y533097D01*
X345316Y533198D01*
X345346Y533297D01*
X345346Y533316D01*
X345351Y533336D01*
X345343Y533439D01*
X345340Y533542D01*
X345333Y533561D01*
X345332Y533581D01*
X345291Y533676D01*
X345256Y533773D01*
X345243Y533789D01*
X345235Y533807D01*
X345130Y533938D01*
X342034Y537035D01*
X339597Y542917D01*
X339597Y549283D01*
X342034Y555165D01*
X345130Y558262D01*
X345142Y558278D01*
X345158Y558290D01*
X345214Y558378D01*
X345274Y558461D01*
X345280Y558480D01*
X345291Y558497D01*
X345316Y558598D01*
X345346Y558697D01*
X345346Y558716D01*
X345351Y558736D01*
X345343Y558839D01*
X345340Y558942D01*
X345333Y558961D01*
X345332Y558981D01*
X345291Y559076D01*
X345256Y559173D01*
X345243Y559189D01*
X345235Y559207D01*
X345130Y559338D01*
X342034Y562435D01*
X339597Y568317D01*
X339597Y574683D01*
X342034Y580565D01*
X346535Y585066D01*
X349591Y586332D01*
X349680Y586387D01*
X349772Y586439D01*
X349784Y586452D01*
X349800Y586462D01*
X349867Y586543D01*
X349938Y586621D01*
X349945Y586637D01*
X349957Y586651D01*
X349994Y586749D01*
X350037Y586846D01*
X350038Y586864D01*
X350045Y586881D01*
X350049Y586986D01*
X350059Y587091D01*
X350054Y587108D01*
X350055Y587127D01*
X350026Y587228D01*
X350001Y587330D01*
X349992Y587345D01*
X349987Y587363D01*
X349927Y587449D01*
X349871Y587538D01*
X349854Y587553D01*
X349846Y587565D01*
X349821Y587584D01*
X349747Y587651D01*
X348484Y588569D01*
X347269Y589784D01*
X346258Y591175D01*
X345478Y592707D01*
X344946Y594342D01*
X344782Y595377D01*
X354838Y595377D01*
X354858Y595380D01*
X354877Y595378D01*
X354979Y595400D01*
X355081Y595417D01*
X355098Y595426D01*
X355118Y595430D01*
X355207Y595483D01*
X355298Y595532D01*
X355312Y595546D01*
X355329Y595556D01*
X355396Y595635D01*
X355467Y595710D01*
X355476Y595728D01*
X355489Y595743D01*
X355527Y595839D01*
X355571Y595933D01*
X355573Y595953D01*
X355581Y595971D01*
X355599Y596138D01*
X355599Y597662D01*
X355596Y597682D01*
X355598Y597701D01*
X355576Y597803D01*
X355559Y597905D01*
X355550Y597922D01*
X355546Y597942D01*
X355493Y598031D01*
X355444Y598122D01*
X355430Y598136D01*
X355420Y598153D01*
X355341Y598220D01*
X355266Y598291D01*
X355248Y598300D01*
X355233Y598313D01*
X355137Y598352D01*
X355043Y598395D01*
X355023Y598397D01*
X355005Y598405D01*
X354838Y598423D01*
X344782Y598423D01*
X344946Y599458D01*
X345478Y601093D01*
X346258Y602625D01*
X347269Y604016D01*
X348484Y605231D01*
X349747Y606149D01*
X349821Y606224D01*
X349898Y606295D01*
X349907Y606311D01*
X349920Y606324D01*
X349966Y606418D01*
X350017Y606510D01*
X350020Y606528D01*
X350028Y606544D01*
X350042Y606649D01*
X350061Y606752D01*
X350058Y606770D01*
X350060Y606788D01*
X350040Y606891D01*
X350025Y606996D01*
X350017Y607012D01*
X350013Y607030D01*
X349961Y607121D01*
X349913Y607215D01*
X349900Y607228D01*
X349891Y607243D01*
X349813Y607313D01*
X349738Y607387D01*
X349718Y607398D01*
X349708Y607407D01*
X349679Y607419D01*
X349591Y607468D01*
X346535Y608734D01*
X342034Y613235D01*
X339597Y619117D01*
X339597Y625483D01*
X342034Y631365D01*
X345130Y634462D01*
X345142Y634478D01*
X345158Y634490D01*
X345214Y634578D01*
X345274Y634661D01*
X345280Y634680D01*
X345291Y634697D01*
X345316Y634798D01*
X345346Y634897D01*
X345346Y634916D01*
X345351Y634936D01*
X345343Y635039D01*
X345340Y635142D01*
X345333Y635161D01*
X345332Y635181D01*
X345291Y635276D01*
X345256Y635373D01*
X345243Y635389D01*
X345235Y635407D01*
X345130Y635538D01*
X342034Y638635D01*
X339597Y644517D01*
X339597Y650883D01*
X342034Y656765D01*
X345130Y659862D01*
X345142Y659878D01*
X345158Y659890D01*
X345214Y659978D01*
X345274Y660061D01*
X345280Y660080D01*
X345291Y660097D01*
X345316Y660198D01*
X345346Y660297D01*
X345346Y660316D01*
X345351Y660336D01*
X345343Y660439D01*
X345340Y660542D01*
X345333Y660561D01*
X345332Y660581D01*
X345291Y660676D01*
X345256Y660773D01*
X345243Y660789D01*
X345235Y660807D01*
X345130Y660938D01*
X342034Y664035D01*
X339597Y669917D01*
X339597Y676283D01*
X342034Y682165D01*
X345130Y685262D01*
X345142Y685278D01*
X345158Y685290D01*
X345214Y685378D01*
X345274Y685461D01*
X345280Y685480D01*
X345291Y685497D01*
X345316Y685598D01*
X345346Y685697D01*
X345346Y685716D01*
X345351Y685736D01*
X345343Y685839D01*
X345340Y685942D01*
X345333Y685961D01*
X345332Y685981D01*
X345291Y686076D01*
X345256Y686173D01*
X345243Y686189D01*
X345235Y686207D01*
X345130Y686338D01*
X344876Y686592D01*
X344802Y686645D01*
X344733Y686705D01*
X344703Y686717D01*
X344677Y686736D01*
X344590Y686763D01*
X344505Y686797D01*
X344464Y686801D01*
X344442Y686808D01*
X344409Y686807D01*
X344338Y686815D01*
X296126Y686815D01*
X291831Y688594D01*
X166833Y813592D01*
X166759Y813645D01*
X166690Y813705D01*
X166659Y813717D01*
X166633Y813736D01*
X166546Y813763D01*
X166461Y813797D01*
X166420Y813801D01*
X166398Y813808D01*
X166366Y813807D01*
X166295Y813815D01*
X152758Y813815D01*
X152668Y813801D01*
X152577Y813793D01*
X152547Y813781D01*
X152515Y813776D01*
X152435Y813733D01*
X152351Y813697D01*
X152318Y813671D01*
X152298Y813660D01*
X152276Y813637D01*
X152220Y813592D01*
X149484Y810857D01*
X148205Y810327D01*
X148166Y810303D01*
X148123Y810287D01*
X148062Y810238D01*
X147996Y810197D01*
X147966Y810162D01*
X147931Y810133D01*
X147889Y810068D01*
X147839Y810008D01*
X147822Y809965D01*
X147798Y809926D01*
X147779Y809851D01*
X147751Y809778D01*
X147749Y809732D01*
X147738Y809688D01*
X147744Y809610D01*
X147740Y809532D01*
X147753Y809488D01*
X147757Y809443D01*
X147787Y809371D01*
X147809Y809296D01*
X147835Y809258D01*
X147853Y809216D01*
X147938Y809110D01*
X147949Y809094D01*
X147953Y809091D01*
X147958Y809085D01*
X149000Y808043D01*
X150128Y806490D01*
X150999Y804780D01*
X151593Y802955D01*
X151803Y801623D01*
X140462Y801623D01*
X140442Y801620D01*
X140423Y801622D01*
X140321Y801600D01*
X140219Y801583D01*
X140202Y801574D01*
X140182Y801570D01*
X140093Y801517D01*
X140002Y801468D01*
X139988Y801454D01*
X139971Y801444D01*
X139904Y801365D01*
X139833Y801290D01*
X139824Y801272D01*
X139811Y801257D01*
X139773Y801161D01*
X139729Y801067D01*
X139727Y801047D01*
X139719Y801029D01*
X139701Y800862D01*
X139701Y799338D01*
X139704Y799318D01*
X139702Y799299D01*
X139724Y799197D01*
X139741Y799095D01*
X139750Y799078D01*
X139754Y799058D01*
X139807Y798969D01*
X139856Y798878D01*
X139870Y798864D01*
X139880Y798847D01*
X139959Y798780D01*
X140034Y798709D01*
X140052Y798700D01*
X140067Y798687D01*
X140163Y798648D01*
X140257Y798605D01*
X140277Y798603D01*
X140295Y798595D01*
X140462Y798577D01*
X151803Y798577D01*
X151593Y797245D01*
X150999Y795420D01*
X150128Y793710D01*
X149000Y792157D01*
X148373Y791530D01*
X148362Y791514D01*
X148346Y791502D01*
X148290Y791415D01*
X148230Y791331D01*
X148224Y791312D01*
X148213Y791295D01*
X148188Y791194D01*
X148158Y791096D01*
X148158Y791076D01*
X148153Y791056D01*
X148161Y790953D01*
X148164Y790850D01*
X148171Y790831D01*
X148172Y790811D01*
X148213Y790716D01*
X148248Y790619D01*
X148261Y790603D01*
X148269Y790585D01*
X148373Y790454D01*
X156973Y781855D01*
X156973Y767545D01*
X151608Y762180D01*
X151555Y762106D01*
X151495Y762037D01*
X151483Y762007D01*
X151464Y761981D01*
X151437Y761894D01*
X151403Y761809D01*
X151399Y761768D01*
X151392Y761746D01*
X151393Y761713D01*
X151385Y761642D01*
X151385Y748105D01*
X151399Y748015D01*
X151407Y747924D01*
X151419Y747895D01*
X151424Y747863D01*
X151467Y747782D01*
X151503Y747698D01*
X151529Y747666D01*
X151540Y747645D01*
X151563Y747623D01*
X151608Y747567D01*
X223266Y675909D01*
X225045Y671614D01*
X225045Y579628D01*
X225048Y579608D01*
X225046Y579589D01*
X225068Y579487D01*
X225084Y579385D01*
X225094Y579368D01*
X225098Y579348D01*
X225151Y579259D01*
X225200Y579168D01*
X225214Y579154D01*
X225224Y579137D01*
X225303Y579070D01*
X225378Y578998D01*
X225396Y578990D01*
X225411Y578977D01*
X225507Y578938D01*
X225601Y578895D01*
X225621Y578893D01*
X225639Y578885D01*
X225806Y578867D01*
X236822Y578867D01*
X244857Y570832D01*
X244857Y559468D01*
X243048Y557659D01*
X242995Y557585D01*
X242935Y557516D01*
X242923Y557486D01*
X242904Y557460D01*
X242877Y557373D01*
X242843Y557288D01*
X242839Y557247D01*
X242832Y557225D01*
X242833Y557192D01*
X242825Y557121D01*
X242825Y539966D01*
X241046Y535671D01*
X228869Y523494D01*
X224574Y521715D01*
X195655Y521715D01*
X195565Y521701D01*
X195474Y521693D01*
X195445Y521681D01*
X195413Y521676D01*
X195332Y521633D01*
X195248Y521597D01*
X195216Y521571D01*
X195195Y521560D01*
X195173Y521537D01*
X195117Y521492D01*
X173198Y499573D01*
X173145Y499499D01*
X173085Y499430D01*
X173073Y499399D01*
X173054Y499373D01*
X173027Y499286D01*
X172993Y499201D01*
X172989Y499160D01*
X172982Y499138D01*
X172983Y499106D01*
X172975Y499035D01*
X172975Y495758D01*
X164642Y487425D01*
X152858Y487425D01*
X144525Y495758D01*
X144525Y507542D01*
X152858Y515875D01*
X156135Y515875D01*
X156225Y515889D01*
X156316Y515897D01*
X156345Y515909D01*
X156377Y515914D01*
X156458Y515957D01*
X156542Y515993D01*
X156574Y516019D01*
X156595Y516030D01*
X156617Y516053D01*
X156673Y516098D01*
X183881Y543306D01*
X188176Y545085D01*
X217095Y545085D01*
X217185Y545099D01*
X217276Y545107D01*
X217305Y545119D01*
X217337Y545124D01*
X217418Y545167D01*
X217502Y545203D01*
X217534Y545229D01*
X217555Y545240D01*
X217577Y545263D01*
X217633Y545308D01*
X219232Y546907D01*
X219285Y546981D01*
X219345Y547050D01*
X219357Y547081D01*
X219376Y547107D01*
X219403Y547194D01*
X219437Y547279D01*
X219441Y547320D01*
X219448Y547342D01*
X219447Y547374D01*
X219455Y547445D01*
X219455Y551689D01*
X219448Y551734D01*
X219450Y551780D01*
X219428Y551855D01*
X219416Y551931D01*
X219394Y551972D01*
X219381Y552016D01*
X219337Y552080D01*
X219300Y552149D01*
X219267Y552180D01*
X219241Y552218D01*
X219178Y552265D01*
X219122Y552318D01*
X219080Y552337D01*
X219044Y552365D01*
X218970Y552389D01*
X218899Y552422D01*
X218853Y552427D01*
X218810Y552441D01*
X218732Y552440D01*
X218655Y552449D01*
X218610Y552439D01*
X218564Y552439D01*
X218432Y552401D01*
X218414Y552397D01*
X218410Y552394D01*
X218403Y552392D01*
X216088Y551433D01*
X210632Y551433D01*
X205590Y553522D01*
X201732Y557380D01*
X199643Y562422D01*
X199643Y567878D01*
X201617Y572644D01*
X201632Y572708D01*
X201657Y572769D01*
X201666Y572852D01*
X201673Y572884D01*
X201672Y572903D01*
X201675Y572936D01*
X201675Y664135D01*
X201673Y664146D01*
X201674Y664154D01*
X201666Y664193D01*
X201661Y664225D01*
X201653Y664316D01*
X201641Y664345D01*
X201636Y664377D01*
X201593Y664458D01*
X201557Y664542D01*
X201531Y664574D01*
X201520Y664595D01*
X201497Y664617D01*
X201452Y664673D01*
X129794Y736331D01*
X128015Y740626D01*
X128015Y761642D01*
X128001Y761732D01*
X127993Y761823D01*
X127981Y761853D01*
X127976Y761885D01*
X127933Y761966D01*
X127897Y762049D01*
X127871Y762082D01*
X127860Y762102D01*
X127837Y762124D01*
X127792Y762180D01*
X122427Y767545D01*
X122427Y781855D01*
X131027Y790454D01*
X131038Y790470D01*
X131054Y790482D01*
X131110Y790570D01*
X131170Y790654D01*
X131176Y790673D01*
X131187Y790689D01*
X131212Y790790D01*
X131242Y790889D01*
X131242Y790909D01*
X131247Y790928D01*
X131239Y791031D01*
X131236Y791135D01*
X131229Y791153D01*
X131228Y791173D01*
X131187Y791268D01*
X131152Y791366D01*
X131139Y791381D01*
X131131Y791399D01*
X131027Y791530D01*
X130400Y792157D01*
X129272Y793710D01*
X128401Y795420D01*
X127807Y797245D01*
X127597Y798577D01*
X138938Y798577D01*
X138958Y798580D01*
X138977Y798578D01*
X139079Y798600D01*
X139181Y798617D01*
X139198Y798626D01*
X139218Y798630D01*
X139307Y798683D01*
X139398Y798732D01*
X139412Y798746D01*
X139429Y798756D01*
X139496Y798835D01*
X139567Y798910D01*
X139576Y798928D01*
X139589Y798943D01*
X139627Y799039D01*
X139671Y799133D01*
X139673Y799153D01*
X139681Y799171D01*
X139699Y799338D01*
X139699Y800862D01*
X139696Y800882D01*
X139698Y800901D01*
X139676Y801003D01*
X139659Y801105D01*
X139650Y801122D01*
X139646Y801142D01*
X139593Y801231D01*
X139544Y801322D01*
X139530Y801336D01*
X139520Y801353D01*
X139441Y801420D01*
X139366Y801491D01*
X139348Y801500D01*
X139333Y801513D01*
X139237Y801552D01*
X139143Y801595D01*
X139123Y801597D01*
X139105Y801605D01*
X138938Y801623D01*
X127597Y801623D01*
X127807Y802955D01*
X128401Y804780D01*
X129272Y806490D01*
X130400Y808043D01*
X131442Y809085D01*
X131469Y809123D01*
X131503Y809154D01*
X131540Y809222D01*
X131586Y809285D01*
X131599Y809329D01*
X131621Y809369D01*
X131635Y809446D01*
X131658Y809520D01*
X131657Y809566D01*
X131665Y809611D01*
X131654Y809688D01*
X131652Y809766D01*
X131636Y809809D01*
X131629Y809855D01*
X131594Y809924D01*
X131567Y809997D01*
X131539Y810033D01*
X131518Y810074D01*
X131462Y810128D01*
X131414Y810189D01*
X131375Y810214D01*
X131342Y810246D01*
X131222Y810312D01*
X131207Y810322D01*
X131202Y810323D01*
X131195Y810327D01*
X129916Y810857D01*
X125057Y815716D01*
X122427Y822064D01*
X122427Y828936D01*
X125057Y835284D01*
X127434Y837662D01*
X127446Y837678D01*
X127462Y837690D01*
X127518Y837778D01*
X127578Y837861D01*
X127584Y837880D01*
X127595Y837897D01*
X127620Y837998D01*
X127650Y838097D01*
X127650Y838116D01*
X127655Y838136D01*
X127647Y838239D01*
X127644Y838342D01*
X127637Y838361D01*
X127635Y838381D01*
X127595Y838476D01*
X127559Y838573D01*
X127547Y838589D01*
X127539Y838607D01*
X127434Y838738D01*
X125057Y841116D01*
X122427Y847464D01*
X122427Y854336D01*
X125057Y860684D01*
X127434Y863062D01*
X127446Y863078D01*
X127462Y863090D01*
X127518Y863178D01*
X127578Y863261D01*
X127584Y863280D01*
X127595Y863297D01*
X127620Y863398D01*
X127650Y863497D01*
X127650Y863516D01*
X127655Y863536D01*
X127647Y863639D01*
X127644Y863742D01*
X127637Y863761D01*
X127635Y863781D01*
X127595Y863876D01*
X127559Y863973D01*
X127547Y863989D01*
X127539Y864007D01*
X127434Y864138D01*
X125057Y866516D01*
X122427Y872864D01*
X122427Y879736D01*
X125057Y886084D01*
X129916Y890943D01*
X131195Y891473D01*
X131234Y891497D01*
X131277Y891513D01*
X131338Y891562D01*
X131404Y891603D01*
X131434Y891638D01*
X131469Y891667D01*
X131511Y891732D01*
X131561Y891792D01*
X131578Y891835D01*
X131602Y891874D01*
X131621Y891949D01*
X131649Y892022D01*
X131651Y892068D01*
X131662Y892112D01*
X131656Y892190D01*
X131660Y892268D01*
X131647Y892312D01*
X131643Y892357D01*
X131613Y892429D01*
X131591Y892504D01*
X131565Y892541D01*
X131547Y892584D01*
X131462Y892690D01*
X131451Y892706D01*
X131447Y892709D01*
X131442Y892715D01*
X130400Y893757D01*
X129272Y895310D01*
X128401Y897020D01*
X128231Y897541D01*
X128196Y897608D01*
X128170Y897679D01*
X128140Y897717D01*
X128118Y897760D01*
X128064Y897812D01*
X128017Y897871D01*
X127976Y897897D01*
X127942Y897931D01*
X127874Y897963D01*
X127810Y898004D01*
X127763Y898016D01*
X127720Y898037D01*
X127645Y898046D01*
X127571Y898064D01*
X127523Y898061D01*
X127476Y898066D01*
X127401Y898051D01*
X127326Y898045D01*
X127282Y898026D01*
X127235Y898017D01*
X127169Y897979D01*
X127100Y897949D01*
X127049Y897909D01*
X127022Y897893D01*
X127005Y897873D01*
X126969Y897844D01*
X37308Y808183D01*
X37255Y808109D01*
X37195Y808040D01*
X37183Y808009D01*
X37164Y807983D01*
X37137Y807896D01*
X37103Y807811D01*
X37099Y807770D01*
X37092Y807748D01*
X37093Y807716D01*
X37085Y807645D01*
X37085Y697257D01*
X37096Y697190D01*
X37097Y697123D01*
X37115Y697070D01*
X37124Y697015D01*
X37156Y696955D01*
X37179Y696891D01*
X37213Y696847D01*
X37240Y696797D01*
X37289Y696750D01*
X37331Y696697D01*
X37377Y696666D01*
X37418Y696628D01*
X37480Y696599D01*
X37536Y696562D01*
X37590Y696548D01*
X37641Y696524D01*
X37708Y696517D01*
X37774Y696499D01*
X37830Y696503D01*
X37885Y696497D01*
X37952Y696511D01*
X38019Y696516D01*
X38071Y696537D01*
X38126Y696549D01*
X38184Y696584D01*
X38247Y696610D01*
X38289Y696647D01*
X38337Y696675D01*
X38381Y696727D01*
X38432Y696772D01*
X38475Y696837D01*
X38497Y696862D01*
X38505Y696882D01*
X38524Y696912D01*
X39286Y698406D01*
X40531Y700120D01*
X42030Y701619D01*
X43744Y702864D01*
X45632Y703826D01*
X47648Y704481D01*
X49277Y704739D01*
X49277Y692112D01*
X49280Y692092D01*
X49278Y692073D01*
X49300Y691971D01*
X49317Y691869D01*
X49326Y691852D01*
X49330Y691832D01*
X49383Y691743D01*
X49432Y691652D01*
X49446Y691638D01*
X49456Y691621D01*
X49535Y691554D01*
X49610Y691483D01*
X49628Y691474D01*
X49643Y691461D01*
X49739Y691423D01*
X49833Y691379D01*
X49853Y691377D01*
X49871Y691369D01*
X50038Y691351D01*
X50801Y691351D01*
X50801Y691349D01*
X50038Y691349D01*
X50018Y691346D01*
X49999Y691348D01*
X49897Y691326D01*
X49795Y691309D01*
X49778Y691300D01*
X49758Y691296D01*
X49669Y691243D01*
X49578Y691194D01*
X49564Y691180D01*
X49547Y691170D01*
X49480Y691091D01*
X49409Y691016D01*
X49400Y690998D01*
X49387Y690983D01*
X49348Y690887D01*
X49305Y690793D01*
X49303Y690773D01*
X49295Y690755D01*
X49277Y690588D01*
X49277Y677961D01*
X47648Y678219D01*
X45632Y678874D01*
X43744Y679836D01*
X42030Y681081D01*
X40531Y682580D01*
X39286Y684294D01*
X38524Y685788D01*
X38484Y685843D01*
X38452Y685903D01*
X38435Y685919D01*
X38435Y685920D01*
X38429Y685926D01*
X38412Y685941D01*
X38379Y685987D01*
X38323Y686026D01*
X38274Y686072D01*
X38223Y686096D01*
X38177Y686128D01*
X38113Y686147D01*
X38051Y686176D01*
X37995Y686182D01*
X37942Y686198D01*
X37874Y686195D01*
X37807Y686203D01*
X37752Y686191D01*
X37696Y686189D01*
X37632Y686165D01*
X37566Y686151D01*
X37518Y686122D01*
X37466Y686102D01*
X37413Y686059D01*
X37355Y686025D01*
X37319Y685982D01*
X37275Y685947D01*
X37239Y685889D01*
X37195Y685838D01*
X37174Y685786D01*
X37144Y685738D01*
X37129Y685672D01*
X37116Y685641D01*
X37113Y685634D01*
X37113Y685633D01*
X37103Y685609D01*
X37095Y685531D01*
X37087Y685499D01*
X37089Y685478D01*
X37085Y685443D01*
X37085Y655696D01*
X37096Y655625D01*
X37098Y655553D01*
X37116Y655505D01*
X37124Y655453D01*
X37158Y655390D01*
X37183Y655322D01*
X37215Y655282D01*
X37240Y655236D01*
X37292Y655186D01*
X37336Y655130D01*
X37380Y655102D01*
X37418Y655066D01*
X37483Y655036D01*
X37543Y654997D01*
X37594Y654985D01*
X37641Y654963D01*
X37712Y654955D01*
X37782Y654937D01*
X37834Y654941D01*
X37885Y654936D01*
X37956Y654951D01*
X38027Y654957D01*
X38075Y654977D01*
X38126Y654988D01*
X38187Y655025D01*
X38253Y655053D01*
X38309Y655098D01*
X38337Y655114D01*
X38352Y655132D01*
X38384Y655158D01*
X40296Y657070D01*
X47112Y659893D01*
X54488Y659893D01*
X61304Y657070D01*
X65116Y653258D01*
X65190Y653205D01*
X65259Y653145D01*
X65289Y653133D01*
X65315Y653114D01*
X65402Y653087D01*
X65487Y653053D01*
X65528Y653049D01*
X65550Y653042D01*
X65583Y653043D01*
X65654Y653035D01*
X161074Y653035D01*
X163081Y652204D01*
X163144Y652189D01*
X163205Y652164D01*
X163288Y652155D01*
X163320Y652148D01*
X163339Y652149D01*
X163372Y652146D01*
X168510Y652146D01*
X174812Y649535D01*
X179635Y644712D01*
X182246Y638410D01*
X182246Y631590D01*
X179635Y625288D01*
X174812Y620465D01*
X168510Y617854D01*
X161690Y617854D01*
X155388Y620465D01*
X150565Y625288D01*
X148946Y629195D01*
X148884Y629295D01*
X148824Y629395D01*
X148820Y629399D01*
X148816Y629404D01*
X148727Y629479D01*
X148638Y629555D01*
X148632Y629557D01*
X148627Y629561D01*
X148519Y629603D01*
X148409Y629647D01*
X148402Y629648D01*
X148397Y629649D01*
X148379Y629650D01*
X148243Y629665D01*
X65654Y629665D01*
X65564Y629651D01*
X65473Y629643D01*
X65443Y629631D01*
X65411Y629626D01*
X65331Y629583D01*
X65247Y629547D01*
X65215Y629521D01*
X65194Y629510D01*
X65172Y629487D01*
X65116Y629442D01*
X61304Y625630D01*
X54488Y622807D01*
X47112Y622807D01*
X40296Y625630D01*
X38384Y627542D01*
X38326Y627584D01*
X38274Y627634D01*
X38227Y627656D01*
X38185Y627686D01*
X38116Y627707D01*
X38051Y627737D01*
X37999Y627743D01*
X37949Y627758D01*
X37878Y627756D01*
X37807Y627764D01*
X37756Y627753D01*
X37704Y627752D01*
X37636Y627727D01*
X37566Y627712D01*
X37521Y627685D01*
X37473Y627667D01*
X37417Y627623D01*
X37355Y627586D01*
X37321Y627546D01*
X37281Y627514D01*
X37242Y627453D01*
X37195Y627399D01*
X37176Y627351D01*
X37148Y627307D01*
X37130Y627237D01*
X37103Y627171D01*
X37095Y627099D01*
X37087Y627068D01*
X37089Y627045D01*
X37085Y627004D01*
X37085Y621905D01*
X37099Y621815D01*
X37107Y621724D01*
X37119Y621695D01*
X37124Y621663D01*
X37167Y621582D01*
X37203Y621498D01*
X37229Y621466D01*
X37240Y621445D01*
X37263Y621423D01*
X37308Y621367D01*
X48559Y610116D01*
X48633Y610063D01*
X48702Y610003D01*
X48732Y609991D01*
X48759Y609972D01*
X48846Y609945D01*
X48931Y609911D01*
X48971Y609907D01*
X48994Y609900D01*
X49026Y609901D01*
X49097Y609893D01*
X54488Y609893D01*
X61304Y607070D01*
X66520Y601854D01*
X69343Y595038D01*
X69343Y587662D01*
X66520Y580846D01*
X61304Y575630D01*
X54488Y572807D01*
X47112Y572807D01*
X40296Y575630D01*
X35080Y580846D01*
X32257Y587662D01*
X32257Y593053D01*
X32243Y593143D01*
X32235Y593234D01*
X32223Y593264D01*
X32218Y593295D01*
X32175Y593376D01*
X32139Y593460D01*
X32113Y593492D01*
X32102Y593513D01*
X32079Y593535D01*
X32034Y593591D01*
X18888Y606737D01*
X15494Y610131D01*
X13715Y614426D01*
X13715Y815124D01*
X15494Y819419D01*
X18888Y822813D01*
X122204Y926129D01*
X122257Y926203D01*
X122317Y926272D01*
X122329Y926303D01*
X122348Y926329D01*
X122375Y926416D01*
X122409Y926501D01*
X122413Y926541D01*
X122420Y926564D01*
X122419Y926596D01*
X122427Y926667D01*
X122427Y930536D01*
X125057Y936884D01*
X129916Y941743D01*
X136264Y944373D01*
X143136Y944373D01*
X149484Y941743D01*
X152220Y939008D01*
X152294Y938955D01*
X152363Y938895D01*
X152393Y938883D01*
X152419Y938864D01*
X152506Y938837D01*
X152591Y938803D01*
X152632Y938799D01*
X152654Y938792D01*
X152687Y938793D01*
X152758Y938785D01*
X344338Y938785D01*
X344428Y938799D01*
X344519Y938807D01*
X344549Y938819D01*
X344581Y938824D01*
X344662Y938867D01*
X344745Y938903D01*
X344778Y938929D01*
X344798Y938940D01*
X344820Y938963D01*
X344876Y939008D01*
X346535Y940666D01*
X352417Y943103D01*
X358783Y943103D01*
X364665Y940666D01*
X366324Y939008D01*
X366398Y938955D01*
X366467Y938895D01*
X366497Y938883D01*
X366523Y938864D01*
X366610Y938837D01*
X366695Y938803D01*
X366736Y938799D01*
X366758Y938792D01*
X366791Y938793D01*
X366862Y938785D01*
X534595Y938785D01*
X534685Y938799D01*
X534776Y938807D01*
X534805Y938819D01*
X534837Y938824D01*
X534918Y938867D01*
X535002Y938903D01*
X535034Y938929D01*
X535055Y938940D01*
X535077Y938963D01*
X535133Y939008D01*
X571231Y975106D01*
X575526Y976885D01*
X655104Y976885D01*
X659399Y975106D01*
X662793Y971712D01*
X683992Y950513D01*
X684008Y950501D01*
X684020Y950486D01*
X684108Y950430D01*
X684191Y950369D01*
X684210Y950364D01*
X684227Y950353D01*
X684328Y950327D01*
X684427Y950297D01*
X684446Y950298D01*
X684466Y950293D01*
X684569Y950301D01*
X684672Y950303D01*
X684691Y950310D01*
X684711Y950312D01*
X684806Y950352D01*
X684903Y950388D01*
X684919Y950400D01*
X684937Y950408D01*
X685068Y950513D01*
X716011Y981456D01*
X720306Y983235D01*
X916724Y983235D01*
X921019Y981456D01*
X956056Y946419D01*
X957835Y942124D01*
X957835Y924584D01*
X957849Y924494D01*
X957857Y924403D01*
X957869Y924373D01*
X957874Y924341D01*
X957917Y924261D01*
X957953Y924177D01*
X957979Y924145D01*
X957990Y924124D01*
X958013Y924102D01*
X958058Y924046D01*
X958312Y923792D01*
X958328Y923780D01*
X958340Y923765D01*
X958428Y923709D01*
X958511Y923648D01*
X958530Y923643D01*
X958547Y923632D01*
X958648Y923606D01*
X958747Y923576D01*
X958766Y923577D01*
X958786Y923572D01*
X958889Y923580D01*
X958992Y923582D01*
X959011Y923589D01*
X959031Y923591D01*
X959126Y923631D01*
X959223Y923667D01*
X959239Y923679D01*
X959257Y923687D01*
X959388Y923792D01*
X962917Y927320D01*
X968518Y929641D01*
X974582Y929641D01*
X980183Y927320D01*
X983712Y923792D01*
X983728Y923780D01*
X983740Y923765D01*
X983828Y923709D01*
X983911Y923648D01*
X983930Y923643D01*
X983947Y923632D01*
X984048Y923606D01*
X984147Y923576D01*
X984166Y923577D01*
X984186Y923572D01*
X984289Y923580D01*
X984392Y923582D01*
X984411Y923589D01*
X984431Y923591D01*
X984526Y923631D01*
X984623Y923667D01*
X984639Y923679D01*
X984657Y923687D01*
X984788Y923792D01*
X988317Y927320D01*
X993918Y929641D01*
X999982Y929641D01*
X1005583Y927320D01*
X1009870Y923033D01*
X1011693Y918632D01*
X1011716Y918596D01*
X1011730Y918557D01*
X1011780Y918493D01*
X1011823Y918423D01*
X1011855Y918396D01*
X1011881Y918363D01*
X1011950Y918318D01*
X1012013Y918266D01*
X1012052Y918251D01*
X1012087Y918228D01*
X1012166Y918207D01*
X1012242Y918178D01*
X1012284Y918176D01*
X1012325Y918166D01*
X1012406Y918171D01*
X1012488Y918168D01*
X1012528Y918179D01*
X1012570Y918182D01*
X1012646Y918213D01*
X1012724Y918236D01*
X1012759Y918260D01*
X1012797Y918276D01*
X1012859Y918330D01*
X1012926Y918376D01*
X1012951Y918410D01*
X1012983Y918438D01*
X1013068Y918567D01*
X1013073Y918574D01*
X1013074Y918576D01*
X1013075Y918578D01*
X1013660Y919725D01*
X1014600Y921019D01*
X1015731Y922150D01*
X1017025Y923090D01*
X1018450Y923816D01*
X1019971Y924311D01*
X1020827Y924446D01*
X1020827Y915162D01*
X1020830Y915142D01*
X1020828Y915123D01*
X1020850Y915021D01*
X1020867Y914919D01*
X1020876Y914902D01*
X1020880Y914882D01*
X1020933Y914793D01*
X1020982Y914702D01*
X1020996Y914688D01*
X1021006Y914671D01*
X1021085Y914604D01*
X1021160Y914533D01*
X1021178Y914524D01*
X1021193Y914511D01*
X1021289Y914473D01*
X1021383Y914429D01*
X1021403Y914427D01*
X1021421Y914419D01*
X1021588Y914401D01*
X1022351Y914401D01*
X1022351Y914399D01*
X1021588Y914399D01*
X1021568Y914396D01*
X1021549Y914398D01*
X1021447Y914376D01*
X1021345Y914359D01*
X1021328Y914350D01*
X1021308Y914346D01*
X1021219Y914293D01*
X1021128Y914244D01*
X1021114Y914230D01*
X1021097Y914220D01*
X1021030Y914141D01*
X1020959Y914066D01*
X1020950Y914048D01*
X1020937Y914033D01*
X1020898Y913937D01*
X1020855Y913843D01*
X1020853Y913823D01*
X1020845Y913805D01*
X1020827Y913638D01*
X1020827Y904354D01*
X1019971Y904489D01*
X1018450Y904984D01*
X1017025Y905710D01*
X1015731Y906650D01*
X1014600Y907781D01*
X1013660Y909075D01*
X1013075Y910222D01*
X1013050Y910256D01*
X1013033Y910294D01*
X1012978Y910354D01*
X1012929Y910420D01*
X1012895Y910445D01*
X1012867Y910475D01*
X1012795Y910515D01*
X1012728Y910562D01*
X1012688Y910574D01*
X1012651Y910594D01*
X1012571Y910609D01*
X1012492Y910632D01*
X1012451Y910630D01*
X1012409Y910638D01*
X1012328Y910626D01*
X1012247Y910623D01*
X1012207Y910608D01*
X1012166Y910602D01*
X1012093Y910565D01*
X1012016Y910536D01*
X1011984Y910510D01*
X1011947Y910490D01*
X1011889Y910432D01*
X1011826Y910380D01*
X1011804Y910345D01*
X1011774Y910315D01*
X1011700Y910179D01*
X1011695Y910172D01*
X1011695Y910170D01*
X1011693Y910168D01*
X1009870Y905767D01*
X1005583Y901480D01*
X999982Y899159D01*
X998549Y899159D01*
X998459Y899145D01*
X998368Y899137D01*
X998339Y899125D01*
X998307Y899120D01*
X998226Y899077D01*
X998142Y899041D01*
X998110Y899015D01*
X998089Y899004D01*
X998067Y898981D01*
X998011Y898936D01*
X959119Y860044D01*
X954824Y858265D01*
X760805Y858265D01*
X760715Y858251D01*
X760624Y858243D01*
X760595Y858231D01*
X760563Y858226D01*
X760482Y858183D01*
X760398Y858147D01*
X760366Y858121D01*
X760345Y858110D01*
X760323Y858087D01*
X760267Y858042D01*
X749569Y847344D01*
X745274Y845565D01*
X693187Y845565D01*
X693097Y845551D01*
X693006Y845543D01*
X692976Y845531D01*
X692944Y845526D01*
X692863Y845483D01*
X692779Y845447D01*
X692747Y845421D01*
X692727Y845410D01*
X692705Y845387D01*
X692649Y845342D01*
X692551Y845245D01*
X687347Y843089D01*
X681713Y843089D01*
X677764Y844725D01*
X677651Y844752D01*
X677537Y844780D01*
X677531Y844780D01*
X677525Y844781D01*
X677408Y844770D01*
X677292Y844761D01*
X677286Y844759D01*
X677280Y844758D01*
X677172Y844710D01*
X677066Y844665D01*
X677060Y844660D01*
X677055Y844658D01*
X677041Y844645D01*
X676935Y844560D01*
X665958Y833583D01*
X665905Y833509D01*
X665845Y833440D01*
X665833Y833409D01*
X665814Y833383D01*
X665787Y833296D01*
X665753Y833211D01*
X665749Y833170D01*
X665742Y833148D01*
X665743Y833116D01*
X665735Y833045D01*
X665735Y816826D01*
X663956Y812531D01*
X641619Y790194D01*
X637324Y788415D01*
X620862Y788415D01*
X620772Y788401D01*
X620681Y788393D01*
X620651Y788381D01*
X620619Y788376D01*
X620538Y788333D01*
X620455Y788297D01*
X620422Y788271D01*
X620402Y788260D01*
X620380Y788237D01*
X620324Y788192D01*
X618665Y786534D01*
X615609Y785268D01*
X615520Y785213D01*
X615428Y785161D01*
X615416Y785148D01*
X615400Y785138D01*
X615333Y785057D01*
X615262Y784979D01*
X615255Y784963D01*
X615243Y784949D01*
X615206Y784851D01*
X615163Y784754D01*
X615162Y784736D01*
X615155Y784719D01*
X615151Y784614D01*
X615141Y784509D01*
X615146Y784492D01*
X615145Y784473D01*
X615174Y784372D01*
X615199Y784270D01*
X615208Y784255D01*
X615213Y784237D01*
X615273Y784151D01*
X615329Y784062D01*
X615346Y784047D01*
X615354Y784035D01*
X615379Y784016D01*
X615453Y783949D01*
X616716Y783031D01*
X617931Y781816D01*
X618942Y780425D01*
X619722Y778893D01*
X620254Y777258D01*
X620418Y776223D01*
X610362Y776223D01*
X610342Y776220D01*
X610323Y776222D01*
X610221Y776200D01*
X610119Y776183D01*
X610102Y776174D01*
X610082Y776170D01*
X609993Y776117D01*
X609902Y776068D01*
X609888Y776054D01*
X609871Y776044D01*
X609804Y775965D01*
X609733Y775890D01*
X609724Y775872D01*
X609711Y775857D01*
X609673Y775761D01*
X609629Y775667D01*
X609627Y775647D01*
X609619Y775629D01*
X609601Y775462D01*
X609601Y773938D01*
X609604Y773918D01*
X609602Y773899D01*
X609624Y773797D01*
X609641Y773695D01*
X609650Y773678D01*
X609654Y773658D01*
X609707Y773569D01*
X609756Y773478D01*
X609770Y773464D01*
X609780Y773447D01*
X609859Y773380D01*
X609934Y773309D01*
X609952Y773300D01*
X609967Y773287D01*
X610063Y773248D01*
X610157Y773205D01*
X610177Y773203D01*
X610195Y773195D01*
X610362Y773177D01*
X620418Y773177D01*
X620254Y772142D01*
X619722Y770507D01*
X618942Y768975D01*
X617931Y767584D01*
X616716Y766369D01*
X615453Y765451D01*
X615379Y765376D01*
X615302Y765305D01*
X615293Y765289D01*
X615280Y765276D01*
X615234Y765182D01*
X615183Y765090D01*
X615180Y765072D01*
X615172Y765056D01*
X615158Y764951D01*
X615139Y764848D01*
X615142Y764830D01*
X615140Y764812D01*
X615160Y764709D01*
X615175Y764604D01*
X615183Y764588D01*
X615187Y764570D01*
X615239Y764479D01*
X615287Y764385D01*
X615300Y764372D01*
X615309Y764357D01*
X615387Y764287D01*
X615462Y764213D01*
X615482Y764202D01*
X615492Y764193D01*
X615521Y764181D01*
X615609Y764132D01*
X618665Y762866D01*
X623166Y758365D01*
X625603Y752483D01*
X625603Y746117D01*
X623166Y740235D01*
X620070Y737138D01*
X620058Y737122D01*
X620042Y737110D01*
X619986Y737022D01*
X619926Y736939D01*
X619920Y736920D01*
X619909Y736903D01*
X619884Y736802D01*
X619854Y736703D01*
X619854Y736684D01*
X619849Y736664D01*
X619857Y736561D01*
X619860Y736458D01*
X619867Y736439D01*
X619868Y736419D01*
X619909Y736324D01*
X619944Y736227D01*
X619957Y736211D01*
X619965Y736193D01*
X620070Y736062D01*
X623166Y732965D01*
X625603Y727083D01*
X625603Y720717D01*
X623166Y714835D01*
X620070Y711738D01*
X620058Y711722D01*
X620042Y711710D01*
X619986Y711622D01*
X619926Y711539D01*
X619920Y711520D01*
X619909Y711503D01*
X619884Y711402D01*
X619854Y711303D01*
X619854Y711284D01*
X619849Y711264D01*
X619857Y711161D01*
X619860Y711058D01*
X619867Y711039D01*
X619868Y711019D01*
X619909Y710924D01*
X619944Y710827D01*
X619957Y710811D01*
X619965Y710793D01*
X620070Y710662D01*
X623166Y707565D01*
X625603Y701683D01*
X625603Y695317D01*
X623166Y689435D01*
X620070Y686338D01*
X620058Y686322D01*
X620042Y686310D01*
X619986Y686222D01*
X619926Y686139D01*
X619920Y686120D01*
X619909Y686103D01*
X619884Y686002D01*
X619854Y685903D01*
X619854Y685884D01*
X619849Y685864D01*
X619857Y685761D01*
X619860Y685658D01*
X619867Y685639D01*
X619868Y685619D01*
X619909Y685524D01*
X619944Y685427D01*
X619957Y685411D01*
X619965Y685393D01*
X620070Y685262D01*
X623166Y682165D01*
X625603Y676283D01*
X625603Y669917D01*
X623166Y664035D01*
X620070Y660938D01*
X620058Y660922D01*
X620042Y660910D01*
X619986Y660822D01*
X619926Y660739D01*
X619920Y660720D01*
X619909Y660703D01*
X619884Y660602D01*
X619854Y660503D01*
X619854Y660484D01*
X619849Y660464D01*
X619857Y660361D01*
X619860Y660258D01*
X619867Y660239D01*
X619868Y660219D01*
X619909Y660124D01*
X619944Y660027D01*
X619957Y660011D01*
X619965Y659993D01*
X620070Y659862D01*
X623166Y656765D01*
X625603Y650883D01*
X625603Y644517D01*
X623166Y638635D01*
X620070Y635538D01*
X620058Y635522D01*
X620042Y635510D01*
X619986Y635422D01*
X619926Y635339D01*
X619920Y635320D01*
X619909Y635303D01*
X619884Y635202D01*
X619854Y635103D01*
X619854Y635084D01*
X619849Y635064D01*
X619857Y634961D01*
X619860Y634858D01*
X619867Y634839D01*
X619868Y634819D01*
X619909Y634724D01*
X619944Y634627D01*
X619957Y634611D01*
X619965Y634593D01*
X620070Y634462D01*
X623166Y631365D01*
X625603Y625483D01*
X625603Y619117D01*
X623166Y613235D01*
X620070Y610138D01*
X620058Y610122D01*
X620042Y610110D01*
X619986Y610022D01*
X619926Y609939D01*
X619920Y609920D01*
X619909Y609903D01*
X619884Y609802D01*
X619854Y609703D01*
X619854Y609684D01*
X619849Y609664D01*
X619857Y609561D01*
X619860Y609458D01*
X619867Y609439D01*
X619868Y609419D01*
X619909Y609324D01*
X619944Y609227D01*
X619957Y609211D01*
X619965Y609193D01*
X620070Y609062D01*
X623166Y605965D01*
X625603Y600083D01*
X625603Y593717D01*
X623166Y587835D01*
X620070Y584738D01*
X620058Y584722D01*
X620042Y584710D01*
X619986Y584622D01*
X619926Y584539D01*
X619920Y584520D01*
X619909Y584503D01*
X619884Y584402D01*
X619854Y584303D01*
X619854Y584284D01*
X619849Y584264D01*
X619857Y584161D01*
X619860Y584058D01*
X619867Y584039D01*
X619868Y584019D01*
X619909Y583924D01*
X619944Y583827D01*
X619957Y583811D01*
X619965Y583793D01*
X620036Y583703D01*
X620043Y583692D01*
X620050Y583686D01*
X620070Y583662D01*
X623166Y580565D01*
X625603Y574683D01*
X625603Y568317D01*
X623166Y562435D01*
X620070Y559338D01*
X620058Y559322D01*
X620042Y559310D01*
X619986Y559222D01*
X619926Y559139D01*
X619920Y559120D01*
X619909Y559103D01*
X619884Y559002D01*
X619854Y558903D01*
X619854Y558884D01*
X619849Y558864D01*
X619857Y558761D01*
X619860Y558658D01*
X619867Y558639D01*
X619868Y558619D01*
X619909Y558524D01*
X619944Y558427D01*
X619957Y558411D01*
X619965Y558393D01*
X620070Y558262D01*
X623166Y555165D01*
X625603Y549283D01*
X625603Y542917D01*
X623166Y537035D01*
X620070Y533938D01*
X620058Y533922D01*
X620042Y533910D01*
X619986Y533822D01*
X619926Y533739D01*
X619920Y533720D01*
X619909Y533703D01*
X619884Y533602D01*
X619854Y533503D01*
X619854Y533484D01*
X619849Y533464D01*
X619857Y533361D01*
X619860Y533258D01*
X619867Y533239D01*
X619868Y533219D01*
X619909Y533124D01*
X619944Y533027D01*
X619957Y533011D01*
X619965Y532993D01*
X620070Y532862D01*
X623166Y529765D01*
X625603Y523883D01*
X625603Y517517D01*
X623166Y511635D01*
X620070Y508538D01*
X620058Y508522D01*
X620042Y508510D01*
X619986Y508422D01*
X619926Y508339D01*
X619920Y508320D01*
X619909Y508303D01*
X619884Y508202D01*
X619854Y508103D01*
X619854Y508084D01*
X619849Y508064D01*
X619857Y507961D01*
X619860Y507858D01*
X619867Y507839D01*
X619868Y507819D01*
X619909Y507724D01*
X619944Y507627D01*
X619957Y507611D01*
X619965Y507593D01*
X620070Y507462D01*
X623166Y504365D01*
X625603Y498483D01*
X625603Y492117D01*
X623166Y486235D01*
X620070Y483138D01*
X620058Y483122D01*
X620042Y483110D01*
X619986Y483022D01*
X619926Y482939D01*
X619920Y482920D01*
X619909Y482903D01*
X619884Y482802D01*
X619854Y482703D01*
X619854Y482684D01*
X619849Y482664D01*
X619857Y482561D01*
X619860Y482458D01*
X619867Y482439D01*
X619868Y482419D01*
X619909Y482324D01*
X619944Y482227D01*
X619957Y482211D01*
X619965Y482193D01*
X620070Y482062D01*
X623166Y478965D01*
X625603Y473083D01*
X625603Y466717D01*
X623166Y460835D01*
X619816Y457484D01*
X619774Y457426D01*
X619724Y457374D01*
X619702Y457327D01*
X619672Y457285D01*
X619651Y457216D01*
X619621Y457151D01*
X619615Y457099D01*
X619600Y457049D01*
X619602Y456978D01*
X619594Y456907D01*
X619605Y456856D01*
X619606Y456804D01*
X619631Y456736D01*
X619646Y456666D01*
X619673Y456621D01*
X619690Y456573D01*
X619735Y456517D01*
X619772Y456455D01*
X619812Y456421D01*
X619844Y456381D01*
X619904Y456342D01*
X619959Y456295D01*
X620007Y456276D01*
X620051Y456248D01*
X620121Y456230D01*
X620187Y456203D01*
X620258Y456195D01*
X620290Y456187D01*
X620313Y456189D01*
X620354Y456185D01*
X648895Y456185D01*
X648985Y456199D01*
X649076Y456207D01*
X649105Y456219D01*
X649137Y456224D01*
X649218Y456267D01*
X649302Y456303D01*
X649334Y456329D01*
X649355Y456340D01*
X649377Y456363D01*
X649433Y456408D01*
X661192Y468167D01*
X661245Y468241D01*
X661305Y468310D01*
X661317Y468341D01*
X661336Y468367D01*
X661363Y468454D01*
X661397Y468539D01*
X661401Y468580D01*
X661408Y468602D01*
X661407Y468634D01*
X661415Y468705D01*
X661415Y630974D01*
X663194Y635269D01*
X737392Y709467D01*
X737445Y709541D01*
X737505Y709610D01*
X737517Y709641D01*
X737536Y709667D01*
X737563Y709754D01*
X737597Y709839D01*
X737601Y709880D01*
X737608Y709902D01*
X737607Y709934D01*
X737615Y710005D01*
X737615Y770674D01*
X739394Y774969D01*
X818881Y854456D01*
X823176Y856235D01*
X1275424Y856235D01*
X1279719Y854456D01*
X1301731Y832444D01*
X1301805Y832391D01*
X1301874Y832331D01*
X1301905Y832319D01*
X1301931Y832300D01*
X1302018Y832273D01*
X1302103Y832239D01*
X1302144Y832235D01*
X1302166Y832228D01*
X1302198Y832229D01*
X1302269Y832221D01*
X1324566Y832221D01*
X1327367Y831061D01*
X1329511Y828917D01*
X1330671Y826116D01*
X1330671Y793084D01*
X1329511Y790283D01*
X1327367Y788139D01*
X1324566Y786979D01*
X1291534Y786979D01*
X1288733Y788139D01*
X1286589Y790283D01*
X1285429Y793084D01*
X1285429Y815381D01*
X1285415Y815471D01*
X1285407Y815562D01*
X1285395Y815591D01*
X1285390Y815623D01*
X1285347Y815704D01*
X1285311Y815788D01*
X1285285Y815820D01*
X1285274Y815841D01*
X1285251Y815863D01*
X1285206Y815919D01*
X1268483Y832642D01*
X1268409Y832695D01*
X1268340Y832755D01*
X1268309Y832767D01*
X1268283Y832786D01*
X1268196Y832813D01*
X1268111Y832847D01*
X1268070Y832851D01*
X1268048Y832858D01*
X1268016Y832857D01*
X1267945Y832865D01*
X926837Y832865D01*
X926741Y832850D01*
X926644Y832840D01*
X926620Y832830D01*
X926594Y832826D01*
X926508Y832780D01*
X926419Y832740D01*
X926400Y832723D01*
X926377Y832710D01*
X926310Y832640D01*
X926238Y832574D01*
X926225Y832551D01*
X926207Y832532D01*
X926166Y832444D01*
X926119Y832358D01*
X926115Y832333D01*
X926104Y832309D01*
X926093Y832212D01*
X926076Y832116D01*
X926079Y832090D01*
X926077Y832065D01*
X926097Y831969D01*
X926111Y831873D01*
X926123Y831850D01*
X926129Y831824D01*
X926179Y831741D01*
X926223Y831654D01*
X926242Y831635D01*
X926255Y831613D01*
X926329Y831550D01*
X926399Y831482D01*
X926427Y831466D01*
X926442Y831453D01*
X926473Y831441D01*
X926546Y831401D01*
X927367Y831061D01*
X929511Y828917D01*
X930671Y826116D01*
X930671Y807019D01*
X930685Y806929D01*
X930693Y806838D01*
X930705Y806809D01*
X930710Y806777D01*
X930753Y806696D01*
X930789Y806612D01*
X930815Y806580D01*
X930826Y806559D01*
X930849Y806537D01*
X930894Y806481D01*
X987806Y749569D01*
X989585Y745274D01*
X989585Y587121D01*
X989588Y587101D01*
X989586Y587082D01*
X989608Y586980D01*
X989624Y586878D01*
X989634Y586861D01*
X989638Y586841D01*
X989691Y586752D01*
X989740Y586661D01*
X989754Y586647D01*
X989764Y586630D01*
X989843Y586563D01*
X989918Y586491D01*
X989936Y586483D01*
X989951Y586470D01*
X990047Y586431D01*
X990141Y586388D01*
X990161Y586386D01*
X990179Y586378D01*
X990346Y586360D01*
X1123099Y586360D01*
X1127394Y584581D01*
X1139541Y572434D01*
X1139599Y572392D01*
X1139651Y572343D01*
X1139698Y572321D01*
X1139740Y572290D01*
X1139809Y572269D01*
X1139874Y572239D01*
X1139926Y572233D01*
X1139976Y572218D01*
X1140047Y572220D01*
X1140118Y572212D01*
X1140169Y572223D01*
X1140221Y572224D01*
X1140289Y572249D01*
X1140359Y572264D01*
X1140404Y572291D01*
X1140452Y572309D01*
X1140508Y572354D01*
X1140570Y572390D01*
X1140604Y572430D01*
X1140644Y572463D01*
X1140683Y572523D01*
X1140730Y572577D01*
X1140749Y572626D01*
X1140777Y572669D01*
X1140795Y572739D01*
X1140822Y572806D01*
X1140830Y572877D01*
X1140838Y572908D01*
X1140836Y572931D01*
X1140840Y572972D01*
X1140840Y621449D01*
X1142619Y625744D01*
X1288781Y771906D01*
X1293076Y773685D01*
X1429945Y773685D01*
X1430035Y773699D01*
X1430126Y773707D01*
X1430155Y773719D01*
X1430187Y773724D01*
X1430268Y773767D01*
X1430352Y773803D01*
X1430384Y773829D01*
X1430405Y773840D01*
X1430427Y773863D01*
X1430483Y773908D01*
X1448592Y792017D01*
X1448645Y792091D01*
X1448705Y792160D01*
X1448717Y792191D01*
X1448736Y792217D01*
X1448763Y792304D01*
X1448797Y792389D01*
X1448801Y792430D01*
X1448808Y792452D01*
X1448807Y792484D01*
X1448815Y792555D01*
X1448815Y890195D01*
X1448801Y890285D01*
X1448793Y890376D01*
X1448781Y890405D01*
X1448776Y890437D01*
X1448752Y890483D01*
X1448751Y890486D01*
X1448743Y890499D01*
X1448733Y890518D01*
X1448697Y890602D01*
X1448671Y890634D01*
X1448660Y890655D01*
X1448637Y890677D01*
X1448635Y890680D01*
X1448625Y890697D01*
X1448614Y890706D01*
X1448592Y890733D01*
X1411019Y928306D01*
X1410945Y928359D01*
X1410876Y928419D01*
X1410845Y928431D01*
X1410819Y928450D01*
X1410732Y928477D01*
X1410647Y928511D01*
X1410606Y928515D01*
X1410584Y928522D01*
X1410552Y928521D01*
X1410481Y928529D01*
X1402401Y928529D01*
X1392079Y938851D01*
X1392079Y953449D01*
X1402401Y963771D01*
X1411817Y963771D01*
X1411887Y963782D01*
X1411959Y963784D01*
X1412008Y963802D01*
X1412060Y963810D01*
X1412123Y963844D01*
X1412190Y963869D01*
X1412231Y963901D01*
X1412277Y963926D01*
X1412326Y963977D01*
X1412382Y964022D01*
X1412410Y964066D01*
X1412446Y964104D01*
X1412476Y964169D01*
X1412515Y964229D01*
X1412528Y964280D01*
X1412550Y964327D01*
X1412558Y964398D01*
X1412575Y964468D01*
X1412571Y964520D01*
X1412577Y964571D01*
X1412562Y964642D01*
X1412556Y964713D01*
X1412536Y964761D01*
X1412525Y964812D01*
X1412488Y964873D01*
X1412460Y964939D01*
X1412415Y964995D01*
X1412399Y965023D01*
X1412381Y965038D01*
X1412355Y965070D01*
X1411433Y965992D01*
X1411359Y966045D01*
X1411290Y966105D01*
X1411259Y966117D01*
X1411233Y966136D01*
X1411146Y966163D01*
X1411061Y966197D01*
X1411021Y966201D01*
X1410998Y966208D01*
X1410966Y966207D01*
X1410895Y966215D01*
X1345805Y966215D01*
X1345715Y966201D01*
X1345624Y966193D01*
X1345594Y966181D01*
X1345563Y966176D01*
X1345482Y966133D01*
X1345398Y966097D01*
X1345366Y966071D01*
X1345345Y966060D01*
X1345323Y966037D01*
X1345267Y965992D01*
X1326744Y947469D01*
X1326691Y947395D01*
X1326631Y947326D01*
X1326619Y947295D01*
X1326600Y947269D01*
X1326573Y947182D01*
X1326539Y947097D01*
X1326535Y947057D01*
X1326528Y947034D01*
X1326529Y947002D01*
X1326521Y946931D01*
X1326521Y938851D01*
X1316199Y928529D01*
X1301601Y928529D01*
X1291279Y938851D01*
X1291279Y953449D01*
X1301601Y963771D01*
X1309681Y963771D01*
X1309771Y963785D01*
X1309862Y963793D01*
X1309892Y963805D01*
X1309923Y963810D01*
X1310004Y963853D01*
X1310088Y963889D01*
X1310120Y963915D01*
X1310141Y963926D01*
X1310163Y963949D01*
X1310219Y963994D01*
X1330637Y984412D01*
X1334031Y987806D01*
X1335405Y988375D01*
X1335488Y988426D01*
X1335573Y988472D01*
X1335591Y988491D01*
X1335614Y988504D01*
X1335676Y988579D01*
X1335743Y988650D01*
X1335754Y988674D01*
X1335770Y988694D01*
X1335805Y988785D01*
X1335846Y988873D01*
X1335849Y988899D01*
X1335859Y988923D01*
X1335863Y989021D01*
X1335873Y989117D01*
X1335868Y989143D01*
X1335869Y989169D01*
X1335842Y989263D01*
X1335821Y989358D01*
X1335808Y989380D01*
X1335801Y989405D01*
X1335745Y989485D01*
X1335695Y989569D01*
X1335675Y989586D01*
X1335660Y989607D01*
X1335582Y989666D01*
X1335508Y989729D01*
X1335484Y989739D01*
X1335463Y989754D01*
X1335370Y989784D01*
X1335280Y989821D01*
X1335248Y989824D01*
X1335229Y989830D01*
X1335196Y989830D01*
X1335113Y989839D01*
X12700Y989839D01*
X12680Y989836D01*
X12661Y989838D01*
X12559Y989816D01*
X12457Y989800D01*
X12440Y989790D01*
X12420Y989786D01*
X12331Y989733D01*
X12240Y989684D01*
X12226Y989670D01*
X12209Y989660D01*
X12142Y989581D01*
X12071Y989506D01*
X12062Y989488D01*
X12049Y989473D01*
X12010Y989377D01*
X11967Y989283D01*
X11965Y989263D01*
X11957Y989245D01*
X11939Y989078D01*
X11939Y309372D01*
X11942Y309352D01*
X11940Y309333D01*
X11962Y309231D01*
X11979Y309129D01*
X11988Y309112D01*
X11992Y309092D01*
X12045Y309003D01*
X12094Y308912D01*
X12108Y308898D01*
X12118Y308881D01*
X12197Y308814D01*
X12272Y308742D01*
X12290Y308734D01*
X12305Y308721D01*
X12401Y308682D01*
X12495Y308639D01*
X12515Y308637D01*
X12533Y308629D01*
X12700Y308611D01*
X358827Y308611D01*
X358897Y308622D01*
G37*
G36*
X721525Y329196D02*
X721525Y329196D01*
X721597Y329198D01*
X721645Y329216D01*
X721697Y329224D01*
X721760Y329258D01*
X721828Y329283D01*
X721868Y329315D01*
X721914Y329340D01*
X721964Y329392D01*
X722020Y329436D01*
X722048Y329480D01*
X722084Y329518D01*
X722114Y329583D01*
X722153Y329643D01*
X722165Y329694D01*
X722187Y329741D01*
X722195Y329812D01*
X722213Y329882D01*
X722209Y329934D01*
X722214Y329985D01*
X722199Y330056D01*
X722193Y330127D01*
X722173Y330175D01*
X722162Y330226D01*
X722125Y330287D01*
X722097Y330353D01*
X722052Y330409D01*
X722036Y330437D01*
X722018Y330452D01*
X721992Y330484D01*
X720080Y332396D01*
X717257Y339212D01*
X717257Y346588D01*
X720080Y353404D01*
X725296Y358620D01*
X732112Y361443D01*
X737503Y361443D01*
X737593Y361457D01*
X737684Y361465D01*
X737713Y361477D01*
X737745Y361482D01*
X737826Y361525D01*
X737910Y361561D01*
X737942Y361587D01*
X737963Y361598D01*
X737985Y361621D01*
X738041Y361666D01*
X794542Y418167D01*
X794595Y418241D01*
X794655Y418310D01*
X794667Y418341D01*
X794686Y418367D01*
X794713Y418454D01*
X794747Y418539D01*
X794751Y418580D01*
X794758Y418602D01*
X794757Y418634D01*
X794765Y418705D01*
X794765Y486553D01*
X794751Y486643D01*
X794743Y486734D01*
X794731Y486763D01*
X794726Y486795D01*
X794683Y486876D01*
X794647Y486960D01*
X794621Y486992D01*
X794610Y487013D01*
X794587Y487035D01*
X794542Y487091D01*
X792225Y489408D01*
X792225Y501192D01*
X800558Y509525D01*
X812342Y509525D01*
X820675Y501192D01*
X820675Y489408D01*
X818358Y487091D01*
X818305Y487017D01*
X818245Y486948D01*
X818233Y486917D01*
X818214Y486891D01*
X818187Y486804D01*
X818153Y486719D01*
X818149Y486678D01*
X818142Y486656D01*
X818143Y486624D01*
X818135Y486553D01*
X818135Y411226D01*
X816356Y406931D01*
X813588Y404163D01*
X813576Y404147D01*
X813561Y404135D01*
X813505Y404047D01*
X813444Y403964D01*
X813439Y403945D01*
X813428Y403928D01*
X813403Y403827D01*
X813372Y403728D01*
X813373Y403709D01*
X813368Y403689D01*
X813376Y403586D01*
X813378Y403483D01*
X813385Y403464D01*
X813387Y403444D01*
X813427Y403349D01*
X813463Y403252D01*
X813475Y403236D01*
X813483Y403218D01*
X813588Y403087D01*
X830117Y386558D01*
X830191Y386505D01*
X830260Y386445D01*
X830291Y386433D01*
X830317Y386414D01*
X830404Y386387D01*
X830489Y386353D01*
X830530Y386349D01*
X830552Y386342D01*
X830584Y386343D01*
X830655Y386335D01*
X896545Y386335D01*
X896635Y386349D01*
X896726Y386357D01*
X896755Y386369D01*
X896787Y386374D01*
X896868Y386417D01*
X896952Y386453D01*
X896984Y386479D01*
X897005Y386490D01*
X897027Y386513D01*
X897083Y386558D01*
X908842Y398317D01*
X908895Y398391D01*
X908955Y398460D01*
X908967Y398491D01*
X908986Y398517D01*
X909013Y398604D01*
X909047Y398689D01*
X909051Y398730D01*
X909058Y398752D01*
X909057Y398784D01*
X909065Y398855D01*
X909065Y405720D01*
X909054Y405791D01*
X909052Y405863D01*
X909034Y405912D01*
X909026Y405963D01*
X908992Y406026D01*
X908967Y406094D01*
X908935Y406134D01*
X908910Y406180D01*
X908858Y406230D01*
X908814Y406286D01*
X908770Y406314D01*
X908732Y406350D01*
X908667Y406380D01*
X908607Y406419D01*
X908556Y406431D01*
X908509Y406453D01*
X908438Y406461D01*
X908368Y406479D01*
X908316Y406475D01*
X908265Y406480D01*
X908194Y406465D01*
X908123Y406460D01*
X908075Y406439D01*
X908024Y406428D01*
X907963Y406391D01*
X907897Y406363D01*
X907841Y406318D01*
X907813Y406302D01*
X907798Y406284D01*
X907766Y406258D01*
X906107Y404599D01*
X903306Y403439D01*
X887394Y403439D01*
X884593Y404599D01*
X882449Y406743D01*
X881289Y409544D01*
X881289Y425456D01*
X882449Y428257D01*
X884593Y430401D01*
X887394Y431561D01*
X903306Y431561D01*
X906107Y430401D01*
X908251Y428257D01*
X908802Y426925D01*
X908826Y426886D01*
X908842Y426843D01*
X908891Y426782D01*
X908932Y426716D01*
X908967Y426687D01*
X908996Y426651D01*
X909061Y426609D01*
X909121Y426560D01*
X909164Y426543D01*
X909203Y426518D01*
X909278Y426499D01*
X909351Y426471D01*
X909397Y426469D01*
X909441Y426458D01*
X909519Y426464D01*
X909596Y426461D01*
X909641Y426474D01*
X909686Y426477D01*
X909758Y426508D01*
X909833Y426530D01*
X909870Y426556D01*
X909913Y426574D01*
X910019Y426659D01*
X910035Y426670D01*
X910038Y426674D01*
X910044Y426678D01*
X912785Y429420D01*
X917953Y431561D01*
X923547Y431561D01*
X928715Y429420D01*
X932670Y425465D01*
X934811Y420297D01*
X934811Y414703D01*
X932670Y409535D01*
X932658Y409523D01*
X932605Y409449D01*
X932545Y409379D01*
X932533Y409349D01*
X932514Y409323D01*
X932487Y409236D01*
X932453Y409151D01*
X932449Y409110D01*
X932442Y409088D01*
X932443Y409056D01*
X932435Y408985D01*
X932435Y391376D01*
X930656Y387081D01*
X908319Y364744D01*
X904024Y362965D01*
X823176Y362965D01*
X818881Y364744D01*
X797063Y386562D01*
X797047Y386574D01*
X797035Y386589D01*
X796947Y386645D01*
X796864Y386706D01*
X796845Y386711D01*
X796828Y386722D01*
X796727Y386748D01*
X796628Y386778D01*
X796609Y386777D01*
X796589Y386782D01*
X796486Y386774D01*
X796383Y386772D01*
X796364Y386765D01*
X796344Y386763D01*
X796249Y386723D01*
X796152Y386687D01*
X796136Y386675D01*
X796118Y386667D01*
X795987Y386562D01*
X754566Y345141D01*
X754513Y345067D01*
X754453Y344998D01*
X754441Y344967D01*
X754422Y344941D01*
X754395Y344854D01*
X754361Y344769D01*
X754357Y344728D01*
X754350Y344706D01*
X754351Y344674D01*
X754343Y344603D01*
X754343Y339212D01*
X751520Y332396D01*
X749608Y330484D01*
X749566Y330426D01*
X749516Y330374D01*
X749494Y330327D01*
X749464Y330285D01*
X749443Y330216D01*
X749413Y330151D01*
X749407Y330099D01*
X749392Y330049D01*
X749394Y329978D01*
X749386Y329907D01*
X749397Y329856D01*
X749398Y329804D01*
X749423Y329736D01*
X749438Y329666D01*
X749465Y329621D01*
X749483Y329573D01*
X749527Y329517D01*
X749564Y329455D01*
X749604Y329421D01*
X749636Y329381D01*
X749697Y329342D01*
X749751Y329295D01*
X749799Y329276D01*
X749843Y329248D01*
X749913Y329230D01*
X749979Y329203D01*
X750051Y329195D01*
X750082Y329187D01*
X750105Y329189D01*
X750146Y329185D01*
X921945Y329185D01*
X922035Y329199D01*
X922126Y329207D01*
X922155Y329219D01*
X922187Y329224D01*
X922268Y329267D01*
X922352Y329303D01*
X922384Y329329D01*
X922405Y329340D01*
X922427Y329363D01*
X922483Y329408D01*
X959642Y366567D01*
X959695Y366641D01*
X959755Y366710D01*
X959767Y366741D01*
X959786Y366767D01*
X959813Y366854D01*
X959847Y366939D01*
X959851Y366980D01*
X959858Y367002D01*
X959857Y367034D01*
X959865Y367105D01*
X959865Y408985D01*
X959851Y409075D01*
X959843Y409166D01*
X959831Y409195D01*
X959826Y409227D01*
X959783Y409308D01*
X959747Y409392D01*
X959721Y409424D01*
X959710Y409445D01*
X959687Y409467D01*
X959642Y409523D01*
X959630Y409535D01*
X957489Y414703D01*
X957489Y420297D01*
X959630Y425465D01*
X963585Y429420D01*
X968753Y431561D01*
X974347Y431561D01*
X979515Y429420D01*
X983470Y425465D01*
X985611Y420297D01*
X985611Y414703D01*
X983470Y409535D01*
X983458Y409523D01*
X983405Y409449D01*
X983345Y409379D01*
X983333Y409349D01*
X983314Y409323D01*
X983287Y409236D01*
X983253Y409151D01*
X983249Y409110D01*
X983242Y409088D01*
X983243Y409056D01*
X983235Y408985D01*
X983235Y373455D01*
X983249Y373365D01*
X983257Y373274D01*
X983269Y373245D01*
X983274Y373213D01*
X983317Y373132D01*
X983353Y373048D01*
X983379Y373016D01*
X983390Y372995D01*
X983413Y372973D01*
X983458Y372917D01*
X1026967Y329408D01*
X1027041Y329355D01*
X1027110Y329295D01*
X1027141Y329283D01*
X1027167Y329264D01*
X1027254Y329237D01*
X1027339Y329203D01*
X1027380Y329199D01*
X1027402Y329192D01*
X1027434Y329193D01*
X1027505Y329185D01*
X1112445Y329185D01*
X1112535Y329199D01*
X1112626Y329207D01*
X1112655Y329219D01*
X1112687Y329224D01*
X1112768Y329267D01*
X1112852Y329303D01*
X1112884Y329329D01*
X1112905Y329340D01*
X1112927Y329363D01*
X1112983Y329408D01*
X1143792Y360217D01*
X1143845Y360291D01*
X1143905Y360360D01*
X1143917Y360391D01*
X1143936Y360417D01*
X1143963Y360504D01*
X1143997Y360589D01*
X1144001Y360630D01*
X1144008Y360652D01*
X1144007Y360684D01*
X1144015Y360755D01*
X1144015Y408555D01*
X1144001Y408645D01*
X1143993Y408736D01*
X1143981Y408766D01*
X1143976Y408798D01*
X1143933Y408879D01*
X1143897Y408962D01*
X1143871Y408995D01*
X1143860Y409015D01*
X1143837Y409037D01*
X1143792Y409093D01*
X1142563Y410322D01*
X1140933Y414259D01*
X1140910Y414295D01*
X1140897Y414335D01*
X1140846Y414399D01*
X1140803Y414468D01*
X1140771Y414495D01*
X1140745Y414528D01*
X1140677Y414573D01*
X1140614Y414625D01*
X1140574Y414640D01*
X1140539Y414663D01*
X1140460Y414684D01*
X1140384Y414713D01*
X1140342Y414715D01*
X1140301Y414726D01*
X1140220Y414720D01*
X1140138Y414724D01*
X1140098Y414712D01*
X1140056Y414709D01*
X1139981Y414678D01*
X1139902Y414655D01*
X1139867Y414631D01*
X1139829Y414615D01*
X1139767Y414562D01*
X1139700Y414515D01*
X1139675Y414481D01*
X1139643Y414454D01*
X1139558Y414324D01*
X1139553Y414318D01*
X1139553Y414316D01*
X1139551Y414314D01*
X1139208Y413641D01*
X1138245Y412315D01*
X1137085Y411155D01*
X1135759Y410192D01*
X1134298Y409447D01*
X1132739Y408941D01*
X1131823Y408796D01*
X1131823Y418338D01*
X1131820Y418358D01*
X1131822Y418377D01*
X1131800Y418479D01*
X1131783Y418581D01*
X1131774Y418598D01*
X1131770Y418618D01*
X1131717Y418707D01*
X1131668Y418798D01*
X1131654Y418812D01*
X1131644Y418829D01*
X1131565Y418896D01*
X1131490Y418967D01*
X1131472Y418976D01*
X1131457Y418989D01*
X1131361Y419027D01*
X1131267Y419071D01*
X1131247Y419073D01*
X1131229Y419081D01*
X1131062Y419099D01*
X1129538Y419099D01*
X1129518Y419096D01*
X1129499Y419098D01*
X1129397Y419076D01*
X1129295Y419059D01*
X1129278Y419050D01*
X1129258Y419046D01*
X1129169Y418993D01*
X1129078Y418944D01*
X1129064Y418930D01*
X1129047Y418920D01*
X1128980Y418841D01*
X1128909Y418766D01*
X1128900Y418748D01*
X1128887Y418733D01*
X1128848Y418637D01*
X1128805Y418543D01*
X1128803Y418523D01*
X1128795Y418505D01*
X1128777Y418338D01*
X1128777Y408796D01*
X1127861Y408941D01*
X1126302Y409447D01*
X1124841Y410192D01*
X1123515Y411155D01*
X1122355Y412315D01*
X1121773Y413116D01*
X1121767Y413122D01*
X1121763Y413129D01*
X1121680Y413208D01*
X1121598Y413289D01*
X1121591Y413293D01*
X1121585Y413298D01*
X1121481Y413347D01*
X1121377Y413398D01*
X1121369Y413399D01*
X1121362Y413402D01*
X1121248Y413415D01*
X1121133Y413430D01*
X1121125Y413428D01*
X1121118Y413429D01*
X1121005Y413405D01*
X1120892Y413383D01*
X1120885Y413379D01*
X1120877Y413377D01*
X1120778Y413318D01*
X1120678Y413261D01*
X1120673Y413255D01*
X1120666Y413251D01*
X1120591Y413163D01*
X1120514Y413077D01*
X1120511Y413070D01*
X1120506Y413064D01*
X1120463Y412957D01*
X1120418Y412851D01*
X1120417Y412843D01*
X1120414Y412836D01*
X1120396Y412669D01*
X1120396Y409709D01*
X1119236Y406908D01*
X1117092Y404764D01*
X1114291Y403604D01*
X1095509Y403604D01*
X1092708Y404764D01*
X1090564Y406908D01*
X1089404Y409709D01*
X1089404Y428491D01*
X1090564Y431292D01*
X1092708Y433436D01*
X1095509Y434596D01*
X1114291Y434596D01*
X1117092Y433436D01*
X1119236Y431292D01*
X1120396Y428491D01*
X1120396Y425531D01*
X1120397Y425523D01*
X1120396Y425515D01*
X1120417Y425402D01*
X1120435Y425288D01*
X1120439Y425281D01*
X1120441Y425273D01*
X1120497Y425173D01*
X1120551Y425071D01*
X1120556Y425065D01*
X1120560Y425058D01*
X1120645Y424981D01*
X1120729Y424902D01*
X1120736Y424898D01*
X1120742Y424893D01*
X1120848Y424846D01*
X1120952Y424798D01*
X1120960Y424797D01*
X1120967Y424794D01*
X1121082Y424784D01*
X1121196Y424771D01*
X1121204Y424773D01*
X1121212Y424772D01*
X1121325Y424799D01*
X1121437Y424823D01*
X1121444Y424827D01*
X1121451Y424829D01*
X1121550Y424891D01*
X1121648Y424949D01*
X1121653Y424955D01*
X1121660Y424960D01*
X1121773Y425084D01*
X1122355Y425885D01*
X1123515Y427045D01*
X1124841Y428008D01*
X1126302Y428753D01*
X1127861Y429259D01*
X1128777Y429404D01*
X1128777Y419862D01*
X1128780Y419842D01*
X1128778Y419823D01*
X1128800Y419721D01*
X1128817Y419619D01*
X1128826Y419602D01*
X1128830Y419582D01*
X1128883Y419493D01*
X1128932Y419402D01*
X1128946Y419388D01*
X1128956Y419371D01*
X1129035Y419304D01*
X1129110Y419233D01*
X1129128Y419224D01*
X1129143Y419211D01*
X1129239Y419173D01*
X1129333Y419129D01*
X1129353Y419127D01*
X1129371Y419119D01*
X1129538Y419101D01*
X1131062Y419101D01*
X1131082Y419104D01*
X1131101Y419102D01*
X1131203Y419124D01*
X1131305Y419141D01*
X1131322Y419150D01*
X1131342Y419154D01*
X1131431Y419207D01*
X1131522Y419256D01*
X1131536Y419270D01*
X1131553Y419280D01*
X1131620Y419359D01*
X1131691Y419434D01*
X1131700Y419452D01*
X1131713Y419467D01*
X1131752Y419563D01*
X1131795Y419657D01*
X1131797Y419677D01*
X1131805Y419695D01*
X1131823Y419862D01*
X1131823Y429404D01*
X1132739Y429259D01*
X1134298Y428753D01*
X1135759Y428008D01*
X1137085Y427045D01*
X1138245Y425885D01*
X1139208Y424559D01*
X1139551Y423886D01*
X1139576Y423853D01*
X1139593Y423814D01*
X1139648Y423754D01*
X1139697Y423688D01*
X1139731Y423664D01*
X1139759Y423633D01*
X1139831Y423594D01*
X1139898Y423547D01*
X1139938Y423535D01*
X1139975Y423515D01*
X1140055Y423500D01*
X1140134Y423477D01*
X1140176Y423478D01*
X1140217Y423471D01*
X1140298Y423483D01*
X1140379Y423486D01*
X1140419Y423501D01*
X1140460Y423507D01*
X1140533Y423544D01*
X1140610Y423573D01*
X1140642Y423599D01*
X1140680Y423618D01*
X1140737Y423676D01*
X1140800Y423728D01*
X1140822Y423764D01*
X1140852Y423794D01*
X1140926Y423929D01*
X1140931Y423937D01*
X1140931Y423938D01*
X1140933Y423941D01*
X1142563Y427878D01*
X1146922Y432237D01*
X1152618Y434596D01*
X1158782Y434596D01*
X1164478Y432237D01*
X1168837Y427878D01*
X1170467Y423941D01*
X1170490Y423905D01*
X1170503Y423865D01*
X1170554Y423801D01*
X1170597Y423732D01*
X1170629Y423705D01*
X1170655Y423672D01*
X1170723Y423627D01*
X1170786Y423575D01*
X1170826Y423560D01*
X1170861Y423537D01*
X1170940Y423516D01*
X1171016Y423487D01*
X1171058Y423485D01*
X1171099Y423474D01*
X1171180Y423480D01*
X1171262Y423476D01*
X1171302Y423488D01*
X1171344Y423491D01*
X1171419Y423522D01*
X1171498Y423545D01*
X1171533Y423569D01*
X1171571Y423585D01*
X1171633Y423638D01*
X1171700Y423685D01*
X1171725Y423719D01*
X1171757Y423746D01*
X1171842Y423876D01*
X1171847Y423882D01*
X1171847Y423884D01*
X1171849Y423886D01*
X1172192Y424559D01*
X1173155Y425885D01*
X1174315Y427045D01*
X1175641Y428008D01*
X1177102Y428753D01*
X1178661Y429259D01*
X1179577Y429404D01*
X1179577Y419862D01*
X1179580Y419842D01*
X1179578Y419823D01*
X1179600Y419721D01*
X1179617Y419619D01*
X1179626Y419602D01*
X1179630Y419582D01*
X1179683Y419493D01*
X1179732Y419402D01*
X1179746Y419388D01*
X1179756Y419371D01*
X1179835Y419304D01*
X1179910Y419233D01*
X1179928Y419224D01*
X1179943Y419211D01*
X1180039Y419173D01*
X1180133Y419129D01*
X1180153Y419127D01*
X1180171Y419119D01*
X1180338Y419101D01*
X1181862Y419101D01*
X1181882Y419104D01*
X1181901Y419102D01*
X1182003Y419124D01*
X1182105Y419141D01*
X1182122Y419150D01*
X1182142Y419154D01*
X1182231Y419207D01*
X1182322Y419256D01*
X1182336Y419270D01*
X1182353Y419280D01*
X1182420Y419359D01*
X1182491Y419434D01*
X1182500Y419452D01*
X1182513Y419467D01*
X1182552Y419563D01*
X1182595Y419657D01*
X1182597Y419677D01*
X1182605Y419695D01*
X1182623Y419862D01*
X1182623Y429404D01*
X1183539Y429259D01*
X1185098Y428753D01*
X1186559Y428008D01*
X1187885Y427045D01*
X1189045Y425885D01*
X1190008Y424559D01*
X1190351Y423886D01*
X1190376Y423853D01*
X1190393Y423814D01*
X1190448Y423754D01*
X1190497Y423688D01*
X1190531Y423664D01*
X1190559Y423633D01*
X1190631Y423594D01*
X1190698Y423547D01*
X1190738Y423535D01*
X1190775Y423515D01*
X1190855Y423500D01*
X1190934Y423477D01*
X1190976Y423478D01*
X1191017Y423471D01*
X1191098Y423483D01*
X1191179Y423486D01*
X1191219Y423501D01*
X1191260Y423507D01*
X1191333Y423544D01*
X1191410Y423573D01*
X1191442Y423599D01*
X1191480Y423618D01*
X1191537Y423676D01*
X1191600Y423728D01*
X1191622Y423764D01*
X1191652Y423794D01*
X1191726Y423929D01*
X1191731Y423937D01*
X1191731Y423938D01*
X1191733Y423941D01*
X1193363Y427878D01*
X1197722Y432237D01*
X1203418Y434596D01*
X1209582Y434596D01*
X1215278Y432237D01*
X1218662Y428853D01*
X1218678Y428841D01*
X1218690Y428825D01*
X1218778Y428769D01*
X1218861Y428709D01*
X1218880Y428703D01*
X1218897Y428692D01*
X1218998Y428667D01*
X1219097Y428637D01*
X1219116Y428637D01*
X1219136Y428632D01*
X1219239Y428640D01*
X1219342Y428643D01*
X1219361Y428650D01*
X1219381Y428651D01*
X1219476Y428692D01*
X1219573Y428727D01*
X1219589Y428740D01*
X1219607Y428748D01*
X1219738Y428853D01*
X1223122Y432237D01*
X1228818Y434596D01*
X1234982Y434596D01*
X1240678Y432237D01*
X1244062Y428853D01*
X1244078Y428841D01*
X1244090Y428825D01*
X1244178Y428769D01*
X1244261Y428709D01*
X1244280Y428703D01*
X1244297Y428692D01*
X1244398Y428667D01*
X1244497Y428637D01*
X1244516Y428637D01*
X1244536Y428632D01*
X1244639Y428640D01*
X1244742Y428643D01*
X1244761Y428650D01*
X1244781Y428651D01*
X1244876Y428692D01*
X1244973Y428727D01*
X1244989Y428740D01*
X1245007Y428748D01*
X1245138Y428853D01*
X1248522Y432237D01*
X1254218Y434596D01*
X1260382Y434596D01*
X1266078Y432237D01*
X1269462Y428853D01*
X1269478Y428841D01*
X1269490Y428825D01*
X1269578Y428769D01*
X1269661Y428709D01*
X1269680Y428703D01*
X1269697Y428692D01*
X1269798Y428667D01*
X1269897Y428637D01*
X1269916Y428637D01*
X1269936Y428632D01*
X1270039Y428640D01*
X1270142Y428643D01*
X1270161Y428650D01*
X1270181Y428651D01*
X1270276Y428692D01*
X1270373Y428727D01*
X1270389Y428740D01*
X1270407Y428748D01*
X1270538Y428853D01*
X1273922Y432237D01*
X1279618Y434596D01*
X1285782Y434596D01*
X1291478Y432237D01*
X1295837Y427878D01*
X1298196Y422182D01*
X1298196Y416018D01*
X1295837Y410322D01*
X1291478Y405963D01*
X1285782Y403604D01*
X1279618Y403604D01*
X1273922Y405963D01*
X1270538Y409347D01*
X1270522Y409359D01*
X1270510Y409375D01*
X1270422Y409431D01*
X1270339Y409491D01*
X1270320Y409497D01*
X1270303Y409508D01*
X1270202Y409533D01*
X1270103Y409563D01*
X1270084Y409563D01*
X1270064Y409568D01*
X1269961Y409560D01*
X1269858Y409557D01*
X1269839Y409550D01*
X1269819Y409549D01*
X1269724Y409508D01*
X1269627Y409473D01*
X1269611Y409460D01*
X1269593Y409452D01*
X1269462Y409347D01*
X1266078Y405963D01*
X1260382Y403604D01*
X1254218Y403604D01*
X1248522Y405963D01*
X1245138Y409347D01*
X1245122Y409359D01*
X1245110Y409375D01*
X1245022Y409431D01*
X1244939Y409491D01*
X1244920Y409497D01*
X1244903Y409508D01*
X1244802Y409533D01*
X1244703Y409563D01*
X1244684Y409563D01*
X1244664Y409568D01*
X1244561Y409560D01*
X1244458Y409557D01*
X1244439Y409550D01*
X1244419Y409549D01*
X1244324Y409508D01*
X1244227Y409473D01*
X1244211Y409460D01*
X1244193Y409452D01*
X1244062Y409347D01*
X1240678Y405963D01*
X1234982Y403604D01*
X1228818Y403604D01*
X1223122Y405963D01*
X1219738Y409347D01*
X1219722Y409359D01*
X1219710Y409375D01*
X1219622Y409431D01*
X1219539Y409491D01*
X1219520Y409497D01*
X1219503Y409508D01*
X1219402Y409533D01*
X1219303Y409563D01*
X1219284Y409563D01*
X1219264Y409568D01*
X1219161Y409560D01*
X1219058Y409557D01*
X1219039Y409550D01*
X1219019Y409549D01*
X1218924Y409508D01*
X1218827Y409473D01*
X1218811Y409460D01*
X1218793Y409452D01*
X1218662Y409347D01*
X1215278Y405963D01*
X1209582Y403604D01*
X1203418Y403604D01*
X1197722Y405963D01*
X1193363Y410322D01*
X1191733Y414259D01*
X1191710Y414295D01*
X1191697Y414335D01*
X1191646Y414399D01*
X1191603Y414468D01*
X1191571Y414495D01*
X1191545Y414528D01*
X1191477Y414573D01*
X1191414Y414625D01*
X1191374Y414640D01*
X1191339Y414663D01*
X1191260Y414684D01*
X1191184Y414713D01*
X1191142Y414715D01*
X1191101Y414726D01*
X1191020Y414720D01*
X1190938Y414724D01*
X1190898Y414712D01*
X1190856Y414709D01*
X1190781Y414678D01*
X1190702Y414655D01*
X1190667Y414631D01*
X1190629Y414615D01*
X1190567Y414562D01*
X1190500Y414515D01*
X1190475Y414481D01*
X1190443Y414454D01*
X1190358Y414324D01*
X1190353Y414318D01*
X1190353Y414316D01*
X1190351Y414314D01*
X1190008Y413641D01*
X1189045Y412315D01*
X1187885Y411155D01*
X1186559Y410192D01*
X1185098Y409447D01*
X1183539Y408941D01*
X1182623Y408796D01*
X1182623Y418338D01*
X1182620Y418358D01*
X1182622Y418377D01*
X1182600Y418479D01*
X1182583Y418581D01*
X1182574Y418598D01*
X1182570Y418618D01*
X1182517Y418707D01*
X1182468Y418798D01*
X1182454Y418812D01*
X1182444Y418829D01*
X1182365Y418896D01*
X1182290Y418967D01*
X1182272Y418976D01*
X1182257Y418989D01*
X1182161Y419027D01*
X1182067Y419071D01*
X1182047Y419073D01*
X1182029Y419081D01*
X1181862Y419099D01*
X1180338Y419099D01*
X1180318Y419096D01*
X1180299Y419098D01*
X1180197Y419076D01*
X1180095Y419059D01*
X1180078Y419050D01*
X1180058Y419046D01*
X1179969Y418993D01*
X1179878Y418944D01*
X1179864Y418930D01*
X1179847Y418920D01*
X1179780Y418841D01*
X1179709Y418766D01*
X1179700Y418748D01*
X1179687Y418733D01*
X1179648Y418637D01*
X1179605Y418543D01*
X1179603Y418523D01*
X1179595Y418505D01*
X1179577Y418338D01*
X1179577Y408796D01*
X1178661Y408941D01*
X1177102Y409447D01*
X1175641Y410192D01*
X1174315Y411155D01*
X1173155Y412315D01*
X1172192Y413641D01*
X1171849Y414314D01*
X1171824Y414347D01*
X1171807Y414386D01*
X1171752Y414446D01*
X1171703Y414512D01*
X1171669Y414536D01*
X1171641Y414567D01*
X1171569Y414606D01*
X1171502Y414653D01*
X1171462Y414665D01*
X1171425Y414685D01*
X1171345Y414700D01*
X1171266Y414723D01*
X1171224Y414722D01*
X1171183Y414729D01*
X1171102Y414717D01*
X1171021Y414714D01*
X1170981Y414699D01*
X1170940Y414693D01*
X1170867Y414656D01*
X1170790Y414627D01*
X1170758Y414601D01*
X1170720Y414582D01*
X1170663Y414524D01*
X1170600Y414472D01*
X1170578Y414436D01*
X1170548Y414406D01*
X1170474Y414271D01*
X1170469Y414263D01*
X1170469Y414262D01*
X1170467Y414259D01*
X1168837Y410322D01*
X1167608Y409093D01*
X1167555Y409019D01*
X1167495Y408950D01*
X1167483Y408920D01*
X1167464Y408894D01*
X1167437Y408807D01*
X1167403Y408722D01*
X1167399Y408681D01*
X1167392Y408659D01*
X1167393Y408626D01*
X1167385Y408555D01*
X1167385Y353276D01*
X1165606Y348981D01*
X1162212Y345587D01*
X1147109Y330484D01*
X1147067Y330426D01*
X1147018Y330374D01*
X1146996Y330327D01*
X1146965Y330285D01*
X1146944Y330216D01*
X1146914Y330151D01*
X1146908Y330099D01*
X1146893Y330049D01*
X1146895Y329978D01*
X1146887Y329907D01*
X1146898Y329856D01*
X1146899Y329804D01*
X1146924Y329736D01*
X1146939Y329666D01*
X1146966Y329621D01*
X1146984Y329573D01*
X1147029Y329517D01*
X1147065Y329455D01*
X1147105Y329421D01*
X1147138Y329381D01*
X1147198Y329342D01*
X1147252Y329295D01*
X1147301Y329276D01*
X1147344Y329248D01*
X1147414Y329230D01*
X1147481Y329203D01*
X1147552Y329195D01*
X1147583Y329187D01*
X1147606Y329189D01*
X1147647Y329185D01*
X1417245Y329185D01*
X1417335Y329199D01*
X1417426Y329207D01*
X1417455Y329219D01*
X1417487Y329224D01*
X1417568Y329267D01*
X1417652Y329303D01*
X1417684Y329329D01*
X1417705Y329340D01*
X1417727Y329363D01*
X1417783Y329408D01*
X1448592Y360217D01*
X1448645Y360291D01*
X1448705Y360360D01*
X1448717Y360391D01*
X1448736Y360417D01*
X1448763Y360504D01*
X1448797Y360589D01*
X1448801Y360630D01*
X1448808Y360652D01*
X1448807Y360684D01*
X1448815Y360755D01*
X1448815Y688124D01*
X1450594Y692419D01*
X1473992Y715817D01*
X1474045Y715891D01*
X1474105Y715960D01*
X1474117Y715991D01*
X1474136Y716017D01*
X1474163Y716104D01*
X1474197Y716189D01*
X1474201Y716230D01*
X1474208Y716252D01*
X1474207Y716284D01*
X1474215Y716355D01*
X1474215Y902895D01*
X1474201Y902985D01*
X1474193Y903076D01*
X1474181Y903106D01*
X1474176Y903137D01*
X1474133Y903218D01*
X1474097Y903302D01*
X1474071Y903334D01*
X1474060Y903355D01*
X1474037Y903377D01*
X1473992Y903433D01*
X1428620Y948805D01*
X1428562Y948847D01*
X1428510Y948896D01*
X1428463Y948918D01*
X1428421Y948949D01*
X1428352Y948970D01*
X1428287Y949000D01*
X1428235Y949006D01*
X1428185Y949021D01*
X1428114Y949019D01*
X1428043Y949027D01*
X1427992Y949016D01*
X1427940Y949015D01*
X1427872Y948990D01*
X1427802Y948975D01*
X1427758Y948948D01*
X1427709Y948930D01*
X1427653Y948885D01*
X1427591Y948849D01*
X1427557Y948809D01*
X1427517Y948776D01*
X1427478Y948716D01*
X1427431Y948662D01*
X1427412Y948613D01*
X1427384Y948570D01*
X1427366Y948500D01*
X1427339Y948433D01*
X1427331Y948362D01*
X1427323Y948331D01*
X1427325Y948308D01*
X1427321Y948267D01*
X1427321Y945369D01*
X1427335Y945279D01*
X1427343Y945188D01*
X1427355Y945159D01*
X1427360Y945127D01*
X1427403Y945046D01*
X1427439Y944962D01*
X1427465Y944930D01*
X1427476Y944909D01*
X1427499Y944887D01*
X1427544Y944831D01*
X1470406Y901969D01*
X1472185Y897674D01*
X1472185Y785076D01*
X1470406Y780781D01*
X1441719Y752094D01*
X1437424Y750315D01*
X1300555Y750315D01*
X1300465Y750301D01*
X1300374Y750293D01*
X1300345Y750281D01*
X1300313Y750276D01*
X1300232Y750233D01*
X1300148Y750197D01*
X1300116Y750171D01*
X1300095Y750160D01*
X1300073Y750137D01*
X1300017Y750092D01*
X1164433Y614508D01*
X1164380Y614434D01*
X1164320Y614365D01*
X1164308Y614334D01*
X1164289Y614308D01*
X1164262Y614221D01*
X1164228Y614136D01*
X1164224Y614095D01*
X1164217Y614073D01*
X1164218Y614041D01*
X1164210Y613970D01*
X1164210Y548080D01*
X1164224Y547990D01*
X1164232Y547899D01*
X1164244Y547870D01*
X1164249Y547838D01*
X1164292Y547757D01*
X1164328Y547673D01*
X1164354Y547641D01*
X1164365Y547620D01*
X1164388Y547598D01*
X1164433Y547542D01*
X1165606Y546369D01*
X1167385Y542074D01*
X1167385Y505845D01*
X1167399Y505755D01*
X1167407Y505664D01*
X1167419Y505634D01*
X1167424Y505602D01*
X1167467Y505521D01*
X1167503Y505438D01*
X1167529Y505405D01*
X1167540Y505385D01*
X1167563Y505363D01*
X1167608Y505307D01*
X1167862Y505053D01*
X1167878Y505041D01*
X1167890Y505025D01*
X1167978Y504969D01*
X1168061Y504909D01*
X1168081Y504903D01*
X1168097Y504892D01*
X1168198Y504867D01*
X1168297Y504837D01*
X1168317Y504837D01*
X1168336Y504832D01*
X1168439Y504840D01*
X1168542Y504843D01*
X1168561Y504850D01*
X1168581Y504851D01*
X1168676Y504892D01*
X1168773Y504927D01*
X1168789Y504940D01*
X1168807Y504948D01*
X1168938Y505053D01*
X1169192Y505307D01*
X1169245Y505381D01*
X1169305Y505450D01*
X1169317Y505480D01*
X1169336Y505506D01*
X1169363Y505593D01*
X1169397Y505678D01*
X1169401Y505719D01*
X1169408Y505741D01*
X1169407Y505774D01*
X1169415Y505845D01*
X1169415Y529374D01*
X1171194Y533669D01*
X1199881Y562356D01*
X1204176Y564135D01*
X1385739Y564135D01*
X1385829Y564149D01*
X1385920Y564157D01*
X1385950Y564169D01*
X1385982Y564174D01*
X1386062Y564217D01*
X1386146Y564253D01*
X1386178Y564279D01*
X1386199Y564290D01*
X1386221Y564313D01*
X1386277Y564358D01*
X1387222Y565303D01*
X1392794Y567611D01*
X1413906Y567611D01*
X1419478Y565303D01*
X1423743Y561038D01*
X1426051Y555466D01*
X1426051Y549434D01*
X1423743Y543862D01*
X1419478Y539597D01*
X1413906Y537289D01*
X1392794Y537289D01*
X1387222Y539597D01*
X1386277Y540542D01*
X1386203Y540595D01*
X1386134Y540655D01*
X1386104Y540667D01*
X1386077Y540686D01*
X1385990Y540713D01*
X1385906Y540747D01*
X1385865Y540751D01*
X1385842Y540758D01*
X1385810Y540757D01*
X1385739Y540765D01*
X1211655Y540765D01*
X1211565Y540751D01*
X1211474Y540743D01*
X1211445Y540731D01*
X1211413Y540726D01*
X1211332Y540683D01*
X1211248Y540647D01*
X1211216Y540621D01*
X1211195Y540610D01*
X1211173Y540587D01*
X1211117Y540542D01*
X1193008Y522433D01*
X1192955Y522359D01*
X1192895Y522290D01*
X1192883Y522259D01*
X1192864Y522233D01*
X1192837Y522146D01*
X1192803Y522061D01*
X1192799Y522020D01*
X1192792Y521998D01*
X1192793Y521966D01*
X1192785Y521895D01*
X1192785Y505845D01*
X1192799Y505755D01*
X1192807Y505664D01*
X1192819Y505634D01*
X1192824Y505602D01*
X1192867Y505521D01*
X1192903Y505438D01*
X1192929Y505405D01*
X1192940Y505385D01*
X1192963Y505363D01*
X1193008Y505307D01*
X1193262Y505053D01*
X1193278Y505041D01*
X1193290Y505025D01*
X1193378Y504969D01*
X1193461Y504909D01*
X1193480Y504903D01*
X1193497Y504892D01*
X1193598Y504867D01*
X1193697Y504837D01*
X1193716Y504837D01*
X1193736Y504832D01*
X1193839Y504840D01*
X1193942Y504843D01*
X1193961Y504850D01*
X1193981Y504851D01*
X1194076Y504892D01*
X1194173Y504927D01*
X1194189Y504940D01*
X1194207Y504948D01*
X1194338Y505053D01*
X1197722Y508437D01*
X1203418Y510796D01*
X1209582Y510796D01*
X1215278Y508437D01*
X1218662Y505053D01*
X1218678Y505041D01*
X1218690Y505025D01*
X1218778Y504969D01*
X1218861Y504909D01*
X1218880Y504903D01*
X1218897Y504892D01*
X1218998Y504867D01*
X1219097Y504837D01*
X1219116Y504837D01*
X1219136Y504832D01*
X1219239Y504840D01*
X1219342Y504843D01*
X1219361Y504850D01*
X1219381Y504851D01*
X1219476Y504892D01*
X1219573Y504927D01*
X1219589Y504940D01*
X1219607Y504948D01*
X1219738Y505053D01*
X1223122Y508437D01*
X1228818Y510796D01*
X1234982Y510796D01*
X1240678Y508437D01*
X1244062Y505053D01*
X1244078Y505041D01*
X1244090Y505025D01*
X1244178Y504969D01*
X1244261Y504909D01*
X1244280Y504903D01*
X1244297Y504892D01*
X1244398Y504867D01*
X1244497Y504837D01*
X1244516Y504837D01*
X1244536Y504832D01*
X1244639Y504840D01*
X1244742Y504843D01*
X1244761Y504850D01*
X1244781Y504851D01*
X1244876Y504892D01*
X1244973Y504927D01*
X1244989Y504940D01*
X1245007Y504948D01*
X1245138Y505053D01*
X1248522Y508437D01*
X1254218Y510796D01*
X1260382Y510796D01*
X1266078Y508437D01*
X1269462Y505053D01*
X1269478Y505041D01*
X1269490Y505025D01*
X1269578Y504969D01*
X1269661Y504909D01*
X1269680Y504903D01*
X1269697Y504892D01*
X1269798Y504867D01*
X1269897Y504837D01*
X1269916Y504837D01*
X1269936Y504832D01*
X1270039Y504840D01*
X1270142Y504843D01*
X1270161Y504850D01*
X1270181Y504851D01*
X1270276Y504892D01*
X1270373Y504927D01*
X1270389Y504940D01*
X1270407Y504948D01*
X1270538Y505053D01*
X1273922Y508437D01*
X1279618Y510796D01*
X1285782Y510796D01*
X1291478Y508437D01*
X1295837Y504078D01*
X1298196Y498382D01*
X1298196Y492218D01*
X1295837Y486522D01*
X1291478Y482163D01*
X1285782Y479804D01*
X1279618Y479804D01*
X1273922Y482163D01*
X1270538Y485547D01*
X1270522Y485559D01*
X1270510Y485575D01*
X1270422Y485631D01*
X1270339Y485691D01*
X1270320Y485697D01*
X1270303Y485708D01*
X1270202Y485733D01*
X1270103Y485763D01*
X1270084Y485763D01*
X1270064Y485768D01*
X1269961Y485760D01*
X1269858Y485757D01*
X1269839Y485750D01*
X1269819Y485749D01*
X1269724Y485708D01*
X1269627Y485673D01*
X1269611Y485660D01*
X1269593Y485652D01*
X1269462Y485547D01*
X1266078Y482163D01*
X1260382Y479804D01*
X1254218Y479804D01*
X1248522Y482163D01*
X1245138Y485547D01*
X1245122Y485559D01*
X1245110Y485575D01*
X1245022Y485631D01*
X1244939Y485691D01*
X1244920Y485697D01*
X1244903Y485708D01*
X1244802Y485733D01*
X1244703Y485763D01*
X1244684Y485763D01*
X1244664Y485768D01*
X1244561Y485760D01*
X1244458Y485757D01*
X1244439Y485750D01*
X1244419Y485749D01*
X1244324Y485708D01*
X1244227Y485673D01*
X1244211Y485660D01*
X1244193Y485652D01*
X1244062Y485547D01*
X1240678Y482163D01*
X1234982Y479804D01*
X1228818Y479804D01*
X1223122Y482163D01*
X1219738Y485547D01*
X1219722Y485559D01*
X1219710Y485575D01*
X1219622Y485631D01*
X1219539Y485691D01*
X1219520Y485697D01*
X1219503Y485708D01*
X1219402Y485733D01*
X1219303Y485763D01*
X1219284Y485763D01*
X1219264Y485768D01*
X1219161Y485760D01*
X1219058Y485757D01*
X1219039Y485750D01*
X1219019Y485749D01*
X1218924Y485708D01*
X1218827Y485673D01*
X1218811Y485660D01*
X1218793Y485652D01*
X1218662Y485547D01*
X1215278Y482163D01*
X1209582Y479804D01*
X1203418Y479804D01*
X1197722Y482163D01*
X1194338Y485547D01*
X1194322Y485559D01*
X1194310Y485575D01*
X1194222Y485631D01*
X1194139Y485691D01*
X1194120Y485697D01*
X1194103Y485708D01*
X1194002Y485733D01*
X1193903Y485763D01*
X1193884Y485763D01*
X1193864Y485768D01*
X1193761Y485760D01*
X1193658Y485757D01*
X1193639Y485750D01*
X1193619Y485749D01*
X1193524Y485708D01*
X1193427Y485673D01*
X1193411Y485660D01*
X1193393Y485652D01*
X1193262Y485547D01*
X1189878Y482163D01*
X1184182Y479804D01*
X1178018Y479804D01*
X1172322Y482163D01*
X1168938Y485547D01*
X1168922Y485559D01*
X1168910Y485575D01*
X1168822Y485631D01*
X1168739Y485691D01*
X1168720Y485697D01*
X1168703Y485708D01*
X1168602Y485733D01*
X1168503Y485763D01*
X1168484Y485763D01*
X1168464Y485768D01*
X1168361Y485760D01*
X1168258Y485757D01*
X1168239Y485750D01*
X1168219Y485749D01*
X1168124Y485708D01*
X1168027Y485673D01*
X1168011Y485660D01*
X1167993Y485652D01*
X1167862Y485547D01*
X1164478Y482163D01*
X1158782Y479804D01*
X1152618Y479804D01*
X1146922Y482163D01*
X1143538Y485547D01*
X1143522Y485559D01*
X1143510Y485575D01*
X1143422Y485631D01*
X1143339Y485691D01*
X1143320Y485697D01*
X1143303Y485708D01*
X1143202Y485733D01*
X1143103Y485763D01*
X1143084Y485763D01*
X1143064Y485768D01*
X1142961Y485760D01*
X1142858Y485757D01*
X1142839Y485750D01*
X1142819Y485749D01*
X1142724Y485708D01*
X1142627Y485673D01*
X1142611Y485660D01*
X1142593Y485652D01*
X1142462Y485547D01*
X1139078Y482163D01*
X1133382Y479804D01*
X1127218Y479804D01*
X1121522Y482163D01*
X1117163Y486522D01*
X1115533Y490459D01*
X1115510Y490495D01*
X1115497Y490535D01*
X1115446Y490599D01*
X1115403Y490668D01*
X1115371Y490695D01*
X1115345Y490728D01*
X1115277Y490773D01*
X1115214Y490825D01*
X1115174Y490840D01*
X1115139Y490863D01*
X1115060Y490884D01*
X1114984Y490913D01*
X1114942Y490915D01*
X1114901Y490926D01*
X1114820Y490920D01*
X1114738Y490924D01*
X1114698Y490912D01*
X1114656Y490909D01*
X1114581Y490878D01*
X1114502Y490855D01*
X1114467Y490831D01*
X1114429Y490815D01*
X1114367Y490762D01*
X1114300Y490715D01*
X1114275Y490681D01*
X1114243Y490654D01*
X1114158Y490524D01*
X1114153Y490518D01*
X1114153Y490516D01*
X1114151Y490514D01*
X1113808Y489841D01*
X1112845Y488515D01*
X1111685Y487355D01*
X1110359Y486392D01*
X1108898Y485647D01*
X1107339Y485141D01*
X1106423Y484996D01*
X1106423Y494538D01*
X1106420Y494558D01*
X1106422Y494577D01*
X1106400Y494679D01*
X1106383Y494781D01*
X1106374Y494798D01*
X1106370Y494818D01*
X1106317Y494907D01*
X1106268Y494998D01*
X1106254Y495012D01*
X1106244Y495029D01*
X1106165Y495096D01*
X1106090Y495167D01*
X1106072Y495176D01*
X1106057Y495189D01*
X1105961Y495227D01*
X1105867Y495271D01*
X1105847Y495273D01*
X1105829Y495281D01*
X1105662Y495299D01*
X1104899Y495299D01*
X1104899Y495301D01*
X1105662Y495301D01*
X1105682Y495304D01*
X1105701Y495302D01*
X1105803Y495324D01*
X1105905Y495341D01*
X1105922Y495350D01*
X1105942Y495354D01*
X1106031Y495407D01*
X1106122Y495456D01*
X1106136Y495470D01*
X1106153Y495480D01*
X1106220Y495559D01*
X1106291Y495634D01*
X1106300Y495652D01*
X1106313Y495667D01*
X1106352Y495763D01*
X1106395Y495857D01*
X1106397Y495877D01*
X1106405Y495895D01*
X1106423Y496062D01*
X1106423Y505604D01*
X1107339Y505459D01*
X1108898Y504953D01*
X1110359Y504208D01*
X1111685Y503245D01*
X1112845Y502085D01*
X1113808Y500759D01*
X1114151Y500086D01*
X1114176Y500053D01*
X1114193Y500014D01*
X1114228Y499977D01*
X1114241Y499955D01*
X1114260Y499938D01*
X1114297Y499888D01*
X1114331Y499864D01*
X1114359Y499833D01*
X1114425Y499797D01*
X1114427Y499795D01*
X1114432Y499793D01*
X1114498Y499747D01*
X1114538Y499735D01*
X1114575Y499715D01*
X1114655Y499700D01*
X1114734Y499677D01*
X1114776Y499678D01*
X1114817Y499671D01*
X1114898Y499683D01*
X1114979Y499686D01*
X1115019Y499701D01*
X1115060Y499707D01*
X1115133Y499744D01*
X1115210Y499773D01*
X1115242Y499799D01*
X1115280Y499818D01*
X1115337Y499876D01*
X1115400Y499928D01*
X1115422Y499964D01*
X1115452Y499994D01*
X1115526Y500129D01*
X1115531Y500137D01*
X1115531Y500138D01*
X1115533Y500141D01*
X1117163Y504078D01*
X1118392Y505307D01*
X1118445Y505381D01*
X1118505Y505450D01*
X1118517Y505480D01*
X1118536Y505506D01*
X1118563Y505593D01*
X1118597Y505678D01*
X1118601Y505719D01*
X1118608Y505741D01*
X1118607Y505774D01*
X1118615Y505845D01*
X1118615Y521895D01*
X1118601Y521985D01*
X1118593Y522076D01*
X1118581Y522105D01*
X1118576Y522137D01*
X1118533Y522218D01*
X1118497Y522302D01*
X1118471Y522334D01*
X1118460Y522355D01*
X1118437Y522377D01*
X1118392Y522433D01*
X1106633Y534192D01*
X1106559Y534245D01*
X1106490Y534305D01*
X1106459Y534317D01*
X1106433Y534336D01*
X1106346Y534363D01*
X1106261Y534397D01*
X1106220Y534401D01*
X1106198Y534408D01*
X1106166Y534407D01*
X1106095Y534415D01*
X976705Y534415D01*
X976615Y534401D01*
X976524Y534393D01*
X976495Y534381D01*
X976463Y534376D01*
X976382Y534333D01*
X976298Y534297D01*
X976266Y534271D01*
X976245Y534260D01*
X976223Y534237D01*
X976167Y534192D01*
X958058Y516083D01*
X958005Y516009D01*
X957945Y515940D01*
X957933Y515909D01*
X957914Y515883D01*
X957887Y515796D01*
X957853Y515711D01*
X957849Y515670D01*
X957842Y515648D01*
X957843Y515616D01*
X957835Y515545D01*
X957835Y505415D01*
X957849Y505325D01*
X957857Y505234D01*
X957869Y505205D01*
X957874Y505173D01*
X957917Y505092D01*
X957953Y505008D01*
X957979Y504976D01*
X957990Y504955D01*
X958013Y504933D01*
X958058Y504877D01*
X958070Y504865D01*
X958147Y504680D01*
X958185Y504619D01*
X958214Y504553D01*
X958249Y504515D01*
X958276Y504471D01*
X958332Y504425D01*
X958380Y504372D01*
X958426Y504347D01*
X958466Y504314D01*
X958533Y504288D01*
X958596Y504254D01*
X958647Y504244D01*
X958695Y504226D01*
X958767Y504223D01*
X958838Y504210D01*
X958889Y504218D01*
X958941Y504215D01*
X959010Y504235D01*
X959081Y504246D01*
X959127Y504269D01*
X959177Y504284D01*
X959236Y504325D01*
X959300Y504357D01*
X959337Y504394D01*
X959379Y504424D01*
X959422Y504482D01*
X959472Y504533D01*
X959507Y504596D01*
X959526Y504622D01*
X959533Y504644D01*
X959553Y504680D01*
X959630Y504865D01*
X963585Y508820D01*
X968753Y510961D01*
X974347Y510961D01*
X979515Y508820D01*
X983470Y504865D01*
X985611Y499697D01*
X985611Y494103D01*
X983470Y488935D01*
X979515Y484980D01*
X974347Y482839D01*
X968753Y482839D01*
X963585Y484980D01*
X959630Y488935D01*
X959553Y489120D01*
X959516Y489181D01*
X959486Y489247D01*
X959451Y489285D01*
X959424Y489329D01*
X959368Y489375D01*
X959320Y489428D01*
X959274Y489453D01*
X959234Y489486D01*
X959167Y489512D01*
X959104Y489546D01*
X959053Y489556D01*
X959005Y489574D01*
X958933Y489577D01*
X958862Y489590D01*
X958811Y489582D01*
X958759Y489585D01*
X958690Y489565D01*
X958619Y489554D01*
X958573Y489531D01*
X958523Y489516D01*
X958464Y489475D01*
X958400Y489443D01*
X958363Y489406D01*
X958321Y489376D01*
X958278Y489318D01*
X958228Y489267D01*
X958193Y489204D01*
X958174Y489179D01*
X958167Y489156D01*
X958147Y489120D01*
X958070Y488935D01*
X958058Y488923D01*
X958005Y488849D01*
X957945Y488779D01*
X957933Y488749D01*
X957914Y488723D01*
X957887Y488636D01*
X957853Y488551D01*
X957849Y488510D01*
X957842Y488488D01*
X957843Y488456D01*
X957835Y488385D01*
X957835Y480276D01*
X956056Y475981D01*
X933719Y453644D01*
X929424Y451865D01*
X861276Y451865D01*
X856981Y453644D01*
X840994Y469631D01*
X839215Y473926D01*
X839215Y520954D01*
X839212Y520974D01*
X839214Y520993D01*
X839192Y521095D01*
X839176Y521197D01*
X839166Y521214D01*
X839162Y521234D01*
X839109Y521323D01*
X839060Y521414D01*
X839046Y521428D01*
X839036Y521445D01*
X838957Y521512D01*
X838882Y521584D01*
X838864Y521592D01*
X838849Y521605D01*
X838753Y521644D01*
X838659Y521687D01*
X838639Y521689D01*
X838621Y521697D01*
X838454Y521715D01*
X798905Y521715D01*
X798815Y521701D01*
X798724Y521693D01*
X798694Y521681D01*
X798663Y521676D01*
X798582Y521633D01*
X798498Y521597D01*
X798466Y521571D01*
X798445Y521560D01*
X798423Y521537D01*
X798367Y521492D01*
X786608Y509733D01*
X786555Y509659D01*
X786495Y509590D01*
X786483Y509559D01*
X786464Y509533D01*
X786437Y509446D01*
X786403Y509361D01*
X786399Y509320D01*
X786392Y509298D01*
X786393Y509266D01*
X786385Y509195D01*
X786385Y467576D01*
X784606Y463281D01*
X697708Y376383D01*
X697655Y376309D01*
X697595Y376240D01*
X697583Y376209D01*
X697564Y376183D01*
X697537Y376096D01*
X697503Y376011D01*
X697499Y375970D01*
X697492Y375948D01*
X697493Y375916D01*
X697485Y375845D01*
X697485Y357754D01*
X697499Y357664D01*
X697507Y357573D01*
X697519Y357543D01*
X697524Y357511D01*
X697567Y357431D01*
X697603Y357347D01*
X697629Y357315D01*
X697640Y357294D01*
X697663Y357272D01*
X697708Y357216D01*
X701520Y353404D01*
X704343Y346588D01*
X704343Y339212D01*
X701520Y332396D01*
X699608Y330484D01*
X699566Y330426D01*
X699516Y330374D01*
X699494Y330327D01*
X699464Y330285D01*
X699443Y330216D01*
X699413Y330151D01*
X699407Y330099D01*
X699392Y330049D01*
X699394Y329978D01*
X699386Y329907D01*
X699397Y329856D01*
X699398Y329804D01*
X699423Y329736D01*
X699438Y329666D01*
X699465Y329621D01*
X699483Y329573D01*
X699527Y329517D01*
X699564Y329455D01*
X699604Y329421D01*
X699636Y329381D01*
X699697Y329342D01*
X699751Y329295D01*
X699799Y329276D01*
X699843Y329248D01*
X699913Y329230D01*
X699979Y329203D01*
X700051Y329195D01*
X700082Y329187D01*
X700105Y329189D01*
X700146Y329185D01*
X721454Y329185D01*
X721525Y329196D01*
G37*
G36*
X598917Y456196D02*
X598917Y456196D01*
X598989Y456198D01*
X599038Y456216D01*
X599089Y456224D01*
X599152Y456258D01*
X599220Y456283D01*
X599260Y456315D01*
X599306Y456340D01*
X599356Y456392D01*
X599412Y456436D01*
X599440Y456480D01*
X599476Y456518D01*
X599506Y456583D01*
X599545Y456643D01*
X599557Y456694D01*
X599579Y456741D01*
X599587Y456812D01*
X599605Y456882D01*
X599601Y456934D01*
X599606Y456985D01*
X599591Y457056D01*
X599586Y457127D01*
X599565Y457175D01*
X599554Y457226D01*
X599517Y457287D01*
X599489Y457353D01*
X599444Y457409D01*
X599428Y457437D01*
X599410Y457452D01*
X599384Y457484D01*
X596034Y460835D01*
X593597Y466717D01*
X593597Y473083D01*
X596034Y478965D01*
X599130Y482062D01*
X599142Y482078D01*
X599158Y482090D01*
X599214Y482178D01*
X599274Y482261D01*
X599280Y482280D01*
X599291Y482297D01*
X599316Y482398D01*
X599346Y482497D01*
X599346Y482516D01*
X599351Y482536D01*
X599343Y482639D01*
X599340Y482742D01*
X599333Y482761D01*
X599332Y482781D01*
X599291Y482876D01*
X599256Y482973D01*
X599243Y482989D01*
X599235Y483007D01*
X599130Y483138D01*
X596034Y486235D01*
X593597Y492117D01*
X593597Y498483D01*
X596034Y504365D01*
X599130Y507462D01*
X599142Y507478D01*
X599158Y507490D01*
X599214Y507578D01*
X599274Y507661D01*
X599280Y507680D01*
X599291Y507697D01*
X599316Y507798D01*
X599346Y507897D01*
X599346Y507916D01*
X599351Y507936D01*
X599343Y508039D01*
X599340Y508142D01*
X599333Y508161D01*
X599332Y508181D01*
X599291Y508276D01*
X599256Y508373D01*
X599243Y508389D01*
X599235Y508407D01*
X599130Y508538D01*
X596034Y511635D01*
X593597Y517517D01*
X593597Y523883D01*
X596034Y529765D01*
X599130Y532862D01*
X599142Y532878D01*
X599158Y532890D01*
X599214Y532978D01*
X599274Y533061D01*
X599280Y533080D01*
X599291Y533097D01*
X599316Y533198D01*
X599346Y533297D01*
X599346Y533316D01*
X599351Y533336D01*
X599343Y533439D01*
X599340Y533542D01*
X599333Y533561D01*
X599332Y533581D01*
X599291Y533676D01*
X599256Y533773D01*
X599243Y533789D01*
X599235Y533807D01*
X599130Y533938D01*
X596034Y537035D01*
X593597Y542917D01*
X593597Y549283D01*
X596034Y555165D01*
X599130Y558262D01*
X599142Y558278D01*
X599158Y558290D01*
X599214Y558378D01*
X599274Y558461D01*
X599280Y558480D01*
X599291Y558497D01*
X599316Y558598D01*
X599346Y558697D01*
X599346Y558716D01*
X599351Y558736D01*
X599343Y558839D01*
X599340Y558942D01*
X599333Y558961D01*
X599332Y558981D01*
X599291Y559076D01*
X599256Y559173D01*
X599243Y559189D01*
X599235Y559207D01*
X599130Y559338D01*
X596034Y562435D01*
X593597Y568317D01*
X593597Y574683D01*
X596034Y580565D01*
X599130Y583662D01*
X599142Y583678D01*
X599158Y583690D01*
X599188Y583737D01*
X599205Y583755D01*
X599218Y583784D01*
X599274Y583861D01*
X599280Y583880D01*
X599291Y583897D01*
X599316Y583998D01*
X599346Y584097D01*
X599346Y584116D01*
X599351Y584136D01*
X599343Y584239D01*
X599340Y584342D01*
X599333Y584361D01*
X599332Y584381D01*
X599291Y584476D01*
X599256Y584573D01*
X599243Y584589D01*
X599235Y584607D01*
X599130Y584738D01*
X596034Y587835D01*
X593597Y593717D01*
X593597Y600083D01*
X596034Y605965D01*
X599130Y609062D01*
X599142Y609078D01*
X599158Y609090D01*
X599214Y609178D01*
X599274Y609261D01*
X599280Y609280D01*
X599291Y609297D01*
X599316Y609398D01*
X599346Y609497D01*
X599346Y609516D01*
X599351Y609536D01*
X599343Y609639D01*
X599340Y609742D01*
X599333Y609761D01*
X599332Y609781D01*
X599291Y609876D01*
X599256Y609973D01*
X599243Y609989D01*
X599235Y610007D01*
X599130Y610138D01*
X596034Y613235D01*
X593597Y619117D01*
X593597Y625483D01*
X596034Y631365D01*
X599130Y634462D01*
X599142Y634478D01*
X599158Y634490D01*
X599214Y634578D01*
X599274Y634661D01*
X599280Y634680D01*
X599291Y634697D01*
X599316Y634798D01*
X599346Y634897D01*
X599346Y634916D01*
X599351Y634936D01*
X599343Y635039D01*
X599340Y635142D01*
X599333Y635161D01*
X599332Y635181D01*
X599291Y635276D01*
X599256Y635373D01*
X599243Y635389D01*
X599235Y635407D01*
X599130Y635538D01*
X596034Y638635D01*
X593597Y644517D01*
X593597Y650883D01*
X596034Y656765D01*
X599130Y659862D01*
X599142Y659878D01*
X599158Y659890D01*
X599214Y659978D01*
X599274Y660061D01*
X599280Y660080D01*
X599291Y660097D01*
X599316Y660198D01*
X599346Y660297D01*
X599346Y660316D01*
X599351Y660336D01*
X599343Y660439D01*
X599340Y660542D01*
X599333Y660561D01*
X599332Y660581D01*
X599291Y660676D01*
X599256Y660773D01*
X599243Y660789D01*
X599235Y660807D01*
X599130Y660938D01*
X596034Y664035D01*
X593597Y669917D01*
X593597Y676283D01*
X596034Y682165D01*
X599130Y685262D01*
X599142Y685278D01*
X599158Y685290D01*
X599214Y685378D01*
X599274Y685461D01*
X599280Y685480D01*
X599291Y685497D01*
X599316Y685598D01*
X599346Y685697D01*
X599346Y685716D01*
X599351Y685736D01*
X599343Y685839D01*
X599340Y685942D01*
X599333Y685961D01*
X599332Y685981D01*
X599291Y686076D01*
X599256Y686173D01*
X599243Y686189D01*
X599235Y686207D01*
X599130Y686338D01*
X596034Y689435D01*
X593597Y695317D01*
X593597Y701683D01*
X596034Y707565D01*
X599130Y710662D01*
X599142Y710678D01*
X599158Y710690D01*
X599214Y710778D01*
X599274Y710861D01*
X599280Y710880D01*
X599291Y710897D01*
X599316Y710998D01*
X599346Y711097D01*
X599346Y711116D01*
X599351Y711136D01*
X599343Y711239D01*
X599340Y711342D01*
X599333Y711361D01*
X599332Y711381D01*
X599291Y711476D01*
X599256Y711573D01*
X599243Y711589D01*
X599235Y711607D01*
X599130Y711738D01*
X596034Y714835D01*
X593597Y720717D01*
X593597Y727083D01*
X596034Y732965D01*
X599130Y736062D01*
X599142Y736078D01*
X599158Y736090D01*
X599214Y736178D01*
X599274Y736261D01*
X599280Y736280D01*
X599291Y736297D01*
X599316Y736398D01*
X599346Y736497D01*
X599346Y736516D01*
X599351Y736536D01*
X599343Y736639D01*
X599340Y736742D01*
X599333Y736761D01*
X599332Y736781D01*
X599291Y736876D01*
X599256Y736973D01*
X599243Y736989D01*
X599235Y737007D01*
X599130Y737138D01*
X596034Y740235D01*
X593597Y746117D01*
X593597Y752483D01*
X596034Y758365D01*
X600535Y762866D01*
X603591Y764132D01*
X603680Y764187D01*
X603772Y764239D01*
X603784Y764252D01*
X603800Y764262D01*
X603867Y764343D01*
X603938Y764421D01*
X603945Y764437D01*
X603957Y764451D01*
X603994Y764549D01*
X604037Y764646D01*
X604038Y764664D01*
X604045Y764681D01*
X604049Y764786D01*
X604059Y764891D01*
X604054Y764908D01*
X604055Y764927D01*
X604026Y765028D01*
X604001Y765130D01*
X603992Y765145D01*
X603987Y765163D01*
X603927Y765249D01*
X603871Y765338D01*
X603854Y765353D01*
X603846Y765365D01*
X603821Y765384D01*
X603747Y765451D01*
X602484Y766369D01*
X601269Y767584D01*
X600258Y768975D01*
X599478Y770507D01*
X598946Y772142D01*
X598782Y773177D01*
X608838Y773177D01*
X608858Y773180D01*
X608877Y773178D01*
X608979Y773200D01*
X609081Y773217D01*
X609098Y773226D01*
X609118Y773230D01*
X609207Y773283D01*
X609298Y773332D01*
X609312Y773346D01*
X609329Y773356D01*
X609396Y773435D01*
X609467Y773510D01*
X609476Y773528D01*
X609489Y773543D01*
X609527Y773639D01*
X609571Y773733D01*
X609573Y773753D01*
X609581Y773771D01*
X609599Y773938D01*
X609599Y775462D01*
X609596Y775482D01*
X609598Y775501D01*
X609576Y775603D01*
X609559Y775705D01*
X609550Y775722D01*
X609546Y775742D01*
X609493Y775831D01*
X609444Y775922D01*
X609430Y775936D01*
X609420Y775953D01*
X609341Y776020D01*
X609266Y776091D01*
X609248Y776100D01*
X609233Y776113D01*
X609137Y776152D01*
X609043Y776195D01*
X609023Y776197D01*
X609005Y776205D01*
X608838Y776223D01*
X598782Y776223D01*
X598946Y777258D01*
X599478Y778893D01*
X600258Y780425D01*
X601269Y781816D01*
X602484Y783031D01*
X603747Y783949D01*
X603821Y784024D01*
X603898Y784095D01*
X603907Y784111D01*
X603920Y784124D01*
X603966Y784218D01*
X604017Y784310D01*
X604020Y784328D01*
X604028Y784344D01*
X604042Y784449D01*
X604061Y784552D01*
X604058Y784570D01*
X604060Y784588D01*
X604040Y784691D01*
X604025Y784796D01*
X604017Y784812D01*
X604013Y784830D01*
X603961Y784921D01*
X603913Y785015D01*
X603900Y785028D01*
X603891Y785043D01*
X603813Y785113D01*
X603738Y785187D01*
X603718Y785198D01*
X603708Y785207D01*
X603679Y785219D01*
X603591Y785268D01*
X600535Y786534D01*
X596034Y791035D01*
X593597Y796917D01*
X593597Y803283D01*
X596034Y809165D01*
X599130Y812262D01*
X599142Y812278D01*
X599158Y812290D01*
X599214Y812378D01*
X599274Y812461D01*
X599280Y812480D01*
X599291Y812497D01*
X599316Y812598D01*
X599346Y812697D01*
X599346Y812716D01*
X599351Y812736D01*
X599343Y812839D01*
X599340Y812942D01*
X599333Y812961D01*
X599332Y812981D01*
X599291Y813076D01*
X599256Y813173D01*
X599243Y813189D01*
X599235Y813207D01*
X599130Y813338D01*
X596034Y816435D01*
X593597Y822317D01*
X593597Y828683D01*
X596034Y834565D01*
X599130Y837662D01*
X599142Y837678D01*
X599158Y837690D01*
X599214Y837778D01*
X599274Y837861D01*
X599280Y837880D01*
X599291Y837897D01*
X599316Y837998D01*
X599346Y838097D01*
X599346Y838116D01*
X599351Y838136D01*
X599343Y838239D01*
X599340Y838342D01*
X599333Y838361D01*
X599332Y838381D01*
X599291Y838476D01*
X599256Y838573D01*
X599243Y838589D01*
X599235Y838607D01*
X599130Y838738D01*
X596034Y841835D01*
X593597Y847717D01*
X593597Y854083D01*
X596034Y859965D01*
X599130Y863062D01*
X599142Y863078D01*
X599158Y863090D01*
X599214Y863178D01*
X599274Y863261D01*
X599280Y863280D01*
X599291Y863297D01*
X599316Y863398D01*
X599346Y863497D01*
X599346Y863516D01*
X599351Y863536D01*
X599343Y863639D01*
X599340Y863742D01*
X599333Y863761D01*
X599332Y863781D01*
X599291Y863876D01*
X599256Y863973D01*
X599243Y863989D01*
X599235Y864007D01*
X599130Y864138D01*
X596034Y867235D01*
X593597Y873117D01*
X593597Y879483D01*
X596034Y885365D01*
X599130Y888462D01*
X599142Y888478D01*
X599158Y888490D01*
X599214Y888578D01*
X599274Y888661D01*
X599280Y888680D01*
X599291Y888697D01*
X599316Y888798D01*
X599346Y888897D01*
X599346Y888916D01*
X599351Y888936D01*
X599343Y889039D01*
X599340Y889142D01*
X599333Y889161D01*
X599332Y889181D01*
X599291Y889276D01*
X599256Y889373D01*
X599243Y889389D01*
X599235Y889407D01*
X599130Y889538D01*
X596034Y892635D01*
X593597Y898517D01*
X593597Y904883D01*
X596034Y910765D01*
X600535Y915266D01*
X603591Y916532D01*
X603680Y916587D01*
X603772Y916639D01*
X603784Y916652D01*
X603800Y916662D01*
X603867Y916743D01*
X603938Y916821D01*
X603945Y916837D01*
X603957Y916851D01*
X603994Y916949D01*
X604037Y917046D01*
X604038Y917064D01*
X604045Y917081D01*
X604049Y917186D01*
X604059Y917291D01*
X604054Y917308D01*
X604055Y917327D01*
X604026Y917428D01*
X604001Y917530D01*
X603992Y917545D01*
X603987Y917563D01*
X603927Y917649D01*
X603871Y917738D01*
X603854Y917753D01*
X603846Y917765D01*
X603821Y917784D01*
X603747Y917851D01*
X602484Y918769D01*
X601269Y919984D01*
X600258Y921375D01*
X599478Y922907D01*
X598946Y924542D01*
X598782Y925577D01*
X608838Y925577D01*
X608858Y925580D01*
X608877Y925578D01*
X608979Y925600D01*
X609081Y925617D01*
X609098Y925626D01*
X609118Y925630D01*
X609207Y925683D01*
X609298Y925732D01*
X609312Y925746D01*
X609329Y925756D01*
X609396Y925835D01*
X609467Y925910D01*
X609476Y925928D01*
X609489Y925943D01*
X609527Y926039D01*
X609571Y926133D01*
X609573Y926153D01*
X609581Y926171D01*
X609599Y926338D01*
X609599Y927101D01*
X609601Y927101D01*
X609601Y926338D01*
X609604Y926318D01*
X609602Y926299D01*
X609624Y926197D01*
X609641Y926095D01*
X609650Y926078D01*
X609654Y926058D01*
X609707Y925969D01*
X609756Y925878D01*
X609770Y925864D01*
X609780Y925847D01*
X609859Y925780D01*
X609934Y925709D01*
X609952Y925700D01*
X609967Y925687D01*
X610063Y925648D01*
X610157Y925605D01*
X610177Y925603D01*
X610195Y925595D01*
X610362Y925577D01*
X620418Y925577D01*
X620254Y924542D01*
X619722Y922907D01*
X618942Y921375D01*
X617931Y919984D01*
X616716Y918769D01*
X615453Y917851D01*
X615379Y917776D01*
X615302Y917705D01*
X615293Y917689D01*
X615280Y917676D01*
X615234Y917582D01*
X615183Y917490D01*
X615180Y917472D01*
X615172Y917456D01*
X615158Y917351D01*
X615139Y917248D01*
X615142Y917230D01*
X615140Y917212D01*
X615160Y917109D01*
X615175Y917004D01*
X615183Y916988D01*
X615187Y916970D01*
X615239Y916879D01*
X615287Y916785D01*
X615300Y916772D01*
X615309Y916757D01*
X615387Y916687D01*
X615462Y916613D01*
X615482Y916602D01*
X615492Y916593D01*
X615521Y916581D01*
X615609Y916532D01*
X618665Y915266D01*
X623166Y910765D01*
X625603Y904883D01*
X625603Y898517D01*
X623166Y892635D01*
X620070Y889538D01*
X620058Y889522D01*
X620042Y889510D01*
X619986Y889423D01*
X619926Y889339D01*
X619920Y889320D01*
X619909Y889303D01*
X619884Y889202D01*
X619854Y889103D01*
X619854Y889084D01*
X619849Y889064D01*
X619857Y888961D01*
X619860Y888858D01*
X619867Y888839D01*
X619868Y888819D01*
X619909Y888724D01*
X619944Y888627D01*
X619957Y888611D01*
X619965Y888593D01*
X620070Y888462D01*
X620324Y888208D01*
X620398Y888155D01*
X620467Y888095D01*
X620497Y888083D01*
X620523Y888064D01*
X620610Y888037D01*
X620695Y888003D01*
X620736Y887999D01*
X620758Y887992D01*
X620791Y887993D01*
X620862Y887985D01*
X670904Y887985D01*
X671018Y888004D01*
X671135Y888021D01*
X671140Y888023D01*
X671146Y888024D01*
X671249Y888079D01*
X671354Y888132D01*
X671358Y888137D01*
X671364Y888140D01*
X671444Y888224D01*
X671526Y888308D01*
X671530Y888314D01*
X671533Y888318D01*
X671541Y888335D01*
X671607Y888455D01*
X672525Y890671D01*
X676509Y894655D01*
X681713Y896811D01*
X681851Y896811D01*
X681941Y896825D01*
X682032Y896833D01*
X682061Y896845D01*
X682093Y896850D01*
X682174Y896893D01*
X682258Y896929D01*
X682290Y896955D01*
X682311Y896966D01*
X682333Y896989D01*
X682389Y897034D01*
X683203Y897848D01*
X683272Y897943D01*
X683344Y898042D01*
X683345Y898045D01*
X683347Y898048D01*
X683382Y898161D01*
X683418Y898277D01*
X683418Y898280D01*
X683419Y898283D01*
X683416Y898404D01*
X683414Y898523D01*
X683413Y898525D01*
X683413Y898529D01*
X683371Y898643D01*
X683331Y898754D01*
X683329Y898757D01*
X683328Y898760D01*
X683253Y898853D01*
X683179Y898948D01*
X683177Y898949D01*
X683175Y898952D01*
X683073Y899017D01*
X682973Y899082D01*
X682970Y899083D01*
X682968Y899085D01*
X682957Y899087D01*
X682813Y899133D01*
X681881Y899318D01*
X680229Y900003D01*
X678741Y900997D01*
X677477Y902261D01*
X676483Y903749D01*
X675798Y905401D01*
X675574Y906527D01*
X683768Y906527D01*
X683788Y906530D01*
X683807Y906528D01*
X683909Y906550D01*
X684011Y906567D01*
X684028Y906576D01*
X684048Y906580D01*
X684137Y906633D01*
X684228Y906682D01*
X684242Y906696D01*
X684259Y906706D01*
X684326Y906785D01*
X684397Y906860D01*
X684406Y906878D01*
X684419Y906893D01*
X684457Y906989D01*
X684501Y907083D01*
X684503Y907103D01*
X684511Y907121D01*
X684529Y907288D01*
X684529Y908051D01*
X684531Y908051D01*
X684531Y907288D01*
X684534Y907268D01*
X684532Y907249D01*
X684554Y907147D01*
X684571Y907045D01*
X684580Y907028D01*
X684584Y907008D01*
X684637Y906919D01*
X684686Y906828D01*
X684700Y906814D01*
X684710Y906797D01*
X684789Y906730D01*
X684864Y906659D01*
X684882Y906650D01*
X684897Y906637D01*
X684993Y906598D01*
X685087Y906555D01*
X685107Y906553D01*
X685125Y906545D01*
X685292Y906527D01*
X693528Y906527D01*
X693593Y906537D01*
X693658Y906538D01*
X693738Y906561D01*
X693771Y906567D01*
X693788Y906576D01*
X693819Y906585D01*
X694906Y907035D01*
X803254Y907035D01*
X803277Y907039D01*
X803301Y907036D01*
X803398Y907058D01*
X803496Y907074D01*
X803518Y907086D01*
X803541Y907091D01*
X803626Y907143D01*
X803714Y907190D01*
X803730Y907207D01*
X803751Y907220D01*
X803815Y907296D01*
X803883Y907368D01*
X803893Y907390D01*
X803909Y907408D01*
X803945Y907501D01*
X803987Y907591D01*
X803989Y907615D01*
X803998Y907637D01*
X804003Y907737D01*
X804014Y907835D01*
X804009Y907859D01*
X804010Y907883D01*
X803983Y907979D01*
X803962Y908076D01*
X803949Y908096D01*
X803943Y908120D01*
X803886Y908202D01*
X803835Y908287D01*
X803817Y908303D01*
X803803Y908322D01*
X803724Y908382D01*
X803648Y908447D01*
X803626Y908456D01*
X803607Y908470D01*
X803451Y908531D01*
X801432Y909072D01*
X795467Y912516D01*
X790596Y917387D01*
X787152Y923352D01*
X785369Y930006D01*
X785369Y936894D01*
X787152Y943548D01*
X790596Y949513D01*
X795467Y954384D01*
X801432Y957828D01*
X803451Y958369D01*
X803473Y958379D01*
X803496Y958383D01*
X803584Y958429D01*
X803675Y958470D01*
X803692Y958486D01*
X803714Y958498D01*
X803782Y958570D01*
X803855Y958637D01*
X803866Y958658D01*
X803883Y958676D01*
X803925Y958766D01*
X803972Y958853D01*
X803977Y958877D01*
X803987Y958899D01*
X803998Y958998D01*
X804015Y959096D01*
X804011Y959120D01*
X804014Y959143D01*
X803993Y959240D01*
X803978Y959339D01*
X803967Y959360D01*
X803962Y959384D01*
X803911Y959469D01*
X803865Y959558D01*
X803848Y959574D01*
X803835Y959595D01*
X803760Y959660D01*
X803688Y959729D01*
X803667Y959739D01*
X803648Y959755D01*
X803556Y959792D01*
X803467Y959835D01*
X803443Y959838D01*
X803420Y959847D01*
X803254Y959865D01*
X727785Y959865D01*
X727695Y959851D01*
X727604Y959843D01*
X727575Y959831D01*
X727543Y959826D01*
X727462Y959783D01*
X727378Y959747D01*
X727346Y959721D01*
X727325Y959710D01*
X727303Y959687D01*
X727247Y959642D01*
X698914Y931309D01*
X698861Y931235D01*
X698801Y931166D01*
X698789Y931135D01*
X698770Y931109D01*
X698743Y931022D01*
X698709Y930937D01*
X698705Y930896D01*
X698698Y930874D01*
X698699Y930842D01*
X698691Y930771D01*
X698691Y930633D01*
X696535Y925429D01*
X692551Y921445D01*
X687347Y919289D01*
X681713Y919289D01*
X676509Y921445D01*
X672525Y925429D01*
X670369Y930633D01*
X670369Y930771D01*
X670355Y930861D01*
X670347Y930952D01*
X670335Y930981D01*
X670330Y931013D01*
X670287Y931094D01*
X670251Y931178D01*
X670225Y931210D01*
X670214Y931231D01*
X670191Y931253D01*
X670146Y931309D01*
X648163Y953292D01*
X648089Y953345D01*
X648020Y953405D01*
X647989Y953417D01*
X647963Y953436D01*
X647876Y953463D01*
X647791Y953497D01*
X647750Y953501D01*
X647728Y953508D01*
X647696Y953507D01*
X647625Y953515D01*
X583005Y953515D01*
X582915Y953501D01*
X582824Y953493D01*
X582795Y953481D01*
X582763Y953476D01*
X582682Y953433D01*
X582598Y953397D01*
X582566Y953371D01*
X582545Y953360D01*
X582523Y953337D01*
X582467Y953292D01*
X546369Y917194D01*
X542074Y915415D01*
X366862Y915415D01*
X366772Y915401D01*
X366681Y915393D01*
X366651Y915381D01*
X366619Y915376D01*
X366539Y915333D01*
X366454Y915297D01*
X366422Y915271D01*
X366402Y915260D01*
X366380Y915237D01*
X366324Y915192D01*
X366070Y914938D01*
X366058Y914922D01*
X366042Y914910D01*
X365986Y914822D01*
X365926Y914738D01*
X365920Y914720D01*
X365909Y914703D01*
X365884Y914602D01*
X365854Y914503D01*
X365854Y914484D01*
X365849Y914464D01*
X365857Y914361D01*
X365860Y914258D01*
X365867Y914239D01*
X365868Y914219D01*
X365909Y914124D01*
X365945Y914027D01*
X365957Y914011D01*
X365965Y913993D01*
X366070Y913862D01*
X369166Y910765D01*
X371603Y904883D01*
X371603Y898517D01*
X369166Y892635D01*
X366070Y889538D01*
X366058Y889522D01*
X366042Y889510D01*
X365986Y889422D01*
X365926Y889339D01*
X365920Y889320D01*
X365909Y889303D01*
X365884Y889202D01*
X365854Y889103D01*
X365854Y889084D01*
X365849Y889064D01*
X365857Y888961D01*
X365860Y888858D01*
X365867Y888839D01*
X365868Y888819D01*
X365909Y888724D01*
X365944Y888627D01*
X365957Y888611D01*
X365965Y888593D01*
X366070Y888462D01*
X369166Y885365D01*
X371603Y879483D01*
X371603Y873117D01*
X369166Y867235D01*
X366070Y864138D01*
X366058Y864122D01*
X366042Y864110D01*
X365986Y864022D01*
X365926Y863939D01*
X365920Y863920D01*
X365909Y863903D01*
X365884Y863802D01*
X365854Y863703D01*
X365854Y863684D01*
X365849Y863664D01*
X365857Y863561D01*
X365860Y863458D01*
X365867Y863439D01*
X365868Y863419D01*
X365909Y863324D01*
X365944Y863227D01*
X365957Y863211D01*
X365965Y863193D01*
X366070Y863062D01*
X369166Y859965D01*
X371603Y854083D01*
X371603Y847717D01*
X369166Y841835D01*
X366070Y838738D01*
X366058Y838722D01*
X366042Y838710D01*
X365986Y838622D01*
X365926Y838539D01*
X365920Y838520D01*
X365909Y838503D01*
X365884Y838402D01*
X365854Y838303D01*
X365854Y838284D01*
X365849Y838264D01*
X365857Y838161D01*
X365860Y838058D01*
X365867Y838039D01*
X365868Y838019D01*
X365909Y837924D01*
X365944Y837827D01*
X365957Y837811D01*
X365965Y837793D01*
X366070Y837662D01*
X369166Y834565D01*
X371603Y828683D01*
X371603Y822317D01*
X369166Y816435D01*
X366070Y813338D01*
X366058Y813322D01*
X366042Y813310D01*
X365986Y813222D01*
X365926Y813139D01*
X365920Y813120D01*
X365909Y813103D01*
X365884Y813002D01*
X365854Y812903D01*
X365854Y812884D01*
X365849Y812864D01*
X365857Y812761D01*
X365860Y812658D01*
X365867Y812639D01*
X365868Y812619D01*
X365909Y812524D01*
X365944Y812427D01*
X365957Y812411D01*
X365965Y812393D01*
X366070Y812262D01*
X369166Y809165D01*
X371603Y803283D01*
X371603Y796917D01*
X369166Y791035D01*
X366070Y787938D01*
X366058Y787922D01*
X366042Y787910D01*
X365986Y787822D01*
X365926Y787739D01*
X365920Y787720D01*
X365909Y787703D01*
X365884Y787602D01*
X365854Y787503D01*
X365854Y787484D01*
X365849Y787464D01*
X365857Y787361D01*
X365860Y787258D01*
X365867Y787239D01*
X365868Y787219D01*
X365909Y787124D01*
X365944Y787027D01*
X365957Y787011D01*
X365965Y786993D01*
X366070Y786862D01*
X369166Y783765D01*
X371603Y777883D01*
X371603Y771517D01*
X369166Y765635D01*
X366070Y762538D01*
X366058Y762522D01*
X366042Y762510D01*
X365986Y762422D01*
X365926Y762339D01*
X365920Y762320D01*
X365909Y762303D01*
X365884Y762202D01*
X365854Y762103D01*
X365854Y762084D01*
X365849Y762064D01*
X365857Y761961D01*
X365860Y761858D01*
X365867Y761839D01*
X365868Y761819D01*
X365909Y761724D01*
X365944Y761627D01*
X365957Y761611D01*
X365965Y761593D01*
X366070Y761462D01*
X369166Y758365D01*
X371603Y752483D01*
X371603Y746117D01*
X369166Y740235D01*
X366070Y737138D01*
X366058Y737122D01*
X366042Y737110D01*
X365986Y737022D01*
X365926Y736939D01*
X365920Y736920D01*
X365909Y736903D01*
X365884Y736802D01*
X365854Y736703D01*
X365854Y736684D01*
X365849Y736664D01*
X365857Y736561D01*
X365860Y736458D01*
X365867Y736439D01*
X365868Y736419D01*
X365909Y736324D01*
X365944Y736227D01*
X365957Y736211D01*
X365965Y736193D01*
X366070Y736062D01*
X369166Y732965D01*
X371603Y727083D01*
X371603Y720717D01*
X369166Y714835D01*
X366070Y711738D01*
X366058Y711722D01*
X366042Y711710D01*
X365986Y711622D01*
X365926Y711539D01*
X365920Y711520D01*
X365909Y711503D01*
X365884Y711402D01*
X365854Y711303D01*
X365854Y711284D01*
X365849Y711264D01*
X365857Y711161D01*
X365860Y711058D01*
X365867Y711039D01*
X365868Y711019D01*
X365909Y710924D01*
X365944Y710827D01*
X365957Y710811D01*
X365965Y710793D01*
X366070Y710662D01*
X369166Y707565D01*
X371603Y701683D01*
X371603Y695317D01*
X369166Y689435D01*
X366070Y686338D01*
X366058Y686322D01*
X366042Y686310D01*
X365986Y686222D01*
X365926Y686139D01*
X365920Y686120D01*
X365909Y686103D01*
X365884Y686002D01*
X365854Y685903D01*
X365854Y685884D01*
X365849Y685864D01*
X365857Y685761D01*
X365860Y685658D01*
X365867Y685639D01*
X365868Y685619D01*
X365909Y685524D01*
X365944Y685427D01*
X365957Y685411D01*
X365965Y685393D01*
X366070Y685262D01*
X369166Y682165D01*
X371603Y676283D01*
X371603Y669917D01*
X369166Y664035D01*
X366070Y660938D01*
X366058Y660922D01*
X366042Y660910D01*
X365986Y660822D01*
X365926Y660739D01*
X365920Y660720D01*
X365909Y660703D01*
X365884Y660602D01*
X365854Y660503D01*
X365854Y660484D01*
X365849Y660464D01*
X365857Y660361D01*
X365860Y660258D01*
X365867Y660239D01*
X365868Y660219D01*
X365909Y660124D01*
X365944Y660027D01*
X365957Y660011D01*
X365965Y659993D01*
X366070Y659862D01*
X369166Y656765D01*
X371603Y650883D01*
X371603Y644517D01*
X369166Y638635D01*
X366070Y635538D01*
X366058Y635522D01*
X366042Y635510D01*
X365986Y635422D01*
X365926Y635339D01*
X365920Y635320D01*
X365909Y635303D01*
X365884Y635202D01*
X365854Y635103D01*
X365854Y635084D01*
X365849Y635064D01*
X365857Y634961D01*
X365860Y634858D01*
X365867Y634839D01*
X365868Y634819D01*
X365909Y634724D01*
X365944Y634627D01*
X365957Y634611D01*
X365965Y634593D01*
X366070Y634462D01*
X369166Y631365D01*
X371603Y625483D01*
X371603Y619117D01*
X369166Y613235D01*
X364665Y608734D01*
X361609Y607468D01*
X361520Y607413D01*
X361428Y607361D01*
X361416Y607348D01*
X361400Y607338D01*
X361333Y607257D01*
X361262Y607179D01*
X361255Y607163D01*
X361243Y607149D01*
X361206Y607051D01*
X361163Y606954D01*
X361162Y606936D01*
X361155Y606919D01*
X361151Y606814D01*
X361141Y606709D01*
X361146Y606692D01*
X361145Y606673D01*
X361174Y606572D01*
X361199Y606470D01*
X361208Y606455D01*
X361213Y606437D01*
X361273Y606351D01*
X361329Y606262D01*
X361346Y606247D01*
X361354Y606235D01*
X361379Y606216D01*
X361453Y606149D01*
X362716Y605231D01*
X363931Y604016D01*
X364942Y602625D01*
X365722Y601093D01*
X366254Y599458D01*
X366418Y598423D01*
X356362Y598423D01*
X356342Y598420D01*
X356323Y598422D01*
X356221Y598400D01*
X356119Y598383D01*
X356102Y598374D01*
X356082Y598370D01*
X355993Y598317D01*
X355902Y598268D01*
X355888Y598254D01*
X355871Y598244D01*
X355804Y598165D01*
X355733Y598090D01*
X355724Y598072D01*
X355711Y598057D01*
X355673Y597961D01*
X355629Y597867D01*
X355627Y597847D01*
X355619Y597829D01*
X355601Y597662D01*
X355601Y596138D01*
X355604Y596118D01*
X355602Y596099D01*
X355624Y595997D01*
X355641Y595895D01*
X355650Y595878D01*
X355654Y595858D01*
X355707Y595769D01*
X355756Y595678D01*
X355770Y595664D01*
X355780Y595647D01*
X355859Y595580D01*
X355934Y595509D01*
X355952Y595500D01*
X355967Y595487D01*
X356063Y595448D01*
X356157Y595405D01*
X356177Y595403D01*
X356195Y595395D01*
X356362Y595377D01*
X366418Y595377D01*
X366254Y594342D01*
X365722Y592707D01*
X364942Y591175D01*
X363931Y589784D01*
X362716Y588569D01*
X361453Y587651D01*
X361379Y587576D01*
X361302Y587505D01*
X361293Y587489D01*
X361280Y587476D01*
X361234Y587382D01*
X361183Y587290D01*
X361180Y587272D01*
X361172Y587256D01*
X361158Y587151D01*
X361139Y587048D01*
X361142Y587030D01*
X361140Y587012D01*
X361160Y586909D01*
X361175Y586804D01*
X361183Y586788D01*
X361187Y586770D01*
X361239Y586679D01*
X361287Y586585D01*
X361300Y586572D01*
X361309Y586557D01*
X361387Y586487D01*
X361462Y586413D01*
X361482Y586402D01*
X361492Y586393D01*
X361521Y586381D01*
X361609Y586332D01*
X364665Y585066D01*
X369166Y580565D01*
X371603Y574683D01*
X371603Y568317D01*
X369166Y562435D01*
X366070Y559338D01*
X366058Y559322D01*
X366042Y559310D01*
X365986Y559222D01*
X365926Y559139D01*
X365920Y559120D01*
X365909Y559103D01*
X365884Y559002D01*
X365854Y558903D01*
X365854Y558884D01*
X365849Y558864D01*
X365857Y558761D01*
X365860Y558658D01*
X365867Y558639D01*
X365868Y558619D01*
X365909Y558524D01*
X365944Y558427D01*
X365957Y558411D01*
X365965Y558393D01*
X366070Y558262D01*
X369166Y555165D01*
X371603Y549283D01*
X371603Y542917D01*
X369166Y537035D01*
X366070Y533938D01*
X366058Y533922D01*
X366042Y533910D01*
X365986Y533822D01*
X365926Y533739D01*
X365920Y533720D01*
X365909Y533703D01*
X365884Y533602D01*
X365854Y533503D01*
X365854Y533484D01*
X365849Y533464D01*
X365857Y533361D01*
X365860Y533258D01*
X365867Y533239D01*
X365868Y533219D01*
X365909Y533124D01*
X365944Y533027D01*
X365957Y533011D01*
X365965Y532993D01*
X366070Y532862D01*
X369166Y529765D01*
X371603Y523883D01*
X371603Y517517D01*
X369166Y511635D01*
X366070Y508538D01*
X366058Y508522D01*
X366042Y508510D01*
X365986Y508422D01*
X365926Y508339D01*
X365920Y508320D01*
X365909Y508303D01*
X365884Y508202D01*
X365854Y508103D01*
X365854Y508084D01*
X365849Y508064D01*
X365857Y507961D01*
X365860Y507858D01*
X365867Y507839D01*
X365868Y507819D01*
X365909Y507724D01*
X365944Y507627D01*
X365957Y507611D01*
X365965Y507593D01*
X366070Y507462D01*
X369166Y504365D01*
X371603Y498483D01*
X371603Y492117D01*
X369166Y486235D01*
X368525Y485593D01*
X368513Y485577D01*
X368497Y485565D01*
X368441Y485477D01*
X368381Y485394D01*
X368375Y485375D01*
X368364Y485358D01*
X368339Y485257D01*
X368309Y485158D01*
X368309Y485139D01*
X368304Y485119D01*
X368312Y485016D01*
X368315Y484913D01*
X368322Y484894D01*
X368323Y484874D01*
X368364Y484779D01*
X368399Y484682D01*
X368412Y484666D01*
X368420Y484648D01*
X368525Y484517D01*
X370443Y482599D01*
X371603Y479798D01*
X371603Y470737D01*
X371605Y470726D01*
X371604Y470718D01*
X371613Y470676D01*
X371617Y470647D01*
X371625Y470556D01*
X371637Y470527D01*
X371642Y470495D01*
X371685Y470414D01*
X371721Y470330D01*
X371747Y470298D01*
X371758Y470277D01*
X371781Y470255D01*
X371826Y470199D01*
X385617Y456408D01*
X385691Y456355D01*
X385760Y456295D01*
X385791Y456283D01*
X385817Y456264D01*
X385904Y456237D01*
X385989Y456203D01*
X386030Y456199D01*
X386052Y456192D01*
X386084Y456193D01*
X386155Y456185D01*
X598846Y456185D01*
X598917Y456196D01*
G37*
G36*
X1587520Y308614D02*
X1587520Y308614D01*
X1587539Y308612D01*
X1587641Y308634D01*
X1587743Y308650D01*
X1587760Y308660D01*
X1587780Y308664D01*
X1587869Y308717D01*
X1587960Y308766D01*
X1587974Y308780D01*
X1587991Y308790D01*
X1588058Y308869D01*
X1588130Y308944D01*
X1588138Y308962D01*
X1588151Y308977D01*
X1588190Y309073D01*
X1588233Y309167D01*
X1588235Y309187D01*
X1588243Y309205D01*
X1588261Y309372D01*
X1588261Y989078D01*
X1588258Y989098D01*
X1588260Y989117D01*
X1588238Y989219D01*
X1588222Y989321D01*
X1588212Y989338D01*
X1588208Y989358D01*
X1588155Y989447D01*
X1588106Y989538D01*
X1588092Y989552D01*
X1588082Y989569D01*
X1588003Y989636D01*
X1587928Y989708D01*
X1587910Y989716D01*
X1587895Y989729D01*
X1587799Y989768D01*
X1587705Y989811D01*
X1587685Y989813D01*
X1587667Y989821D01*
X1587500Y989839D01*
X1421587Y989839D01*
X1421491Y989824D01*
X1421394Y989814D01*
X1421370Y989804D01*
X1421344Y989800D01*
X1421258Y989754D01*
X1421169Y989714D01*
X1421150Y989697D01*
X1421127Y989684D01*
X1421060Y989614D01*
X1420988Y989548D01*
X1420975Y989525D01*
X1420957Y989506D01*
X1420916Y989418D01*
X1420869Y989332D01*
X1420865Y989307D01*
X1420854Y989283D01*
X1420843Y989186D01*
X1420826Y989090D01*
X1420829Y989064D01*
X1420827Y989039D01*
X1420847Y988943D01*
X1420861Y988847D01*
X1420873Y988824D01*
X1420879Y988798D01*
X1420929Y988715D01*
X1420973Y988628D01*
X1420992Y988609D01*
X1421005Y988587D01*
X1421079Y988524D01*
X1421148Y988456D01*
X1421177Y988440D01*
X1421192Y988427D01*
X1421223Y988415D01*
X1421295Y988375D01*
X1422669Y987806D01*
X1426063Y984412D01*
X1492412Y918063D01*
X1495806Y914669D01*
X1497585Y910374D01*
X1497585Y708876D01*
X1495806Y704581D01*
X1472408Y681183D01*
X1472355Y681109D01*
X1472295Y681040D01*
X1472283Y681009D01*
X1472264Y680983D01*
X1472237Y680896D01*
X1472203Y680811D01*
X1472199Y680770D01*
X1472192Y680748D01*
X1472193Y680716D01*
X1472185Y680645D01*
X1472185Y353276D01*
X1470406Y348981D01*
X1431335Y309910D01*
X1431293Y309852D01*
X1431244Y309800D01*
X1431222Y309753D01*
X1431191Y309711D01*
X1431170Y309642D01*
X1431140Y309577D01*
X1431134Y309525D01*
X1431119Y309475D01*
X1431121Y309404D01*
X1431113Y309333D01*
X1431124Y309282D01*
X1431125Y309230D01*
X1431150Y309162D01*
X1431165Y309092D01*
X1431192Y309047D01*
X1431210Y308999D01*
X1431255Y308943D01*
X1431291Y308881D01*
X1431331Y308847D01*
X1431364Y308807D01*
X1431424Y308768D01*
X1431478Y308721D01*
X1431527Y308702D01*
X1431570Y308674D01*
X1431640Y308656D01*
X1431707Y308629D01*
X1431778Y308621D01*
X1431809Y308613D01*
X1431832Y308615D01*
X1431873Y308611D01*
X1587500Y308611D01*
X1587520Y308614D01*
G37*
G36*
X621525Y329196D02*
X621525Y329196D01*
X621597Y329198D01*
X621645Y329216D01*
X621697Y329224D01*
X621760Y329258D01*
X621828Y329283D01*
X621868Y329315D01*
X621914Y329340D01*
X621964Y329392D01*
X622020Y329436D01*
X622048Y329480D01*
X622084Y329518D01*
X622114Y329583D01*
X622153Y329643D01*
X622165Y329694D01*
X622187Y329741D01*
X622195Y329812D01*
X622213Y329882D01*
X622209Y329934D01*
X622214Y329985D01*
X622199Y330056D01*
X622193Y330127D01*
X622173Y330175D01*
X622162Y330226D01*
X622125Y330287D01*
X622097Y330353D01*
X622052Y330409D01*
X622036Y330437D01*
X622018Y330452D01*
X621992Y330484D01*
X620080Y332396D01*
X617257Y339212D01*
X617257Y346588D01*
X620080Y353404D01*
X625296Y358620D01*
X632112Y361443D01*
X639488Y361443D01*
X646304Y358620D01*
X651520Y353404D01*
X654343Y346588D01*
X654343Y339212D01*
X651520Y332396D01*
X649608Y330484D01*
X649566Y330426D01*
X649516Y330374D01*
X649494Y330327D01*
X649464Y330285D01*
X649443Y330216D01*
X649413Y330151D01*
X649407Y330099D01*
X649392Y330049D01*
X649394Y329978D01*
X649386Y329907D01*
X649397Y329856D01*
X649398Y329804D01*
X649423Y329736D01*
X649438Y329666D01*
X649465Y329621D01*
X649483Y329573D01*
X649527Y329517D01*
X649564Y329455D01*
X649604Y329421D01*
X649636Y329381D01*
X649697Y329342D01*
X649751Y329295D01*
X649799Y329276D01*
X649843Y329248D01*
X649913Y329230D01*
X649979Y329203D01*
X650051Y329195D01*
X650082Y329187D01*
X650105Y329189D01*
X650146Y329185D01*
X671454Y329185D01*
X671525Y329196D01*
X671597Y329198D01*
X671645Y329216D01*
X671697Y329224D01*
X671760Y329258D01*
X671828Y329283D01*
X671868Y329315D01*
X671914Y329340D01*
X671964Y329392D01*
X672020Y329436D01*
X672048Y329480D01*
X672084Y329518D01*
X672114Y329583D01*
X672153Y329643D01*
X672165Y329694D01*
X672187Y329741D01*
X672195Y329812D01*
X672213Y329882D01*
X672209Y329934D01*
X672214Y329985D01*
X672199Y330056D01*
X672193Y330127D01*
X672173Y330175D01*
X672162Y330226D01*
X672125Y330287D01*
X672097Y330353D01*
X672052Y330409D01*
X672036Y330437D01*
X672018Y330452D01*
X671992Y330484D01*
X670080Y332396D01*
X667257Y339212D01*
X667257Y346588D01*
X670080Y353404D01*
X673892Y357216D01*
X673945Y357290D01*
X674005Y357359D01*
X674017Y357389D01*
X674036Y357415D01*
X674063Y357502D01*
X674097Y357587D01*
X674101Y357628D01*
X674108Y357651D01*
X674107Y357683D01*
X674115Y357754D01*
X674115Y383324D01*
X675894Y387619D01*
X762792Y474517D01*
X762845Y474591D01*
X762905Y474660D01*
X762917Y474691D01*
X762936Y474717D01*
X762963Y474804D01*
X762997Y474889D01*
X763001Y474930D01*
X763008Y474952D01*
X763007Y474984D01*
X763015Y475055D01*
X763015Y516674D01*
X764794Y520969D01*
X783737Y539912D01*
X787131Y543306D01*
X791426Y545085D01*
X846874Y545085D01*
X851169Y543306D01*
X854563Y539912D01*
X857412Y537063D01*
X860806Y533669D01*
X862585Y529374D01*
X862585Y481405D01*
X862587Y481389D01*
X862586Y481375D01*
X862600Y481310D01*
X862607Y481224D01*
X862619Y481195D01*
X862624Y481163D01*
X862637Y481139D01*
X862638Y481135D01*
X862649Y481117D01*
X862667Y481082D01*
X862703Y480998D01*
X862729Y480966D01*
X862740Y480945D01*
X862763Y480923D01*
X862808Y480867D01*
X868217Y475458D01*
X868291Y475405D01*
X868360Y475345D01*
X868391Y475333D01*
X868417Y475314D01*
X868504Y475287D01*
X868589Y475253D01*
X868630Y475249D01*
X868652Y475242D01*
X868684Y475243D01*
X868755Y475235D01*
X921945Y475235D01*
X922035Y475249D01*
X922126Y475257D01*
X922155Y475269D01*
X922187Y475274D01*
X922268Y475317D01*
X922352Y475353D01*
X922384Y475379D01*
X922405Y475390D01*
X922427Y475413D01*
X922483Y475458D01*
X934242Y487217D01*
X934295Y487291D01*
X934355Y487360D01*
X934367Y487391D01*
X934386Y487417D01*
X934413Y487504D01*
X934447Y487589D01*
X934451Y487630D01*
X934458Y487652D01*
X934457Y487684D01*
X934465Y487755D01*
X934465Y488385D01*
X934451Y488475D01*
X934443Y488566D01*
X934431Y488595D01*
X934426Y488627D01*
X934383Y488708D01*
X934347Y488792D01*
X934321Y488824D01*
X934310Y488845D01*
X934287Y488867D01*
X934242Y488923D01*
X934230Y488935D01*
X934153Y489120D01*
X934116Y489181D01*
X934086Y489247D01*
X934051Y489285D01*
X934024Y489329D01*
X933968Y489375D01*
X933920Y489428D01*
X933874Y489453D01*
X933834Y489486D01*
X933767Y489512D01*
X933704Y489546D01*
X933653Y489556D01*
X933605Y489574D01*
X933533Y489577D01*
X933462Y489590D01*
X933411Y489582D01*
X933359Y489585D01*
X933290Y489565D01*
X933219Y489554D01*
X933173Y489531D01*
X933123Y489516D01*
X933064Y489475D01*
X933000Y489443D01*
X932963Y489406D01*
X932921Y489376D01*
X932878Y489318D01*
X932828Y489267D01*
X932793Y489204D01*
X932774Y489179D01*
X932767Y489156D01*
X932747Y489120D01*
X932670Y488935D01*
X928715Y484980D01*
X923547Y482839D01*
X917953Y482839D01*
X912785Y484980D01*
X908830Y488935D01*
X908753Y489120D01*
X908716Y489181D01*
X908686Y489247D01*
X908651Y489285D01*
X908624Y489329D01*
X908568Y489375D01*
X908520Y489428D01*
X908474Y489453D01*
X908434Y489486D01*
X908367Y489512D01*
X908304Y489546D01*
X908253Y489556D01*
X908205Y489574D01*
X908133Y489577D01*
X908062Y489590D01*
X908011Y489582D01*
X907959Y489585D01*
X907890Y489565D01*
X907819Y489554D01*
X907773Y489531D01*
X907723Y489516D01*
X907664Y489475D01*
X907600Y489443D01*
X907563Y489406D01*
X907521Y489376D01*
X907478Y489318D01*
X907428Y489267D01*
X907393Y489204D01*
X907374Y489179D01*
X907367Y489156D01*
X907347Y489120D01*
X907270Y488935D01*
X903315Y484980D01*
X898147Y482839D01*
X892553Y482839D01*
X887385Y484980D01*
X883430Y488935D01*
X881289Y494103D01*
X881289Y499697D01*
X883430Y504865D01*
X887385Y508820D01*
X892553Y510961D01*
X898147Y510961D01*
X903315Y508820D01*
X907270Y504865D01*
X907347Y504680D01*
X907385Y504619D01*
X907414Y504553D01*
X907449Y504515D01*
X907476Y504471D01*
X907532Y504425D01*
X907580Y504372D01*
X907626Y504347D01*
X907666Y504314D01*
X907733Y504288D01*
X907796Y504254D01*
X907847Y504244D01*
X907895Y504226D01*
X907967Y504223D01*
X908038Y504210D01*
X908089Y504218D01*
X908141Y504215D01*
X908210Y504235D01*
X908281Y504246D01*
X908327Y504269D01*
X908377Y504284D01*
X908436Y504325D01*
X908500Y504357D01*
X908537Y504394D01*
X908579Y504424D01*
X908622Y504482D01*
X908672Y504533D01*
X908707Y504596D01*
X908726Y504622D01*
X908733Y504644D01*
X908753Y504680D01*
X908830Y504865D01*
X908842Y504877D01*
X908895Y504951D01*
X908955Y505021D01*
X908967Y505051D01*
X908986Y505077D01*
X909013Y505164D01*
X909047Y505249D01*
X909051Y505290D01*
X909058Y505312D01*
X909057Y505344D01*
X909065Y505415D01*
X909065Y561124D01*
X910844Y565419D01*
X914238Y568813D01*
X923437Y578012D01*
X926831Y581406D01*
X931126Y583185D01*
X960045Y583185D01*
X960135Y583199D01*
X960226Y583207D01*
X960255Y583219D01*
X960287Y583224D01*
X960368Y583267D01*
X960452Y583303D01*
X960484Y583329D01*
X960505Y583340D01*
X960527Y583363D01*
X960583Y583408D01*
X961863Y584688D01*
X965992Y588817D01*
X966045Y588891D01*
X966105Y588960D01*
X966117Y588990D01*
X966136Y589017D01*
X966163Y589104D01*
X966197Y589189D01*
X966201Y589229D01*
X966208Y589252D01*
X966207Y589284D01*
X966215Y589355D01*
X966215Y654304D01*
X966212Y654324D01*
X966214Y654343D01*
X966192Y654445D01*
X966176Y654547D01*
X966166Y654564D01*
X966162Y654584D01*
X966109Y654673D01*
X966060Y654764D01*
X966046Y654778D01*
X966036Y654795D01*
X965957Y654862D01*
X965882Y654934D01*
X965864Y654942D01*
X965849Y654955D01*
X965753Y654994D01*
X965659Y655037D01*
X965639Y655039D01*
X965621Y655047D01*
X965454Y655065D01*
X741755Y655065D01*
X741665Y655051D01*
X741574Y655043D01*
X741545Y655031D01*
X741513Y655026D01*
X741432Y654983D01*
X741348Y654947D01*
X741316Y654921D01*
X741295Y654910D01*
X741273Y654887D01*
X741217Y654842D01*
X710408Y624033D01*
X710355Y623959D01*
X710295Y623890D01*
X710283Y623859D01*
X710264Y623833D01*
X710237Y623746D01*
X710203Y623661D01*
X710199Y623620D01*
X710192Y623598D01*
X710193Y623566D01*
X710185Y623495D01*
X710185Y454876D01*
X708406Y450581D01*
X667019Y409194D01*
X662724Y407415D01*
X493597Y407415D01*
X493527Y407404D01*
X493455Y407402D01*
X493406Y407384D01*
X493354Y407376D01*
X493291Y407342D01*
X493224Y407317D01*
X493183Y407285D01*
X493137Y407260D01*
X493088Y407209D01*
X493032Y407164D01*
X493004Y407120D01*
X492968Y407082D01*
X492937Y407017D01*
X492899Y406957D01*
X492886Y406906D01*
X492864Y406859D01*
X492856Y406788D01*
X492839Y406718D01*
X492843Y406666D01*
X492837Y406615D01*
X492852Y406544D01*
X492858Y406473D01*
X492878Y406425D01*
X492889Y406374D01*
X492926Y406313D01*
X492954Y406247D01*
X492999Y406191D01*
X493015Y406163D01*
X493033Y406148D01*
X493059Y406116D01*
X538646Y360529D01*
X538699Y360491D01*
X538746Y360445D01*
X538819Y360405D01*
X538845Y360385D01*
X538864Y360380D01*
X538893Y360364D01*
X543104Y358620D01*
X548320Y353404D01*
X551143Y346588D01*
X551143Y339212D01*
X548320Y332396D01*
X546408Y330484D01*
X546366Y330426D01*
X546316Y330374D01*
X546294Y330327D01*
X546264Y330285D01*
X546243Y330216D01*
X546213Y330151D01*
X546207Y330099D01*
X546192Y330049D01*
X546194Y329978D01*
X546186Y329907D01*
X546197Y329856D01*
X546198Y329804D01*
X546223Y329736D01*
X546238Y329666D01*
X546265Y329621D01*
X546283Y329573D01*
X546327Y329517D01*
X546364Y329455D01*
X546404Y329421D01*
X546436Y329381D01*
X546497Y329342D01*
X546551Y329295D01*
X546599Y329276D01*
X546643Y329248D01*
X546713Y329230D01*
X546779Y329203D01*
X546851Y329195D01*
X546882Y329187D01*
X546905Y329189D01*
X546946Y329185D01*
X621454Y329185D01*
X621525Y329196D01*
G37*
G36*
X344428Y786399D02*
X344428Y786399D01*
X344519Y786407D01*
X344549Y786419D01*
X344581Y786424D01*
X344661Y786467D01*
X344745Y786503D01*
X344778Y786529D01*
X344798Y786540D01*
X344820Y786563D01*
X344876Y786608D01*
X345130Y786862D01*
X345142Y786878D01*
X345158Y786890D01*
X345214Y786977D01*
X345274Y787061D01*
X345280Y787080D01*
X345291Y787097D01*
X345316Y787198D01*
X345346Y787296D01*
X345346Y787316D01*
X345351Y787336D01*
X345343Y787439D01*
X345340Y787542D01*
X345333Y787561D01*
X345332Y787581D01*
X345291Y787676D01*
X345256Y787773D01*
X345243Y787789D01*
X345235Y787807D01*
X345130Y787938D01*
X342034Y791035D01*
X339597Y796917D01*
X339597Y803283D01*
X342034Y809165D01*
X345130Y812262D01*
X345142Y812278D01*
X345158Y812290D01*
X345214Y812378D01*
X345274Y812461D01*
X345280Y812480D01*
X345291Y812497D01*
X345316Y812598D01*
X345346Y812697D01*
X345346Y812716D01*
X345351Y812736D01*
X345343Y812839D01*
X345340Y812942D01*
X345333Y812961D01*
X345332Y812981D01*
X345291Y813076D01*
X345256Y813173D01*
X345243Y813189D01*
X345235Y813207D01*
X345130Y813338D01*
X342034Y816435D01*
X339597Y822317D01*
X339597Y828683D01*
X342034Y834565D01*
X345130Y837662D01*
X345142Y837678D01*
X345158Y837690D01*
X345214Y837778D01*
X345274Y837861D01*
X345280Y837880D01*
X345291Y837897D01*
X345316Y837998D01*
X345346Y838097D01*
X345346Y838116D01*
X345351Y838136D01*
X345343Y838239D01*
X345340Y838342D01*
X345333Y838361D01*
X345332Y838381D01*
X345291Y838476D01*
X345256Y838573D01*
X345243Y838589D01*
X345235Y838607D01*
X345130Y838738D01*
X342034Y841835D01*
X339597Y847717D01*
X339597Y854083D01*
X342034Y859965D01*
X345130Y863062D01*
X345142Y863078D01*
X345158Y863090D01*
X345214Y863178D01*
X345274Y863261D01*
X345280Y863280D01*
X345291Y863297D01*
X345316Y863398D01*
X345346Y863497D01*
X345346Y863516D01*
X345351Y863536D01*
X345343Y863639D01*
X345340Y863742D01*
X345333Y863761D01*
X345332Y863781D01*
X345291Y863876D01*
X345256Y863973D01*
X345243Y863989D01*
X345235Y864007D01*
X345130Y864138D01*
X342034Y867235D01*
X339597Y873117D01*
X339597Y879483D01*
X342034Y885365D01*
X345130Y888462D01*
X345142Y888478D01*
X345158Y888490D01*
X345214Y888578D01*
X345274Y888661D01*
X345280Y888680D01*
X345291Y888697D01*
X345316Y888798D01*
X345346Y888897D01*
X345346Y888916D01*
X345351Y888936D01*
X345343Y889039D01*
X345340Y889142D01*
X345333Y889161D01*
X345332Y889181D01*
X345291Y889276D01*
X345256Y889373D01*
X345243Y889389D01*
X345235Y889407D01*
X345130Y889538D01*
X342034Y892635D01*
X339597Y898517D01*
X339597Y904883D01*
X342034Y910765D01*
X345130Y913862D01*
X345142Y913878D01*
X345158Y913890D01*
X345214Y913977D01*
X345274Y914061D01*
X345280Y914080D01*
X345291Y914097D01*
X345316Y914198D01*
X345346Y914297D01*
X345346Y914316D01*
X345351Y914336D01*
X345343Y914439D01*
X345340Y914542D01*
X345333Y914561D01*
X345332Y914581D01*
X345291Y914676D01*
X345256Y914773D01*
X345243Y914789D01*
X345235Y914807D01*
X345130Y914938D01*
X344876Y915192D01*
X344802Y915245D01*
X344733Y915305D01*
X344703Y915317D01*
X344677Y915336D01*
X344590Y915363D01*
X344505Y915397D01*
X344464Y915401D01*
X344442Y915408D01*
X344409Y915407D01*
X344338Y915415D01*
X152758Y915415D01*
X152668Y915401D01*
X152577Y915393D01*
X152547Y915381D01*
X152515Y915376D01*
X152435Y915333D01*
X152351Y915297D01*
X152319Y915271D01*
X152298Y915260D01*
X152276Y915237D01*
X152220Y915192D01*
X149484Y912457D01*
X148205Y911927D01*
X148166Y911903D01*
X148123Y911887D01*
X148062Y911838D01*
X147996Y911797D01*
X147966Y911762D01*
X147931Y911733D01*
X147889Y911668D01*
X147839Y911608D01*
X147822Y911565D01*
X147798Y911526D01*
X147779Y911451D01*
X147751Y911378D01*
X147749Y911332D01*
X147738Y911288D01*
X147744Y911210D01*
X147740Y911132D01*
X147753Y911088D01*
X147757Y911043D01*
X147787Y910971D01*
X147809Y910896D01*
X147835Y910859D01*
X147853Y910816D01*
X147938Y910710D01*
X147949Y910694D01*
X147953Y910691D01*
X147958Y910685D01*
X149000Y909643D01*
X150128Y908090D01*
X150999Y906380D01*
X151593Y904555D01*
X151803Y903223D01*
X140462Y903223D01*
X140442Y903220D01*
X140423Y903222D01*
X140321Y903200D01*
X140219Y903183D01*
X140202Y903174D01*
X140182Y903170D01*
X140093Y903117D01*
X140002Y903068D01*
X139988Y903054D01*
X139971Y903044D01*
X139904Y902965D01*
X139833Y902890D01*
X139824Y902872D01*
X139811Y902857D01*
X139773Y902761D01*
X139729Y902667D01*
X139727Y902647D01*
X139719Y902629D01*
X139701Y902462D01*
X139701Y900938D01*
X139704Y900918D01*
X139702Y900899D01*
X139724Y900797D01*
X139741Y900695D01*
X139750Y900678D01*
X139754Y900658D01*
X139807Y900569D01*
X139856Y900478D01*
X139870Y900464D01*
X139880Y900447D01*
X139959Y900380D01*
X140034Y900309D01*
X140052Y900300D01*
X140067Y900287D01*
X140163Y900248D01*
X140257Y900205D01*
X140277Y900203D01*
X140295Y900195D01*
X140462Y900177D01*
X151803Y900177D01*
X151593Y898845D01*
X150999Y897020D01*
X150128Y895310D01*
X149000Y893757D01*
X147958Y892715D01*
X147931Y892677D01*
X147897Y892646D01*
X147860Y892578D01*
X147814Y892515D01*
X147801Y892471D01*
X147779Y892431D01*
X147765Y892354D01*
X147742Y892280D01*
X147743Y892234D01*
X147735Y892189D01*
X147746Y892112D01*
X147748Y892034D01*
X147764Y891991D01*
X147771Y891945D01*
X147806Y891876D01*
X147833Y891803D01*
X147861Y891767D01*
X147882Y891726D01*
X147938Y891672D01*
X147986Y891611D01*
X148025Y891586D01*
X148058Y891554D01*
X148178Y891488D01*
X148193Y891478D01*
X148198Y891477D01*
X148205Y891473D01*
X149484Y890943D01*
X152220Y888208D01*
X152294Y888155D01*
X152363Y888095D01*
X152393Y888083D01*
X152419Y888064D01*
X152506Y888037D01*
X152591Y888003D01*
X152632Y887999D01*
X152654Y887992D01*
X152687Y887993D01*
X152758Y887985D01*
X186474Y887985D01*
X190769Y886206D01*
X290367Y786608D01*
X290441Y786555D01*
X290510Y786495D01*
X290541Y786483D01*
X290567Y786464D01*
X290654Y786437D01*
X290739Y786403D01*
X290780Y786399D01*
X290802Y786392D01*
X290834Y786393D01*
X290905Y786385D01*
X344338Y786385D01*
X344428Y786399D01*
G37*
%LPC*%
G36*
X724358Y481075D02*
X724358Y481075D01*
X716025Y489408D01*
X716025Y501192D01*
X718342Y503509D01*
X718395Y503583D01*
X718455Y503652D01*
X718467Y503683D01*
X718486Y503709D01*
X718513Y503796D01*
X718547Y503881D01*
X718551Y503922D01*
X718558Y503944D01*
X718557Y503976D01*
X718565Y504047D01*
X718565Y510324D01*
X720344Y514619D01*
X739932Y534207D01*
X739985Y534281D01*
X740045Y534350D01*
X740057Y534381D01*
X740076Y534407D01*
X740103Y534494D01*
X740137Y534579D01*
X740141Y534620D01*
X740148Y534642D01*
X740147Y534674D01*
X740155Y534745D01*
X740155Y538989D01*
X740148Y539034D01*
X740150Y539080D01*
X740128Y539155D01*
X740116Y539231D01*
X740094Y539272D01*
X740081Y539316D01*
X740037Y539380D01*
X740000Y539449D01*
X739967Y539480D01*
X739941Y539518D01*
X739878Y539565D01*
X739822Y539618D01*
X739780Y539637D01*
X739744Y539665D01*
X739670Y539689D01*
X739599Y539722D01*
X739553Y539727D01*
X739510Y539741D01*
X739432Y539740D01*
X739355Y539749D01*
X739310Y539739D01*
X739264Y539739D01*
X739132Y539701D01*
X739114Y539697D01*
X739110Y539694D01*
X739103Y539692D01*
X736788Y538733D01*
X731332Y538733D01*
X726290Y540822D01*
X722432Y544680D01*
X720343Y549722D01*
X720343Y555178D01*
X722317Y559944D01*
X722332Y560008D01*
X722357Y560069D01*
X722366Y560152D01*
X722373Y560184D01*
X722372Y560203D01*
X722375Y560236D01*
X722375Y596684D01*
X724154Y600979D01*
X727548Y604373D01*
X732937Y609762D01*
X736331Y613156D01*
X740626Y614935D01*
X812622Y614935D01*
X812712Y614949D01*
X812803Y614957D01*
X812832Y614969D01*
X812864Y614974D01*
X812945Y615017D01*
X813029Y615053D01*
X813061Y615079D01*
X813082Y615090D01*
X813104Y615113D01*
X813160Y615158D01*
X815788Y617785D01*
X822090Y620396D01*
X828910Y620396D01*
X835212Y617785D01*
X840035Y612962D01*
X842646Y606660D01*
X842646Y599840D01*
X840035Y593538D01*
X835212Y588715D01*
X828910Y586104D01*
X822090Y586104D01*
X815788Y588715D01*
X813160Y591342D01*
X813086Y591395D01*
X813017Y591455D01*
X812986Y591467D01*
X812960Y591486D01*
X812873Y591513D01*
X812788Y591547D01*
X812747Y591551D01*
X812725Y591558D01*
X812693Y591557D01*
X812622Y591565D01*
X748105Y591565D01*
X748015Y591551D01*
X747924Y591543D01*
X747894Y591531D01*
X747863Y591526D01*
X747782Y591483D01*
X747698Y591447D01*
X747666Y591421D01*
X747645Y591410D01*
X747623Y591387D01*
X747567Y591342D01*
X745968Y589743D01*
X745915Y589669D01*
X745855Y589600D01*
X745843Y589569D01*
X745824Y589543D01*
X745797Y589456D01*
X745763Y589371D01*
X745759Y589331D01*
X745752Y589308D01*
X745753Y589276D01*
X745745Y589205D01*
X745745Y566928D01*
X745748Y566908D01*
X745746Y566889D01*
X745768Y566787D01*
X745784Y566685D01*
X745794Y566668D01*
X745798Y566648D01*
X745851Y566559D01*
X745900Y566468D01*
X745914Y566454D01*
X745924Y566437D01*
X746003Y566370D01*
X746078Y566298D01*
X746096Y566290D01*
X746111Y566277D01*
X746207Y566238D01*
X746301Y566195D01*
X746321Y566193D01*
X746339Y566185D01*
X746506Y566167D01*
X757522Y566167D01*
X765557Y558132D01*
X765557Y546768D01*
X763748Y544959D01*
X763695Y544885D01*
X763635Y544816D01*
X763623Y544786D01*
X763604Y544760D01*
X763577Y544673D01*
X763543Y544588D01*
X763539Y544547D01*
X763532Y544525D01*
X763533Y544492D01*
X763525Y544421D01*
X763525Y527266D01*
X761746Y522971D01*
X758352Y519577D01*
X742759Y503984D01*
X742747Y503968D01*
X742732Y503956D01*
X742676Y503868D01*
X742615Y503785D01*
X742610Y503766D01*
X742599Y503749D01*
X742574Y503648D01*
X742543Y503550D01*
X742544Y503530D01*
X742539Y503510D01*
X742547Y503407D01*
X742549Y503304D01*
X742556Y503285D01*
X742558Y503265D01*
X742598Y503170D01*
X742634Y503073D01*
X742646Y503057D01*
X742654Y503039D01*
X742759Y502908D01*
X744475Y501192D01*
X744475Y489408D01*
X736142Y481075D01*
X724358Y481075D01*
G37*
%LPD*%
%LPC*%
G36*
X681713Y690689D02*
X681713Y690689D01*
X676509Y692845D01*
X672525Y696829D01*
X670369Y702033D01*
X670369Y707667D01*
X672525Y712871D01*
X676519Y716866D01*
X676550Y716885D01*
X676615Y716914D01*
X676654Y716949D01*
X676698Y716976D01*
X676744Y717032D01*
X676797Y717080D01*
X676822Y717126D01*
X676855Y717166D01*
X676880Y717233D01*
X676915Y717296D01*
X676924Y717347D01*
X676943Y717395D01*
X676946Y717467D01*
X676959Y717538D01*
X676951Y717589D01*
X676953Y717641D01*
X676933Y717710D01*
X676923Y717781D01*
X676899Y717827D01*
X676885Y717877D01*
X676844Y717936D01*
X676811Y718000D01*
X676774Y718037D01*
X676745Y718079D01*
X676687Y718122D01*
X676636Y718173D01*
X676573Y718207D01*
X676547Y718226D01*
X676525Y718234D01*
X676514Y718239D01*
X672525Y722229D01*
X670369Y727433D01*
X670369Y733067D01*
X672525Y738271D01*
X676519Y742266D01*
X676550Y742285D01*
X676615Y742314D01*
X676654Y742349D01*
X676698Y742376D01*
X676744Y742432D01*
X676797Y742480D01*
X676822Y742526D01*
X676855Y742566D01*
X676880Y742633D01*
X676915Y742696D01*
X676924Y742747D01*
X676943Y742795D01*
X676946Y742867D01*
X676959Y742938D01*
X676951Y742989D01*
X676953Y743041D01*
X676933Y743110D01*
X676923Y743181D01*
X676899Y743227D01*
X676885Y743277D01*
X676844Y743336D01*
X676811Y743400D01*
X676774Y743437D01*
X676745Y743479D01*
X676687Y743522D01*
X676636Y743573D01*
X676573Y743607D01*
X676547Y743626D01*
X676525Y743634D01*
X676514Y743639D01*
X672525Y747629D01*
X670369Y752833D01*
X670369Y758467D01*
X672525Y763671D01*
X676519Y767666D01*
X676550Y767685D01*
X676615Y767714D01*
X676654Y767749D01*
X676698Y767776D01*
X676744Y767832D01*
X676797Y767880D01*
X676822Y767926D01*
X676855Y767966D01*
X676880Y768033D01*
X676915Y768096D01*
X676924Y768147D01*
X676943Y768195D01*
X676946Y768267D01*
X676959Y768338D01*
X676951Y768389D01*
X676953Y768441D01*
X676933Y768510D01*
X676923Y768581D01*
X676899Y768627D01*
X676885Y768677D01*
X676844Y768736D01*
X676811Y768800D01*
X676774Y768837D01*
X676745Y768879D01*
X676687Y768922D01*
X676636Y768973D01*
X676573Y769007D01*
X676547Y769026D01*
X676525Y769034D01*
X676514Y769039D01*
X672525Y773029D01*
X670369Y778233D01*
X670369Y783867D01*
X672525Y789071D01*
X676519Y793066D01*
X676550Y793085D01*
X676615Y793114D01*
X676654Y793149D01*
X676698Y793176D01*
X676744Y793232D01*
X676797Y793280D01*
X676822Y793326D01*
X676855Y793366D01*
X676880Y793433D01*
X676915Y793496D01*
X676924Y793547D01*
X676943Y793595D01*
X676946Y793667D01*
X676959Y793738D01*
X676951Y793789D01*
X676953Y793841D01*
X676933Y793910D01*
X676923Y793981D01*
X676899Y794027D01*
X676885Y794077D01*
X676844Y794136D01*
X676811Y794200D01*
X676774Y794237D01*
X676745Y794279D01*
X676687Y794322D01*
X676636Y794373D01*
X676573Y794407D01*
X676547Y794426D01*
X676525Y794434D01*
X676514Y794439D01*
X672525Y798429D01*
X670369Y803633D01*
X670369Y809267D01*
X672525Y814471D01*
X676509Y818455D01*
X681713Y820611D01*
X687347Y820611D01*
X692551Y818455D01*
X696535Y814471D01*
X698691Y809267D01*
X698691Y803633D01*
X696535Y798429D01*
X692541Y794435D01*
X692510Y794416D01*
X692445Y794386D01*
X692406Y794351D01*
X692362Y794324D01*
X692316Y794268D01*
X692264Y794220D01*
X692239Y794174D01*
X692205Y794134D01*
X692180Y794067D01*
X692145Y794004D01*
X692136Y793953D01*
X692117Y793905D01*
X692114Y793833D01*
X692101Y793762D01*
X692109Y793711D01*
X692107Y793659D01*
X692127Y793590D01*
X692137Y793519D01*
X692161Y793473D01*
X692175Y793423D01*
X692216Y793364D01*
X692249Y793300D01*
X692286Y793263D01*
X692315Y793221D01*
X692373Y793178D01*
X692424Y793128D01*
X692487Y793093D01*
X692513Y793074D01*
X692535Y793067D01*
X692545Y793061D01*
X696535Y789071D01*
X698691Y783867D01*
X698691Y778233D01*
X696535Y773029D01*
X692541Y769035D01*
X692510Y769016D01*
X692445Y768986D01*
X692406Y768951D01*
X692362Y768924D01*
X692316Y768868D01*
X692264Y768820D01*
X692239Y768774D01*
X692205Y768734D01*
X692180Y768667D01*
X692145Y768604D01*
X692136Y768553D01*
X692117Y768505D01*
X692114Y768433D01*
X692101Y768362D01*
X692109Y768311D01*
X692107Y768259D01*
X692127Y768190D01*
X692137Y768119D01*
X692161Y768073D01*
X692175Y768023D01*
X692216Y767964D01*
X692249Y767900D01*
X692286Y767863D01*
X692315Y767821D01*
X692373Y767778D01*
X692424Y767728D01*
X692487Y767693D01*
X692513Y767674D01*
X692535Y767667D01*
X692545Y767661D01*
X696535Y763671D01*
X698691Y758467D01*
X698691Y752833D01*
X696535Y747629D01*
X692541Y743635D01*
X692510Y743616D01*
X692445Y743586D01*
X692406Y743551D01*
X692362Y743524D01*
X692316Y743468D01*
X692264Y743420D01*
X692239Y743374D01*
X692205Y743334D01*
X692180Y743267D01*
X692145Y743204D01*
X692136Y743153D01*
X692117Y743105D01*
X692114Y743033D01*
X692101Y742962D01*
X692109Y742911D01*
X692107Y742859D01*
X692127Y742790D01*
X692137Y742719D01*
X692161Y742673D01*
X692175Y742623D01*
X692216Y742564D01*
X692249Y742500D01*
X692286Y742463D01*
X692315Y742421D01*
X692373Y742378D01*
X692424Y742328D01*
X692487Y742293D01*
X692513Y742274D01*
X692535Y742267D01*
X692545Y742261D01*
X696535Y738271D01*
X698691Y733067D01*
X698691Y727433D01*
X696535Y722229D01*
X692541Y718235D01*
X692510Y718216D01*
X692445Y718186D01*
X692406Y718151D01*
X692362Y718124D01*
X692316Y718068D01*
X692264Y718020D01*
X692239Y717974D01*
X692205Y717934D01*
X692180Y717867D01*
X692145Y717804D01*
X692136Y717753D01*
X692117Y717705D01*
X692114Y717633D01*
X692101Y717562D01*
X692109Y717511D01*
X692107Y717459D01*
X692127Y717390D01*
X692137Y717319D01*
X692161Y717273D01*
X692175Y717223D01*
X692216Y717164D01*
X692249Y717100D01*
X692286Y717063D01*
X692315Y717021D01*
X692373Y716978D01*
X692424Y716928D01*
X692487Y716893D01*
X692513Y716874D01*
X692535Y716867D01*
X692545Y716861D01*
X696535Y712871D01*
X698691Y707667D01*
X698691Y702033D01*
X696535Y696829D01*
X692551Y692845D01*
X687347Y690689D01*
X681713Y690689D01*
G37*
%LPD*%
%LPC*%
G36*
X1146318Y899159D02*
X1146318Y899159D01*
X1140717Y901480D01*
X1136430Y905767D01*
X1134109Y911368D01*
X1134109Y917432D01*
X1136430Y923033D01*
X1140717Y927320D01*
X1146318Y929641D01*
X1152382Y929641D01*
X1157983Y927320D01*
X1161512Y923792D01*
X1161528Y923780D01*
X1161540Y923765D01*
X1161628Y923709D01*
X1161711Y923648D01*
X1161730Y923643D01*
X1161747Y923632D01*
X1161848Y923606D01*
X1161947Y923576D01*
X1161966Y923577D01*
X1161986Y923572D01*
X1162089Y923580D01*
X1162192Y923582D01*
X1162211Y923589D01*
X1162231Y923591D01*
X1162326Y923631D01*
X1162423Y923667D01*
X1162439Y923679D01*
X1162457Y923687D01*
X1162588Y923792D01*
X1166117Y927320D01*
X1171718Y929641D01*
X1177782Y929641D01*
X1183383Y927320D01*
X1187670Y923033D01*
X1189493Y918632D01*
X1189516Y918596D01*
X1189530Y918557D01*
X1189580Y918493D01*
X1189623Y918423D01*
X1189655Y918396D01*
X1189681Y918363D01*
X1189750Y918318D01*
X1189813Y918266D01*
X1189852Y918251D01*
X1189887Y918228D01*
X1189966Y918207D01*
X1190042Y918178D01*
X1190084Y918176D01*
X1190125Y918166D01*
X1190206Y918171D01*
X1190288Y918168D01*
X1190328Y918179D01*
X1190370Y918182D01*
X1190446Y918213D01*
X1190524Y918236D01*
X1190559Y918260D01*
X1190597Y918276D01*
X1190659Y918330D01*
X1190726Y918376D01*
X1190751Y918410D01*
X1190783Y918438D01*
X1190868Y918567D01*
X1190873Y918574D01*
X1190874Y918576D01*
X1190875Y918578D01*
X1191460Y919725D01*
X1192400Y921019D01*
X1193531Y922150D01*
X1194825Y923090D01*
X1196250Y923816D01*
X1197771Y924311D01*
X1198627Y924446D01*
X1198627Y915162D01*
X1198630Y915142D01*
X1198628Y915123D01*
X1198650Y915021D01*
X1198667Y914919D01*
X1198676Y914902D01*
X1198680Y914882D01*
X1198733Y914793D01*
X1198782Y914702D01*
X1198796Y914688D01*
X1198806Y914671D01*
X1198885Y914604D01*
X1198960Y914533D01*
X1198978Y914524D01*
X1198993Y914511D01*
X1199089Y914473D01*
X1199183Y914429D01*
X1199203Y914427D01*
X1199221Y914419D01*
X1199388Y914401D01*
X1200151Y914401D01*
X1200151Y914399D01*
X1199388Y914399D01*
X1199368Y914396D01*
X1199349Y914398D01*
X1199247Y914376D01*
X1199145Y914359D01*
X1199128Y914350D01*
X1199108Y914346D01*
X1199019Y914293D01*
X1198928Y914244D01*
X1198914Y914230D01*
X1198897Y914220D01*
X1198830Y914141D01*
X1198759Y914066D01*
X1198750Y914048D01*
X1198737Y914033D01*
X1198698Y913937D01*
X1198655Y913843D01*
X1198653Y913823D01*
X1198645Y913805D01*
X1198627Y913638D01*
X1198627Y904354D01*
X1197771Y904489D01*
X1196250Y904984D01*
X1194825Y905710D01*
X1193531Y906650D01*
X1192400Y907781D01*
X1191460Y909075D01*
X1190875Y910222D01*
X1190850Y910256D01*
X1190833Y910294D01*
X1190778Y910354D01*
X1190729Y910420D01*
X1190695Y910445D01*
X1190667Y910475D01*
X1190595Y910515D01*
X1190528Y910562D01*
X1190488Y910574D01*
X1190451Y910594D01*
X1190371Y910609D01*
X1190292Y910632D01*
X1190251Y910630D01*
X1190209Y910638D01*
X1190128Y910626D01*
X1190047Y910623D01*
X1190007Y910608D01*
X1189966Y910602D01*
X1189893Y910565D01*
X1189816Y910536D01*
X1189784Y910510D01*
X1189747Y910490D01*
X1189689Y910432D01*
X1189626Y910380D01*
X1189604Y910345D01*
X1189574Y910315D01*
X1189500Y910179D01*
X1189495Y910172D01*
X1189495Y910170D01*
X1189493Y910168D01*
X1187670Y905767D01*
X1183383Y901480D01*
X1177782Y899159D01*
X1171718Y899159D01*
X1166117Y901480D01*
X1162588Y905008D01*
X1162572Y905020D01*
X1162560Y905035D01*
X1162472Y905091D01*
X1162389Y905152D01*
X1162370Y905157D01*
X1162353Y905168D01*
X1162252Y905194D01*
X1162153Y905224D01*
X1162134Y905223D01*
X1162114Y905228D01*
X1162011Y905220D01*
X1161908Y905218D01*
X1161889Y905211D01*
X1161869Y905209D01*
X1161774Y905169D01*
X1161677Y905133D01*
X1161661Y905121D01*
X1161643Y905113D01*
X1161512Y905008D01*
X1157983Y901480D01*
X1152382Y899159D01*
X1146318Y899159D01*
G37*
%LPD*%
%LPC*%
G36*
X1392794Y823039D02*
X1392794Y823039D01*
X1387222Y825347D01*
X1382957Y829612D01*
X1380649Y835184D01*
X1380649Y841216D01*
X1382957Y846788D01*
X1387222Y851053D01*
X1392794Y853361D01*
X1413906Y853361D01*
X1419478Y851053D01*
X1423743Y846788D01*
X1426051Y841216D01*
X1426051Y835184D01*
X1423743Y829612D01*
X1419478Y825347D01*
X1413906Y823039D01*
X1392794Y823039D01*
G37*
%LPD*%
%LPC*%
G36*
X1522794Y658039D02*
X1522794Y658039D01*
X1517222Y660347D01*
X1512957Y664612D01*
X1510649Y670184D01*
X1510649Y676216D01*
X1512957Y681788D01*
X1517222Y686053D01*
X1522794Y688361D01*
X1543906Y688361D01*
X1549478Y686053D01*
X1553743Y681788D01*
X1556051Y676216D01*
X1556051Y670184D01*
X1553743Y664612D01*
X1549478Y660347D01*
X1543906Y658039D01*
X1522794Y658039D01*
G37*
%LPD*%
%LPC*%
G36*
X1392794Y658039D02*
X1392794Y658039D01*
X1387222Y660347D01*
X1382957Y664612D01*
X1380649Y670184D01*
X1380649Y676216D01*
X1382957Y681788D01*
X1387222Y686053D01*
X1392794Y688361D01*
X1413906Y688361D01*
X1419478Y686053D01*
X1423743Y681788D01*
X1426051Y676216D01*
X1426051Y670184D01*
X1423743Y664612D01*
X1419478Y660347D01*
X1413906Y658039D01*
X1392794Y658039D01*
G37*
%LPD*%
%LPC*%
G36*
X1522794Y372289D02*
X1522794Y372289D01*
X1517222Y374597D01*
X1512957Y378862D01*
X1510649Y384434D01*
X1510649Y390466D01*
X1512957Y396038D01*
X1517222Y400303D01*
X1522794Y402611D01*
X1543906Y402611D01*
X1549478Y400303D01*
X1553743Y396038D01*
X1556051Y390466D01*
X1556051Y384434D01*
X1553743Y378862D01*
X1549478Y374597D01*
X1543906Y372289D01*
X1522794Y372289D01*
G37*
%LPD*%
%LPC*%
G36*
X1392794Y372289D02*
X1392794Y372289D01*
X1387222Y374597D01*
X1382957Y378862D01*
X1380649Y384434D01*
X1380649Y390466D01*
X1382957Y396038D01*
X1387222Y400303D01*
X1392794Y402611D01*
X1413906Y402611D01*
X1419478Y400303D01*
X1423743Y396038D01*
X1426051Y390466D01*
X1426051Y384434D01*
X1423743Y378862D01*
X1419478Y374597D01*
X1413906Y372289D01*
X1392794Y372289D01*
G37*
%LPD*%
%LPC*%
G36*
X909573Y611123D02*
X909573Y611123D01*
X909573Y627141D01*
X923384Y627141D01*
X924031Y626968D01*
X924610Y626633D01*
X925083Y626160D01*
X925418Y625581D01*
X925591Y624934D01*
X925591Y611123D01*
X909573Y611123D01*
G37*
%LPD*%
%LPC*%
G36*
X1309573Y611123D02*
X1309573Y611123D01*
X1309573Y627141D01*
X1323384Y627141D01*
X1324031Y626968D01*
X1324610Y626633D01*
X1325083Y626160D01*
X1325418Y625581D01*
X1325591Y624934D01*
X1325591Y611123D01*
X1309573Y611123D01*
G37*
%LPD*%
%LPC*%
G36*
X909573Y592059D02*
X909573Y592059D01*
X909573Y608077D01*
X925591Y608077D01*
X925591Y594266D01*
X925418Y593619D01*
X925083Y593040D01*
X924610Y592567D01*
X924031Y592232D01*
X923384Y592059D01*
X909573Y592059D01*
G37*
%LPD*%
%LPC*%
G36*
X1309573Y592059D02*
X1309573Y592059D01*
X1309573Y608077D01*
X1325591Y608077D01*
X1325591Y594266D01*
X1325418Y593619D01*
X1325083Y593040D01*
X1324610Y592567D01*
X1324031Y592232D01*
X1323384Y592059D01*
X1309573Y592059D01*
G37*
%LPD*%
%LPC*%
G36*
X890509Y611123D02*
X890509Y611123D01*
X890509Y624934D01*
X890682Y625581D01*
X891017Y626160D01*
X891490Y626633D01*
X892069Y626968D01*
X892716Y627141D01*
X906527Y627141D01*
X906527Y611123D01*
X890509Y611123D01*
G37*
%LPD*%
%LPC*%
G36*
X1290509Y611123D02*
X1290509Y611123D01*
X1290509Y624934D01*
X1290682Y625581D01*
X1291017Y626160D01*
X1291490Y626633D01*
X1292069Y626968D01*
X1292716Y627141D01*
X1306527Y627141D01*
X1306527Y611123D01*
X1290509Y611123D01*
G37*
%LPD*%
%LPC*%
G36*
X892716Y592059D02*
X892716Y592059D01*
X892069Y592232D01*
X891490Y592567D01*
X891017Y593040D01*
X890682Y593619D01*
X890509Y594266D01*
X890509Y608077D01*
X906527Y608077D01*
X906527Y592059D01*
X892716Y592059D01*
G37*
%LPD*%
%LPC*%
G36*
X1292716Y592059D02*
X1292716Y592059D01*
X1292069Y592232D01*
X1291490Y592567D01*
X1291017Y593040D01*
X1290682Y593619D01*
X1290509Y594266D01*
X1290509Y608077D01*
X1306527Y608077D01*
X1306527Y592059D01*
X1292716Y592059D01*
G37*
%LPD*%
%LPC*%
G36*
X1534873Y553973D02*
X1534873Y553973D01*
X1534873Y562531D01*
X1541683Y562531D01*
X1543251Y562283D01*
X1544760Y561792D01*
X1546173Y561072D01*
X1547457Y560139D01*
X1548579Y559017D01*
X1549512Y557733D01*
X1550232Y556320D01*
X1550723Y554811D01*
X1550855Y553973D01*
X1534873Y553973D01*
G37*
%LPD*%
%LPC*%
G36*
X1534873Y839723D02*
X1534873Y839723D01*
X1534873Y848281D01*
X1541683Y848281D01*
X1543251Y848033D01*
X1544760Y847542D01*
X1546173Y846822D01*
X1547457Y845889D01*
X1548579Y844767D01*
X1549512Y843483D01*
X1550232Y842070D01*
X1550723Y840561D01*
X1550855Y839723D01*
X1534873Y839723D01*
G37*
%LPD*%
%LPC*%
G36*
X1515845Y553973D02*
X1515845Y553973D01*
X1515977Y554811D01*
X1516468Y556320D01*
X1517188Y557733D01*
X1518121Y559017D01*
X1519243Y560139D01*
X1520527Y561072D01*
X1521940Y561792D01*
X1523449Y562283D01*
X1525017Y562531D01*
X1531827Y562531D01*
X1531827Y553973D01*
X1515845Y553973D01*
G37*
%LPD*%
%LPC*%
G36*
X1515845Y839723D02*
X1515845Y839723D01*
X1515977Y840561D01*
X1516468Y842070D01*
X1517188Y843483D01*
X1518121Y844767D01*
X1519243Y845889D01*
X1520527Y846822D01*
X1521940Y847542D01*
X1523449Y848033D01*
X1525017Y848281D01*
X1531827Y848281D01*
X1531827Y839723D01*
X1515845Y839723D01*
G37*
%LPD*%
%LPC*%
G36*
X1534873Y828119D02*
X1534873Y828119D01*
X1534873Y836677D01*
X1550855Y836677D01*
X1550723Y835839D01*
X1550232Y834330D01*
X1549512Y832917D01*
X1548579Y831633D01*
X1547457Y830511D01*
X1546173Y829578D01*
X1544760Y828858D01*
X1543251Y828367D01*
X1541683Y828119D01*
X1534873Y828119D01*
G37*
%LPD*%
%LPC*%
G36*
X1534873Y542369D02*
X1534873Y542369D01*
X1534873Y550927D01*
X1550855Y550927D01*
X1550723Y550089D01*
X1550232Y548580D01*
X1549512Y547167D01*
X1548579Y545883D01*
X1547457Y544761D01*
X1546173Y543828D01*
X1544760Y543108D01*
X1543251Y542617D01*
X1541683Y542369D01*
X1534873Y542369D01*
G37*
%LPD*%
%LPC*%
G36*
X1525017Y542369D02*
X1525017Y542369D01*
X1523449Y542617D01*
X1521940Y543108D01*
X1520527Y543828D01*
X1519243Y544761D01*
X1518121Y545883D01*
X1517188Y547167D01*
X1516468Y548580D01*
X1515977Y550089D01*
X1515845Y550927D01*
X1531827Y550927D01*
X1531827Y542369D01*
X1525017Y542369D01*
G37*
%LPD*%
%LPC*%
G36*
X1525017Y828119D02*
X1525017Y828119D01*
X1523449Y828367D01*
X1521940Y828858D01*
X1520527Y829578D01*
X1519243Y830511D01*
X1518121Y831633D01*
X1517188Y832917D01*
X1516468Y834330D01*
X1515977Y835839D01*
X1515845Y836677D01*
X1531827Y836677D01*
X1531827Y828119D01*
X1525017Y828119D01*
G37*
%LPD*%
%LPC*%
G36*
X52323Y692873D02*
X52323Y692873D01*
X52323Y704739D01*
X53952Y704481D01*
X55968Y703826D01*
X57856Y702864D01*
X59570Y701619D01*
X61069Y700120D01*
X62314Y698406D01*
X63276Y696518D01*
X63931Y694502D01*
X64189Y692873D01*
X52323Y692873D01*
G37*
%LPD*%
%LPC*%
G36*
X52323Y689827D02*
X52323Y689827D01*
X64189Y689827D01*
X63931Y688198D01*
X63276Y686182D01*
X62314Y684294D01*
X61069Y682580D01*
X59570Y681081D01*
X57856Y679836D01*
X55968Y678874D01*
X53952Y678219D01*
X52323Y677961D01*
X52323Y689827D01*
G37*
%LPD*%
%LPC*%
G36*
X1361223Y947673D02*
X1361223Y947673D01*
X1361223Y958691D01*
X1364895Y958691D01*
X1372241Y951345D01*
X1372241Y947673D01*
X1361223Y947673D01*
G37*
%LPD*%
%LPC*%
G36*
X1361223Y933609D02*
X1361223Y933609D01*
X1361223Y944627D01*
X1372241Y944627D01*
X1372241Y940955D01*
X1364895Y933609D01*
X1361223Y933609D01*
G37*
%LPD*%
%LPC*%
G36*
X1347159Y947673D02*
X1347159Y947673D01*
X1347159Y951345D01*
X1354505Y958691D01*
X1358177Y958691D01*
X1358177Y947673D01*
X1347159Y947673D01*
G37*
%LPD*%
%LPC*%
G36*
X1354505Y933609D02*
X1354505Y933609D01*
X1347159Y940955D01*
X1347159Y944627D01*
X1358177Y944627D01*
X1358177Y933609D01*
X1354505Y933609D01*
G37*
%LPD*%
%LPC*%
G36*
X611123Y928623D02*
X611123Y928623D01*
X611123Y937918D01*
X612158Y937754D01*
X613793Y937222D01*
X615325Y936442D01*
X616716Y935431D01*
X617931Y934216D01*
X618942Y932825D01*
X619722Y931293D01*
X620254Y929658D01*
X620418Y928623D01*
X611123Y928623D01*
G37*
%LPD*%
%LPC*%
G36*
X598782Y928623D02*
X598782Y928623D01*
X598946Y929658D01*
X599478Y931293D01*
X600258Y932825D01*
X601269Y934216D01*
X602484Y935431D01*
X603875Y936442D01*
X605407Y937222D01*
X607042Y937754D01*
X608077Y937918D01*
X608077Y928623D01*
X598782Y928623D01*
G37*
%LPD*%
%LPC*%
G36*
X1094596Y496823D02*
X1094596Y496823D01*
X1094741Y497739D01*
X1095247Y499298D01*
X1095992Y500759D01*
X1096955Y502085D01*
X1098115Y503245D01*
X1099441Y504208D01*
X1100902Y504953D01*
X1102461Y505459D01*
X1103377Y505604D01*
X1103377Y496823D01*
X1094596Y496823D01*
G37*
%LPD*%
%LPC*%
G36*
X1102461Y485141D02*
X1102461Y485141D01*
X1100902Y485647D01*
X1099441Y486392D01*
X1098115Y487355D01*
X1096955Y488515D01*
X1095992Y489841D01*
X1095247Y491302D01*
X1094741Y492861D01*
X1094596Y493777D01*
X1103377Y493777D01*
X1103377Y484996D01*
X1102461Y485141D01*
G37*
%LPD*%
%LPC*%
G36*
X1023873Y915923D02*
X1023873Y915923D01*
X1023873Y924446D01*
X1024729Y924311D01*
X1026250Y923816D01*
X1027675Y923090D01*
X1028969Y922150D01*
X1030100Y921019D01*
X1031040Y919725D01*
X1031766Y918300D01*
X1032261Y916779D01*
X1032396Y915923D01*
X1023873Y915923D01*
G37*
%LPD*%
%LPC*%
G36*
X1201673Y915923D02*
X1201673Y915923D01*
X1201673Y924446D01*
X1202529Y924311D01*
X1204050Y923816D01*
X1205475Y923090D01*
X1206769Y922150D01*
X1207900Y921019D01*
X1208840Y919725D01*
X1209566Y918300D01*
X1210061Y916779D01*
X1210196Y915923D01*
X1201673Y915923D01*
G37*
%LPD*%
%LPC*%
G36*
X1023873Y912877D02*
X1023873Y912877D01*
X1032396Y912877D01*
X1032261Y912021D01*
X1031766Y910500D01*
X1031040Y909075D01*
X1030100Y907781D01*
X1028969Y906650D01*
X1027675Y905710D01*
X1026250Y904984D01*
X1024729Y904489D01*
X1023873Y904354D01*
X1023873Y912877D01*
G37*
%LPD*%
%LPC*%
G36*
X1201673Y912877D02*
X1201673Y912877D01*
X1210196Y912877D01*
X1210061Y912021D01*
X1209566Y910500D01*
X1208840Y909075D01*
X1207900Y907781D01*
X1206769Y906650D01*
X1205475Y905710D01*
X1204050Y904984D01*
X1202529Y904489D01*
X1201673Y904354D01*
X1201673Y912877D01*
G37*
%LPD*%
%LPC*%
G36*
X686053Y833373D02*
X686053Y833373D01*
X686053Y840806D01*
X687179Y840582D01*
X688831Y839897D01*
X690319Y838903D01*
X691583Y837639D01*
X692577Y836151D01*
X693262Y834499D01*
X693486Y833373D01*
X686053Y833373D01*
G37*
%LPD*%
%LPC*%
G36*
X686053Y909573D02*
X686053Y909573D01*
X686053Y917006D01*
X687179Y916782D01*
X688831Y916097D01*
X690319Y915103D01*
X691583Y913839D01*
X692577Y912351D01*
X693262Y910699D01*
X693486Y909573D01*
X686053Y909573D01*
G37*
%LPD*%
%LPC*%
G36*
X675574Y833373D02*
X675574Y833373D01*
X675798Y834499D01*
X676483Y836151D01*
X677477Y837639D01*
X678741Y838903D01*
X680229Y839897D01*
X681881Y840582D01*
X683007Y840806D01*
X683007Y833373D01*
X675574Y833373D01*
G37*
%LPD*%
%LPC*%
G36*
X675574Y909573D02*
X675574Y909573D01*
X675798Y910699D01*
X676483Y912351D01*
X677477Y913839D01*
X678741Y915103D01*
X680229Y916097D01*
X681881Y916782D01*
X683007Y917006D01*
X683007Y909573D01*
X675574Y909573D01*
G37*
%LPD*%
%LPC*%
G36*
X686053Y830327D02*
X686053Y830327D01*
X693486Y830327D01*
X693262Y829201D01*
X692577Y827549D01*
X691583Y826061D01*
X690319Y824797D01*
X688831Y823803D01*
X687179Y823118D01*
X686053Y822894D01*
X686053Y830327D01*
G37*
%LPD*%
%LPC*%
G36*
X681881Y823118D02*
X681881Y823118D01*
X680229Y823803D01*
X678741Y824797D01*
X677477Y826061D01*
X676483Y827549D01*
X675798Y829201D01*
X675574Y830327D01*
X683007Y830327D01*
X683007Y822894D01*
X681881Y823118D01*
G37*
%LPD*%
%LPC*%
G36*
X947673Y419023D02*
X947673Y419023D01*
X947673Y426354D01*
X948770Y426136D01*
X950404Y425459D01*
X951875Y424476D01*
X953126Y423225D01*
X954109Y421754D01*
X954786Y420120D01*
X955004Y419023D01*
X947673Y419023D01*
G37*
%LPD*%
%LPC*%
G36*
X937296Y419023D02*
X937296Y419023D01*
X937514Y420120D01*
X938191Y421754D01*
X939174Y423225D01*
X940425Y424476D01*
X941896Y425459D01*
X943530Y426136D01*
X944627Y426354D01*
X944627Y419023D01*
X937296Y419023D01*
G37*
%LPD*%
%LPC*%
G36*
X947673Y415977D02*
X947673Y415977D01*
X955004Y415977D01*
X954786Y414880D01*
X954109Y413246D01*
X953126Y411775D01*
X951875Y410524D01*
X950404Y409541D01*
X948770Y408864D01*
X947673Y408646D01*
X947673Y415977D01*
G37*
%LPD*%
%LPC*%
G36*
X274573Y365177D02*
X274573Y365177D01*
X281904Y365177D01*
X281686Y364080D01*
X281009Y362446D01*
X280026Y360975D01*
X278775Y359724D01*
X277304Y358741D01*
X275670Y358064D01*
X274573Y357846D01*
X274573Y365177D01*
G37*
%LPD*%
%LPC*%
G36*
X943530Y408864D02*
X943530Y408864D01*
X941896Y409541D01*
X940425Y410524D01*
X939174Y411775D01*
X938191Y413246D01*
X937514Y414880D01*
X937296Y415977D01*
X944627Y415977D01*
X944627Y408646D01*
X943530Y408864D01*
G37*
%LPD*%
%LPC*%
G36*
X1533349Y838199D02*
X1533349Y838199D01*
X1533349Y838201D01*
X1533351Y838201D01*
X1533351Y838199D01*
X1533349Y838199D01*
G37*
%LPD*%
%LPC*%
G36*
X908049Y609599D02*
X908049Y609599D01*
X908049Y609601D01*
X908051Y609601D01*
X908051Y609599D01*
X908049Y609599D01*
G37*
%LPD*%
%LPC*%
G36*
X1308049Y609599D02*
X1308049Y609599D01*
X1308049Y609601D01*
X1308051Y609601D01*
X1308051Y609599D01*
X1308049Y609599D01*
G37*
%LPD*%
%LPC*%
G36*
X1533349Y552449D02*
X1533349Y552449D01*
X1533349Y552451D01*
X1533351Y552451D01*
X1533351Y552449D01*
X1533349Y552449D01*
G37*
%LPD*%
%LPC*%
G36*
X1359699Y946149D02*
X1359699Y946149D01*
X1359699Y946151D01*
X1359701Y946151D01*
X1359701Y946149D01*
X1359699Y946149D01*
G37*
%LPD*%
%LPC*%
G36*
X946149Y417499D02*
X946149Y417499D01*
X946149Y417501D01*
X946151Y417501D01*
X946151Y417499D01*
X946149Y417499D01*
G37*
%LPD*%
%LPC*%
G36*
X684529Y831849D02*
X684529Y831849D01*
X684529Y831851D01*
X684531Y831851D01*
X684531Y831849D01*
X684529Y831849D01*
G37*
%LPD*%
D10*
X231140Y565150D03*
D11*
X213360Y565150D03*
D10*
X751840Y552450D03*
D11*
X734060Y552450D03*
D12*
X1104900Y419100D03*
D13*
X1130300Y419100D03*
X1155700Y419100D03*
X1181100Y419100D03*
X1206500Y419100D03*
X1231900Y419100D03*
X1257300Y419100D03*
X1282700Y419100D03*
X1282700Y495300D03*
X1257300Y495300D03*
X1231900Y495300D03*
X1206500Y495300D03*
X1181100Y495300D03*
X1104900Y495300D03*
X1155700Y495300D03*
X1130300Y495300D03*
D14*
X432600Y342900D03*
X482600Y342900D03*
X532600Y342900D03*
D15*
X158750Y501650D03*
X234950Y501650D03*
D14*
X50800Y691350D03*
X50800Y641350D03*
X50800Y591350D03*
D15*
X730250Y495300D03*
X806450Y495300D03*
D14*
X635800Y342900D03*
X685800Y342900D03*
X735800Y342900D03*
D16*
X355600Y469900D03*
D17*
X355600Y495300D03*
X355600Y520700D03*
X355600Y546100D03*
X355600Y571500D03*
X355600Y596900D03*
X355600Y622300D03*
X355600Y647700D03*
X355600Y673100D03*
X355600Y698500D03*
X355600Y723900D03*
X355600Y749300D03*
X355600Y774700D03*
X355600Y800100D03*
X355600Y825500D03*
X355600Y850900D03*
X355600Y876300D03*
X355600Y901700D03*
X355600Y927100D03*
X609600Y927100D03*
X609600Y901700D03*
X609600Y876300D03*
X609600Y850900D03*
X609600Y825500D03*
X609600Y800100D03*
X609600Y774700D03*
X609600Y749300D03*
X609600Y723900D03*
X609600Y698500D03*
X609600Y673100D03*
X609600Y647700D03*
X609600Y622300D03*
X609600Y596900D03*
X609600Y571500D03*
X609600Y546100D03*
X609600Y520700D03*
X609600Y495300D03*
X609600Y469900D03*
D18*
X139700Y774700D03*
D19*
X139700Y800100D03*
X139700Y825500D03*
X139700Y850900D03*
X139700Y876300D03*
X139700Y901700D03*
X139700Y927100D03*
D20*
X1409700Y946150D03*
X1359700Y946150D03*
X1308900Y946150D03*
D21*
X1395810Y552450D02*
X1410890Y552450D01*
X1525810Y552450D02*
X1540890Y552450D01*
X1540890Y387450D02*
X1525810Y387450D01*
X1410890Y387450D02*
X1395810Y387450D01*
X1395810Y838200D02*
X1410890Y838200D01*
X1525810Y838200D02*
X1540890Y838200D01*
X1540890Y673200D02*
X1525810Y673200D01*
X1410890Y673200D02*
X1395810Y673200D01*
D22*
X895350Y417500D03*
D23*
X920750Y417500D03*
X946150Y417500D03*
X971550Y417500D03*
X971550Y496900D03*
X946150Y496900D03*
X920750Y496900D03*
X895350Y496900D03*
D24*
X684530Y933450D03*
X684530Y908050D03*
X684530Y882650D03*
X684530Y857250D03*
X684530Y831850D03*
X684530Y806450D03*
X684530Y781050D03*
X684530Y755650D03*
X684530Y730250D03*
X684530Y704850D03*
D22*
X222250Y366700D03*
D23*
X247650Y366700D03*
X273050Y366700D03*
X298450Y366700D03*
X298450Y446100D03*
X273050Y446100D03*
X247650Y446100D03*
X222250Y446100D03*
D25*
X908050Y609600D03*
X908050Y809600D03*
X1308050Y809600D03*
X1308050Y609600D03*
D26*
X996950Y914400D03*
X971550Y914400D03*
X946150Y914400D03*
X1022350Y914400D03*
X1200150Y914400D03*
X1174750Y914400D03*
X1149350Y914400D03*
D27*
X184150Y876300D02*
X139700Y876300D01*
X184150Y876300D02*
X285750Y774700D01*
X355600Y774700D01*
X177800Y850900D02*
X139700Y850900D01*
X177800Y850900D02*
X279400Y749300D01*
X355600Y749300D01*
X171450Y825500D02*
X139700Y825500D01*
X298450Y698500D02*
X355600Y698500D01*
X298450Y698500D02*
X171450Y825500D01*
X139700Y927100D02*
X25400Y812800D01*
X25400Y616750D02*
X50800Y591350D01*
X25400Y616750D02*
X25400Y812800D01*
X139700Y927100D02*
X355600Y927100D01*
X539750Y927100D01*
X577850Y965200D01*
X652780Y965200D02*
X684530Y933450D01*
X652780Y965200D02*
X577850Y965200D01*
X684530Y933450D02*
X722630Y971550D01*
X946150Y939800D02*
X946150Y914400D01*
X914400Y971550D02*
X722630Y971550D01*
X914400Y971550D02*
X946150Y939800D01*
D28*
X1555750Y336550D03*
X1555750Y958850D03*
X44450Y958850D03*
X38100Y336550D03*
D27*
X213360Y565150D02*
X213360Y669290D01*
X139700Y742950D02*
X139700Y774700D01*
X139700Y742950D02*
X213360Y669290D01*
X678180Y876300D02*
X684530Y882650D01*
X678180Y876300D02*
X609600Y876300D01*
X952500Y895350D02*
X971550Y914400D01*
X697230Y895350D02*
X684530Y882650D01*
X697230Y895350D02*
X952500Y895350D01*
X684530Y857250D02*
X673100Y857250D01*
X654050Y838200D02*
X654050Y819150D01*
X635000Y800100D01*
X609600Y800100D01*
X654050Y838200D02*
X673100Y857250D01*
X952500Y869950D02*
X996950Y914400D01*
X952500Y869950D02*
X755650Y869950D01*
X742950Y857250D01*
X684530Y857250D01*
D29*
X165100Y635000D03*
D27*
X158750Y641350D02*
X50800Y641350D01*
X158750Y641350D02*
X165100Y635000D01*
X247650Y446100D02*
X274650Y419100D01*
X920750Y558800D02*
X933450Y571500D01*
X965200Y571500D01*
X968375Y574675D01*
X977900Y584200D01*
X911250Y809600D02*
X908050Y809600D01*
X977900Y666750D02*
X977900Y584200D01*
X977900Y666750D02*
X977900Y742950D01*
X911250Y809600D01*
X660400Y419100D02*
X274650Y419100D01*
X660400Y419100D02*
X698500Y457200D01*
X736600Y666750D02*
X977900Y666750D01*
X698500Y628650D02*
X698500Y457200D01*
X698500Y628650D02*
X736600Y666750D01*
X920750Y558800D02*
X920750Y496900D01*
X968375Y574675D02*
X1120775Y574675D01*
X1155700Y539750D02*
X1155700Y495300D01*
X1152525Y542925D02*
X1120775Y574675D01*
X1152525Y542925D02*
X1155700Y539750D01*
X1152525Y542925D02*
X1152525Y619125D01*
X1295400Y762000D02*
X1435100Y762000D01*
X1460500Y787400D01*
X1460500Y895350D02*
X1409700Y946150D01*
X1295400Y762000D02*
X1152525Y619125D01*
X1460500Y787400D02*
X1460500Y895350D01*
X319100Y366700D02*
X298450Y366700D01*
X971550Y368300D02*
X971550Y361950D01*
X971550Y368300D02*
X971550Y417500D01*
X368300Y317500D02*
X319100Y366700D01*
X368300Y317500D02*
X927100Y317500D01*
X971550Y361950D01*
X971550Y368300D02*
X1022350Y317500D01*
X1092200Y317500D01*
X1117600Y317500D01*
X1155700Y355600D01*
X1155700Y419100D01*
X1308900Y946150D02*
X1340650Y977900D01*
X1416050Y977900D02*
X1485900Y908050D01*
X1485900Y711200D01*
X1422400Y317500D02*
X1117600Y317500D01*
X1340650Y977900D02*
X1416050Y977900D01*
X1485900Y711200D02*
X1460500Y685800D01*
X1460500Y355600D01*
X1422400Y317500D01*
X234950Y501650D02*
X215900Y482600D01*
X190500Y482600D02*
X171450Y463550D01*
X171450Y342900D01*
X184150Y330200D02*
X228600Y330200D01*
X247650Y349250D01*
X247650Y366700D01*
X215900Y482600D02*
X190500Y482600D01*
X171450Y342900D02*
X184150Y330200D01*
X247650Y366700D02*
X281000Y400050D01*
X532600Y350050D02*
X532600Y342900D01*
X482600Y400050D02*
X281000Y400050D01*
X482600Y400050D02*
X532600Y350050D01*
X190500Y533400D02*
X158750Y501650D01*
X231140Y542290D02*
X231140Y565150D01*
X222250Y533400D02*
X190500Y533400D01*
X222250Y533400D02*
X231140Y542290D01*
X806450Y495300D02*
X806450Y413550D01*
X796525Y403625D01*
X735800Y342900D01*
X796525Y403625D02*
X825500Y374650D01*
X901700Y374650D02*
X920750Y393700D01*
X920750Y417500D01*
X901700Y374650D02*
X825500Y374650D01*
X730250Y508000D02*
X751840Y529590D01*
X730250Y508000D02*
X730250Y495300D01*
X751840Y529590D02*
X751840Y552450D01*
D29*
X825500Y603250D03*
D27*
X734060Y594360D02*
X734060Y552450D01*
X734060Y594360D02*
X742950Y603250D01*
X825500Y603250D01*
X685800Y381000D02*
X685800Y342900D01*
X774700Y469900D02*
X774700Y514350D01*
X793750Y533400D01*
X844550Y533400D02*
X850900Y527050D01*
X850900Y476250D01*
X863600Y463550D01*
X927100Y463550D01*
X946150Y482600D01*
X946150Y496900D01*
X774700Y469900D02*
X685800Y381000D01*
X793750Y533400D02*
X844550Y533400D01*
X1130300Y527050D02*
X1130300Y495300D01*
X1130300Y527050D02*
X1111250Y546100D01*
X946150Y520700D02*
X946150Y496900D01*
X971550Y546100D02*
X1111250Y546100D01*
X971550Y546100D02*
X946150Y520700D01*
X1206500Y552450D02*
X1403350Y552450D01*
X1181100Y527050D02*
X1181100Y495300D01*
X1181100Y527050D02*
X1206500Y552450D01*
X381000Y444500D02*
X355600Y469900D01*
X381000Y444500D02*
X654050Y444500D01*
X673100Y463550D01*
X749300Y704850D02*
X749300Y768350D01*
X825500Y844550D01*
X1273100Y844550D02*
X1308050Y809600D01*
X673100Y628650D02*
X673100Y463550D01*
X673100Y628650D02*
X749300Y704850D01*
X825500Y844550D02*
X1273100Y844550D01*
M02*
