G04 EAGLE Gerber RS-274X export*
G75*
%MOMM*%
%FSLAX34Y34*%
%LPD*%
%INTop Copper*%
%IPPOS*%
%AMOC8*
5,1,8,0,0,1.08239X$1,22.5*%
G01*
%ADD10P,1.319650X8X22.500000*%
%ADD11C,1.219200*%
%ADD12R,1.575000X1.575000*%
%ADD13C,1.575000*%
%ADD14C,2.184400*%
%ADD15P,1.429621X8X22.500000*%
%ADD16R,1.676400X1.676400*%
%ADD17C,1.676400*%
%ADD18P,2.089446X8X22.500000*%
%ADD19C,1.930400*%
%ADD20P,2.164780X8X202.500000*%
%ADD21C,1.508000*%
%ADD22R,1.288000X1.288000*%
%ADD23C,1.288000*%
%ADD24C,1.308000*%
%ADD25R,3.000000X3.000000*%
%ADD26C,1.524000*%
%ADD27C,4.016000*%
%ADD28C,1.905000*%
%ADD29C,0.812800*%


D10*
X231140Y565150D03*
D11*
X213360Y565150D03*
D10*
X751840Y552450D03*
D11*
X734060Y552450D03*
D12*
X1104900Y419100D03*
D13*
X1130300Y419100D03*
X1155700Y419100D03*
X1181100Y419100D03*
X1206500Y419100D03*
X1231900Y419100D03*
X1257300Y419100D03*
X1282700Y419100D03*
X1282700Y495300D03*
X1257300Y495300D03*
X1231900Y495300D03*
X1206500Y495300D03*
X1181100Y495300D03*
X1104900Y495300D03*
X1155700Y495300D03*
X1130300Y495300D03*
D14*
X432600Y342900D03*
X482600Y342900D03*
X532600Y342900D03*
D15*
X158750Y501650D03*
X234950Y501650D03*
D14*
X50800Y691350D03*
X50800Y641350D03*
X50800Y591350D03*
D15*
X730250Y495300D03*
X806450Y495300D03*
D14*
X635800Y342900D03*
X685800Y342900D03*
X735800Y342900D03*
D16*
X355600Y469900D03*
D17*
X355600Y495300D03*
X355600Y520700D03*
X355600Y546100D03*
X355600Y571500D03*
X355600Y596900D03*
X355600Y622300D03*
X355600Y647700D03*
X355600Y673100D03*
X355600Y698500D03*
X355600Y723900D03*
X355600Y749300D03*
X355600Y774700D03*
X355600Y800100D03*
X355600Y825500D03*
X355600Y850900D03*
X355600Y876300D03*
X355600Y901700D03*
X355600Y927100D03*
X609600Y927100D03*
X609600Y901700D03*
X609600Y876300D03*
X609600Y850900D03*
X609600Y825500D03*
X609600Y800100D03*
X609600Y774700D03*
X609600Y749300D03*
X609600Y723900D03*
X609600Y698500D03*
X609600Y673100D03*
X609600Y647700D03*
X609600Y622300D03*
X609600Y596900D03*
X609600Y571500D03*
X609600Y546100D03*
X609600Y520700D03*
X609600Y495300D03*
X609600Y469900D03*
D18*
X139700Y774700D03*
D19*
X139700Y800100D03*
X139700Y825500D03*
X139700Y850900D03*
X139700Y876300D03*
X139700Y901700D03*
X139700Y927100D03*
D20*
X1409700Y946150D03*
X1359700Y946150D03*
X1308900Y946150D03*
D21*
X1395810Y552450D02*
X1410890Y552450D01*
X1525810Y552450D02*
X1540890Y552450D01*
X1540890Y387450D02*
X1525810Y387450D01*
X1410890Y387450D02*
X1395810Y387450D01*
X1395810Y838200D02*
X1410890Y838200D01*
X1525810Y838200D02*
X1540890Y838200D01*
X1540890Y673200D02*
X1525810Y673200D01*
X1410890Y673200D02*
X1395810Y673200D01*
D22*
X895350Y417500D03*
D23*
X920750Y417500D03*
X946150Y417500D03*
X971550Y417500D03*
X971550Y496900D03*
X946150Y496900D03*
X920750Y496900D03*
X895350Y496900D03*
D24*
X684530Y933450D03*
X684530Y908050D03*
X684530Y882650D03*
X684530Y857250D03*
X684530Y831850D03*
X684530Y806450D03*
X684530Y781050D03*
X684530Y755650D03*
X684530Y730250D03*
X684530Y704850D03*
D22*
X222250Y366700D03*
D23*
X247650Y366700D03*
X273050Y366700D03*
X298450Y366700D03*
X298450Y446100D03*
X273050Y446100D03*
X247650Y446100D03*
X222250Y446100D03*
D25*
X908050Y609600D03*
X908050Y809600D03*
X1308050Y809600D03*
X1308050Y609600D03*
D26*
X996950Y914400D03*
X971550Y914400D03*
X946150Y914400D03*
X1022350Y914400D03*
X1200150Y914400D03*
X1174750Y914400D03*
X1149350Y914400D03*
D27*
X1555750Y336550D03*
X1555750Y958850D03*
X44450Y958850D03*
X38100Y336550D03*
D28*
X165100Y635000D03*
D29*
X234950Y704850D01*
X234950Y946150D01*
X273050Y984250D01*
X654050Y965200D02*
X654050Y787400D01*
X660400Y781050D01*
X684530Y781050D01*
X635000Y984250D02*
X273050Y984250D01*
X635000Y984250D02*
X654050Y965200D01*
X273050Y446100D02*
X273050Y419100D01*
X292100Y400050D01*
X425450Y400050D01*
X482600Y342900D01*
X520700Y381000D01*
X927100Y381000D02*
X965200Y342900D01*
X1073150Y342900D01*
X1104900Y374650D01*
X1104900Y419100D01*
X927100Y381000D02*
X520700Y381000D01*
D28*
X825500Y603250D03*
D29*
X869950Y647700D01*
X1403350Y787400D02*
X1403350Y838200D01*
X1263650Y647700D02*
X869950Y647700D01*
X1263650Y647700D02*
X1403350Y787400D01*
X660400Y571500D02*
X609600Y571500D01*
X1174750Y876300D02*
X1174750Y914400D01*
X749300Y660400D02*
X660400Y571500D01*
X749300Y660400D02*
X958850Y660400D01*
X1174750Y876300D01*
M02*
