M48
;GenerationSoftware,Autodesk,EAGLE,9.6.2*%
;CreationDate,2023-11-30T11:37:23Z*%
FMAT,2
ICI,OFF
METRIC,TZ,000.000
T12C0.711
T11C0.780
T10C0.800
T9C0.813
T8C1.000
T7C1.016
T6C1.050
T5C1.200
T4C1.270
T3C2.000
T2C3.000
T1C3.200
%
G90
M71
T1
X81153Y93345
X81153Y70485
T2
X155575Y33655
X155575Y95885
X4445Y95885
X3810Y33655
T3
X130805Y80960
X90805Y60960
X90805Y80960
X130805Y60960
T4
X16510Y63500
X82550Y60325
T5
X73580Y34290
X63580Y34290
X43260Y34290
X48260Y34290
X53260Y34290
X5080Y69135
X5080Y64135
X5080Y59135
X68580Y34290
T6
X110490Y41910
X113030Y41910
X115570Y41910
X118110Y41910
X120650Y41910
X123190Y41910
X125730Y41910
X125730Y49530
X128270Y49530
X115570Y49530
X113030Y49530
X120650Y49530
X128270Y41910
X123190Y49530
X118110Y49530
X110490Y49530
T7
X94615Y91440
X97155Y91440
X99695Y91440
X114935Y91440
X102235Y91440
X120015Y91440
X117475Y91440
T8
X35560Y54610
X35560Y57150
X35560Y59690
X35560Y62230
X35560Y64770
X35560Y67310
X35560Y69850
X35560Y72390
X35560Y74930
X35560Y77470
X35560Y80010
X35560Y82550
X35560Y85090
X35560Y87630
X35560Y90170
X35560Y92710
X60960Y92710
X60960Y90170
X60960Y87630
X60960Y85090
X60960Y82550
X60960Y80010
X60960Y77470
X60960Y74930
X60960Y72390
X60960Y69850
X60960Y67310
X60960Y64770
X60960Y62230
X60960Y59690
X60960Y57150
X60960Y54610
X60960Y52070
X60960Y49530
X60960Y46990
X140970Y94615
X135970Y94615
X130890Y94615
X140335Y55245
X153335Y55245
X153335Y38745
X140335Y38745
X140335Y83820
X153335Y83820
X153335Y67320
X140335Y67320
X35560Y46990
X35560Y49530
X35560Y52070
T9
X80645Y49530
X15875Y50165
X23495Y50165
X73025Y49530
T10
X13970Y77470
X13970Y80010
X13970Y82550
X13970Y85090
X68453Y70485
X13970Y87630
X13970Y90170
X13970Y92710
X68453Y93345
X68453Y90805
X68453Y88265
X68453Y85725
X68453Y83185
X68453Y80645
X68453Y78105
X68453Y75565
X68453Y73025
T11
X89535Y41750
X92075Y41750
X94615Y41750
X97155Y41750
X29845Y36670
X29845Y44610
X27305Y44610
X24765Y44610
X22225Y44610
X89535Y49690
X92075Y49690
X94615Y49690
X22225Y36670
X24765Y36670
X97155Y49690
X27305Y36670
T12
X73406Y55245
X75184Y55245
X21336Y56515
X23114Y56515
M30